<svg xmlns="http://www.w3.org/2000/svg" width="1360" height="560" viewBox="0 0 1360 560" role="img" aria-label="Curvature-Aware ADMM Admm Final Primal Residual">
<title>Curvature-Aware ADMM Admm Final Primal Residual</title>
<rect width="1360" height="560" fill="#ffffff"/>
<text x="82" y="28" font-size="20" font-family="Arial" font-weight="700">Curvature-Aware ADMM Admm Final Primal Residual</text>
<text x="18" y="258.0" transform="rotate(-90 18 258.0)" font-size="12" font-family="Arial">ADMM final primal residual</text>
<line x1="82" x2="1336" y1="460.00" y2="460.00" stroke="#e5e7eb"/>
<text x="74" y="464.00" text-anchor="end" font-size="11" font-family="Arial" fill="#4b5563">1e-1</text>
<line x1="82" x2="1336" y1="359.00" y2="359.00" stroke="#e5e7eb"/>
<text x="74" y="363.00" text-anchor="end" font-size="11" font-family="Arial" fill="#4b5563">1e0</text>
<line x1="82" x2="1336" y1="258.00" y2="258.00" stroke="#e5e7eb"/>
<text x="74" y="262.00" text-anchor="end" font-size="11" font-family="Arial" fill="#4b5563">1e0</text>
<line x1="82" x2="1336" y1="157.00" y2="157.00" stroke="#e5e7eb"/>
<text x="74" y="161.00" text-anchor="end" font-size="11" font-family="Arial" fill="#4b5563">1e0</text>
<line x1="82" x2="1336" y1="56.00" y2="56.00" stroke="#e5e7eb"/>
<text x="74" y="60.00" text-anchor="end" font-size="11" font-family="Arial" fill="#4b5563">1e1</text>
<text x="709.00" y="506" text-anchor="middle" font-size="12" font-family="Arial">tiny llm ptq</text>
<rect x="90.00" y="227.99" width="152.75" height="232.01" fill="#9c755f"><title>tiny_llm_ptq / admm_awq_like_fixed10: 1.408</title></rect>
<rect x="244.75" y="282.71" width="152.75" height="177.29" fill="#8c6d31"><title>tiny_llm_ptq / admm_awq_like_online_aggressive: 0.7545</title></rect>
<rect x="399.50" y="225.77" width="152.75" height="234.23" fill="#d37295"><title>tiny_llm_ptq / admm_gptq_like_fixed10: 1.444</title></rect>
<rect x="554.25" y="319.83" width="152.75" height="140.17" fill="#6f63b6"><title>tiny_llm_ptq / admm_gptq_like_online_aggressive: 0.4942</title></rect>
<rect x="709.00" y="242.66" width="152.75" height="217.34" fill="#76b7b2"><title>tiny_llm_ptq / admm_hessian_diag_fixed10: 1.191</title></rect>
<rect x="863.75" y="297.11" width="152.75" height="162.89" fill="#2f8f6b"><title>tiny_llm_ptq / admm_hessian_diag_online_aggressive: 0.6403</title></rect>
<rect x="1018.50" y="189.33" width="152.75" height="270.67" fill="#b07aa1"><title>tiny_llm_ptq / admm_uniform_fixed10: 2.187</title></rect>
<rect x="1173.25" y="251.67" width="152.75" height="208.33" fill="#111827"><title>tiny_llm_ptq / admm_uniform_online_aggressive: 1.075</title></rect>
<rect x="82" y="520" width="10" height="10" fill="#9c755f"/>
<text x="97" y="530" font-size="11" font-family="Arial">admm_awq_like_fixed10</text>
<rect x="227" y="520" width="10" height="10" fill="#8c6d31"/>
<text x="242" y="530" font-size="11" font-family="Arial">admm_awq_like_online_aggressive</text>
<rect x="372" y="520" width="10" height="10" fill="#d37295"/>
<text x="387" y="530" font-size="11" font-family="Arial">admm_gptq_like_fixed10</text>
<rect x="517" y="520" width="10" height="10" fill="#6f63b6"/>
<text x="532" y="530" font-size="11" font-family="Arial">admm_gptq_like_online_aggressive</text>
<rect x="662" y="520" width="10" height="10" fill="#76b7b2"/>
<text x="677" y="530" font-size="11" font-family="Arial">admm_hessian_diag_fixed10</text>
<rect x="807" y="520" width="10" height="10" fill="#2f8f6b"/>
<text x="822" y="530" font-size="11" font-family="Arial">admm_hessian_diag_online_aggressive</text>
<rect x="952" y="520" width="10" height="10" fill="#b07aa1"/>
<text x="967" y="530" font-size="11" font-family="Arial">admm_uniform_fixed10</text>
<rect x="1097" y="520" width="10" height="10" fill="#111827"/>
<text x="1112" y="530" font-size="11" font-family="Arial">admm_uniform_online_aggressive</text>
</svg>
