<svg xmlns="http://www.w3.org/2000/svg" width="1180" height="520" viewBox="0 0 1180 520" role="img" aria-label="LLM PTQ Baseline Deploy Relative Error">
<title>LLM PTQ Baseline Deploy Relative Error</title>
<rect width="1180" height="520" fill="#ffffff"/>
<text x="82" y="28" font-size="20" font-family="Arial" font-weight="700">LLM PTQ Baseline Deploy Relative Error</text>
<text x="18" y="238.0" transform="rotate(-90 18 238.0)" font-size="12" font-family="Arial">deploy relative error</text>
<line x1="82" x2="1156" y1="420.00" y2="420.00" stroke="#e5e7eb"/>
<text x="74" y="424.00" text-anchor="end" font-size="11" font-family="Arial" fill="#4b5563">0</text>
<line x1="82" x2="1156" y1="329.00" y2="329.00" stroke="#e5e7eb"/>
<text x="74" y="333.00" text-anchor="end" font-size="11" font-family="Arial" fill="#4b5563">0.087</text>
<line x1="82" x2="1156" y1="238.00" y2="238.00" stroke="#e5e7eb"/>
<text x="74" y="242.00" text-anchor="end" font-size="11" font-family="Arial" fill="#4b5563">0.17</text>
<line x1="82" x2="1156" y1="147.00" y2="147.00" stroke="#e5e7eb"/>
<text x="74" y="151.00" text-anchor="end" font-size="11" font-family="Arial" fill="#4b5563">0.26</text>
<line x1="82" x2="1156" y1="56.00" y2="56.00" stroke="#e5e7eb"/>
<text x="74" y="60.00" text-anchor="end" font-size="11" font-family="Arial" fill="#4b5563">0.35</text>
<text x="619.00" y="466" text-anchor="middle" font-size="12" font-family="Arial">tiny llm ptq</text>
<rect x="90.00" y="129.12" width="115.56" height="290.88" fill="#b07aa1"><title>tiny_llm_ptq / admm_fixed_rho_10: 0.2782</title></rect>
<rect x="207.56" y="154.12" width="115.56" height="265.88" fill="#111827"><title>tiny_llm_ptq / admm_task_feas_aggressive: 0.2543</title></rect>
<rect x="325.11" y="89.09" width="115.56" height="330.91" fill="#d37295"><title>tiny_llm_ptq / admm_task_feasibility: 0.3164</title></rect>
<rect x="442.67" y="156.47" width="115.56" height="263.53" fill="#f28e2b"><title>tiny_llm_ptq / awq_like_scale_grid: 0.252</title></rect>
<rect x="560.22" y="420.00" width="115.56" height="0.00" fill="#9ca3af"><title>tiny_llm_ptq / fp16_reference: 1e-12</title></rect>
<rect x="677.78" y="205.77" width="115.56" height="214.23" fill="#e15759"><title>tiny_llm_ptq / gptq_like_sequential: 0.2049</title></rect>
<rect x="795.33" y="187.88" width="115.56" height="232.12" fill="#59a14f"><title>tiny_llm_ptq / hessian_diag_clip: 0.222</title></rect>
<rect x="912.89" y="156.47" width="115.56" height="263.53" fill="#4e79a7"><title>tiny_llm_ptq / rtn_per_channel: 0.252</title></rect>
<rect x="1030.44" y="156.47" width="115.56" height="263.53" fill="#edc948"><title>tiny_llm_ptq / smoothquant_like_scale_grid: 0.252</title></rect>
<rect x="82" y="480" width="10" height="10" fill="#b07aa1"/>
<text x="97" y="490" font-size="11" font-family="Arial">admm_fixed_rho_10</text>
<rect x="227" y="480" width="10" height="10" fill="#111827"/>
<text x="242" y="490" font-size="11" font-family="Arial">admm_task_feas_aggressive</text>
<rect x="372" y="480" width="10" height="10" fill="#d37295"/>
<text x="387" y="490" font-size="11" font-family="Arial">admm_task_feasibility</text>
<rect x="517" y="480" width="10" height="10" fill="#f28e2b"/>
<text x="532" y="490" font-size="11" font-family="Arial">awq_like_scale_grid</text>
<rect x="662" y="480" width="10" height="10" fill="#9ca3af"/>
<text x="677" y="490" font-size="11" font-family="Arial">fp16_reference</text>
<rect x="807" y="480" width="10" height="10" fill="#e15759"/>
<text x="822" y="490" font-size="11" font-family="Arial">gptq_like_sequential</text>
<rect x="952" y="480" width="10" height="10" fill="#59a14f"/>
<text x="967" y="490" font-size="11" font-family="Arial">hessian_diag_clip</text>
<rect x="1097" y="480" width="10" height="10" fill="#4e79a7"/>
<text x="1112" y="490" font-size="11" font-family="Arial">rtn_per_channel</text>
<rect x="1242" y="480" width="10" height="10" fill="#edc948"/>
<text x="1257" y="490" font-size="11" font-family="Arial">smoothquant_like_scale_grid</text>
</svg>
