<svg xmlns="http://www.w3.org/2000/svg" width="1180" height="520" viewBox="0 0 1180 520" role="img" aria-label="LLM PTQ Baseline Admm Final Primal Residual">
<title>LLM PTQ Baseline Admm Final Primal Residual</title>
<rect width="1180" height="520" fill="#ffffff"/>
<text x="82" y="28" font-size="20" font-family="Arial" font-weight="700">LLM PTQ Baseline Admm Final Primal Residual</text>
<text x="18" y="238.0" transform="rotate(-90 18 238.0)" font-size="12" font-family="Arial">ADMM final primal residual</text>
<line x1="82" x2="1156" y1="420.00" y2="420.00" stroke="#e5e7eb"/>
<text x="74" y="424.00" text-anchor="end" font-size="11" font-family="Arial" fill="#4b5563">1e0</text>
<line x1="82" x2="1156" y1="329.00" y2="329.00" stroke="#e5e7eb"/>
<text x="74" y="333.00" text-anchor="end" font-size="11" font-family="Arial" fill="#4b5563">1e0</text>
<line x1="82" x2="1156" y1="238.00" y2="238.00" stroke="#e5e7eb"/>
<text x="74" y="242.00" text-anchor="end" font-size="11" font-family="Arial" fill="#4b5563">1e0</text>
<line x1="82" x2="1156" y1="147.00" y2="147.00" stroke="#e5e7eb"/>
<text x="74" y="151.00" text-anchor="end" font-size="11" font-family="Arial" fill="#4b5563">1e0</text>
<line x1="82" x2="1156" y1="56.00" y2="56.00" stroke="#e5e7eb"/>
<text x="74" y="60.00" text-anchor="end" font-size="11" font-family="Arial" fill="#4b5563">1e1</text>
<text x="619.00" y="466" text-anchor="middle" font-size="12" font-family="Arial">tiny llm ptq</text>
<rect x="90.00" y="296.26" width="350.67" height="123.74" fill="#b07aa1"><title>tiny_llm_ptq / admm_fixed_rho_10: 2.187</title></rect>
<rect x="442.67" y="408.60" width="350.67" height="11.40" fill="#111827"><title>tiny_llm_ptq / admm_task_feas_aggressive: 1.075</title></rect>
<rect x="795.33" y="142.28" width="350.67" height="277.72" fill="#d37295"><title>tiny_llm_ptq / admm_task_feasibility: 5.794</title></rect>
<rect x="82" y="480" width="10" height="10" fill="#b07aa1"/>
<text x="97" y="490" font-size="11" font-family="Arial">admm_fixed_rho_10</text>
<rect x="227" y="480" width="10" height="10" fill="#111827"/>
<text x="242" y="490" font-size="11" font-family="Arial">admm_task_feas_aggressive</text>
<rect x="372" y="480" width="10" height="10" fill="#d37295"/>
<text x="387" y="490" font-size="11" font-family="Arial">admm_task_feasibility</text>
</svg>
