<svg xmlns="http://www.w3.org/2000/svg" width="1180" height="520" viewBox="0 0 1180 520" role="img" aria-label="Tiny Llm Ptq Vector Rho Final Rho">
<title>Tiny Llm Ptq Vector Rho Final Rho</title>
<rect width="1180" height="520" fill="#ffffff"/>
<text x="84" y="30" font-size="20" font-family="Arial" font-weight="700">Tiny Llm Ptq Vector Rho Final Rho</text>
<text x="507.0" y="506" text-anchor="middle" font-size="12" font-family="Arial">initial rho</text>
<text x="18" y="251.0" transform="rotate(-90 18 251.0)" font-size="12" font-family="Arial">final rho</text>
<line x1="84" x2="930" y1="448.00" y2="448.00" stroke="#e5e7eb"/>
<text x="76" y="452.00" text-anchor="end" font-size="11" font-family="Arial" fill="#4b5563">1e-1</text>
<line x1="84" x2="930" y1="349.50" y2="349.50" stroke="#e5e7eb"/>
<text x="76" y="353.50" text-anchor="end" font-size="11" font-family="Arial" fill="#4b5563">1e0</text>
<line x1="84" x2="930" y1="251.00" y2="251.00" stroke="#e5e7eb"/>
<text x="76" y="255.00" text-anchor="end" font-size="11" font-family="Arial" fill="#4b5563">1e0</text>
<line x1="84" x2="930" y1="152.50" y2="152.50" stroke="#e5e7eb"/>
<text x="76" y="156.50" text-anchor="end" font-size="11" font-family="Arial" fill="#4b5563">1e0</text>
<line x1="84" x2="930" y1="54.00" y2="54.00" stroke="#e5e7eb"/>
<text x="76" y="58.00" text-anchor="end" font-size="11" font-family="Arial" fill="#4b5563">1e1</text>
<line x1="84.00" x2="84.00" y1="54" y2="448" stroke="#f3f4f6"/>
<text x="84.00" y="468" text-anchor="middle" font-size="11" font-family="Arial" fill="#4b5563">0.01</text>
<line x1="295.50" x2="295.50" y1="54" y2="448" stroke="#f3f4f6"/>
<text x="295.50" y="468" text-anchor="middle" font-size="11" font-family="Arial" fill="#4b5563">0.1</text>
<line x1="507.00" x2="507.00" y1="54" y2="448" stroke="#f3f4f6"/>
<text x="507.00" y="468" text-anchor="middle" font-size="11" font-family="Arial" fill="#4b5563">1</text>
<line x1="718.50" x2="718.50" y1="54" y2="448" stroke="#f3f4f6"/>
<text x="718.50" y="468" text-anchor="middle" font-size="11" font-family="Arial" fill="#4b5563">10</text>
<line x1="930.00" x2="930.00" y1="54" y2="448" stroke="#f3f4f6"/>
<text x="930.00" y="468" text-anchor="middle" font-size="11" font-family="Arial" fill="#4b5563">100</text>
<polyline points="84.00,280.70 295.50,279.62 507.00,278.94 718.50,278.36 930.00,277.88" fill="none" stroke="#111827" stroke-width="2.4" stroke-linejoin="round" stroke-linecap="round"><title>vector_online_ogd</title></polyline>
<polyline points="84.00,279.45 295.50,264.11 507.00,256.30 718.50,255.17 930.00,252.54" fill="none" stroke="#4e79a7" stroke-width="2.4" stroke-linejoin="round" stroke-linecap="round"><title>vector_task_aware</title></polyline>
<polyline points="84.00,234.36 295.50,211.48 507.00,192.07 718.50,183.34 930.00,172.97" fill="none" stroke="#e15759" stroke-width="2.4" stroke-linejoin="round" stroke-linecap="round"><title>vector_task_feasibility</title></polyline>
<line x1="952" x2="968" y1="58" y2="58" stroke="#111827" stroke-width="3"/>
<text x="974" y="62" font-size="11" font-family="Arial">vector_online_ogd</text>
<line x1="952" x2="968" y1="80" y2="80" stroke="#4e79a7" stroke-width="3"/>
<text x="974" y="84" font-size="11" font-family="Arial">vector_task_aware</text>
<line x1="952" x2="968" y1="102" y2="102" stroke="#e15759" stroke-width="3"/>
<text x="974" y="106" font-size="11" font-family="Arial">vector_task_feasibility</text>
</svg>
