<svg xmlns="http://www.w3.org/2000/svg" width="1420" height="560" viewBox="0 0 1420 560" role="img" aria-label="Tiny Llm Ptq Deploy Rel Error">
<title>Tiny Llm Ptq Deploy Rel Error</title>
<rect width="1420" height="560" fill="#ffffff"/>
<text x="78" y="28" font-size="20" font-family="Arial" font-weight="700">Tiny Llm Ptq Deploy Rel Error</text>
<text x="673.0" y="548" text-anchor="middle" font-size="12" font-family="Arial">ADMM iteration</text>
<text x="18" y="277.0" transform="rotate(-90 18 277.0)" font-size="12" font-family="Arial">deploy relative error</text>
<line x1="78" x2="1268" y1="498.00" y2="498.00" stroke="#e5e7eb"/>
<text x="70" y="502.00" text-anchor="end" font-size="11" font-family="Arial" fill="#4b5563">1e-1</text>
<line x1="78" x2="1268" y1="387.50" y2="387.50" stroke="#e5e7eb"/>
<text x="70" y="391.50" text-anchor="end" font-size="11" font-family="Arial" fill="#4b5563">1e0</text>
<line x1="78" x2="1268" y1="277.00" y2="277.00" stroke="#e5e7eb"/>
<text x="70" y="281.00" text-anchor="end" font-size="11" font-family="Arial" fill="#4b5563">1e0</text>
<line x1="78" x2="1268" y1="166.50" y2="166.50" stroke="#e5e7eb"/>
<text x="70" y="170.50" text-anchor="end" font-size="11" font-family="Arial" fill="#4b5563">1e0</text>
<line x1="78" x2="1268" y1="56.00" y2="56.00" stroke="#e5e7eb"/>
<text x="70" y="60.00" text-anchor="end" font-size="11" font-family="Arial" fill="#4b5563">1e0</text>
<line x1="78.00" x2="78.00" y1="56" y2="498" stroke="#f3f4f6"/>
<text x="78.00" y="516" text-anchor="middle" font-size="11" font-family="Arial" fill="#4b5563">1</text>
<line x1="375.50" x2="375.50" y1="56" y2="498" stroke="#f3f4f6"/>
<text x="375.50" y="516" text-anchor="middle" font-size="11" font-family="Arial" fill="#4b5563">25</text>
<line x1="673.00" x2="673.00" y1="56" y2="498" stroke="#f3f4f6"/>
<text x="673.00" y="516" text-anchor="middle" font-size="11" font-family="Arial" fill="#4b5563">50</text>
<line x1="970.50" x2="970.50" y1="56" y2="498" stroke="#f3f4f6"/>
<text x="970.50" y="516" text-anchor="middle" font-size="11" font-family="Arial" fill="#4b5563">75</text>
<line x1="1268.00" x2="1268.00" y1="56" y2="498" stroke="#f3f4f6"/>
<text x="1268.00" y="516" text-anchor="middle" font-size="11" font-family="Arial" fill="#4b5563">100</text>
<polyline points="78.00,323.87 90.02,240.37 102.04,244.76 114.06,250.79 126.08,250.61 138.10,256.45 150.12,251.68 162.14,251.22 174.16,254.56 186.18,255.90 198.20,249.69 210.22,256.82 222.24,253.27 234.26,253.22 246.28,256.59 258.30,253.32 270.32,253.44 282.34,252.65 294.36,255.85 306.38,252.07 318.40,253.56 330.42,253.69 342.44,253.00 354.46,254.88 366.48,255.46 378.51,252.68 390.53,254.47 402.55,254.04 414.57,249.07 426.59,255.20 438.61,255.30 450.63,252.97 462.65,254.26 474.67,254.02 486.69,253.57 498.71,257.07 510.73,252.26 522.75,254.19 534.77,253.40 546.79,255.34 558.81,251.06 570.83,254.95 582.85,252.58 594.87,254.46 606.89,259.75 618.91,251.03 630.93,252.96 642.95,257.06 654.97,255.07 666.99,253.16 679.01,251.99 691.03,253.36 703.05,253.23 715.07,254.55 727.09,256.81 739.11,252.00 751.13,258.69 763.15,251.61 775.17,252.15 787.19,254.29 799.21,253.67 811.23,254.34 823.25,255.21 835.27,252.14 847.29,256.23 859.31,255.23 871.33,252.61 883.35,255.10 895.37,253.52 907.39,251.61 919.41,253.44 931.43,256.98 943.45,255.42 955.47,252.72 967.49,252.97 979.52,249.75 991.54,253.89 1003.56,257.25 1015.58,252.07 1027.60,254.02 1039.62,255.45 1051.64,250.77 1063.66,248.73 1075.68,258.64 1087.70,253.92 1099.72,251.45 1111.74,255.26 1123.76,254.17 1135.78,252.73 1147.80,254.08 1159.82,256.29 1171.84,253.26 1183.86,252.06 1195.88,255.01 1207.90,250.77 1219.92,257.94 1231.94,254.28 1243.96,252.02 1255.98,255.34 1268.00,253.94" fill="none" stroke="#4e79a7" stroke-width="2" stroke-linejoin="round" stroke-linecap="round"><title>fixed_rho_0p1</title></polyline>
<polyline points="78.00,323.56 90.02,310.53 102.04,303.79 114.06,305.78 126.08,304.37 138.10,304.92 150.12,305.80 162.14,305.93 174.16,303.46 186.18,310.41 198.20,302.18 210.22,305.59 222.24,308.29 234.26,306.02 246.28,302.66 258.30,309.38 270.32,304.04 282.34,307.49 294.36,304.50 306.38,306.05 318.40,306.55 330.42,308.82 342.44,299.95 354.46,303.33 366.48,310.78 378.51,303.49 390.53,305.48 402.55,309.92 414.57,301.77 426.59,305.90 438.61,304.68 450.63,305.56 462.65,309.03 474.67,309.26 486.69,298.70 498.71,305.99 510.73,309.71 522.75,306.62 534.77,299.89 546.79,305.90 558.81,304.73 570.83,306.96 582.85,308.56 594.87,305.07 606.89,305.33 618.91,311.28 630.93,299.47 642.95,301.23 654.97,309.97 666.99,306.40 679.01,302.37 691.03,313.40 703.05,304.25 715.07,302.77 727.09,304.41 739.11,303.52 751.13,310.28 763.15,307.80 775.17,298.60 787.19,306.03 799.21,309.89 811.23,304.83 823.25,300.96 835.27,310.08 847.29,305.71 859.31,306.72 871.33,304.32 883.35,305.43 895.37,305.19 907.39,307.71 919.41,299.58 931.43,304.70 943.45,312.08 955.47,303.29 967.49,305.30 979.52,307.46 991.54,304.10 1003.56,306.06 1015.58,302.23 1027.60,305.93 1039.62,309.08 1051.64,309.02 1063.66,300.40 1075.68,302.14 1087.70,311.81 1099.72,308.27 1111.74,298.70 1123.76,308.66 1135.78,302.24 1147.80,304.01 1159.82,306.34 1171.84,308.83 1183.86,308.59 1195.88,306.89 1207.90,298.98 1219.92,303.94 1231.94,311.74 1243.96,302.75 1255.98,302.31 1268.00,311.75" fill="none" stroke="#e15759" stroke-width="2" stroke-linejoin="round" stroke-linecap="round"><title>fixed_rho_10</title></polyline>
<polyline points="78.00,324.10 90.02,265.93 102.04,260.90 114.06,265.51 126.08,265.19 138.10,271.14 150.12,266.22 162.14,263.23 174.16,267.97 186.18,268.06 198.20,261.99 210.22,273.69 222.24,268.38 234.26,264.35 246.28,263.93 258.30,270.69 270.32,265.13 282.34,272.23 294.36,265.17 306.38,264.19 318.40,267.33 330.42,271.23 342.44,258.43 354.46,268.18 366.48,271.33 378.51,266.07 390.53,266.12 402.55,266.62 414.57,266.45 426.59,273.14 438.61,263.56 450.63,263.61 462.65,268.84 474.67,269.82 486.69,263.25 498.71,269.47 510.73,269.32 522.75,265.85 534.77,263.21 546.79,269.39 558.81,268.49 570.83,267.83 582.85,267.12 594.87,262.20 606.89,270.28 618.91,272.32 630.93,261.78 642.95,265.25 654.97,271.00 666.99,270.45 679.01,265.10 691.03,269.31 703.05,264.88 715.07,266.59 727.09,268.78 739.11,267.72 751.13,269.47 763.15,270.47 775.17,262.15 787.19,263.46 799.21,272.64 811.23,267.34 823.25,263.25 835.27,264.46 847.29,268.40 859.31,269.03 871.33,267.61 883.35,266.12 895.37,267.24 907.39,268.95 919.41,264.48 931.43,269.98 943.45,268.58 955.47,264.79 967.49,265.98 979.52,269.61 991.54,264.44 1003.56,270.26 1015.58,266.98 1027.60,266.63 1039.62,268.86 1051.64,268.72 1063.66,262.45 1075.68,268.40 1087.70,272.46 1099.72,266.50 1111.74,263.88 1123.76,270.71 1135.78,267.81 1147.80,266.30 1159.82,268.91 1171.84,266.98 1183.86,263.05 1195.88,270.53 1207.90,262.46 1219.92,269.77 1231.94,271.24 1243.96,268.30 1255.98,261.45 1268.00,269.97" fill="none" stroke="#59a14f" stroke-width="2" stroke-linejoin="round" stroke-linecap="round"><title>fixed_rho_1</title></polyline>
<polyline points="78.00,324.10 90.02,265.93 102.04,260.90 114.06,265.51 126.08,265.19 138.10,274.60 150.12,264.66 162.14,263.53 174.16,268.16 186.18,267.65 198.20,259.22 210.22,273.12 222.24,268.54 234.26,265.77 246.28,264.17 258.30,265.85 270.32,265.21 282.34,271.14 294.36,268.36 306.38,263.14 318.40,265.65 330.42,267.64 342.44,259.01 354.46,267.24 366.48,271.85 378.51,263.68 390.53,265.32 402.55,265.16 414.57,269.62 426.59,268.24 438.61,263.25 450.63,264.05 462.65,267.44 474.67,266.08 486.69,264.96 498.71,265.57 510.73,271.61 522.75,264.30 534.77,260.87 546.79,268.27 558.81,266.41 570.83,265.24 582.85,267.23 594.87,263.33 606.89,265.95 618.91,267.97 630.93,263.10 642.95,262.86 654.97,272.19 666.99,267.27 679.01,260.80 691.03,265.78 703.05,265.80 715.07,269.12 727.09,265.91 739.11,265.43 751.13,268.44 763.15,266.49 775.17,259.09 787.19,267.27 799.21,267.69 811.23,266.47 823.25,260.11 835.27,263.29 847.29,267.64 859.31,270.30 871.33,265.55 883.35,265.04 895.37,264.31 907.39,265.92 919.41,261.18 931.43,267.63 943.45,268.09 955.47,265.08 967.49,263.45 979.52,263.84 991.54,266.01 1003.56,267.87 1015.58,260.13 1027.60,268.04 1039.62,266.17 1051.64,267.85 1063.66,259.48 1075.68,268.70 1087.70,268.24 1099.72,261.43 1111.74,263.30 1123.76,265.01 1135.78,266.42 1147.80,269.34 1159.82,266.08 1171.84,263.43 1183.86,265.34 1195.88,262.91 1207.90,264.28 1219.92,265.25 1231.94,268.91 1243.96,263.01 1255.98,263.61 1268.00,266.97" fill="none" stroke="#76b7b2" stroke-width="2" stroke-linejoin="round" stroke-linecap="round"><title>online_ogd_epoch5</title></polyline>
<polyline points="78.00,324.10 90.02,310.42 102.04,289.89 114.06,286.54 126.08,279.64 138.10,275.69 150.12,277.44 162.14,282.08 174.16,268.35 186.18,271.24 198.20,271.71 210.22,272.43 222.24,271.07 234.26,269.36 246.28,271.02 258.30,265.22 270.32,272.33 282.34,266.47 294.36,269.38 306.38,267.00 318.40,265.44 330.42,265.06 342.44,268.98 354.46,264.85 366.48,264.34 378.51,265.20 390.53,267.09 402.55,264.50 414.57,265.96 426.59,265.65 438.61,266.83 450.63,264.63 462.65,265.03 474.67,262.81 486.69,266.06 498.71,266.31 510.73,264.96 522.75,263.01 534.77,265.76 546.79,261.50 558.81,264.29 570.83,267.65 582.85,263.20 594.87,265.15 606.89,262.62 618.91,265.27 630.93,266.14 642.95,266.64 654.97,257.50 666.99,264.96 679.01,264.17 691.03,262.14 703.05,268.97 715.07,261.93 727.09,262.78 739.11,267.89 751.13,264.39 763.15,264.77 775.17,260.31 787.19,262.91 799.21,268.99 811.23,262.04 823.25,266.31 835.27,261.71 847.29,262.33 859.31,263.09 871.33,265.98 883.35,262.89 895.37,267.52 907.39,262.74 919.41,262.88 931.43,263.62 943.45,265.93 955.47,263.19 967.49,262.83 979.52,262.16 991.54,265.97 1003.56,263.46 1015.58,263.82 1027.60,267.03 1039.62,266.82 1051.64,260.59 1063.66,261.07 1075.68,265.34 1087.70,267.19 1099.72,261.61 1111.74,262.18 1123.76,264.54 1135.78,265.12 1147.80,262.23 1159.82,265.09 1171.84,265.79 1183.86,265.41 1195.88,263.10 1207.90,262.71 1219.92,261.88 1231.94,263.42 1243.96,265.41 1255.98,265.42 1268.00,261.71" fill="none" stroke="#9c755f" stroke-width="2" stroke-linejoin="round" stroke-linecap="round"><title>online_ogd_freeze50</title></polyline>
<polyline points="78.00,324.10 90.02,277.49 102.04,283.42 114.06,282.39 126.08,280.26 138.10,285.12 150.12,282.52 162.14,277.86 174.16,279.79 186.18,274.24 198.20,269.91 210.22,278.07 222.24,274.78 234.26,271.33 246.28,273.50 258.30,275.19 270.32,267.25 282.34,272.28 294.36,265.98 306.38,267.84 318.40,271.25 330.42,269.48 342.44,264.06 354.46,269.19 366.48,268.29 378.51,264.23 390.53,264.80 402.55,266.83 414.57,266.48 426.59,265.92 438.61,266.53 450.63,262.26 462.65,262.29 474.67,266.42 486.69,268.38 498.71,264.74 510.73,263.92 522.75,265.44 534.77,264.34 546.79,266.75 558.81,260.77 570.83,266.34 582.85,263.19 594.87,263.56 606.89,263.85 618.91,267.30 630.93,265.83 642.95,258.89 654.97,265.18 666.99,265.12 679.01,264.03 691.03,262.10 703.05,267.07 715.07,262.20 727.09,265.03 739.11,262.84 751.13,265.64 763.15,260.97 775.17,262.61 787.19,265.65 799.21,265.77 811.23,261.53 823.25,265.69 835.27,260.69 847.29,261.22 859.31,262.61 871.33,263.37 883.35,265.61 895.37,265.36 907.39,262.40 919.41,260.85 931.43,263.47 943.45,263.52 955.47,263.90 967.49,263.01 979.52,261.90 991.54,261.41 1003.56,266.06 1015.58,262.77 1027.60,266.69 1039.62,263.13 1051.64,260.60 1063.66,261.68 1075.68,264.83 1087.70,262.83 1099.72,263.46 1111.74,263.98 1123.76,264.80 1135.78,264.36 1147.80,265.46 1159.82,258.47 1171.84,264.71 1183.86,266.49 1195.88,261.13 1207.90,262.23 1219.92,266.19 1231.94,261.33 1243.96,262.47 1255.98,262.85 1268.00,259.65" fill="none" stroke="#111827" stroke-width="2" stroke-linejoin="round" stroke-linecap="round"><title>online_ogd_no_dual_rescale</title></polyline>
<polyline points="78.00,324.10 90.02,310.42 102.04,289.89 114.06,286.54 126.08,279.64 138.10,275.69 150.12,277.44 162.14,282.08 174.16,268.35 186.18,271.24 198.20,271.71 210.22,272.43 222.24,271.07 234.26,269.36 246.28,271.02 258.30,265.22 270.32,272.33 282.34,266.47 294.36,269.38 306.38,267.00 318.40,265.44 330.42,265.06 342.44,268.98 354.46,264.85 366.48,264.34 378.51,265.20 390.53,267.09 402.55,264.50 414.57,265.96 426.59,265.65 438.61,266.83 450.63,264.63 462.65,265.03 474.67,262.81 486.69,266.06 498.71,266.31 510.73,264.96 522.75,263.01 534.77,265.76 546.79,261.50 558.81,264.29 570.83,267.65 582.85,263.20 594.87,265.15 606.89,262.62 618.91,265.27 630.93,266.14 642.95,266.64 654.97,257.50 666.99,264.96 679.01,264.17 691.03,261.47 703.05,268.20 715.07,262.02 727.09,262.18 739.11,266.77 751.13,264.98 763.15,264.13 775.17,259.71 787.19,262.70 799.21,266.59 811.23,262.20 823.25,265.98 835.27,261.47 847.29,262.53 859.31,259.87 871.33,266.72 883.35,261.53 895.37,267.10 907.39,263.82 919.41,260.96 931.43,264.26 943.45,262.38 955.47,261.31 967.49,263.48 979.52,261.60 991.54,266.16 1003.56,261.83 1015.58,265.09 1027.60,264.32 1039.62,263.21 1051.64,258.13 1063.66,263.84 1075.68,265.76 1087.70,265.83 1099.72,259.82 1111.74,261.07 1123.76,265.07 1135.78,264.45 1147.80,261.80 1159.82,262.72 1171.84,263.61 1183.86,265.36 1195.88,260.96 1207.90,263.30 1219.92,261.64 1231.94,262.27 1243.96,265.00 1255.98,263.03 1268.00,261.44" fill="none" stroke="#b07aa1" stroke-width="2" stroke-linejoin="round" stroke-linecap="round"><title>online_ogd</title></polyline>
<polyline points="78.00,324.10 90.02,296.73 102.04,250.81 114.06,259.02 126.08,296.06 138.10,284.02 150.12,246.30 162.14,246.98 174.16,279.79 186.18,276.90 198.20,252.32 210.22,247.10 222.24,245.69 234.26,279.47 246.28,270.13 258.30,243.09 270.32,243.50 282.34,271.61 294.36,272.60 306.38,262.48 318.40,238.19 330.42,244.59 342.44,273.88 354.46,264.83 366.48,237.89 378.51,244.50 390.53,273.22 402.55,263.97 414.57,239.74 426.59,244.12 438.61,267.96 450.63,267.82 462.65,258.15 474.67,235.06 486.69,239.97 498.71,270.84 510.73,262.31 522.75,237.24 534.77,240.24 546.79,270.55 558.81,263.29 570.83,237.66 582.85,238.72 594.87,272.09 606.89,261.83 618.91,232.96 630.93,241.24 642.95,271.72 654.97,261.30 666.99,236.21 679.01,234.37 691.03,271.67 703.05,261.86 715.07,233.96 727.09,237.77 739.11,267.11 751.13,261.17 763.15,235.01 775.17,235.49 787.19,271.09 799.21,258.23 811.23,239.52 823.25,236.04 835.27,240.46 847.29,267.72 859.31,264.73 871.33,232.12 883.35,239.27 895.37,265.26 907.39,258.25 919.41,233.40 931.43,233.01 943.45,267.08 955.47,267.80 967.49,260.97 979.52,228.73 991.54,239.70 1003.56,268.81 1015.58,261.56 1027.60,231.41 1039.62,234.39 1051.64,267.76 1063.66,261.18 1075.68,232.16 1087.70,232.88 1099.72,270.19 1111.74,261.41 1123.76,234.04 1135.78,229.34 1147.80,234.79 1159.82,269.82 1171.84,260.32 1183.86,233.61 1195.88,235.39 1207.90,267.43 1219.92,257.03 1231.94,238.75 1243.96,231.32 1255.98,227.94 1268.00,229.04" fill="none" stroke="#6f63b6" stroke-width="2" stroke-linejoin="round" stroke-linecap="round"><title>online_ogd_task_accept</title></polyline>
<polyline points="78.00,324.10 90.02,296.73 102.04,280.27 114.06,275.57 126.08,275.88 138.10,281.81 150.12,286.43 162.14,278.39 174.16,276.78 186.18,269.70 198.20,274.50 210.22,263.66 222.24,283.69 234.26,267.14 246.28,279.93 258.30,260.40 270.32,280.02 282.34,275.90 294.36,261.81 306.38,275.71 318.40,260.50 330.42,277.71 342.44,276.39 354.46,262.17 366.48,278.10 378.51,275.55 390.53,256.88 402.55,275.60 414.57,275.97 426.59,270.06 438.61,276.15 450.63,268.01 462.65,259.10 474.67,272.72 486.69,265.96 498.71,271.05 510.73,258.93 522.75,273.35 534.77,271.47 546.79,266.52 558.81,274.12 570.83,267.89 582.85,260.42 594.87,270.40 606.89,267.64 618.91,268.18 630.93,271.08 642.95,259.97 654.97,271.58 666.99,268.87 679.01,261.33 691.03,269.99 703.05,274.85 715.07,269.15 727.09,259.79 739.11,272.35 751.13,269.38 763.15,263.22 775.17,268.01 787.19,268.02 799.21,267.68 811.23,264.49 823.25,271.25 835.27,271.37 847.29,266.93 859.31,266.28 871.33,264.56 883.35,270.23 895.37,265.35 907.39,270.12 919.41,268.60 931.43,263.08 943.45,269.56 955.47,270.79 967.49,265.19 979.52,267.32 991.54,271.24 1003.56,270.49 1015.58,263.48 1027.60,272.21 1039.62,269.51 1051.64,263.52 1063.66,269.85 1075.68,270.05 1087.70,266.25 1099.72,268.16 1111.74,264.27 1123.76,263.06 1135.78,270.40 1147.80,263.96 1159.82,265.88 1171.84,268.52 1183.86,270.90 1195.88,269.73 1207.90,265.37 1219.92,269.22 1231.94,270.85 1243.96,269.35 1255.98,261.18 1268.00,267.33" fill="none" stroke="#2f8f6b" stroke-width="2" stroke-linejoin="round" stroke-linecap="round"><title>online_ogd_task_aware</title></polyline>
<polyline points="78.00,324.10 90.02,295.99 102.04,285.68 114.06,289.00 126.08,280.15 138.10,280.29 150.12,286.59 162.14,288.09 174.16,285.66 186.18,278.04 198.20,283.09 210.22,282.45 222.24,285.39 234.26,277.08 246.28,284.09 258.30,288.80 270.32,285.64 282.34,273.96 294.36,289.88 306.38,281.55 318.40,277.61 330.42,289.41 342.44,278.56 354.46,280.71 366.48,280.57 378.51,287.40 390.53,274.90 402.55,282.82 414.57,283.70 426.59,275.61 438.61,286.52 450.63,284.60 462.65,279.96 474.67,284.90 486.69,279.32 498.71,274.53 510.73,286.26 522.75,282.58 534.77,275.56 546.79,281.31 558.81,284.64 570.83,276.16 582.85,280.51 594.87,282.68 606.89,273.81 618.91,284.03 630.93,282.36 642.95,276.59 654.97,282.56 666.99,284.90 679.01,280.06 691.03,279.51 703.05,282.06 715.07,275.10 727.09,281.43 739.11,281.78 751.13,278.58 763.15,280.40 775.17,283.88 787.19,275.31 799.21,281.66 811.23,279.43 823.25,276.60 835.27,276.41 847.29,280.38 859.31,278.99 871.33,279.52 883.35,281.06 895.37,277.52 907.39,276.26 919.41,283.04 931.43,274.36 943.45,281.92 955.47,285.01 967.49,274.41 979.52,277.22 991.54,280.00 1003.56,278.38 1015.58,276.34 1027.60,275.98 1039.62,276.92 1051.64,281.06 1063.66,276.05 1075.68,275.45 1087.70,277.95 1099.72,278.83 1111.74,277.07 1123.76,278.08 1135.78,284.79 1147.80,278.99 1159.82,275.04 1171.84,278.28 1183.86,278.22 1195.88,275.49 1207.90,279.36 1219.92,280.48 1231.94,281.07 1243.96,279.00 1255.98,274.18 1268.00,279.18" fill="none" stroke="#d37295" stroke-width="2" stroke-linejoin="round" stroke-linecap="round"><title>online_ogd_task_feasibility</title></polyline>
<polyline points="78.00,324.10 90.02,265.93 102.04,260.90 114.06,265.51 126.08,265.19 138.10,271.14 150.12,266.22 162.14,263.23 174.16,267.97 186.18,268.06 198.20,261.99 210.22,273.69 222.24,268.38 234.26,264.35 246.28,263.93 258.30,270.69 270.32,265.13 282.34,272.23 294.36,265.17 306.38,264.19 318.40,267.33 330.42,271.23 342.44,258.43 354.46,268.18 366.48,271.33 378.51,266.07 390.53,266.12 402.55,266.62 414.57,266.45 426.59,273.14 438.61,263.56 450.63,263.61 462.65,268.84 474.67,269.82 486.69,263.25 498.71,269.47 510.73,269.32 522.75,265.85 534.77,263.21 546.79,269.39 558.81,268.49 570.83,267.83 582.85,267.12 594.87,262.20 606.89,270.28 618.91,272.32 630.93,261.78 642.95,265.25 654.97,271.00 666.99,270.45 679.01,265.10 691.03,269.31 703.05,264.88 715.07,266.59 727.09,268.78 739.11,267.72 751.13,269.47 763.15,270.47 775.17,262.15 787.19,263.46 799.21,272.64 811.23,267.34 823.25,263.25 835.27,264.46 847.29,268.40 859.31,269.03 871.33,267.61 883.35,266.12 895.37,267.24 907.39,268.95 919.41,264.48 931.43,269.98 943.45,268.58 955.47,264.79 967.49,265.98 979.52,269.61 991.54,264.44 1003.56,270.26 1015.58,266.98 1027.60,266.63 1039.62,268.86 1051.64,268.72 1063.66,262.45 1075.68,268.40 1087.70,272.46 1099.72,266.50 1111.74,263.88 1123.76,270.71 1135.78,267.81 1147.80,266.30 1159.82,268.91 1171.84,266.98 1183.86,263.05 1195.88,270.53 1207.90,262.46 1219.92,269.77 1231.94,271.24 1243.96,268.30 1255.98,261.45 1268.00,269.97" fill="none" stroke="#edc948" stroke-width="2" stroke-linejoin="round" stroke-linecap="round"><title>residual_balance_normalized</title></polyline>
<polyline points="78.00,324.10 90.02,265.93 102.04,260.90 114.06,265.51 126.08,265.19 138.10,271.14 150.12,266.22 162.14,263.23 174.16,267.97 186.18,268.06 198.20,261.99 210.22,273.69 222.24,268.38 234.26,264.35 246.28,263.93 258.30,270.69 270.32,265.13 282.34,272.23 294.36,265.17 306.38,264.19 318.40,267.33 330.42,271.23 342.44,258.43 354.46,268.18 366.48,271.33 378.51,266.07 390.53,266.12 402.55,266.62 414.57,266.45 426.59,273.14 438.61,263.56 450.63,263.61 462.65,268.84 474.67,269.82 486.69,263.25 498.71,269.47 510.73,269.32 522.75,265.85 534.77,263.21 546.79,269.39 558.81,268.49 570.83,267.83 582.85,267.12 594.87,262.20 606.89,270.28 618.91,272.32 630.93,261.78 642.95,265.25 654.97,271.00 666.99,270.45 679.01,265.10 691.03,269.31 703.05,264.88 715.07,266.59 727.09,268.78 739.11,267.72 751.13,269.47 763.15,270.47 775.17,262.15 787.19,263.46 799.21,272.64 811.23,267.34 823.25,263.25 835.27,264.46 847.29,268.40 859.31,269.03 871.33,267.61 883.35,266.12 895.37,267.24 907.39,268.95 919.41,264.48 931.43,269.98 943.45,268.58 955.47,264.79 967.49,265.98 979.52,269.61 991.54,264.44 1003.56,270.26 1015.58,266.98 1027.60,266.63 1039.62,268.86 1051.64,268.72 1063.66,262.45 1075.68,268.40 1087.70,272.46 1099.72,266.50 1111.74,263.88 1123.76,270.71 1135.78,267.81 1147.80,266.30 1159.82,268.91 1171.84,266.98 1183.86,263.05 1195.88,270.53 1207.90,262.46 1219.92,269.77 1231.94,271.24 1243.96,268.30 1255.98,261.45 1268.00,269.97" fill="none" stroke="#f28e2b" stroke-width="2" stroke-linejoin="round" stroke-linecap="round"><title>residual_balance_raw</title></polyline>
<polyline points="78.00,324.10 90.02,265.93 102.04,260.90 114.06,265.51 126.08,265.19 138.10,271.14 150.12,266.22 162.14,263.23 174.16,267.97 186.18,268.06 198.20,261.99 210.22,273.69 222.24,268.38 234.26,264.35 246.28,263.93 258.30,270.69 270.32,265.13 282.34,272.23 294.36,265.17 306.38,264.19 318.40,267.33 330.42,271.23 342.44,258.43 354.46,268.18 366.48,271.33 378.51,266.07 390.53,266.12 402.55,266.62 414.57,266.45 426.59,273.14 438.61,263.56 450.63,263.61 462.65,268.84 474.67,269.82 486.69,263.25 498.71,269.47 510.73,269.32 522.75,265.85 534.77,263.21 546.79,269.39 558.81,268.49 570.83,267.83 582.85,267.12 594.87,262.20 606.89,270.28 618.91,272.32 630.93,261.78 642.95,265.25 654.97,271.00 666.99,270.45 679.01,265.10 691.03,269.31 703.05,264.88 715.07,266.59 727.09,268.78 739.11,267.72 751.13,269.47 763.15,270.47 775.17,262.15 787.19,263.46 799.21,272.64 811.23,267.34 823.25,263.25 835.27,264.46 847.29,268.40 859.31,269.03 871.33,267.61 883.35,266.12 895.37,267.24 907.39,268.95 919.41,264.48 931.43,269.98 943.45,268.58 955.47,264.79 967.49,265.98 979.52,269.61 991.54,264.44 1003.56,270.26 1015.58,266.98 1027.60,266.63 1039.62,268.86 1051.64,268.72 1063.66,262.45 1075.68,268.40 1087.70,272.46 1099.72,266.50 1111.74,263.88 1123.76,270.71 1135.78,267.81 1147.80,266.30 1159.82,268.91 1171.84,266.98 1183.86,263.05 1195.88,270.53 1207.90,262.46 1219.92,269.77 1231.94,271.24 1243.96,268.30 1255.98,261.45 1268.00,269.97" fill="none" stroke="#ff9da7" stroke-width="2" stroke-linejoin="round" stroke-linecap="round"><title>residual_balance_relative</title></polyline>
<line x1="1286" x2="1302" y1="60" y2="60" stroke="#4e79a7" stroke-width="3"/>
<text x="1308" y="64" font-size="11" font-family="Arial">fixed_rho_0p1</text>
<line x1="1286" x2="1302" y1="80" y2="80" stroke="#e15759" stroke-width="3"/>
<text x="1308" y="84" font-size="11" font-family="Arial">fixed_rho_10</text>
<line x1="1286" x2="1302" y1="100" y2="100" stroke="#59a14f" stroke-width="3"/>
<text x="1308" y="104" font-size="11" font-family="Arial">fixed_rho_1</text>
<line x1="1286" x2="1302" y1="120" y2="120" stroke="#76b7b2" stroke-width="3"/>
<text x="1308" y="124" font-size="11" font-family="Arial">online_ogd_epoch5</text>
<line x1="1286" x2="1302" y1="140" y2="140" stroke="#9c755f" stroke-width="3"/>
<text x="1308" y="144" font-size="11" font-family="Arial">online_ogd_freeze50</text>
<line x1="1286" x2="1302" y1="160" y2="160" stroke="#111827" stroke-width="3"/>
<text x="1308" y="164" font-size="11" font-family="Arial">online_ogd_no_dual_rescale</text>
<line x1="1286" x2="1302" y1="180" y2="180" stroke="#b07aa1" stroke-width="3"/>
<text x="1308" y="184" font-size="11" font-family="Arial">online_ogd</text>
<line x1="1286" x2="1302" y1="200" y2="200" stroke="#6f63b6" stroke-width="3"/>
<text x="1308" y="204" font-size="11" font-family="Arial">online_ogd_task_accept</text>
<line x1="1286" x2="1302" y1="220" y2="220" stroke="#2f8f6b" stroke-width="3"/>
<text x="1308" y="224" font-size="11" font-family="Arial">online_ogd_task_aware</text>
<line x1="1286" x2="1302" y1="240" y2="240" stroke="#d37295" stroke-width="3"/>
<text x="1308" y="244" font-size="11" font-family="Arial">online_ogd_task_feasibility</text>
<line x1="1286" x2="1302" y1="260" y2="260" stroke="#edc948" stroke-width="3"/>
<text x="1308" y="264" font-size="11" font-family="Arial">residual_balance_normalized</text>
<line x1="1286" x2="1302" y1="280" y2="280" stroke="#f28e2b" stroke-width="3"/>
<text x="1308" y="284" font-size="11" font-family="Arial">residual_balance_raw</text>
<line x1="1286" x2="1302" y1="300" y2="300" stroke="#ff9da7" stroke-width="3"/>
<text x="1308" y="304" font-size="11" font-family="Arial">residual_balance_relative</text>
</svg>
