<svg xmlns="http://www.w3.org/2000/svg" width="1420" height="560" viewBox="0 0 1420 560" role="img" aria-label="Tanh Qat Nonconvex Rho">
<title>Tanh Qat Nonconvex Rho</title>
<rect width="1420" height="560" fill="#ffffff"/>
<text x="78" y="28" font-size="20" font-family="Arial" font-weight="700">Tanh Qat Nonconvex Rho</text>
<text x="673.0" y="548" text-anchor="middle" font-size="12" font-family="Arial">ADMM iteration</text>
<text x="18" y="277.0" transform="rotate(-90 18 277.0)" font-size="12" font-family="Arial">rho</text>
<line x1="78" x2="1268" y1="498.00" y2="498.00" stroke="#e5e7eb"/>
<text x="70" y="502.00" text-anchor="end" font-size="11" font-family="Arial" fill="#4b5563">1e-2</text>
<line x1="78" x2="1268" y1="387.50" y2="387.50" stroke="#e5e7eb"/>
<text x="70" y="391.50" text-anchor="end" font-size="11" font-family="Arial" fill="#4b5563">1e-1</text>
<line x1="78" x2="1268" y1="277.00" y2="277.00" stroke="#e5e7eb"/>
<text x="70" y="281.00" text-anchor="end" font-size="11" font-family="Arial" fill="#4b5563">1e0</text>
<line x1="78" x2="1268" y1="166.50" y2="166.50" stroke="#e5e7eb"/>
<text x="70" y="170.50" text-anchor="end" font-size="11" font-family="Arial" fill="#4b5563">1e0</text>
<line x1="78" x2="1268" y1="56.00" y2="56.00" stroke="#e5e7eb"/>
<text x="70" y="60.00" text-anchor="end" font-size="11" font-family="Arial" fill="#4b5563">1e1</text>
<line x1="78.00" x2="78.00" y1="56" y2="498" stroke="#f3f4f6"/>
<text x="78.00" y="516" text-anchor="middle" font-size="11" font-family="Arial" fill="#4b5563">1</text>
<line x1="375.50" x2="375.50" y1="56" y2="498" stroke="#f3f4f6"/>
<text x="375.50" y="516" text-anchor="middle" font-size="11" font-family="Arial" fill="#4b5563">25</text>
<line x1="673.00" x2="673.00" y1="56" y2="498" stroke="#f3f4f6"/>
<text x="673.00" y="516" text-anchor="middle" font-size="11" font-family="Arial" fill="#4b5563">50</text>
<line x1="970.50" x2="970.50" y1="56" y2="498" stroke="#f3f4f6"/>
<text x="970.50" y="516" text-anchor="middle" font-size="11" font-family="Arial" fill="#4b5563">75</text>
<line x1="1268.00" x2="1268.00" y1="56" y2="498" stroke="#f3f4f6"/>
<text x="1268.00" y="516" text-anchor="middle" font-size="11" font-family="Arial" fill="#4b5563">100</text>
<polyline points="78.00,350.67 90.02,350.67 102.04,350.67 114.06,350.67 126.08,350.67 138.10,350.67 150.12,350.67 162.14,350.67 174.16,350.67 186.18,350.67 198.20,350.67 210.22,350.67 222.24,350.67 234.26,350.67 246.28,350.67 258.30,350.67 270.32,350.67 282.34,350.67 294.36,350.67 306.38,350.67 318.40,350.67 330.42,350.67 342.44,350.67 354.46,350.67 366.48,350.67 378.51,350.67 390.53,350.67 402.55,350.67 414.57,350.67 426.59,350.67 438.61,350.67 450.63,350.67 462.65,350.67 474.67,350.67 486.69,350.67 498.71,350.67 510.73,350.67 522.75,350.67 534.77,350.67 546.79,350.67 558.81,350.67 570.83,350.67 582.85,350.67 594.87,350.67 606.89,350.67 618.91,350.67 630.93,350.67 642.95,350.67 654.97,350.67 666.99,350.67 679.01,350.67 691.03,350.67 703.05,350.67 715.07,350.67 727.09,350.67 739.11,350.67 751.13,350.67 763.15,350.67 775.17,350.67 787.19,350.67 799.21,350.67 811.23,350.67 823.25,350.67 835.27,350.67 847.29,350.67 859.31,350.67 871.33,350.67 883.35,350.67 895.37,350.67 907.39,350.67 919.41,350.67 931.43,350.67 943.45,350.67 955.47,350.67 967.49,350.67 979.52,350.67 991.54,350.67 1003.56,350.67 1015.58,350.67 1027.60,350.67 1039.62,350.67 1051.64,350.67 1063.66,350.67 1075.68,350.67 1087.70,350.67 1099.72,350.67 1111.74,350.67 1123.76,350.67 1135.78,350.67 1147.80,350.67 1159.82,350.67 1171.84,350.67 1183.86,350.67 1195.88,350.67 1207.90,350.67 1219.92,350.67 1231.94,350.67 1243.96,350.67 1255.98,350.67 1268.00,350.67" fill="none" stroke="#4e79a7" stroke-width="2" stroke-linejoin="round" stroke-linecap="round"><title>fixed_rho_0p1</title></polyline>
<polyline points="78.00,56.00 90.02,56.00 102.04,56.00 114.06,56.00 126.08,56.00 138.10,56.00 150.12,56.00 162.14,56.00 174.16,56.00 186.18,56.00 198.20,56.00 210.22,56.00 222.24,56.00 234.26,56.00 246.28,56.00 258.30,56.00 270.32,56.00 282.34,56.00 294.36,56.00 306.38,56.00 318.40,56.00 330.42,56.00 342.44,56.00 354.46,56.00 366.48,56.00 378.51,56.00 390.53,56.00 402.55,56.00 414.57,56.00 426.59,56.00 438.61,56.00 450.63,56.00 462.65,56.00 474.67,56.00 486.69,56.00 498.71,56.00 510.73,56.00 522.75,56.00 534.77,56.00 546.79,56.00 558.81,56.00 570.83,56.00 582.85,56.00 594.87,56.00 606.89,56.00 618.91,56.00 630.93,56.00 642.95,56.00 654.97,56.00 666.99,56.00 679.01,56.00 691.03,56.00 703.05,56.00 715.07,56.00 727.09,56.00 739.11,56.00 751.13,56.00 763.15,56.00 775.17,56.00 787.19,56.00 799.21,56.00 811.23,56.00 823.25,56.00 835.27,56.00 847.29,56.00 859.31,56.00 871.33,56.00 883.35,56.00 895.37,56.00 907.39,56.00 919.41,56.00 931.43,56.00 943.45,56.00 955.47,56.00 967.49,56.00 979.52,56.00 991.54,56.00 1003.56,56.00 1015.58,56.00 1027.60,56.00 1039.62,56.00 1051.64,56.00 1063.66,56.00 1075.68,56.00 1087.70,56.00 1099.72,56.00 1111.74,56.00 1123.76,56.00 1135.78,56.00 1147.80,56.00 1159.82,56.00 1171.84,56.00 1183.86,56.00 1195.88,56.00 1207.90,56.00 1219.92,56.00 1231.94,56.00 1243.96,56.00 1255.98,56.00 1268.00,56.00" fill="none" stroke="#e15759" stroke-width="2" stroke-linejoin="round" stroke-linecap="round"><title>fixed_rho_10</title></polyline>
<polyline points="78.00,203.33 90.02,203.33 102.04,203.33 114.06,203.33 126.08,203.33 138.10,203.33 150.12,203.33 162.14,203.33 174.16,203.33 186.18,203.33 198.20,203.33 210.22,203.33 222.24,203.33 234.26,203.33 246.28,203.33 258.30,203.33 270.32,203.33 282.34,203.33 294.36,203.33 306.38,203.33 318.40,203.33 330.42,203.33 342.44,203.33 354.46,203.33 366.48,203.33 378.51,203.33 390.53,203.33 402.55,203.33 414.57,203.33 426.59,203.33 438.61,203.33 450.63,203.33 462.65,203.33 474.67,203.33 486.69,203.33 498.71,203.33 510.73,203.33 522.75,203.33 534.77,203.33 546.79,203.33 558.81,203.33 570.83,203.33 582.85,203.33 594.87,203.33 606.89,203.33 618.91,203.33 630.93,203.33 642.95,203.33 654.97,203.33 666.99,203.33 679.01,203.33 691.03,203.33 703.05,203.33 715.07,203.33 727.09,203.33 739.11,203.33 751.13,203.33 763.15,203.33 775.17,203.33 787.19,203.33 799.21,203.33 811.23,203.33 823.25,203.33 835.27,203.33 847.29,203.33 859.31,203.33 871.33,203.33 883.35,203.33 895.37,203.33 907.39,203.33 919.41,203.33 931.43,203.33 943.45,203.33 955.47,203.33 967.49,203.33 979.52,203.33 991.54,203.33 1003.56,203.33 1015.58,203.33 1027.60,203.33 1039.62,203.33 1051.64,203.33 1063.66,203.33 1075.68,203.33 1087.70,203.33 1099.72,203.33 1111.74,203.33 1123.76,203.33 1135.78,203.33 1147.80,203.33 1159.82,203.33 1171.84,203.33 1183.86,203.33 1195.88,203.33 1207.90,203.33 1219.92,203.33 1231.94,203.33 1243.96,203.33 1255.98,203.33 1268.00,203.33" fill="none" stroke="#59a14f" stroke-width="2" stroke-linejoin="round" stroke-linecap="round"><title>fixed_rho_1</title></polyline>
<polyline points="78.00,203.33 90.02,203.33 102.04,203.33 114.06,203.33 126.08,203.33 138.10,206.79 150.12,206.79 162.14,206.79 174.16,206.79 186.18,206.79 198.20,208.81 210.22,208.81 222.24,208.81 234.26,208.81 246.28,208.81 258.30,210.34 270.32,210.34 282.34,210.34 294.36,210.34 306.38,210.34 318.40,211.66 330.42,211.66 342.44,211.66 354.46,211.66 366.48,211.66 378.51,212.80 390.53,212.80 402.55,212.80 414.57,212.80 426.59,212.80 438.61,213.87 450.63,213.87 462.65,213.87 474.67,213.87 486.69,213.87 498.71,214.79 510.73,214.79 522.75,214.79 534.77,214.79 546.79,214.79 558.81,215.66 570.83,215.66 582.85,215.66 594.87,215.66 606.89,215.66 618.91,216.48 630.93,216.48 642.95,216.48 654.97,216.48 666.99,216.48 679.01,217.19 691.03,217.19 703.05,217.19 715.07,217.19 727.09,217.19 739.11,217.88 751.13,217.88 763.15,217.88 775.17,217.88 787.19,217.88 799.21,218.56 811.23,218.56 823.25,218.56 835.27,218.56 847.29,218.56 859.31,219.18 871.33,219.18 883.35,219.18 895.37,219.18 907.39,219.18 919.41,219.78 931.43,219.78 943.45,219.78 955.47,219.78 967.49,219.78 979.52,220.33 991.54,220.33 1003.56,220.33 1015.58,220.33 1027.60,220.33 1039.62,220.86 1051.64,220.86 1063.66,220.86 1075.68,220.86 1087.70,220.86 1099.72,221.37 1111.74,221.37 1123.76,221.37 1135.78,221.37 1147.80,221.37 1159.82,221.87 1171.84,221.87 1183.86,221.87 1195.88,221.87 1207.90,221.87 1219.92,222.32 1231.94,222.32 1243.96,222.32 1255.98,222.32 1268.00,222.32" fill="none" stroke="#76b7b2" stroke-width="2" stroke-linejoin="round" stroke-linecap="round"><title>online_ogd_epoch5</title></polyline>
<polyline points="78.00,203.33 90.02,216.00 102.04,221.21 114.06,224.39 126.08,226.60 138.10,228.08 150.12,229.21 162.14,230.06 174.16,230.63 186.18,231.17 198.20,231.53 210.22,231.89 222.24,232.14 234.26,232.31 246.28,232.46 258.30,232.61 270.32,232.79 282.34,232.86 294.36,232.97 306.38,233.08 318.40,233.17 330.42,233.29 342.44,233.39 354.46,233.45 366.48,233.58 378.51,233.66 390.53,233.72 402.55,233.83 414.57,233.91 426.59,234.00 438.61,234.11 450.63,234.16 462.65,234.25 474.67,234.34 486.69,234.43 498.71,234.49 510.73,234.55 522.75,234.64 534.77,234.72 546.79,234.80 558.81,234.86 570.83,234.94 582.85,235.02 594.87,235.09 606.89,235.16 618.91,235.26 630.93,235.32 642.95,235.37 654.97,235.44 666.99,235.51 679.01,235.55 691.03,235.55 703.05,235.55 715.07,235.55 727.09,235.55 739.11,235.55 751.13,235.55 763.15,235.55 775.17,235.55 787.19,235.55 799.21,235.55 811.23,235.55 823.25,235.55 835.27,235.55 847.29,235.55 859.31,235.55 871.33,235.55 883.35,235.55 895.37,235.55 907.39,235.55 919.41,235.55 931.43,235.55 943.45,235.55 955.47,235.55 967.49,235.55 979.52,235.55 991.54,235.55 1003.56,235.55 1015.58,235.55 1027.60,235.55 1039.62,235.55 1051.64,235.55 1063.66,235.55 1075.68,235.55 1087.70,235.55 1099.72,235.55 1111.74,235.55 1123.76,235.55 1135.78,235.55 1147.80,235.55 1159.82,235.55 1171.84,235.55 1183.86,235.55 1195.88,235.55 1207.90,235.55 1219.92,235.55 1231.94,235.55 1243.96,235.55 1255.98,235.55 1268.00,235.55" fill="none" stroke="#9c755f" stroke-width="2" stroke-linejoin="round" stroke-linecap="round"><title>online_ogd_freeze50</title></polyline>
<polyline points="78.00,203.33 90.02,216.00 102.04,221.31 114.06,224.52 126.08,226.79 138.10,228.30 150.12,229.42 162.14,230.26 174.16,230.84 186.18,231.35 198.20,231.69 210.22,231.97 222.24,232.29 234.26,232.47 246.28,232.66 258.30,232.85 270.32,233.00 282.34,233.09 294.36,233.27 306.38,233.36 318.40,233.45 330.42,233.59 342.44,233.67 354.46,233.74 366.48,233.84 378.51,233.93 390.53,234.01 402.55,234.12 414.57,234.21 426.59,234.32 438.61,234.43 450.63,234.51 462.65,234.56 474.67,234.66 486.69,234.74 498.71,234.80 510.73,234.88 522.75,234.91 534.77,234.97 546.79,235.08 558.81,235.13 570.83,235.17 582.85,235.26 594.87,235.30 606.89,235.37 618.91,235.43 630.93,235.47 642.95,235.53 654.97,235.61 666.99,235.65 679.01,235.70 691.03,235.78 703.05,235.83 715.07,235.87 727.09,235.95 739.11,236.02 751.13,236.08 763.15,236.14 775.17,236.19 787.19,236.23 799.21,236.29 811.23,236.35 823.25,236.39 835.27,236.46 847.29,236.50 859.31,236.54 871.33,236.60 883.35,236.65 895.37,236.69 907.39,236.72 919.41,236.76 931.43,236.80 943.45,236.87 955.47,236.89 967.49,236.93 979.52,236.99 991.54,237.03 1003.56,237.03 1015.58,237.09 1027.60,237.14 1039.62,237.16 1051.64,237.23 1063.66,237.23 1075.68,237.25 1087.70,237.29 1099.72,237.30 1111.74,237.32 1123.76,237.36 1135.78,237.36 1147.80,237.38 1159.82,237.43 1171.84,237.44 1183.86,237.46 1195.88,237.49 1207.90,237.53 1219.92,237.55 1231.94,237.60 1243.96,237.63 1255.98,237.66 1268.00,237.71" fill="none" stroke="#111827" stroke-width="2" stroke-linejoin="round" stroke-linecap="round"><title>online_ogd_no_dual_rescale</title></polyline>
<polyline points="78.00,203.33 90.02,216.00 102.04,221.21 114.06,224.39 126.08,226.60 138.10,228.08 150.12,229.21 162.14,230.06 174.16,230.63 186.18,231.17 198.20,231.53 210.22,231.89 222.24,232.14 234.26,232.31 246.28,232.46 258.30,232.61 270.32,232.79 282.34,232.86 294.36,232.97 306.38,233.08 318.40,233.17 330.42,233.29 342.44,233.39 354.46,233.45 366.48,233.58 378.51,233.66 390.53,233.72 402.55,233.83 414.57,233.91 426.59,234.00 438.61,234.11 450.63,234.16 462.65,234.25 474.67,234.34 486.69,234.43 498.71,234.49 510.73,234.55 522.75,234.64 534.77,234.72 546.79,234.80 558.81,234.86 570.83,234.94 582.85,235.02 594.87,235.09 606.89,235.16 618.91,235.26 630.93,235.32 642.95,235.37 654.97,235.44 666.99,235.51 679.01,235.55 691.03,235.59 703.05,235.65 715.07,235.69 727.09,235.74 739.11,235.78 751.13,235.84 763.15,235.86 775.17,235.88 787.19,235.92 799.21,235.99 811.23,236.04 823.25,236.08 835.27,236.10 847.29,236.15 859.31,236.19 871.33,236.22 883.35,236.25 895.37,236.30 907.39,236.34 919.41,236.38 931.43,236.42 943.45,236.49 955.47,236.54 967.49,236.56 979.52,236.58 991.54,236.63 1003.56,236.67 1015.58,236.73 1027.60,236.77 1039.62,236.80 1051.64,236.84 1063.66,236.88 1075.68,236.91 1087.70,236.97 1099.72,236.99 1111.74,237.03 1123.76,237.08 1135.78,237.11 1147.80,237.14 1159.82,237.20 1171.84,237.22 1183.86,237.28 1195.88,237.33 1207.90,237.36 1219.92,237.40 1231.94,237.46 1243.96,237.49 1255.98,237.53 1268.00,237.56" fill="none" stroke="#b07aa1" stroke-width="2" stroke-linejoin="round" stroke-linecap="round"><title>online_ogd</title></polyline>
<polyline points="78.00,203.33 90.02,211.02 102.04,217.68 114.06,222.26 126.08,225.77 138.10,228.47 150.12,230.71 162.14,232.59 174.16,234.10 186.18,235.49 198.20,236.14 210.22,237.26 222.24,247.66 234.26,247.25 246.28,257.65 258.30,256.45 270.32,266.85 282.34,277.25 294.36,275.37 306.38,273.47 318.40,283.87 330.42,281.92 342.44,292.32 354.46,302.72 366.48,299.85 378.51,296.66 390.53,294.06 402.55,304.46 414.57,314.85 426.59,311.99 438.61,322.39 450.63,319.16 462.65,329.56 474.67,325.98 486.69,322.59 498.71,319.48 510.73,316.25 522.75,313.09 534.77,323.49 546.79,333.88 558.81,330.70 570.83,327.67 582.85,324.51 594.87,334.91 606.89,331.74 618.91,328.48 630.93,325.73 642.95,322.63 654.97,333.03 666.99,330.18 679.01,326.98 691.03,337.38 703.05,347.78 715.07,344.68 727.09,341.55 739.11,338.57 751.13,335.72 763.15,332.93 775.17,330.34 787.19,327.75 799.21,325.14 811.23,335.54 823.25,332.95 835.27,330.45 847.29,328.08 859.31,325.37 871.33,322.88 883.35,333.28 895.37,330.80 907.39,328.02 919.41,325.51 931.43,323.20 943.45,333.60 955.47,331.33 967.49,341.73 979.52,352.13 991.54,349.37 1003.56,346.61 1015.58,343.56 1027.60,353.96 1039.62,364.36 1051.64,361.43 1063.66,358.53 1075.68,355.30 1087.70,352.63 1099.72,363.03 1111.74,360.33 1123.76,357.51 1135.78,367.91 1147.80,365.15 1159.82,375.55 1171.84,385.95 1183.86,382.81 1195.88,393.21 1207.90,389.91 1219.92,386.64 1231.94,383.38 1243.96,393.78 1255.98,390.55 1268.00,387.33" fill="none" stroke="#6f63b6" stroke-width="2" stroke-linejoin="round" stroke-linecap="round"><title>online_ogd_task_accept</title></polyline>
<polyline points="78.00,203.33 90.02,211.02 102.04,222.58 114.06,230.34 126.08,236.42 138.10,241.21 150.12,245.18 162.14,248.54 174.16,251.34 186.18,253.82 198.20,252.39 210.22,248.07 222.24,248.16 234.26,250.40 246.28,249.86 258.30,246.28 270.32,245.74 282.34,244.83 294.36,245.89 306.38,247.42 318.40,247.13 330.42,244.67 342.44,245.01 354.46,246.82 366.48,246.54 378.51,243.90 390.53,244.10 402.55,245.84 414.57,246.43 426.59,244.00 438.61,243.18 450.63,241.92 462.65,242.40 474.67,244.03 486.69,243.90 498.71,241.77 510.73,241.33 522.75,242.92 534.77,243.91 546.79,243.40 558.81,241.47 570.83,241.76 582.85,240.88 594.87,239.09 606.89,239.30 618.91,240.84 630.93,240.75 642.95,242.20 654.97,240.97 666.99,239.30 679.01,240.22 691.03,241.12 703.05,242.48 715.07,241.85 727.09,241.78 739.11,240.18 751.13,239.92 763.15,241.25 775.17,242.54 787.19,242.74 799.21,241.20 811.23,240.25 823.25,241.52 835.27,242.63 847.29,241.52 859.31,240.37 871.33,240.12 883.35,238.89 895.37,238.77 907.39,240.03 919.41,239.11 931.43,239.46 943.45,240.69 955.47,240.50 967.49,239.16 979.52,239.42 991.54,240.62 1003.56,239.64 1015.58,238.77 1027.60,237.67 1039.62,238.20 1051.64,238.74 1063.66,238.80 1075.68,239.94 1087.70,239.80 1099.72,238.56 1111.74,238.93 1123.76,240.06 1135.78,240.39 1147.80,239.17 1159.82,239.36 1171.84,240.47 1183.86,239.68 1195.88,239.21 1207.90,240.27 1219.92,241.11 1231.94,239.93 1243.96,238.79 1255.98,238.98 1268.00,240.05" fill="none" stroke="#2f8f6b" stroke-width="2" stroke-linejoin="round" stroke-linecap="round"><title>online_ogd_task_aware</title></polyline>
<polyline points="78.00,203.33 90.02,200.86 102.04,194.77 114.06,190.30 126.08,186.79 138.10,183.80 150.12,181.20 162.14,178.88 174.16,176.80 186.18,174.93 198.20,173.23 210.22,172.08 222.24,170.60 234.26,172.24 246.28,173.98 258.30,175.04 270.32,175.15 282.34,176.78 294.36,176.65 306.38,178.17 318.40,178.37 330.42,179.79 342.44,179.47 354.46,178.24 366.48,179.12 378.51,179.46 390.53,178.56 402.55,177.58 414.57,178.21 426.59,179.48 438.61,178.99 450.63,178.64 462.65,179.85 474.67,180.84 486.69,180.38 498.71,179.42 510.73,180.34 522.75,180.78 534.77,179.86 546.79,179.00 558.81,179.77 570.83,180.74 582.85,180.08 594.87,179.65 606.89,180.69 618.91,181.72 630.93,181.25 642.95,180.44 654.97,181.41 666.99,181.89 679.01,181.09 691.03,180.33 703.05,181.16 715.07,181.97 727.09,181.23 739.11,180.81 751.13,181.73 763.15,182.64 775.17,182.12 787.19,181.39 799.21,182.29 811.23,182.80 823.25,182.08 835.27,181.39 847.29,182.26 859.31,182.98 871.33,182.29 883.35,181.81 895.37,182.65 907.39,183.47 919.41,182.91 931.43,182.25 943.45,183.06 955.47,183.60 967.49,182.94 979.52,182.31 991.54,183.10 1003.56,183.82 1015.58,183.19 1027.60,182.67 1039.62,183.44 1051.64,184.20 1063.66,183.61 1075.68,183.00 1087.70,183.75 1099.72,184.30 1111.74,183.69 1123.76,183.10 1135.78,183.84 1147.80,184.55 1159.82,183.96 1171.84,183.42 1183.86,184.13 1195.88,184.83 1207.90,184.25 1219.92,183.67 1231.94,184.38 1243.96,184.94 1255.98,184.36 1268.00,183.81" fill="none" stroke="#d37295" stroke-width="2" stroke-linejoin="round" stroke-linecap="round"><title>online_ogd_task_feasibility</title></polyline>
<polyline points="78.00,203.33 90.02,203.33 102.04,203.33 114.06,203.33 126.08,203.33 138.10,203.33 150.12,203.33 162.14,203.33 174.16,203.33 186.18,203.33 198.20,203.33 210.22,203.33 222.24,203.33 234.26,203.33 246.28,203.33 258.30,203.33 270.32,203.33 282.34,203.33 294.36,203.33 306.38,203.33 318.40,203.33 330.42,203.33 342.44,203.33 354.46,203.33 366.48,203.33 378.51,203.33 390.53,203.33 402.55,203.33 414.57,203.33 426.59,203.33 438.61,203.33 450.63,203.33 462.65,203.33 474.67,203.33 486.69,203.33 498.71,203.33 510.73,203.33 522.75,203.33 534.77,203.33 546.79,203.33 558.81,203.33 570.83,203.33 582.85,203.33 594.87,203.33 606.89,203.33 618.91,203.33 630.93,203.33 642.95,203.33 654.97,203.33 666.99,203.33 679.01,203.33 691.03,203.33 703.05,203.33 715.07,203.33 727.09,203.33 739.11,203.33 751.13,203.33 763.15,203.33 775.17,203.33 787.19,203.33 799.21,203.33 811.23,203.33 823.25,203.33 835.27,203.33 847.29,203.33 859.31,203.33 871.33,203.33 883.35,203.33 895.37,203.33 907.39,203.33 919.41,203.33 931.43,203.33 943.45,203.33 955.47,203.33 967.49,203.33 979.52,203.33 991.54,203.33 1003.56,203.33 1015.58,203.33 1027.60,203.33 1039.62,203.33 1051.64,203.33 1063.66,203.33 1075.68,203.33 1087.70,203.33 1099.72,203.33 1111.74,203.33 1123.76,203.33 1135.78,203.33 1147.80,203.33 1159.82,203.33 1171.84,203.33 1183.86,203.33 1195.88,203.33 1207.90,203.33 1219.92,203.33 1231.94,203.33 1243.96,203.33 1255.98,203.33 1268.00,203.33" fill="none" stroke="#edc948" stroke-width="2" stroke-linejoin="round" stroke-linecap="round"><title>residual_balance_normalized</title></polyline>
<polyline points="78.00,203.33 90.02,203.33 102.04,203.33 114.06,203.33 126.08,203.33 138.10,203.33 150.12,203.33 162.14,203.33 174.16,203.33 186.18,203.33 198.20,203.33 210.22,203.33 222.24,203.33 234.26,203.33 246.28,203.33 258.30,203.33 270.32,203.33 282.34,203.33 294.36,203.33 306.38,203.33 318.40,203.33 330.42,203.33 342.44,203.33 354.46,203.33 366.48,203.33 378.51,203.33 390.53,203.33 402.55,203.33 414.57,203.33 426.59,203.33 438.61,203.33 450.63,203.33 462.65,203.33 474.67,203.33 486.69,203.33 498.71,203.33 510.73,203.33 522.75,203.33 534.77,203.33 546.79,203.33 558.81,203.33 570.83,203.33 582.85,203.33 594.87,203.33 606.89,203.33 618.91,203.33 630.93,203.33 642.95,203.33 654.97,203.33 666.99,203.33 679.01,203.33 691.03,203.33 703.05,203.33 715.07,203.33 727.09,203.33 739.11,203.33 751.13,203.33 763.15,203.33 775.17,203.33 787.19,203.33 799.21,203.33 811.23,203.33 823.25,203.33 835.27,203.33 847.29,203.33 859.31,203.33 871.33,203.33 883.35,203.33 895.37,203.33 907.39,203.33 919.41,203.33 931.43,203.33 943.45,203.33 955.47,203.33 967.49,203.33 979.52,203.33 991.54,203.33 1003.56,203.33 1015.58,203.33 1027.60,203.33 1039.62,203.33 1051.64,203.33 1063.66,203.33 1075.68,203.33 1087.70,203.33 1099.72,203.33 1111.74,203.33 1123.76,203.33 1135.78,203.33 1147.80,203.33 1159.82,203.33 1171.84,203.33 1183.86,203.33 1195.88,203.33 1207.90,203.33 1219.92,203.33 1231.94,203.33 1243.96,203.33 1255.98,203.33 1268.00,203.33" fill="none" stroke="#f28e2b" stroke-width="2" stroke-linejoin="round" stroke-linecap="round"><title>residual_balance_raw</title></polyline>
<polyline points="78.00,203.33 90.02,203.33 102.04,203.33 114.06,203.33 126.08,203.33 138.10,203.33 150.12,203.33 162.14,203.33 174.16,203.33 186.18,203.33 198.20,203.33 210.22,203.33 222.24,203.33 234.26,203.33 246.28,203.33 258.30,203.33 270.32,203.33 282.34,203.33 294.36,203.33 306.38,203.33 318.40,203.33 330.42,203.33 342.44,203.33 354.46,203.33 366.48,203.33 378.51,203.33 390.53,203.33 402.55,203.33 414.57,203.33 426.59,203.33 438.61,203.33 450.63,203.33 462.65,203.33 474.67,203.33 486.69,203.33 498.71,203.33 510.73,203.33 522.75,203.33 534.77,203.33 546.79,203.33 558.81,203.33 570.83,203.33 582.85,203.33 594.87,203.33 606.89,203.33 618.91,203.33 630.93,203.33 642.95,203.33 654.97,203.33 666.99,203.33 679.01,203.33 691.03,203.33 703.05,203.33 715.07,203.33 727.09,203.33 739.11,203.33 751.13,203.33 763.15,203.33 775.17,203.33 787.19,203.33 799.21,203.33 811.23,203.33 823.25,203.33 835.27,203.33 847.29,203.33 859.31,203.33 871.33,203.33 883.35,203.33 895.37,203.33 907.39,203.33 919.41,203.33 931.43,203.33 943.45,203.33 955.47,203.33 967.49,203.33 979.52,203.33 991.54,203.33 1003.56,203.33 1015.58,203.33 1027.60,203.33 1039.62,203.33 1051.64,203.33 1063.66,203.33 1075.68,203.33 1087.70,203.33 1099.72,203.33 1111.74,203.33 1123.76,203.33 1135.78,203.33 1147.80,203.33 1159.82,203.33 1171.84,203.33 1183.86,203.33 1195.88,203.33 1207.90,203.33 1219.92,203.33 1231.94,203.33 1243.96,203.33 1255.98,203.33 1268.00,203.33" fill="none" stroke="#ff9da7" stroke-width="2" stroke-linejoin="round" stroke-linecap="round"><title>residual_balance_relative</title></polyline>
<line x1="1286" x2="1302" y1="60" y2="60" stroke="#4e79a7" stroke-width="3"/>
<text x="1308" y="64" font-size="11" font-family="Arial">fixed_rho_0p1</text>
<line x1="1286" x2="1302" y1="80" y2="80" stroke="#e15759" stroke-width="3"/>
<text x="1308" y="84" font-size="11" font-family="Arial">fixed_rho_10</text>
<line x1="1286" x2="1302" y1="100" y2="100" stroke="#59a14f" stroke-width="3"/>
<text x="1308" y="104" font-size="11" font-family="Arial">fixed_rho_1</text>
<line x1="1286" x2="1302" y1="120" y2="120" stroke="#76b7b2" stroke-width="3"/>
<text x="1308" y="124" font-size="11" font-family="Arial">online_ogd_epoch5</text>
<line x1="1286" x2="1302" y1="140" y2="140" stroke="#9c755f" stroke-width="3"/>
<text x="1308" y="144" font-size="11" font-family="Arial">online_ogd_freeze50</text>
<line x1="1286" x2="1302" y1="160" y2="160" stroke="#111827" stroke-width="3"/>
<text x="1308" y="164" font-size="11" font-family="Arial">online_ogd_no_dual_rescale</text>
<line x1="1286" x2="1302" y1="180" y2="180" stroke="#b07aa1" stroke-width="3"/>
<text x="1308" y="184" font-size="11" font-family="Arial">online_ogd</text>
<line x1="1286" x2="1302" y1="200" y2="200" stroke="#6f63b6" stroke-width="3"/>
<text x="1308" y="204" font-size="11" font-family="Arial">online_ogd_task_accept</text>
<line x1="1286" x2="1302" y1="220" y2="220" stroke="#2f8f6b" stroke-width="3"/>
<text x="1308" y="224" font-size="11" font-family="Arial">online_ogd_task_aware</text>
<line x1="1286" x2="1302" y1="240" y2="240" stroke="#d37295" stroke-width="3"/>
<text x="1308" y="244" font-size="11" font-family="Arial">online_ogd_task_feasibility</text>
<line x1="1286" x2="1302" y1="260" y2="260" stroke="#edc948" stroke-width="3"/>
<text x="1308" y="264" font-size="11" font-family="Arial">residual_balance_normalized</text>
<line x1="1286" x2="1302" y1="280" y2="280" stroke="#f28e2b" stroke-width="3"/>
<text x="1308" y="284" font-size="11" font-family="Arial">residual_balance_raw</text>
<line x1="1286" x2="1302" y1="300" y2="300" stroke="#ff9da7" stroke-width="3"/>
<text x="1308" y="304" font-size="11" font-family="Arial">residual_balance_relative</text>
</svg>
