<svg xmlns="http://www.w3.org/2000/svg" width="1420" height="560" viewBox="0 0 1420 560" role="img" aria-label="Nonconvex Quantization Deploy Loss / Relative Error">
<title>Nonconvex Quantization Deploy Loss / Relative Error</title>
<rect width="1420" height="560" fill="#ffffff"/>
<text x="82" y="28" font-size="20" font-family="Arial" font-weight="700">Nonconvex Quantization Deploy Loss / Relative Error</text>
<text x="18" y="258.0" transform="rotate(-90 18 258.0)" font-size="12" font-family="Arial">deploy loss / relative error</text>
<line x1="82" x2="1396" y1="460.00" y2="460.00" stroke="#e5e7eb"/>
<text x="74" y="464.00" text-anchor="end" font-size="11" font-family="Arial" fill="#4b5563">1e-1</text>
<line x1="82" x2="1396" y1="359.00" y2="359.00" stroke="#e5e7eb"/>
<text x="74" y="363.00" text-anchor="end" font-size="11" font-family="Arial" fill="#4b5563">1e0</text>
<line x1="82" x2="1396" y1="258.00" y2="258.00" stroke="#e5e7eb"/>
<text x="74" y="262.00" text-anchor="end" font-size="11" font-family="Arial" fill="#4b5563">1e0</text>
<line x1="82" x2="1396" y1="157.00" y2="157.00" stroke="#e5e7eb"/>
<text x="74" y="161.00" text-anchor="end" font-size="11" font-family="Arial" fill="#4b5563">1e0</text>
<line x1="82" x2="1396" y1="56.00" y2="56.00" stroke="#e5e7eb"/>
<text x="74" y="60.00" text-anchor="end" font-size="11" font-family="Arial" fill="#4b5563">1e0</text>
<text x="410.50" y="506" text-anchor="middle" font-size="12" font-family="Arial">tanh qat nonconvex</text>
<rect x="90.00" y="273.94" width="47.31" height="186.06" fill="#4e79a7"><title>tanh_qat_nonconvex / fixed_rho_0p1: 0.2888</title></rect>
<rect x="139.31" y="245.21" width="47.31" height="214.79" fill="#59a14f"><title>tanh_qat_nonconvex / fixed_rho_1: 0.3401</title></rect>
<rect x="188.62" y="178.36" width="47.31" height="281.64" fill="#e15759"><title>tanh_qat_nonconvex / fixed_rho_10: 0.4979</title></rect>
<rect x="237.92" y="260.84" width="47.31" height="199.16" fill="#b07aa1"><title>tanh_qat_nonconvex / online_ogd: 0.3112</title></rect>
<rect x="287.23" y="251.38" width="47.31" height="208.62" fill="#76b7b2"><title>tanh_qat_nonconvex / online_ogd_epoch5: 0.3284</title></rect>
<rect x="336.54" y="259.82" width="47.31" height="200.18" fill="#9c755f"><title>tanh_qat_nonconvex / online_ogd_freeze50: 0.313</title></rect>
<rect x="385.85" y="262.25" width="47.31" height="197.75" fill="#111827"><title>tanh_qat_nonconvex / online_ogd_no_dual_rescale: 0.3087</title></rect>
<rect x="435.15" y="267.27" width="47.31" height="192.73" fill="#6f63b6"><title>tanh_qat_nonconvex / online_ogd_task_accept: 0.3</title></rect>
<rect x="484.46" y="262.45" width="47.31" height="197.55" fill="#2f8f6b"><title>tanh_qat_nonconvex / online_ogd_task_aware: 0.3083</title></rect>
<rect x="533.77" y="225.06" width="47.31" height="234.94" fill="#d37295"><title>tanh_qat_nonconvex / online_ogd_task_feasibility: 0.3815</title></rect>
<rect x="583.08" y="245.21" width="47.31" height="214.79" fill="#edc948"><title>tanh_qat_nonconvex / residual_balance_normalized: 0.3401</title></rect>
<rect x="632.38" y="245.21" width="47.31" height="214.79" fill="#f28e2b"><title>tanh_qat_nonconvex / residual_balance_raw: 0.3401</title></rect>
<rect x="681.69" y="245.21" width="47.31" height="214.79" fill="#ff9da7"><title>tanh_qat_nonconvex / residual_balance_relative: 0.3401</title></rect>
<text x="1067.50" y="506" text-anchor="middle" font-size="12" font-family="Arial">tiny llm ptq</text>
<rect x="747.00" y="234.25" width="47.31" height="225.75" fill="#4e79a7"><title>tiny_llm_ptq / fixed_rho_0p1: 0.3621</title></rect>
<rect x="796.31" y="245.62" width="47.31" height="214.38" fill="#59a14f"><title>tiny_llm_ptq / fixed_rho_1: 0.3394</title></rect>
<rect x="845.62" y="280.50" width="47.31" height="179.50" fill="#e15759"><title>tiny_llm_ptq / fixed_rho_10: 0.2782</title></rect>
<rect x="894.92" y="240.52" width="47.31" height="219.48" fill="#b07aa1"><title>tiny_llm_ptq / online_ogd: 0.3493</title></rect>
<rect x="944.23" y="243.73" width="47.31" height="216.27" fill="#76b7b2"><title>tiny_llm_ptq / online_ogd_epoch5: 0.343</title></rect>
<rect x="993.54" y="242.61" width="47.31" height="217.39" fill="#9c755f"><title>tiny_llm_ptq / online_ogd_freeze50: 0.3452</title></rect>
<rect x="1042.85" y="240.66" width="47.31" height="219.34" fill="#111827"><title>tiny_llm_ptq / online_ogd_no_dual_rescale: 0.3491</title></rect>
<rect x="1092.15" y="220.38" width="47.31" height="239.62" fill="#6f63b6"><title>tiny_llm_ptq / online_ogd_task_accept: 0.3918</title></rect>
<rect x="1141.46" y="241.90" width="47.31" height="218.10" fill="#2f8f6b"><title>tiny_llm_ptq / online_ogd_task_aware: 0.3466</title></rect>
<rect x="1190.77" y="257.88" width="47.31" height="202.12" fill="#d37295"><title>tiny_llm_ptq / online_ogd_task_feasibility: 0.3164</title></rect>
<rect x="1240.08" y="245.62" width="47.31" height="214.38" fill="#edc948"><title>tiny_llm_ptq / residual_balance_normalized: 0.3394</title></rect>
<rect x="1289.38" y="245.62" width="47.31" height="214.38" fill="#f28e2b"><title>tiny_llm_ptq / residual_balance_raw: 0.3394</title></rect>
<rect x="1338.69" y="245.62" width="47.31" height="214.38" fill="#ff9da7"><title>tiny_llm_ptq / residual_balance_relative: 0.3394</title></rect>
<rect x="82" y="520" width="10" height="10" fill="#4e79a7"/>
<text x="97" y="530" font-size="11" font-family="Arial">fixed_rho_0p1</text>
<rect x="227" y="520" width="10" height="10" fill="#59a14f"/>
<text x="242" y="530" font-size="11" font-family="Arial">fixed_rho_1</text>
<rect x="372" y="520" width="10" height="10" fill="#e15759"/>
<text x="387" y="530" font-size="11" font-family="Arial">fixed_rho_10</text>
<rect x="517" y="520" width="10" height="10" fill="#b07aa1"/>
<text x="532" y="530" font-size="11" font-family="Arial">online_ogd</text>
<rect x="662" y="520" width="10" height="10" fill="#76b7b2"/>
<text x="677" y="530" font-size="11" font-family="Arial">online_ogd_epoch5</text>
<rect x="807" y="520" width="10" height="10" fill="#9c755f"/>
<text x="822" y="530" font-size="11" font-family="Arial">online_ogd_freeze50</text>
<rect x="952" y="520" width="10" height="10" fill="#111827"/>
<text x="967" y="530" font-size="11" font-family="Arial">online_ogd_no_dual_rescale</text>
<rect x="1097" y="520" width="10" height="10" fill="#6f63b6"/>
<text x="1112" y="530" font-size="11" font-family="Arial">online_ogd_task_accept</text>
<rect x="1242" y="520" width="10" height="10" fill="#2f8f6b"/>
<text x="1257" y="530" font-size="11" font-family="Arial">online_ogd_task_aware</text>
<rect x="1387" y="520" width="10" height="10" fill="#d37295"/>
<text x="1402" y="530" font-size="11" font-family="Arial">online_ogd_task_feasibility</text>
<rect x="1532" y="520" width="10" height="10" fill="#edc948"/>
<text x="1547" y="530" font-size="11" font-family="Arial">residual_balance_normalized</text>
<rect x="1677" y="520" width="10" height="10" fill="#f28e2b"/>
<text x="1692" y="530" font-size="11" font-family="Arial">residual_balance_raw</text>
<rect x="1822" y="520" width="10" height="10" fill="#ff9da7"/>
<text x="1837" y="530" font-size="11" font-family="Arial">residual_balance_relative</text>
</svg>
