<svg xmlns="http://www.w3.org/2000/svg" width="1420" height="560" viewBox="0 0 1420 560" role="img" aria-label="Tanh Qat Nonconvex Deploy Loss">
<title>Tanh Qat Nonconvex Deploy Loss</title>
<rect width="1420" height="560" fill="#ffffff"/>
<text x="78" y="28" font-size="20" font-family="Arial" font-weight="700">Tanh Qat Nonconvex Deploy Loss</text>
<text x="673.0" y="548" text-anchor="middle" font-size="12" font-family="Arial">ADMM iteration</text>
<text x="18" y="277.0" transform="rotate(-90 18 277.0)" font-size="12" font-family="Arial">deploy loss</text>
<line x1="78" x2="1268" y1="498.00" y2="498.00" stroke="#e5e7eb"/>
<text x="70" y="502.00" text-anchor="end" font-size="11" font-family="Arial" fill="#4b5563">1e-1</text>
<line x1="78" x2="1268" y1="387.50" y2="387.50" stroke="#e5e7eb"/>
<text x="70" y="391.50" text-anchor="end" font-size="11" font-family="Arial" fill="#4b5563">1e0</text>
<line x1="78" x2="1268" y1="277.00" y2="277.00" stroke="#e5e7eb"/>
<text x="70" y="281.00" text-anchor="end" font-size="11" font-family="Arial" fill="#4b5563">1e0</text>
<line x1="78" x2="1268" y1="166.50" y2="166.50" stroke="#e5e7eb"/>
<text x="70" y="170.50" text-anchor="end" font-size="11" font-family="Arial" fill="#4b5563">1e0</text>
<line x1="78" x2="1268" y1="56.00" y2="56.00" stroke="#e5e7eb"/>
<text x="70" y="60.00" text-anchor="end" font-size="11" font-family="Arial" fill="#4b5563">1e1</text>
<line x1="78.00" x2="78.00" y1="56" y2="498" stroke="#f3f4f6"/>
<text x="78.00" y="516" text-anchor="middle" font-size="11" font-family="Arial" fill="#4b5563">1</text>
<line x1="375.50" x2="375.50" y1="56" y2="498" stroke="#f3f4f6"/>
<text x="375.50" y="516" text-anchor="middle" font-size="11" font-family="Arial" fill="#4b5563">25</text>
<line x1="673.00" x2="673.00" y1="56" y2="498" stroke="#f3f4f6"/>
<text x="673.00" y="516" text-anchor="middle" font-size="11" font-family="Arial" fill="#4b5563">50</text>
<line x1="970.50" x2="970.50" y1="56" y2="498" stroke="#f3f4f6"/>
<text x="970.50" y="516" text-anchor="middle" font-size="11" font-family="Arial" fill="#4b5563">75</text>
<line x1="1268.00" x2="1268.00" y1="56" y2="498" stroke="#f3f4f6"/>
<text x="1268.00" y="516" text-anchor="middle" font-size="11" font-family="Arial" fill="#4b5563">100</text>
<polyline points="78.00,206.48 90.02,232.70 102.04,261.23 114.06,297.00 126.08,328.20 138.10,353.35 150.12,372.22 162.14,384.22 174.16,391.82 186.18,395.86 198.20,396.94 210.22,396.82 222.24,398.36 234.26,401.63 246.28,403.32 258.30,399.67 270.32,402.62 282.34,398.07 294.36,403.03 306.38,404.05 318.40,405.15 330.42,403.57 342.44,406.92 354.46,404.03 366.48,404.95 378.51,405.52 390.53,406.83 402.55,404.65 414.57,406.50 426.59,407.34 438.61,406.06 450.63,407.92 462.65,408.36 474.67,409.22 486.69,408.59 498.71,407.48 510.73,410.64 522.75,410.89 534.77,408.17 546.79,411.68 558.81,409.54 570.83,412.87 582.85,410.03 594.87,411.34 606.89,414.08 618.91,412.38 630.93,412.73 642.95,414.25 654.97,411.17 666.99,416.13 679.01,414.07 691.03,418.41 703.05,414.02 715.07,408.07 727.09,415.65 739.11,419.43 751.13,417.35 763.15,419.78 775.17,417.34 787.19,417.51 799.21,418.95 811.23,417.84 823.25,416.19 835.27,418.38 847.29,422.34 859.31,420.36 871.33,421.39 883.35,417.76 895.37,419.95 907.39,418.84 919.41,421.69 931.43,422.18 943.45,420.27 955.47,422.36 967.49,424.61 979.52,417.67 991.54,424.55 1003.56,425.59 1015.58,426.20 1027.60,422.53 1039.62,422.04 1051.64,425.32 1063.66,425.16 1075.68,425.44 1087.70,424.57 1099.72,426.23 1111.74,426.87 1123.76,427.97 1135.78,427.92 1147.80,428.49 1159.82,428.93 1171.84,428.28 1183.86,427.75 1195.88,428.37 1207.90,429.69 1219.92,429.99 1231.94,431.77 1243.96,424.46 1255.98,431.37 1268.00,430.90" fill="none" stroke="#4e79a7" stroke-width="2" stroke-linejoin="round" stroke-linecap="round"><title>fixed_rho_0p1</title></polyline>
<polyline points="78.00,179.96 90.02,186.05 102.04,191.59 114.06,197.13 126.08,202.56 138.10,208.11 150.12,213.97 162.14,219.01 174.16,225.02 186.18,230.06 198.20,235.04 210.22,239.97 222.24,244.86 234.26,249.70 246.28,254.49 258.30,259.23 270.32,263.91 282.34,268.54 294.36,273.10 306.38,277.60 318.40,282.02 330.42,286.35 342.44,290.60 354.46,294.75 366.48,298.80 378.51,302.74 390.53,306.56 402.55,310.26 414.57,313.84 426.59,318.80 438.61,322.13 450.63,326.82 462.65,329.90 474.67,334.27 486.69,337.09 498.71,339.76 510.73,343.65 522.75,346.05 534.77,348.31 546.79,350.43 558.81,352.41 570.83,354.26 582.85,356.00 594.87,357.61 606.89,359.13 618.91,360.53 630.93,361.85 642.95,363.07 654.97,364.21 666.99,365.28 679.01,366.27 691.03,367.19 703.05,368.06 715.07,368.86 727.09,369.62 739.11,370.32 751.13,370.98 763.15,371.59 775.17,372.17 787.19,372.71 799.21,373.22 811.23,373.70 823.25,374.15 835.27,374.57 847.29,374.97 859.31,375.35 871.33,375.70 883.35,376.04 895.37,376.36 907.39,376.66 919.41,376.95 931.43,377.22 943.45,377.48 955.47,377.72 967.49,377.96 979.52,378.18 991.54,378.40 1003.56,378.60 1015.58,378.80 1027.60,378.98 1039.62,379.16 1051.64,379.34 1063.66,379.50 1075.68,379.66 1087.70,379.81 1099.72,379.96 1111.74,380.10 1123.76,380.24 1135.78,380.37 1147.80,380.50 1159.82,380.62 1171.84,380.74 1183.86,380.85 1195.88,380.96 1207.90,381.07 1219.92,381.17 1231.94,381.27 1243.96,381.37 1255.98,381.46 1268.00,381.55" fill="none" stroke="#e15759" stroke-width="2" stroke-linejoin="round" stroke-linecap="round"><title>fixed_rho_10</title></polyline>
<polyline points="78.00,203.62 90.02,227.87 102.04,254.43 114.06,283.63 126.08,320.98 138.10,336.47 150.12,365.25 162.14,374.77 174.16,386.18 186.18,393.28 198.20,395.99 210.22,397.68 222.24,397.93 234.26,402.70 246.28,400.26 258.30,401.62 270.32,400.98 282.34,402.73 294.36,402.40 306.38,403.80 318.40,403.28 330.42,404.37 342.44,404.35 354.46,404.63 366.48,403.38 378.51,404.54 390.53,404.54 402.55,404.75 414.57,404.97 426.59,404.72 438.61,403.50 450.63,405.38 462.65,404.84 474.67,405.88 486.69,405.43 498.71,405.61 510.73,404.66 522.75,406.67 534.77,405.95 546.79,406.52 558.81,406.20 570.83,406.45 582.85,405.70 594.87,406.78 606.89,406.17 618.91,407.19 630.93,406.84 642.95,406.82 654.97,405.39 666.99,407.33 679.01,407.19 691.03,407.58 703.05,407.44 715.07,407.28 727.09,406.42 739.11,407.17 751.13,407.50 763.15,407.90 775.17,408.58 787.19,407.15 799.21,407.87 811.23,408.37 823.25,408.49 835.27,408.81 847.29,408.82 859.31,408.31 871.33,407.81 883.35,408.83 895.37,408.67 907.39,409.02 919.41,409.42 931.43,408.60 943.45,408.06 955.47,409.10 967.49,409.35 979.52,409.61 991.54,409.27 1003.56,408.99 1015.58,409.02 1027.60,409.34 1039.62,409.67 1051.64,409.84 1063.66,409.93 1075.68,409.26 1087.70,409.08 1099.72,409.49 1111.74,409.84 1123.76,410.07 1135.78,410.16 1147.80,409.57 1159.82,409.17 1171.84,409.58 1183.86,409.68 1195.88,409.96 1207.90,410.65 1219.92,409.83 1231.94,409.25 1243.96,409.96 1255.98,409.89 1268.00,410.66" fill="none" stroke="#59a14f" stroke-width="2" stroke-linejoin="round" stroke-linecap="round"><title>fixed_rho_1</title></polyline>
<polyline points="78.00,203.62 90.02,227.87 102.04,254.43 114.06,283.63 126.08,320.98 138.10,335.68 150.12,366.09 162.14,377.13 174.16,384.81 186.18,393.63 198.20,395.95 210.22,397.51 222.24,398.46 234.26,401.69 246.28,399.73 258.30,401.52 270.32,401.45 282.34,402.36 294.36,402.43 306.38,403.05 318.40,401.08 330.42,402.91 342.44,405.11 354.46,403.28 366.48,404.12 378.51,405.04 390.53,405.46 402.55,405.56 414.57,405.15 426.59,405.60 438.61,404.63 450.63,406.49 462.65,405.67 474.67,406.25 486.69,407.05 498.71,406.85 510.73,406.00 522.75,406.95 534.77,407.36 546.79,407.27 558.81,406.97 570.83,406.95 582.85,407.41 594.87,408.12 606.89,406.93 618.91,407.51 630.93,408.82 642.95,408.00 654.97,407.53 666.99,408.50 679.01,406.74 691.03,409.64 703.05,408.62 715.07,408.68 727.09,407.32 739.11,408.83 751.13,408.72 763.15,409.49 775.17,409.89 787.19,409.45 799.21,407.77 811.23,409.81 823.25,409.76 835.27,410.82 847.29,409.40 859.31,410.01 871.33,409.48 883.35,409.91 895.37,410.37 907.39,410.13 919.41,410.84 931.43,410.47 943.45,409.80 955.47,411.29 967.49,410.62 979.52,411.77 991.54,410.29 1003.56,410.55 1015.58,411.17 1027.60,411.28 1039.62,410.75 1051.64,412.00 1063.66,411.38 1075.68,412.24 1087.70,410.79 1099.72,412.01 1111.74,410.63 1123.76,411.83 1135.78,411.11 1147.80,411.25 1159.82,410.88 1171.84,412.45 1183.86,411.77 1195.88,412.45 1207.90,412.22 1219.92,411.80 1231.94,411.49 1243.96,412.94 1255.98,412.05 1268.00,412.55" fill="none" stroke="#76b7b2" stroke-width="2" stroke-linejoin="round" stroke-linecap="round"><title>online_ogd_epoch5</title></polyline>
<polyline points="78.00,203.62 90.02,228.36 102.04,255.62 114.06,289.11 126.08,319.46 138.10,340.74 150.12,365.18 162.14,375.48 174.16,390.06 186.18,393.75 198.20,397.30 210.22,397.04 222.24,400.53 234.26,400.39 246.28,402.64 258.30,401.03 270.32,401.68 282.34,404.38 294.36,403.24 306.38,403.56 318.40,404.90 330.42,405.32 342.44,404.57 354.46,404.06 366.48,405.38 378.51,403.97 390.53,406.05 402.55,406.71 414.57,407.41 426.59,406.92 438.61,407.58 450.63,406.12 462.65,408.26 474.67,407.76 486.69,408.31 498.71,406.70 510.73,408.58 522.75,408.81 534.77,410.14 546.79,409.24 558.81,411.07 570.83,410.66 582.85,411.27 594.87,410.02 606.89,411.34 618.91,410.82 630.93,411.70 642.95,412.17 654.97,411.79 666.99,412.50 679.01,411.95 691.03,412.88 703.05,414.00 715.07,412.97 727.09,413.76 739.11,414.36 751.13,415.62 763.15,414.28 775.17,413.89 787.19,413.02 799.21,414.01 811.23,414.22 823.25,414.38 835.27,415.88 847.29,416.88 859.31,416.08 871.33,417.01 883.35,417.32 895.37,415.85 907.39,416.59 919.41,416.75 931.43,417.92 943.45,418.15 955.47,418.14 967.49,415.64 979.52,416.79 991.54,419.85 1003.56,420.37 1015.58,419.32 1027.60,419.55 1039.62,416.82 1051.64,420.84 1063.66,419.29 1075.68,422.37 1087.70,419.20 1099.72,420.42 1111.74,421.31 1123.76,419.91 1135.78,422.37 1147.80,420.61 1159.82,420.89 1171.84,421.91 1183.86,421.57 1195.88,420.57 1207.90,422.82 1219.92,421.89 1231.94,422.11 1243.96,422.45 1255.98,422.68 1268.00,421.61" fill="none" stroke="#9c755f" stroke-width="2" stroke-linejoin="round" stroke-linecap="round"><title>online_ogd_freeze50</title></polyline>
<polyline points="78.00,203.62 90.02,228.30 102.04,254.91 114.06,287.92 126.08,321.03 138.10,343.16 150.12,364.98 162.14,374.23 174.16,392.64 186.18,389.15 198.20,397.57 210.22,397.37 222.24,397.96 234.26,398.07 246.28,400.25 258.30,401.46 270.32,402.21 282.34,403.19 294.36,402.47 306.38,401.65 318.40,405.50 330.42,402.57 342.44,404.66 354.46,405.94 366.48,405.58 378.51,405.85 390.53,404.06 402.55,406.09 414.57,407.55 426.59,406.38 438.61,405.90 450.63,407.61 462.65,407.39 474.67,409.16 486.69,407.35 498.71,407.99 510.73,407.19 522.75,406.32 534.77,410.25 546.79,408.56 558.81,408.74 570.83,409.82 582.85,409.92 594.87,410.42 606.89,410.56 618.91,411.27 630.93,411.77 642.95,412.62 654.97,411.81 666.99,410.59 679.01,411.41 691.03,413.70 703.05,411.79 715.07,413.97 727.09,414.33 739.11,413.43 751.13,414.61 763.15,413.62 775.17,414.23 787.19,414.25 799.21,415.38 811.23,414.33 823.25,416.13 835.27,415.39 847.29,416.17 859.31,414.76 871.33,417.11 883.35,416.04 895.37,416.73 907.39,415.98 919.41,416.73 931.43,418.11 943.45,415.97 955.47,417.41 967.49,418.32 979.52,417.91 991.54,416.76 1003.56,417.76 1015.58,419.07 1027.60,416.41 1039.62,419.79 1051.64,417.89 1063.66,419.50 1075.68,420.24 1087.70,418.54 1099.72,419.93 1111.74,419.88 1123.76,418.22 1135.78,420.47 1147.80,420.67 1159.82,420.75 1171.84,421.35 1183.86,420.69 1195.88,421.70 1207.90,421.23 1219.92,422.34 1231.94,421.70 1243.96,420.77 1255.98,421.44 1268.00,421.68" fill="none" stroke="#111827" stroke-width="2" stroke-linejoin="round" stroke-linecap="round"><title>online_ogd_no_dual_rescale</title></polyline>
<polyline points="78.00,203.62 90.02,228.36 102.04,255.62 114.06,289.11 126.08,319.46 138.10,340.74 150.12,365.18 162.14,375.48 174.16,390.06 186.18,393.75 198.20,397.30 210.22,397.04 222.24,400.53 234.26,400.39 246.28,402.64 258.30,401.03 270.32,401.68 282.34,404.38 294.36,403.24 306.38,403.56 318.40,404.90 330.42,405.32 342.44,404.57 354.46,404.06 366.48,405.38 378.51,403.97 390.53,406.05 402.55,406.71 414.57,407.41 426.59,406.92 438.61,407.58 450.63,406.12 462.65,408.26 474.67,407.76 486.69,408.31 498.71,406.70 510.73,408.58 522.75,408.81 534.77,410.14 546.79,409.24 558.81,411.07 570.83,410.66 582.85,411.27 594.87,410.02 606.89,411.34 618.91,410.82 630.93,411.70 642.95,412.17 654.97,411.79 666.99,412.50 679.01,411.95 691.03,412.88 703.05,414.00 715.07,412.97 727.09,413.76 739.11,414.36 751.13,415.62 763.15,414.28 775.17,413.89 787.19,413.02 799.21,414.01 811.23,414.22 823.25,414.38 835.27,415.88 847.29,416.88 859.31,416.08 871.33,417.01 883.35,417.32 895.37,416.28 907.39,416.27 919.41,417.09 931.43,417.65 943.45,418.79 955.47,418.11 967.49,416.23 979.52,416.78 991.54,419.86 1003.56,420.38 1015.58,419.32 1027.60,419.56 1039.62,416.63 1051.64,421.15 1063.66,419.27 1075.68,422.40 1087.70,418.57 1099.72,420.65 1111.74,421.29 1123.76,420.26 1135.78,422.44 1147.80,421.27 1159.82,421.20 1171.84,422.69 1183.86,421.47 1195.88,420.58 1207.90,422.83 1219.92,421.85 1231.94,422.38 1243.96,421.61 1255.98,423.20 1268.00,421.75" fill="none" stroke="#b07aa1" stroke-width="2" stroke-linejoin="round" stroke-linecap="round"><title>online_ogd</title></polyline>
<polyline points="78.00,203.62 90.02,228.62 102.04,253.96 114.06,286.60 126.08,321.15 138.10,341.49 150.12,367.70 162.14,373.79 174.16,390.02 186.18,391.25 198.20,396.88 210.22,395.70 222.24,401.79 234.26,399.41 246.28,401.37 258.30,399.92 270.32,398.19 282.34,402.66 294.36,402.45 306.38,400.15 318.40,406.11 330.42,403.54 342.44,401.99 354.46,403.27 366.48,405.88 378.51,406.25 390.53,405.14 402.55,403.48 414.57,408.91 426.59,406.73 438.61,409.36 450.63,408.18 462.65,407.62 474.67,408.34 486.69,408.49 498.71,410.48 510.73,413.31 522.75,411.52 534.77,409.84 546.79,411.44 558.81,410.93 570.83,412.37 582.85,409.68 594.87,409.46 606.89,411.67 618.91,411.00 630.93,413.59 642.95,411.52 654.97,414.30 666.99,417.66 679.01,414.66 691.03,412.43 703.05,415.85 715.07,416.28 727.09,416.50 739.11,416.35 751.13,416.61 763.15,416.05 775.17,416.30 787.19,417.25 799.21,415.80 811.23,417.88 823.25,417.44 835.27,416.78 847.29,419.22 859.31,420.78 871.33,417.59 883.35,417.68 895.37,421.05 907.39,422.94 919.41,423.68 931.43,420.62 943.45,424.85 955.47,423.02 967.49,418.48 979.52,419.23 991.54,419.78 1003.56,425.84 1015.58,424.80 1027.60,421.02 1039.62,422.02 1051.64,422.24 1063.66,427.84 1075.68,427.48 1087.70,420.45 1099.72,425.91 1111.74,426.48 1123.76,424.16 1135.78,429.27 1147.80,427.30 1159.82,423.55 1171.84,428.33 1183.86,424.20 1195.88,428.05 1207.90,427.61 1219.92,432.88 1231.94,428.70 1243.96,429.51 1255.98,430.84 1268.00,430.17" fill="none" stroke="#6f63b6" stroke-width="2" stroke-linejoin="round" stroke-linecap="round"><title>online_ogd_task_accept</title></polyline>
<polyline points="78.00,203.62 90.02,228.62 102.04,253.77 114.06,287.22 126.08,321.88 138.10,341.85 150.12,367.45 162.14,378.24 174.16,388.26 186.18,387.96 198.20,399.35 210.22,396.63 222.24,397.83 234.26,398.41 246.28,402.46 258.30,402.40 270.32,402.55 282.34,401.32 294.36,403.28 306.38,403.68 318.40,404.22 330.42,402.34 342.44,404.52 354.46,404.92 366.48,405.63 378.51,404.10 390.53,405.94 402.55,407.91 414.57,406.15 426.59,407.54 438.61,408.46 450.63,407.38 462.65,408.59 474.67,408.96 486.69,409.99 498.71,410.70 510.73,409.30 522.75,411.83 534.77,411.52 546.79,412.66 558.81,411.47 570.83,411.20 582.85,413.42 594.87,412.66 606.89,413.90 618.91,413.98 630.93,412.79 642.95,410.59 654.97,414.52 666.99,412.05 679.01,413.41 691.03,415.86 703.05,414.93 715.07,414.85 727.09,415.42 739.11,415.83 751.13,413.76 763.15,417.11 775.17,417.84 787.19,416.00 799.21,418.12 811.23,415.94 823.25,418.52 835.27,416.74 847.29,418.68 859.31,419.02 871.33,419.50 883.35,419.67 895.37,419.24 907.39,417.35 919.41,416.67 931.43,419.90 943.45,419.68 955.47,420.75 967.49,420.01 979.52,421.48 991.54,419.55 1003.56,421.00 1015.58,422.75 1027.60,421.60 1039.62,422.16 1051.64,422.26 1063.66,422.85 1075.68,422.66 1087.70,424.25 1099.72,423.28 1111.74,424.60 1123.76,425.49 1135.78,424.28 1147.80,423.72 1159.82,425.73 1171.84,424.17 1183.86,424.86 1195.88,423.82 1207.90,425.74 1219.92,422.40 1231.94,425.79 1243.96,425.27 1255.98,427.79 1268.00,424.76" fill="none" stroke="#2f8f6b" stroke-width="2" stroke-linejoin="round" stroke-linecap="round"><title>online_ogd_task_aware</title></polyline>
<polyline points="78.00,203.62 90.02,227.66 102.04,254.25 114.06,287.40 126.08,314.25 138.10,343.70 150.12,357.97 162.14,375.69 174.16,386.66 186.18,392.12 198.20,394.57 210.22,398.30 222.24,396.18 234.26,399.01 246.28,400.79 258.30,400.77 270.32,402.19 282.34,401.69 294.36,401.16 306.38,401.46 318.40,402.82 330.42,402.10 342.44,403.55 354.46,402.13 366.48,402.47 378.51,401.96 390.53,403.51 402.55,402.77 414.57,403.95 426.59,402.69 438.61,403.07 450.63,402.09 462.65,403.97 474.67,403.03 486.69,404.28 498.71,402.90 510.73,403.48 522.75,402.26 534.77,404.30 546.79,403.24 558.81,404.53 570.83,403.09 582.85,403.81 594.87,402.41 606.89,404.57 618.91,403.43 630.93,404.74 642.95,403.27 654.97,404.08 666.99,402.57 679.01,404.80 691.03,403.60 703.05,404.94 715.07,403.45 727.09,404.32 739.11,402.72 751.13,405.02 763.15,403.78 775.17,405.12 787.19,403.61 799.21,404.53 811.23,402.88 823.25,405.21 835.27,403.93 847.29,405.30 859.31,403.77 871.33,404.73 883.35,403.03 895.37,405.38 907.39,404.09 919.41,405.45 931.43,403.92 943.45,404.91 955.47,403.18 967.49,405.55 979.52,404.23 991.54,405.61 1003.56,404.07 1015.58,405.08 1027.60,403.32 1039.62,405.71 1051.64,404.37 1063.66,405.76 1075.68,404.22 1087.70,405.25 1099.72,403.47 1111.74,405.86 1123.76,404.50 1135.78,405.90 1147.80,404.35 1159.82,405.40 1171.84,403.61 1183.86,406.00 1195.88,404.64 1207.90,406.03 1219.92,404.49 1231.94,405.54 1243.96,403.74 1255.98,406.13 1268.00,404.76" fill="none" stroke="#d37295" stroke-width="2" stroke-linejoin="round" stroke-linecap="round"><title>online_ogd_task_feasibility</title></polyline>
<polyline points="78.00,203.62 90.02,227.87 102.04,254.43 114.06,283.63 126.08,320.98 138.10,336.47 150.12,365.25 162.14,374.77 174.16,386.18 186.18,393.28 198.20,395.99 210.22,397.68 222.24,397.93 234.26,402.70 246.28,400.26 258.30,401.62 270.32,400.98 282.34,402.73 294.36,402.40 306.38,403.80 318.40,403.28 330.42,404.37 342.44,404.35 354.46,404.63 366.48,403.38 378.51,404.54 390.53,404.54 402.55,404.75 414.57,404.97 426.59,404.72 438.61,403.50 450.63,405.38 462.65,404.84 474.67,405.88 486.69,405.43 498.71,405.61 510.73,404.66 522.75,406.67 534.77,405.95 546.79,406.52 558.81,406.20 570.83,406.45 582.85,405.70 594.87,406.78 606.89,406.17 618.91,407.19 630.93,406.84 642.95,406.82 654.97,405.39 666.99,407.33 679.01,407.19 691.03,407.58 703.05,407.44 715.07,407.28 727.09,406.42 739.11,407.17 751.13,407.50 763.15,407.90 775.17,408.58 787.19,407.15 799.21,407.87 811.23,408.37 823.25,408.49 835.27,408.81 847.29,408.82 859.31,408.31 871.33,407.81 883.35,408.83 895.37,408.67 907.39,409.02 919.41,409.42 931.43,408.60 943.45,408.06 955.47,409.10 967.49,409.35 979.52,409.61 991.54,409.27 1003.56,408.99 1015.58,409.02 1027.60,409.34 1039.62,409.67 1051.64,409.84 1063.66,409.93 1075.68,409.26 1087.70,409.08 1099.72,409.49 1111.74,409.84 1123.76,410.07 1135.78,410.16 1147.80,409.57 1159.82,409.17 1171.84,409.58 1183.86,409.68 1195.88,409.96 1207.90,410.65 1219.92,409.83 1231.94,409.25 1243.96,409.96 1255.98,409.89 1268.00,410.66" fill="none" stroke="#edc948" stroke-width="2" stroke-linejoin="round" stroke-linecap="round"><title>residual_balance_normalized</title></polyline>
<polyline points="78.00,203.62 90.02,227.87 102.04,254.43 114.06,283.63 126.08,320.98 138.10,336.47 150.12,365.25 162.14,374.77 174.16,386.18 186.18,393.28 198.20,395.99 210.22,397.68 222.24,397.93 234.26,402.70 246.28,400.26 258.30,401.62 270.32,400.98 282.34,402.73 294.36,402.40 306.38,403.80 318.40,403.28 330.42,404.37 342.44,404.35 354.46,404.63 366.48,403.38 378.51,404.54 390.53,404.54 402.55,404.75 414.57,404.97 426.59,404.72 438.61,403.50 450.63,405.38 462.65,404.84 474.67,405.88 486.69,405.43 498.71,405.61 510.73,404.66 522.75,406.67 534.77,405.95 546.79,406.52 558.81,406.20 570.83,406.45 582.85,405.70 594.87,406.78 606.89,406.17 618.91,407.19 630.93,406.84 642.95,406.82 654.97,405.39 666.99,407.33 679.01,407.19 691.03,407.58 703.05,407.44 715.07,407.28 727.09,406.42 739.11,407.17 751.13,407.50 763.15,407.90 775.17,408.58 787.19,407.15 799.21,407.87 811.23,408.37 823.25,408.49 835.27,408.81 847.29,408.82 859.31,408.31 871.33,407.81 883.35,408.83 895.37,408.67 907.39,409.02 919.41,409.42 931.43,408.60 943.45,408.06 955.47,409.10 967.49,409.35 979.52,409.61 991.54,409.27 1003.56,408.99 1015.58,409.02 1027.60,409.34 1039.62,409.67 1051.64,409.84 1063.66,409.93 1075.68,409.26 1087.70,409.08 1099.72,409.49 1111.74,409.84 1123.76,410.07 1135.78,410.16 1147.80,409.57 1159.82,409.17 1171.84,409.58 1183.86,409.68 1195.88,409.96 1207.90,410.65 1219.92,409.83 1231.94,409.25 1243.96,409.96 1255.98,409.89 1268.00,410.66" fill="none" stroke="#f28e2b" stroke-width="2" stroke-linejoin="round" stroke-linecap="round"><title>residual_balance_raw</title></polyline>
<polyline points="78.00,203.62 90.02,227.87 102.04,254.43 114.06,283.63 126.08,320.98 138.10,336.47 150.12,365.25 162.14,374.77 174.16,386.18 186.18,393.28 198.20,395.99 210.22,397.68 222.24,397.93 234.26,402.70 246.28,400.26 258.30,401.62 270.32,400.98 282.34,402.73 294.36,402.40 306.38,403.80 318.40,403.28 330.42,404.37 342.44,404.35 354.46,404.63 366.48,403.38 378.51,404.54 390.53,404.54 402.55,404.75 414.57,404.97 426.59,404.72 438.61,403.50 450.63,405.38 462.65,404.84 474.67,405.88 486.69,405.43 498.71,405.61 510.73,404.66 522.75,406.67 534.77,405.95 546.79,406.52 558.81,406.20 570.83,406.45 582.85,405.70 594.87,406.78 606.89,406.17 618.91,407.19 630.93,406.84 642.95,406.82 654.97,405.39 666.99,407.33 679.01,407.19 691.03,407.58 703.05,407.44 715.07,407.28 727.09,406.42 739.11,407.17 751.13,407.50 763.15,407.90 775.17,408.58 787.19,407.15 799.21,407.87 811.23,408.37 823.25,408.49 835.27,408.81 847.29,408.82 859.31,408.31 871.33,407.81 883.35,408.83 895.37,408.67 907.39,409.02 919.41,409.42 931.43,408.60 943.45,408.06 955.47,409.10 967.49,409.35 979.52,409.61 991.54,409.27 1003.56,408.99 1015.58,409.02 1027.60,409.34 1039.62,409.67 1051.64,409.84 1063.66,409.93 1075.68,409.26 1087.70,409.08 1099.72,409.49 1111.74,409.84 1123.76,410.07 1135.78,410.16 1147.80,409.57 1159.82,409.17 1171.84,409.58 1183.86,409.68 1195.88,409.96 1207.90,410.65 1219.92,409.83 1231.94,409.25 1243.96,409.96 1255.98,409.89 1268.00,410.66" fill="none" stroke="#ff9da7" stroke-width="2" stroke-linejoin="round" stroke-linecap="round"><title>residual_balance_relative</title></polyline>
<line x1="1286" x2="1302" y1="60" y2="60" stroke="#4e79a7" stroke-width="3"/>
<text x="1308" y="64" font-size="11" font-family="Arial">fixed_rho_0p1</text>
<line x1="1286" x2="1302" y1="80" y2="80" stroke="#e15759" stroke-width="3"/>
<text x="1308" y="84" font-size="11" font-family="Arial">fixed_rho_10</text>
<line x1="1286" x2="1302" y1="100" y2="100" stroke="#59a14f" stroke-width="3"/>
<text x="1308" y="104" font-size="11" font-family="Arial">fixed_rho_1</text>
<line x1="1286" x2="1302" y1="120" y2="120" stroke="#76b7b2" stroke-width="3"/>
<text x="1308" y="124" font-size="11" font-family="Arial">online_ogd_epoch5</text>
<line x1="1286" x2="1302" y1="140" y2="140" stroke="#9c755f" stroke-width="3"/>
<text x="1308" y="144" font-size="11" font-family="Arial">online_ogd_freeze50</text>
<line x1="1286" x2="1302" y1="160" y2="160" stroke="#111827" stroke-width="3"/>
<text x="1308" y="164" font-size="11" font-family="Arial">online_ogd_no_dual_rescale</text>
<line x1="1286" x2="1302" y1="180" y2="180" stroke="#b07aa1" stroke-width="3"/>
<text x="1308" y="184" font-size="11" font-family="Arial">online_ogd</text>
<line x1="1286" x2="1302" y1="200" y2="200" stroke="#6f63b6" stroke-width="3"/>
<text x="1308" y="204" font-size="11" font-family="Arial">online_ogd_task_accept</text>
<line x1="1286" x2="1302" y1="220" y2="220" stroke="#2f8f6b" stroke-width="3"/>
<text x="1308" y="224" font-size="11" font-family="Arial">online_ogd_task_aware</text>
<line x1="1286" x2="1302" y1="240" y2="240" stroke="#d37295" stroke-width="3"/>
<text x="1308" y="244" font-size="11" font-family="Arial">online_ogd_task_feasibility</text>
<line x1="1286" x2="1302" y1="260" y2="260" stroke="#edc948" stroke-width="3"/>
<text x="1308" y="264" font-size="11" font-family="Arial">residual_balance_normalized</text>
<line x1="1286" x2="1302" y1="280" y2="280" stroke="#f28e2b" stroke-width="3"/>
<text x="1308" y="284" font-size="11" font-family="Arial">residual_balance_raw</text>
<line x1="1286" x2="1302" y1="300" y2="300" stroke="#ff9da7" stroke-width="3"/>
<text x="1308" y="304" font-size="11" font-family="Arial">residual_balance_relative</text>
</svg>
