<svg xmlns="http://www.w3.org/2000/svg" width="1420" height="560" viewBox="0 0 1420 560" role="img" aria-label="Tanh Qat Nonconvex Dual Norm">
<title>Tanh Qat Nonconvex Dual Norm</title>
<rect width="1420" height="560" fill="#ffffff"/>
<text x="78" y="28" font-size="20" font-family="Arial" font-weight="700">Tanh Qat Nonconvex Dual Norm</text>
<text x="673.0" y="548" text-anchor="middle" font-size="12" font-family="Arial">ADMM iteration</text>
<text x="18" y="277.0" transform="rotate(-90 18 277.0)" font-size="12" font-family="Arial">dual residual</text>
<line x1="78" x2="1268" y1="498.00" y2="498.00" stroke="#e5e7eb"/>
<text x="70" y="502.00" text-anchor="end" font-size="11" font-family="Arial" fill="#4b5563">1e-2</text>
<line x1="78" x2="1268" y1="387.50" y2="387.50" stroke="#e5e7eb"/>
<text x="70" y="391.50" text-anchor="end" font-size="11" font-family="Arial" fill="#4b5563">1e-1</text>
<line x1="78" x2="1268" y1="277.00" y2="277.00" stroke="#e5e7eb"/>
<text x="70" y="281.00" text-anchor="end" font-size="11" font-family="Arial" fill="#4b5563">1e0</text>
<line x1="78" x2="1268" y1="166.50" y2="166.50" stroke="#e5e7eb"/>
<text x="70" y="170.50" text-anchor="end" font-size="11" font-family="Arial" fill="#4b5563">1e0</text>
<line x1="78" x2="1268" y1="56.00" y2="56.00" stroke="#e5e7eb"/>
<text x="70" y="60.00" text-anchor="end" font-size="11" font-family="Arial" fill="#4b5563">1e1</text>
<line x1="78.00" x2="78.00" y1="56" y2="498" stroke="#f3f4f6"/>
<text x="78.00" y="516" text-anchor="middle" font-size="11" font-family="Arial" fill="#4b5563">1</text>
<line x1="375.50" x2="375.50" y1="56" y2="498" stroke="#f3f4f6"/>
<text x="375.50" y="516" text-anchor="middle" font-size="11" font-family="Arial" fill="#4b5563">25</text>
<line x1="673.00" x2="673.00" y1="56" y2="498" stroke="#f3f4f6"/>
<text x="673.00" y="516" text-anchor="middle" font-size="11" font-family="Arial" fill="#4b5563">50</text>
<line x1="970.50" x2="970.50" y1="56" y2="498" stroke="#f3f4f6"/>
<text x="970.50" y="516" text-anchor="middle" font-size="11" font-family="Arial" fill="#4b5563">75</text>
<line x1="1268.00" x2="1268.00" y1="56" y2="498" stroke="#f3f4f6"/>
<text x="1268.00" y="516" text-anchor="middle" font-size="11" font-family="Arial" fill="#4b5563">100</text>
<polyline points="78.00,387.68 90.02,367.20 102.04,362.85 114.06,364.98 126.08,365.07 138.10,366.07 150.12,365.88 162.14,363.79 174.16,367.52 186.18,366.62 198.20,362.25 210.22,362.67 222.24,365.66 234.26,367.57 246.28,370.33 258.30,365.26 270.32,362.08 282.34,363.40 294.36,365.27 306.38,368.76 318.40,363.34 330.42,366.78 342.44,366.65 354.46,365.79 366.48,366.13 378.51,363.67 390.53,367.95 402.55,367.34 414.57,365.26 426.59,365.22 438.61,363.39 450.63,365.79 462.65,366.44 474.67,366.79 486.69,368.24 498.71,363.24 510.73,364.51 522.75,368.66 534.77,361.77 546.79,361.62 558.81,369.53 570.83,364.82 582.85,364.82 594.87,365.16 606.89,366.23 618.91,366.09 630.93,364.32 642.95,367.36 654.97,365.52 666.99,363.47 679.01,365.60 691.03,363.25 703.05,363.69 715.07,362.56 727.09,364.78 739.11,366.80 751.13,365.13 763.15,367.60 775.17,364.54 787.19,362.88 799.21,364.52 811.23,365.01 823.25,362.44 835.27,365.83 847.29,370.60 859.31,363.42 871.33,361.95 883.35,363.14 895.37,363.87 907.39,367.59 919.41,365.18 931.43,361.45 943.45,364.86 955.47,366.88 967.49,363.76 979.52,364.27 991.54,365.88 1003.56,364.32 1015.58,364.57 1027.60,367.77 1039.62,361.99 1051.64,362.45 1063.66,363.33 1075.68,362.10 1087.70,369.30 1099.72,370.35 1111.74,365.20 1123.76,361.13 1135.78,363.01 1147.80,369.61 1159.82,366.14 1171.84,361.32 1183.86,364.36 1195.88,368.37 1207.90,363.93 1219.92,361.69 1231.94,370.02 1243.96,365.11 1255.98,362.79 1268.00,368.24" fill="none" stroke="#4e79a7" stroke-width="2" stroke-linejoin="round" stroke-linecap="round"><title>fixed_rho_0p1</title></polyline>
<polyline points="78.00,189.58 90.02,178.13 102.04,185.29 114.06,186.69 126.08,190.49 138.10,190.05 150.12,189.33 162.14,198.34 174.16,189.45 186.18,202.87 198.20,204.98 210.22,207.00 222.24,209.05 234.26,211.14 246.28,213.24 258.30,215.36 270.32,217.48 282.34,219.63 294.36,221.81 306.38,224.01 318.40,226.24 330.42,228.50 342.44,230.80 354.46,233.12 366.48,235.48 378.51,237.87 390.53,240.29 402.55,242.73 414.57,245.20 426.59,228.33 438.61,250.80 450.63,232.40 462.65,256.42 474.67,236.14 486.69,262.01 498.71,264.75 510.73,241.17 522.75,270.30 534.77,273.11 546.79,275.73 558.81,278.35 570.83,281.02 582.85,283.69 594.87,286.34 606.89,288.97 618.91,291.56 630.93,294.14 642.95,296.69 654.97,299.20 666.99,301.69 679.01,304.15 691.03,306.57 703.05,308.95 715.07,311.30 727.09,313.61 739.11,315.88 751.13,318.11 763.15,320.30 775.17,322.46 787.19,324.57 799.21,326.64 811.23,328.67 823.25,330.66 835.27,332.62 847.29,334.53 859.31,336.40 871.33,338.23 883.35,340.03 895.37,341.78 907.39,343.50 919.41,345.19 931.43,346.84 943.45,348.45 955.47,350.03 967.49,351.58 979.52,353.10 991.54,354.58 1003.56,356.04 1015.58,357.46 1027.60,358.86 1039.62,360.22 1051.64,361.56 1063.66,362.87 1075.68,364.16 1087.70,365.42 1099.72,366.66 1111.74,367.87 1123.76,369.06 1135.78,370.22 1147.80,371.37 1159.82,372.49 1171.84,373.59 1183.86,374.67 1195.88,375.73 1207.90,376.77 1219.92,377.79 1231.94,378.79 1243.96,379.78 1255.98,380.74 1268.00,381.69" fill="none" stroke="#e15759" stroke-width="2" stroke-linejoin="round" stroke-linecap="round"><title>fixed_rho_10</title></polyline>
<polyline points="78.00,247.55 90.02,230.32 102.04,221.21 114.06,225.43 126.08,227.14 138.10,226.28 150.12,227.10 162.14,226.01 174.16,228.60 186.18,232.34 198.20,229.24 210.22,228.83 222.24,234.59 234.26,230.49 246.28,231.70 258.30,237.72 270.32,232.41 282.34,232.59 294.36,237.59 306.38,233.87 318.40,234.95 330.42,238.91 342.44,234.83 354.46,235.26 366.48,239.46 378.51,234.53 390.53,235.18 402.55,238.97 414.57,235.54 426.59,238.22 438.61,240.19 450.63,236.22 462.65,237.69 474.67,239.38 486.69,236.29 498.71,237.72 510.73,240.71 522.75,238.99 534.77,238.04 546.79,240.89 558.81,237.40 570.83,238.45 582.85,241.66 594.87,237.73 606.89,239.38 618.91,241.94 630.93,237.33 642.95,238.65 654.97,242.36 666.99,237.62 679.01,238.30 691.03,241.06 703.05,237.71 715.07,238.87 727.09,241.30 739.11,237.72 751.13,238.80 763.15,241.66 775.17,237.81 787.19,237.79 799.21,241.58 811.23,239.07 823.25,238.17 835.27,240.96 847.29,239.00 859.31,238.70 871.33,240.02 883.35,237.62 895.37,239.39 907.39,241.95 919.41,236.83 931.43,237.11 943.45,242.06 955.47,238.54 967.49,237.17 979.52,239.42 991.54,238.00 1003.56,238.16 1015.58,239.64 1027.60,237.00 1039.62,238.08 1051.64,240.39 1063.66,236.16 1075.68,236.62 1087.70,240.31 1099.72,236.83 1111.74,236.53 1123.76,239.20 1135.78,236.75 1147.80,237.22 1159.82,239.11 1171.84,236.54 1183.86,237.58 1195.88,239.88 1207.90,236.45 1219.92,236.57 1231.94,239.79 1243.96,237.18 1255.98,236.47 1268.00,239.16" fill="none" stroke="#59a14f" stroke-width="2" stroke-linejoin="round" stroke-linecap="round"><title>fixed_rho_1</title></polyline>
<polyline points="78.00,247.55 90.02,230.32 102.04,221.21 114.06,225.43 126.08,227.14 138.10,228.84 150.12,230.74 162.14,230.65 174.16,229.99 186.18,233.56 198.20,235.14 210.22,235.44 222.24,238.49 234.26,233.89 246.28,236.73 258.30,240.55 270.32,239.11 282.34,240.85 294.36,242.42 306.38,240.71 318.40,241.69 330.42,244.90 342.44,242.02 354.46,241.90 366.48,243.42 378.51,242.01 390.53,244.43 402.55,246.12 414.57,242.33 426.59,244.89 438.61,246.67 450.63,244.82 462.65,244.36 474.67,247.20 486.69,244.78 498.71,245.09 510.73,248.71 522.75,245.67 534.77,247.54 546.79,249.60 558.81,245.52 570.83,249.49 582.85,251.17 594.87,246.10 606.89,248.49 618.91,250.98 630.93,248.00 642.95,249.90 654.97,252.83 666.99,247.63 679.01,248.22 691.03,254.38 703.05,251.27 715.07,250.23 727.09,252.12 739.11,249.90 751.13,252.04 763.15,253.38 775.17,249.49 787.19,250.03 799.21,253.02 811.23,251.69 823.25,251.29 835.27,252.12 847.29,250.66 859.31,252.56 871.33,254.39 883.35,250.68 895.37,252.04 907.39,254.56 919.41,251.90 931.43,252.91 943.45,254.23 955.47,252.30 967.49,252.81 979.52,253.24 991.54,252.50 1003.56,253.71 1015.58,253.85 1027.60,252.06 1039.62,254.56 1051.64,255.39 1063.66,251.70 1075.68,252.45 1087.70,255.60 1099.72,252.66 1111.74,253.24 1123.76,254.44 1135.78,252.33 1147.80,254.51 1159.82,254.71 1171.84,251.42 1183.86,253.32 1195.88,256.04 1207.90,253.58 1219.92,253.32 1231.94,256.15 1243.96,253.06 1255.98,252.82 1268.00,255.55" fill="none" stroke="#76b7b2" stroke-width="2" stroke-linejoin="round" stroke-linecap="round"><title>online_ogd_epoch5</title></polyline>
<polyline points="78.00,247.55 90.02,238.32 102.04,235.97 114.06,242.70 126.08,245.39 138.10,246.46 150.12,251.19 162.14,248.60 174.16,249.19 186.18,250.86 198.20,251.48 210.22,256.51 222.24,254.73 234.26,252.12 246.28,252.36 258.30,258.30 270.32,256.96 282.34,252.98 294.36,257.63 306.38,256.29 318.40,255.97 330.42,259.35 342.44,253.38 354.46,255.66 366.48,261.16 378.51,255.10 390.53,256.32 402.55,258.97 414.57,256.41 426.59,258.15 438.61,257.64 450.63,254.61 462.65,256.81 474.67,261.58 486.69,259.86 498.71,256.05 510.73,258.14 522.75,259.40 534.77,259.49 546.79,260.31 558.81,258.61 570.83,259.75 582.85,262.28 594.87,259.56 606.89,262.70 618.91,264.30 630.93,258.43 642.95,260.16 654.97,266.28 666.99,264.21 679.01,260.49 691.03,262.23 703.05,263.99 715.07,263.63 727.09,264.69 739.11,265.49 751.13,264.97 763.15,261.43 775.17,260.58 787.19,266.76 799.21,268.17 811.23,264.40 823.25,262.28 835.27,264.82 847.29,268.64 859.31,265.34 871.33,264.67 883.35,265.97 895.37,267.34 907.39,266.96 919.41,264.52 931.43,267.49 943.45,271.65 955.47,265.42 967.49,263.34 979.52,266.71 991.54,267.69 1003.56,269.70 1015.58,270.16 1027.60,265.32 1039.62,266.70 1051.64,270.32 1063.66,266.26 1075.68,267.18 1087.70,270.49 1099.72,266.73 1111.74,269.42 1123.76,268.98 1135.78,265.77 1147.80,270.16 1159.82,267.18 1171.84,265.30 1183.86,272.08 1195.88,269.79 1207.90,264.93 1219.92,268.63 1231.94,270.89 1243.96,265.68 1255.98,265.45 1268.00,269.01" fill="none" stroke="#9c755f" stroke-width="2" stroke-linejoin="round" stroke-linecap="round"><title>online_ogd_freeze50</title></polyline>
<polyline points="78.00,247.55 90.02,241.46 102.04,238.27 114.06,244.10 126.08,246.48 138.10,245.90 150.12,251.57 162.14,249.07 174.16,248.61 186.18,251.71 198.20,248.74 210.22,252.76 222.24,255.16 234.26,251.42 246.28,254.20 258.30,256.98 270.32,253.26 282.34,254.93 294.36,260.34 306.38,255.21 318.40,256.00 330.42,260.58 342.44,255.11 354.46,256.56 366.48,260.01 378.51,256.27 390.53,258.78 402.55,259.96 414.57,258.24 426.59,260.59 438.61,260.94 450.63,257.28 462.65,258.20 474.67,263.92 486.69,259.99 498.71,260.14 510.73,262.05 522.75,257.58 534.77,263.87 546.79,266.67 558.81,257.24 570.83,261.49 582.85,267.02 594.87,262.16 606.89,264.25 618.91,263.37 630.93,261.73 642.95,265.77 654.97,265.59 666.99,261.66 679.01,265.43 691.03,269.61 703.05,261.72 715.07,262.91 727.09,270.08 739.11,265.98 751.13,266.29 763.15,267.77 775.17,265.08 787.19,266.38 799.21,267.77 811.23,264.98 823.25,268.01 835.27,270.63 847.29,265.24 859.31,267.23 871.33,271.45 883.35,269.61 895.37,267.60 907.39,268.28 919.41,268.08 931.43,273.32 943.45,272.66 955.47,267.73 967.49,271.93 979.52,275.28 991.54,268.29 1003.56,268.74 1015.58,276.16 1027.60,271.15 1039.62,272.78 1051.64,273.96 1063.66,267.25 1075.68,273.18 1087.70,273.15 1099.72,269.27 1111.74,276.23 1123.76,275.01 1135.78,268.55 1147.80,273.51 1159.82,275.13 1171.84,270.87 1183.86,271.27 1195.88,273.37 1207.90,272.01 1219.92,273.20 1231.94,274.97 1243.96,269.61 1255.98,272.66 1268.00,273.99" fill="none" stroke="#111827" stroke-width="2" stroke-linejoin="round" stroke-linecap="round"><title>online_ogd_no_dual_rescale</title></polyline>
<polyline points="78.00,247.55 90.02,238.32 102.04,235.97 114.06,242.70 126.08,245.39 138.10,246.46 150.12,251.19 162.14,248.60 174.16,249.19 186.18,250.86 198.20,251.48 210.22,256.51 222.24,254.73 234.26,252.12 246.28,252.36 258.30,258.30 270.32,256.96 282.34,252.98 294.36,257.63 306.38,256.29 318.40,255.97 330.42,259.35 342.44,253.38 354.46,255.66 366.48,261.16 378.51,255.10 390.53,256.32 402.55,258.97 414.57,256.41 426.59,258.15 438.61,257.64 450.63,254.61 462.65,256.81 474.67,261.58 486.69,259.86 498.71,256.05 510.73,258.14 522.75,259.40 534.77,259.49 546.79,260.31 558.81,258.61 570.83,259.75 582.85,262.28 594.87,259.56 606.89,262.70 618.91,264.30 630.93,258.43 642.95,260.16 654.97,266.28 666.99,264.21 679.01,260.49 691.03,262.28 703.05,264.09 715.07,263.77 727.09,264.88 739.11,265.72 751.13,265.26 763.15,261.74 775.17,260.91 787.19,267.13 799.21,268.62 811.23,264.89 823.25,262.81 835.27,265.36 847.29,269.24 859.31,265.98 871.33,265.34 883.35,266.68 895.37,267.71 907.39,267.76 919.41,265.35 931.43,268.36 943.45,272.59 955.47,266.41 967.49,264.35 979.52,268.12 991.54,268.77 1003.56,270.83 1015.58,271.34 1027.60,266.53 1039.62,267.61 1051.64,271.65 1063.66,267.97 1075.68,268.53 1087.70,271.49 1099.72,268.16 1111.74,271.31 1123.76,270.13 1135.78,266.58 1147.80,271.74 1159.82,270.01 1171.84,267.33 1183.86,272.99 1195.88,271.18 1207.90,266.74 1219.92,270.04 1231.94,271.58 1243.96,267.04 1255.98,267.82 1268.00,270.99" fill="none" stroke="#b07aa1" stroke-width="2" stroke-linejoin="round" stroke-linecap="round"><title>online_ogd</title></polyline>
<polyline points="78.00,247.55 90.02,234.58 102.04,232.84 114.06,241.13 126.08,243.47 138.10,244.35 150.12,252.22 162.14,251.21 174.16,250.85 186.18,254.53 198.20,255.43 210.22,259.56 222.24,266.05 234.26,266.89 246.28,277.38 258.30,278.55 270.32,285.14 282.34,292.17 294.36,300.14 306.38,294.47 318.40,297.56 330.42,302.68 342.44,312.46 354.46,317.32 366.48,319.41 378.51,314.06 390.53,314.14 402.55,321.48 414.57,323.48 426.59,331.22 438.61,340.27 450.63,337.38 462.65,347.10 474.67,339.70 486.69,341.42 498.71,338.76 510.73,334.05 522.75,328.47 534.77,332.99 546.79,345.48 558.81,351.27 570.83,346.69 582.85,341.82 594.87,346.47 606.89,344.26 618.91,345.95 630.93,343.46 642.95,339.41 654.97,342.64 666.99,344.91 679.01,344.93 691.03,349.29 703.05,360.84 715.07,360.95 727.09,359.01 739.11,355.11 751.13,351.57 763.15,348.06 775.17,347.14 787.19,344.55 799.21,339.12 811.23,346.46 823.25,347.60 835.27,346.77 847.29,345.36 859.31,343.76 871.33,337.66 883.35,342.85 895.37,347.17 907.39,348.25 919.41,341.26 931.43,338.62 943.45,345.52 955.47,349.50 967.49,353.30 979.52,360.79 991.54,364.37 1003.56,362.46 1015.58,361.95 1027.60,362.41 1039.62,373.35 1051.64,378.96 1063.66,373.82 1075.68,375.29 1087.70,368.57 1099.72,372.53 1111.74,379.00 1123.76,372.53 1135.78,376.07 1147.80,382.50 1159.82,386.82 1171.84,388.01 1183.86,393.87 1195.88,407.11 1207.90,402.45 1219.92,402.81 1231.94,402.39 1243.96,404.21 1255.98,403.90 1268.00,407.04" fill="none" stroke="#6f63b6" stroke-width="2" stroke-linejoin="round" stroke-linecap="round"><title>online_ogd_task_accept</title></polyline>
<polyline points="78.00,247.55 90.02,234.58 102.04,237.11 114.06,248.67 126.08,252.85 138.10,256.58 150.12,265.63 162.14,266.72 174.16,267.11 186.18,271.07 198.20,271.11 210.22,268.69 222.24,267.65 234.26,269.68 246.28,269.00 258.30,271.41 270.32,268.55 282.34,260.99 294.36,265.06 306.38,268.05 318.40,269.12 330.42,264.98 342.44,263.63 354.46,268.06 366.48,268.11 378.51,264.44 390.53,267.99 402.55,267.88 414.57,265.04 426.59,265.99 438.61,268.05 450.63,262.53 462.65,262.74 474.67,267.85 486.69,263.67 498.71,264.04 510.73,268.82 522.75,263.61 534.77,263.93 546.79,268.29 558.81,265.39 570.83,264.73 582.85,264.58 594.87,260.42 606.89,262.50 618.91,268.29 630.93,265.73 642.95,265.08 654.97,265.39 666.99,262.81 679.01,264.31 691.03,269.04 703.05,265.62 715.07,265.04 727.09,267.02 739.11,266.60 751.13,265.40 763.15,264.33 775.17,267.58 787.19,270.12 799.21,271.00 811.23,266.41 823.25,265.87 835.27,270.99 847.29,267.95 859.31,267.03 871.33,270.73 883.35,266.30 895.37,264.90 907.39,270.44 919.41,265.63 931.43,266.47 943.45,270.92 955.47,268.73 967.49,266.65 979.52,271.70 991.54,271.75 1003.56,262.87 1015.58,269.81 1027.60,269.81 1039.62,266.11 1051.64,270.85 1063.66,268.06 1075.68,272.01 1087.70,271.42 1099.72,264.54 1111.74,269.58 1123.76,273.07 1135.78,269.71 1147.80,266.37 1159.82,272.98 1171.84,271.57 1183.86,265.05 1195.88,271.24 1207.90,270.44 1219.92,267.81 1231.94,271.69 1243.96,268.18 1255.98,267.22 1268.00,271.45" fill="none" stroke="#2f8f6b" stroke-width="2" stroke-linejoin="round" stroke-linecap="round"><title>online_ogd_task_aware</title></polyline>
<polyline points="78.00,247.55 90.02,229.00 102.04,216.55 114.06,214.79 126.08,215.26 138.10,209.27 150.12,210.38 162.14,206.76 174.16,207.98 186.18,212.73 198.20,212.88 210.22,211.50 222.24,214.93 234.26,211.35 246.28,215.48 258.30,221.26 270.32,218.36 282.34,221.00 294.36,223.78 306.38,221.86 318.40,222.31 330.42,226.82 342.44,222.87 354.46,221.48 366.48,226.12 378.51,223.37 390.53,222.57 402.55,224.67 414.57,222.12 426.59,223.31 438.61,226.03 450.63,222.38 462.65,223.70 474.67,227.72 486.69,224.11 498.71,223.14 510.73,227.19 522.75,224.37 534.77,223.59 546.79,225.70 558.81,223.35 570.83,224.33 582.85,226.75 594.87,223.09 606.89,224.29 618.91,228.25 630.93,224.68 642.95,223.92 654.97,227.90 666.99,225.19 679.01,224.57 691.03,226.70 703.05,224.45 715.07,225.34 727.09,227.57 739.11,223.98 751.13,225.09 763.15,228.85 775.17,225.26 787.19,224.65 799.21,228.46 811.23,225.84 823.25,225.33 835.27,227.46 847.29,225.27 859.31,226.13 871.33,228.32 883.35,224.72 895.37,225.79 907.39,229.39 919.41,225.80 931.43,225.30 943.45,228.95 955.47,226.39 967.49,225.98 979.52,228.10 991.54,225.87 1003.56,226.77 1015.58,228.94 1027.60,225.34 1039.62,226.37 1051.64,229.84 1063.66,226.26 1075.68,225.84 1087.70,229.36 1099.72,226.86 1111.74,226.52 1123.76,228.62 1135.78,226.37 1147.80,227.30 1159.82,229.44 1171.84,225.86 1183.86,226.86 1195.88,230.23 1207.90,226.67 1219.92,226.33 1231.94,229.73 1243.96,227.27 1255.98,227.00 1268.00,229.08" fill="none" stroke="#d37295" stroke-width="2" stroke-linejoin="round" stroke-linecap="round"><title>online_ogd_task_feasibility</title></polyline>
<polyline points="78.00,247.55 90.02,230.32 102.04,221.21 114.06,225.43 126.08,227.14 138.10,226.28 150.12,227.10 162.14,226.01 174.16,228.60 186.18,232.34 198.20,229.24 210.22,228.83 222.24,234.59 234.26,230.49 246.28,231.70 258.30,237.72 270.32,232.41 282.34,232.59 294.36,237.59 306.38,233.87 318.40,234.95 330.42,238.91 342.44,234.83 354.46,235.26 366.48,239.46 378.51,234.53 390.53,235.18 402.55,238.97 414.57,235.54 426.59,238.22 438.61,240.19 450.63,236.22 462.65,237.69 474.67,239.38 486.69,236.29 498.71,237.72 510.73,240.71 522.75,238.99 534.77,238.04 546.79,240.89 558.81,237.40 570.83,238.45 582.85,241.66 594.87,237.73 606.89,239.38 618.91,241.94 630.93,237.33 642.95,238.65 654.97,242.36 666.99,237.62 679.01,238.30 691.03,241.06 703.05,237.71 715.07,238.87 727.09,241.30 739.11,237.72 751.13,238.80 763.15,241.66 775.17,237.81 787.19,237.79 799.21,241.58 811.23,239.07 823.25,238.17 835.27,240.96 847.29,239.00 859.31,238.70 871.33,240.02 883.35,237.62 895.37,239.39 907.39,241.95 919.41,236.83 931.43,237.11 943.45,242.06 955.47,238.54 967.49,237.17 979.52,239.42 991.54,238.00 1003.56,238.16 1015.58,239.64 1027.60,237.00 1039.62,238.08 1051.64,240.39 1063.66,236.16 1075.68,236.62 1087.70,240.31 1099.72,236.83 1111.74,236.53 1123.76,239.20 1135.78,236.75 1147.80,237.22 1159.82,239.11 1171.84,236.54 1183.86,237.58 1195.88,239.88 1207.90,236.45 1219.92,236.57 1231.94,239.79 1243.96,237.18 1255.98,236.47 1268.00,239.16" fill="none" stroke="#edc948" stroke-width="2" stroke-linejoin="round" stroke-linecap="round"><title>residual_balance_normalized</title></polyline>
<polyline points="78.00,247.55 90.02,230.32 102.04,221.21 114.06,225.43 126.08,227.14 138.10,226.28 150.12,227.10 162.14,226.01 174.16,228.60 186.18,232.34 198.20,229.24 210.22,228.83 222.24,234.59 234.26,230.49 246.28,231.70 258.30,237.72 270.32,232.41 282.34,232.59 294.36,237.59 306.38,233.87 318.40,234.95 330.42,238.91 342.44,234.83 354.46,235.26 366.48,239.46 378.51,234.53 390.53,235.18 402.55,238.97 414.57,235.54 426.59,238.22 438.61,240.19 450.63,236.22 462.65,237.69 474.67,239.38 486.69,236.29 498.71,237.72 510.73,240.71 522.75,238.99 534.77,238.04 546.79,240.89 558.81,237.40 570.83,238.45 582.85,241.66 594.87,237.73 606.89,239.38 618.91,241.94 630.93,237.33 642.95,238.65 654.97,242.36 666.99,237.62 679.01,238.30 691.03,241.06 703.05,237.71 715.07,238.87 727.09,241.30 739.11,237.72 751.13,238.80 763.15,241.66 775.17,237.81 787.19,237.79 799.21,241.58 811.23,239.07 823.25,238.17 835.27,240.96 847.29,239.00 859.31,238.70 871.33,240.02 883.35,237.62 895.37,239.39 907.39,241.95 919.41,236.83 931.43,237.11 943.45,242.06 955.47,238.54 967.49,237.17 979.52,239.42 991.54,238.00 1003.56,238.16 1015.58,239.64 1027.60,237.00 1039.62,238.08 1051.64,240.39 1063.66,236.16 1075.68,236.62 1087.70,240.31 1099.72,236.83 1111.74,236.53 1123.76,239.20 1135.78,236.75 1147.80,237.22 1159.82,239.11 1171.84,236.54 1183.86,237.58 1195.88,239.88 1207.90,236.45 1219.92,236.57 1231.94,239.79 1243.96,237.18 1255.98,236.47 1268.00,239.16" fill="none" stroke="#f28e2b" stroke-width="2" stroke-linejoin="round" stroke-linecap="round"><title>residual_balance_raw</title></polyline>
<polyline points="78.00,247.55 90.02,230.32 102.04,221.21 114.06,225.43 126.08,227.14 138.10,226.28 150.12,227.10 162.14,226.01 174.16,228.60 186.18,232.34 198.20,229.24 210.22,228.83 222.24,234.59 234.26,230.49 246.28,231.70 258.30,237.72 270.32,232.41 282.34,232.59 294.36,237.59 306.38,233.87 318.40,234.95 330.42,238.91 342.44,234.83 354.46,235.26 366.48,239.46 378.51,234.53 390.53,235.18 402.55,238.97 414.57,235.54 426.59,238.22 438.61,240.19 450.63,236.22 462.65,237.69 474.67,239.38 486.69,236.29 498.71,237.72 510.73,240.71 522.75,238.99 534.77,238.04 546.79,240.89 558.81,237.40 570.83,238.45 582.85,241.66 594.87,237.73 606.89,239.38 618.91,241.94 630.93,237.33 642.95,238.65 654.97,242.36 666.99,237.62 679.01,238.30 691.03,241.06 703.05,237.71 715.07,238.87 727.09,241.30 739.11,237.72 751.13,238.80 763.15,241.66 775.17,237.81 787.19,237.79 799.21,241.58 811.23,239.07 823.25,238.17 835.27,240.96 847.29,239.00 859.31,238.70 871.33,240.02 883.35,237.62 895.37,239.39 907.39,241.95 919.41,236.83 931.43,237.11 943.45,242.06 955.47,238.54 967.49,237.17 979.52,239.42 991.54,238.00 1003.56,238.16 1015.58,239.64 1027.60,237.00 1039.62,238.08 1051.64,240.39 1063.66,236.16 1075.68,236.62 1087.70,240.31 1099.72,236.83 1111.74,236.53 1123.76,239.20 1135.78,236.75 1147.80,237.22 1159.82,239.11 1171.84,236.54 1183.86,237.58 1195.88,239.88 1207.90,236.45 1219.92,236.57 1231.94,239.79 1243.96,237.18 1255.98,236.47 1268.00,239.16" fill="none" stroke="#ff9da7" stroke-width="2" stroke-linejoin="round" stroke-linecap="round"><title>residual_balance_relative</title></polyline>
<line x1="1286" x2="1302" y1="60" y2="60" stroke="#4e79a7" stroke-width="3"/>
<text x="1308" y="64" font-size="11" font-family="Arial">fixed_rho_0p1</text>
<line x1="1286" x2="1302" y1="80" y2="80" stroke="#e15759" stroke-width="3"/>
<text x="1308" y="84" font-size="11" font-family="Arial">fixed_rho_10</text>
<line x1="1286" x2="1302" y1="100" y2="100" stroke="#59a14f" stroke-width="3"/>
<text x="1308" y="104" font-size="11" font-family="Arial">fixed_rho_1</text>
<line x1="1286" x2="1302" y1="120" y2="120" stroke="#76b7b2" stroke-width="3"/>
<text x="1308" y="124" font-size="11" font-family="Arial">online_ogd_epoch5</text>
<line x1="1286" x2="1302" y1="140" y2="140" stroke="#9c755f" stroke-width="3"/>
<text x="1308" y="144" font-size="11" font-family="Arial">online_ogd_freeze50</text>
<line x1="1286" x2="1302" y1="160" y2="160" stroke="#111827" stroke-width="3"/>
<text x="1308" y="164" font-size="11" font-family="Arial">online_ogd_no_dual_rescale</text>
<line x1="1286" x2="1302" y1="180" y2="180" stroke="#b07aa1" stroke-width="3"/>
<text x="1308" y="184" font-size="11" font-family="Arial">online_ogd</text>
<line x1="1286" x2="1302" y1="200" y2="200" stroke="#6f63b6" stroke-width="3"/>
<text x="1308" y="204" font-size="11" font-family="Arial">online_ogd_task_accept</text>
<line x1="1286" x2="1302" y1="220" y2="220" stroke="#2f8f6b" stroke-width="3"/>
<text x="1308" y="224" font-size="11" font-family="Arial">online_ogd_task_aware</text>
<line x1="1286" x2="1302" y1="240" y2="240" stroke="#d37295" stroke-width="3"/>
<text x="1308" y="244" font-size="11" font-family="Arial">online_ogd_task_feasibility</text>
<line x1="1286" x2="1302" y1="260" y2="260" stroke="#edc948" stroke-width="3"/>
<text x="1308" y="264" font-size="11" font-family="Arial">residual_balance_normalized</text>
<line x1="1286" x2="1302" y1="280" y2="280" stroke="#f28e2b" stroke-width="3"/>
<text x="1308" y="284" font-size="11" font-family="Arial">residual_balance_raw</text>
<line x1="1286" x2="1302" y1="300" y2="300" stroke="#ff9da7" stroke-width="3"/>
<text x="1308" y="304" font-size="11" font-family="Arial">residual_balance_relative</text>
</svg>
