<svg xmlns="http://www.w3.org/2000/svg" width="1420" height="560" viewBox="0 0 1420 560" role="img" aria-label="Tanh Qat Nonconvex Primal Norm">
<title>Tanh Qat Nonconvex Primal Norm</title>
<rect width="1420" height="560" fill="#ffffff"/>
<text x="78" y="28" font-size="20" font-family="Arial" font-weight="700">Tanh Qat Nonconvex Primal Norm</text>
<text x="673.0" y="548" text-anchor="middle" font-size="12" font-family="Arial">ADMM iteration</text>
<text x="18" y="277.0" transform="rotate(-90 18 277.0)" font-size="12" font-family="Arial">primal residual</text>
<line x1="78" x2="1268" y1="498.00" y2="498.00" stroke="#e5e7eb"/>
<text x="70" y="502.00" text-anchor="end" font-size="11" font-family="Arial" fill="#4b5563">1e-4</text>
<line x1="78" x2="1268" y1="387.50" y2="387.50" stroke="#e5e7eb"/>
<text x="70" y="391.50" text-anchor="end" font-size="11" font-family="Arial" fill="#4b5563">1e-3</text>
<line x1="78" x2="1268" y1="277.00" y2="277.00" stroke="#e5e7eb"/>
<text x="70" y="281.00" text-anchor="end" font-size="11" font-family="Arial" fill="#4b5563">1e-2</text>
<line x1="78" x2="1268" y1="166.50" y2="166.50" stroke="#e5e7eb"/>
<text x="70" y="170.50" text-anchor="end" font-size="11" font-family="Arial" fill="#4b5563">1e-1</text>
<line x1="78" x2="1268" y1="56.00" y2="56.00" stroke="#e5e7eb"/>
<text x="70" y="60.00" text-anchor="end" font-size="11" font-family="Arial" fill="#4b5563">1e0</text>
<line x1="78.00" x2="78.00" y1="56" y2="498" stroke="#f3f4f6"/>
<text x="78.00" y="516" text-anchor="middle" font-size="11" font-family="Arial" fill="#4b5563">1</text>
<line x1="375.50" x2="375.50" y1="56" y2="498" stroke="#f3f4f6"/>
<text x="375.50" y="516" text-anchor="middle" font-size="11" font-family="Arial" fill="#4b5563">25</text>
<line x1="673.00" x2="673.00" y1="56" y2="498" stroke="#f3f4f6"/>
<text x="673.00" y="516" text-anchor="middle" font-size="11" font-family="Arial" fill="#4b5563">50</text>
<line x1="970.50" x2="970.50" y1="56" y2="498" stroke="#f3f4f6"/>
<text x="970.50" y="516" text-anchor="middle" font-size="11" font-family="Arial" fill="#4b5563">75</text>
<line x1="1268.00" x2="1268.00" y1="56" y2="498" stroke="#f3f4f6"/>
<text x="1268.00" y="516" text-anchor="middle" font-size="11" font-family="Arial" fill="#4b5563">100</text>
<polyline points="78.00,114.26 90.02,92.41 102.04,95.92 114.06,94.28 126.08,94.93 138.10,93.45 150.12,93.60 162.14,92.08 174.16,95.31 186.18,93.66 198.20,87.86 210.22,94.10 222.24,93.28 234.26,95.47 246.28,95.05 258.30,90.07 270.32,91.09 282.34,90.46 294.36,95.15 306.38,94.42 318.40,89.36 330.42,96.51 342.44,90.95 354.46,94.19 366.48,91.47 378.51,93.10 390.53,94.36 402.55,94.31 414.57,91.62 426.59,92.69 438.61,90.88 450.63,94.87 462.65,92.25 474.67,95.76 486.69,93.89 498.71,90.30 510.73,93.38 522.75,95.55 534.77,86.57 546.79,95.12 558.81,94.26 570.83,91.10 582.85,93.26 594.87,93.30 606.89,93.88 618.91,92.16 630.93,92.65 642.95,94.50 654.97,91.37 666.99,92.14 679.01,90.88 691.03,91.08 703.05,90.34 715.07,90.14 727.09,95.02 739.11,91.90 751.13,94.34 763.15,93.17 775.17,91.42 787.19,90.37 799.21,91.56 811.23,91.63 823.25,90.10 835.27,96.53 847.29,93.79 859.31,89.12 871.33,92.12 883.35,89.80 895.37,92.17 907.39,94.75 919.41,89.56 931.43,90.74 943.45,94.13 955.47,93.77 967.49,91.54 979.52,91.86 991.54,93.50 1003.56,91.08 1015.58,95.23 1027.60,93.54 1039.62,87.69 1051.64,93.42 1063.66,89.82 1075.68,92.51 1087.70,97.89 1099.72,95.01 1111.74,90.23 1123.76,89.46 1135.78,93.08 1147.80,98.84 1159.82,89.41 1171.84,91.11 1183.86,93.42 1195.88,94.38 1207.90,90.14 1219.92,93.11 1231.94,97.04 1243.96,88.90 1255.98,93.88 1268.00,95.87" fill="none" stroke="#4e79a7" stroke-width="2" stroke-linejoin="round" stroke-linecap="round"><title>fixed_rho_0p1</title></polyline>
<polyline points="78.00,146.30 90.02,171.88 102.04,173.65 114.06,188.24 126.08,196.49 138.10,186.64 150.12,178.12 162.14,192.44 174.16,185.07 186.18,190.15 198.20,233.18 210.22,292.37 222.24,291.40 234.26,301.48 246.28,306.23 258.30,309.63 270.32,312.57 282.34,315.40 294.36,317.93 306.38,320.07 318.40,321.87 330.42,323.36 342.44,324.60 354.46,325.66 366.48,326.57 378.51,327.39 390.53,328.17 402.55,328.87 414.57,329.63 426.59,206.40 438.61,229.33 450.63,231.89 462.65,228.42 474.67,228.93 486.69,232.12 498.71,257.74 510.73,211.05 522.75,241.14 534.77,254.37 546.79,324.82 558.81,329.98 570.83,338.02 582.85,345.88 594.87,347.56 606.89,349.55 618.91,351.48 630.93,353.35 642.95,355.27 654.97,357.22 666.99,359.20 679.01,361.20 691.03,363.22 703.05,365.25 715.07,367.29 727.09,369.34 739.11,371.39 751.13,373.45 763.15,375.50 775.17,377.58 787.19,379.64 799.21,381.68 811.23,383.71 823.25,385.73 835.27,387.72 847.29,389.71 859.31,391.67 871.33,393.61 883.35,395.53 895.37,397.42 907.39,399.30 919.41,401.14 931.43,402.97 943.45,404.76 955.47,406.53 967.49,408.27 979.52,409.99 991.54,411.68 1003.56,413.34 1015.58,414.97 1027.60,416.58 1039.62,418.16 1051.64,419.71 1063.66,421.24 1075.68,422.74 1087.70,424.22 1099.72,425.68 1111.74,427.11 1123.76,428.52 1135.78,429.90 1147.80,431.27 1159.82,432.61 1171.84,433.93 1183.86,435.23 1195.88,436.51 1207.90,437.78 1219.92,439.02 1231.94,440.25 1243.96,441.46 1255.98,442.66 1268.00,443.84" fill="none" stroke="#e15759" stroke-width="2" stroke-linejoin="round" stroke-linecap="round"><title>fixed_rho_10</title></polyline>
<polyline points="78.00,116.30 90.02,94.51 102.04,91.62 114.06,99.39 126.08,94.49 138.10,94.85 150.12,95.65 162.14,92.89 174.16,96.89 186.18,98.66 198.20,93.95 210.22,99.34 222.24,98.52 234.26,98.24 246.28,99.85 258.30,104.62 270.32,96.77 282.34,104.71 294.36,102.03 306.38,102.48 318.40,103.59 330.42,105.62 342.44,102.26 354.46,104.32 366.48,106.25 378.51,101.60 390.53,106.47 402.55,106.53 414.57,103.34 426.59,109.21 438.61,106.41 450.63,105.68 462.65,106.96 474.67,107.00 486.69,105.06 498.71,108.72 510.73,108.79 522.75,107.01 534.77,107.98 546.79,110.38 558.81,105.19 570.83,111.03 582.85,108.91 594.87,107.57 606.89,110.68 618.91,110.13 630.93,106.19 642.95,110.51 654.97,109.92 666.99,106.65 679.01,109.48 691.03,109.72 703.05,107.24 715.07,111.16 727.09,109.29 739.11,107.87 751.13,110.70 763.15,110.49 775.17,106.95 787.19,110.30 799.21,110.97 811.23,108.45 823.25,109.50 835.27,111.31 847.29,108.36 859.31,109.92 871.33,108.94 883.35,108.64 895.37,111.17 907.39,111.21 919.41,105.96 931.43,110.84 943.45,110.96 955.47,108.50 967.49,108.47 979.52,110.53 991.54,108.07 1003.56,110.75 1015.58,109.06 1027.60,108.27 1039.62,110.36 1051.64,110.76 1063.66,106.38 1075.68,110.93 1087.70,110.24 1099.72,107.87 1111.74,109.36 1123.76,110.39 1135.78,107.64 1147.80,110.81 1159.82,108.99 1171.84,108.13 1183.86,110.29 1195.88,110.60 1207.90,106.85 1219.92,110.42 1231.94,110.15 1243.96,108.44 1255.98,108.75 1268.00,111.09" fill="none" stroke="#59a14f" stroke-width="2" stroke-linejoin="round" stroke-linecap="round"><title>fixed_rho_1</title></polyline>
<polyline points="78.00,116.30 90.02,94.51 102.04,91.62 114.06,99.39 126.08,94.49 138.10,94.13 150.12,97.08 162.14,92.82 174.16,94.58 186.18,98.41 198.20,95.26 210.22,101.41 222.24,96.17 234.26,97.90 246.28,99.43 258.30,99.99 270.32,99.21 282.34,103.22 294.36,102.36 306.38,102.34 318.40,102.37 330.42,104.29 342.44,101.40 354.46,103.76 366.48,102.35 378.51,102.52 390.53,105.12 402.55,103.81 414.57,102.45 426.59,106.26 438.61,103.33 450.63,104.74 462.65,102.56 474.67,108.31 486.69,101.29 498.71,106.84 510.73,105.09 522.75,104.68 534.77,107.53 546.79,105.92 558.81,103.10 570.83,109.95 582.85,105.01 594.87,104.89 606.89,107.19 618.91,106.54 630.93,104.87 642.95,108.74 654.97,107.64 666.99,103.38 679.01,107.74 691.03,110.39 703.05,105.53 715.07,109.44 727.09,106.33 739.11,107.32 751.13,109.20 763.15,107.89 775.17,105.40 787.19,108.26 799.21,107.92 811.23,107.92 823.25,106.95 835.27,108.09 847.29,105.92 859.31,109.47 871.33,107.82 883.35,105.94 895.37,108.91 907.39,108.73 919.41,105.96 931.43,109.86 943.45,106.79 955.47,108.48 967.49,107.09 979.52,107.42 991.54,106.85 1003.56,108.78 1015.58,107.28 1027.60,107.01 1039.62,109.05 1051.64,108.12 1063.66,105.23 1075.68,109.59 1087.70,108.02 1099.72,106.54 1111.74,108.03 1123.76,107.55 1135.78,106.89 1147.80,109.78 1159.82,105.93 1171.84,106.04 1183.86,108.03 1195.88,109.81 1207.90,105.06 1219.92,109.46 1231.94,107.72 1243.96,105.25 1255.98,107.83 1268.00,108.16" fill="none" stroke="#76b7b2" stroke-width="2" stroke-linejoin="round" stroke-linecap="round"><title>online_ogd_epoch5</title></polyline>
<polyline points="78.00,116.30 90.02,90.65 102.04,91.98 114.06,95.01 126.08,92.00 138.10,94.00 150.12,95.58 162.14,90.51 174.16,95.73 186.18,91.62 198.20,95.89 210.22,96.38 222.24,94.11 234.26,94.07 246.28,94.87 258.30,100.02 270.32,93.85 282.34,95.92 294.36,98.13 306.38,96.58 318.40,97.75 330.42,98.75 342.44,92.96 354.46,100.19 366.48,97.91 378.51,95.60 390.53,98.98 402.55,97.87 414.57,97.32 426.59,99.73 438.61,95.56 450.63,96.82 462.65,97.98 474.67,100.83 486.69,98.53 498.71,96.09 510.73,100.34 522.75,98.65 534.77,99.50 546.79,99.18 558.81,99.32 570.83,100.16 582.85,100.74 594.87,99.58 606.89,103.52 618.91,100.56 630.93,97.96 642.95,101.53 654.97,103.68 666.99,101.32 679.01,99.53 691.03,102.21 703.05,101.61 715.07,102.04 727.09,103.36 739.11,104.47 751.13,100.73 763.15,100.19 775.17,100.73 787.19,108.00 799.21,103.69 811.23,102.89 823.25,99.25 835.27,106.52 847.29,104.65 859.31,102.96 871.33,103.71 883.35,105.17 895.37,105.27 907.39,104.63 919.41,102.92 931.43,109.21 943.45,106.63 955.47,102.65 967.49,101.70 979.52,107.11 991.54,105.98 1003.56,109.27 1015.58,105.74 1027.60,104.22 1039.62,105.80 1051.64,108.65 1063.66,103.18 1075.68,109.28 1087.70,104.48 1099.72,107.09 1111.74,108.32 1123.76,105.74 1135.78,105.19 1147.80,109.94 1159.82,102.69 1171.84,108.65 1183.86,108.75 1195.88,106.91 1207.90,104.44 1219.92,109.87 1231.94,107.39 1243.96,104.87 1255.98,104.71 1268.00,109.42" fill="none" stroke="#9c755f" stroke-width="2" stroke-linejoin="round" stroke-linecap="round"><title>online_ogd_freeze50</title></polyline>
<polyline points="78.00,116.30 90.02,94.48 102.04,93.42 114.06,97.07 126.08,92.44 138.10,92.92 150.12,95.94 162.14,91.12 174.16,94.10 186.18,92.39 198.20,91.73 210.22,97.77 222.24,93.50 234.26,94.35 246.28,96.56 258.30,97.04 270.32,92.81 282.34,99.68 294.36,97.44 306.38,95.73 318.40,99.26 330.42,98.11 342.44,94.91 354.46,98.86 366.48,99.44 378.51,96.62 390.53,100.48 402.55,98.72 414.57,99.75 426.59,100.71 438.61,98.85 450.63,96.69 462.65,100.31 474.67,102.13 486.69,98.34 498.71,101.30 510.73,97.92 522.75,98.59 534.77,106.18 546.79,101.83 558.81,96.22 570.83,103.44 582.85,102.50 594.87,102.27 606.89,102.80 618.91,100.25 630.93,102.17 642.95,105.74 654.97,100.94 666.99,101.52 679.01,105.57 691.03,104.97 703.05,99.22 715.07,105.69 727.09,106.37 739.11,103.76 751.13,104.37 763.15,104.44 775.17,102.64 787.19,105.73 799.21,105.10 811.23,102.13 823.25,108.07 835.27,105.26 847.29,102.97 859.31,107.15 871.33,107.03 883.35,106.04 895.37,103.68 907.39,106.62 919.41,105.34 931.43,112.03 943.45,104.95 955.47,106.97 967.49,109.58 979.52,109.64 991.54,102.73 1003.56,109.43 1015.58,111.42 1027.60,105.74 1039.62,112.50 1051.64,103.79 1063.66,106.46 1075.68,110.44 1087.70,106.71 1099.72,106.54 1111.74,112.66 1123.76,107.65 1135.78,105.56 1147.80,112.76 1159.82,107.41 1171.84,108.17 1183.86,107.54 1195.88,110.45 1207.90,107.11 1219.92,111.57 1231.94,108.43 1243.96,106.63 1255.98,110.89 1268.00,107.17" fill="none" stroke="#111827" stroke-width="2" stroke-linejoin="round" stroke-linecap="round"><title>online_ogd_no_dual_rescale</title></polyline>
<polyline points="78.00,116.30 90.02,90.65 102.04,91.98 114.06,95.01 126.08,92.00 138.10,94.00 150.12,95.58 162.14,90.51 174.16,95.73 186.18,91.62 198.20,95.89 210.22,96.38 222.24,94.11 234.26,94.07 246.28,94.87 258.30,100.02 270.32,93.85 282.34,95.92 294.36,98.13 306.38,96.58 318.40,97.75 330.42,98.75 342.44,92.96 354.46,100.19 366.48,97.91 378.51,95.60 390.53,98.98 402.55,97.87 414.57,97.32 426.59,99.73 438.61,95.56 450.63,96.82 462.65,97.98 474.67,100.83 486.69,98.53 498.71,96.09 510.73,100.34 522.75,98.65 534.77,99.50 546.79,99.18 558.81,99.32 570.83,100.16 582.85,100.74 594.87,99.58 606.89,103.52 618.91,100.56 630.93,97.96 642.95,101.53 654.97,103.68 666.99,101.32 679.01,99.53 691.03,102.21 703.05,101.61 715.07,102.05 727.09,103.37 739.11,104.48 751.13,100.74 763.15,100.20 775.17,100.75 787.19,108.02 799.21,103.71 811.23,102.91 823.25,99.27 835.27,106.54 847.29,104.68 859.31,102.99 871.33,103.74 883.35,105.20 895.37,105.24 907.39,104.70 919.41,102.96 931.43,109.18 943.45,106.75 955.47,102.59 967.49,101.84 979.52,107.25 991.54,105.87 1003.56,109.43 1015.58,105.86 1027.60,104.16 1039.62,105.17 1051.64,109.06 1063.66,103.28 1075.68,109.39 1087.70,103.95 1099.72,107.66 1111.74,108.42 1123.76,105.23 1135.78,104.40 1147.80,111.05 1159.82,103.49 1171.84,108.54 1183.86,108.27 1195.88,106.88 1207.90,104.47 1219.92,109.02 1231.94,106.20 1243.96,104.94 1255.98,105.33 1268.00,108.62" fill="none" stroke="#b07aa1" stroke-width="2" stroke-linejoin="round" stroke-linecap="round"><title>online_ogd</title></polyline>
<polyline points="78.00,116.30 90.02,91.80 102.04,91.12 114.06,95.75 126.08,90.99 138.10,91.99 150.12,95.88 162.14,89.69 174.16,94.36 186.18,91.84 198.20,95.35 210.22,96.37 222.24,89.34 234.26,96.35 246.28,93.23 258.30,97.14 270.32,90.76 282.34,92.81 294.36,99.49 306.38,94.04 318.40,89.47 330.42,100.73 342.44,90.58 354.46,91.14 366.48,98.24 378.51,91.73 390.53,100.70 402.55,87.40 414.57,87.29 426.59,102.55 438.61,89.71 450.63,99.58 462.65,89.87 474.67,94.49 486.69,97.79 498.71,94.59 510.73,95.09 522.75,91.15 534.77,87.71 546.79,90.88 558.81,97.96 570.83,95.70 582.85,94.59 594.87,86.55 606.89,94.12 618.91,95.99 630.93,93.94 642.95,94.00 654.97,84.49 666.99,98.65 679.01,91.71 691.03,91.89 703.05,89.02 715.07,97.04 727.09,94.41 739.11,93.48 751.13,93.25 763.15,93.18 775.17,94.93 787.19,92.13 799.21,91.61 811.23,89.43 823.25,93.76 835.27,94.82 847.29,96.15 859.31,93.77 871.33,92.82 883.35,86.55 895.37,100.18 907.39,93.85 919.41,94.19 931.43,93.02 943.45,89.43 955.47,99.23 967.49,84.91 979.52,89.01 991.54,93.83 1003.56,95.64 1015.58,93.95 1027.60,85.45 1039.62,90.89 1051.64,95.13 1063.66,94.49 1075.68,97.38 1087.70,90.83 1099.72,88.80 1111.74,98.39 1123.76,89.52 1135.78,88.68 1147.80,95.91 1159.82,84.63 1171.84,83.21 1183.86,94.69 1195.88,89.76 1207.90,93.47 1219.92,96.53 1231.94,94.27 1243.96,87.42 1255.98,96.45 1268.00,95.20" fill="none" stroke="#6f63b6" stroke-width="2" stroke-linejoin="round" stroke-linecap="round"><title>online_ogd_task_accept</title></polyline>
<polyline points="78.00,116.30 90.02,91.80 102.04,90.49 114.06,95.01 126.08,90.94 138.10,92.36 150.12,95.86 162.14,90.33 174.16,93.15 186.18,92.17 198.20,95.96 210.22,94.17 222.24,94.62 234.26,93.49 246.28,95.35 258.30,100.35 270.32,92.93 282.34,93.12 294.36,94.81 306.38,95.93 318.40,95.28 330.42,94.77 342.44,94.13 354.46,97.12 366.48,95.59 378.51,96.00 390.53,99.73 402.55,93.55 414.57,96.30 426.59,96.59 438.61,98.49 450.63,94.27 462.65,97.06 474.67,97.37 486.69,94.67 498.71,101.72 510.73,98.79 522.75,94.29 534.77,97.49 546.79,100.68 558.81,97.98 570.83,98.57 582.85,98.19 594.87,96.11 606.89,102.15 618.91,99.14 630.93,100.65 642.95,96.73 654.97,100.71 666.99,97.52 679.01,100.61 691.03,101.03 703.05,96.38 715.07,99.94 727.09,99.96 739.11,101.99 751.13,98.20 763.15,99.04 775.17,100.52 787.19,103.03 799.21,104.29 811.23,98.20 823.25,100.82 835.27,102.98 847.29,101.25 859.31,102.76 871.33,105.08 883.35,99.95 895.37,102.23 907.39,104.22 919.41,98.20 931.43,105.82 943.45,101.26 955.47,103.55 967.49,102.55 979.52,107.70 991.54,99.92 1003.56,99.64 1015.58,108.21 1027.60,102.12 1039.62,104.19 1051.64,104.99 1063.66,102.23 1075.68,107.90 1087.70,101.77 1099.72,101.90 1111.74,107.07 1123.76,103.73 1135.78,103.19 1147.80,102.43 1159.82,110.89 1171.84,99.62 1183.86,104.27 1195.88,105.34 1207.90,104.20 1219.92,101.36 1231.94,107.47 1243.96,101.49 1255.98,106.39 1268.00,103.59" fill="none" stroke="#2f8f6b" stroke-width="2" stroke-linejoin="round" stroke-linecap="round"><title>online_ogd_task_aware</title></polyline>
<polyline points="78.00,116.30 90.02,95.40 102.04,94.93 114.06,98.65 126.08,96.01 138.10,95.25 150.12,96.00 162.14,95.81 174.16,99.13 186.18,103.75 198.20,102.95 210.22,104.29 222.24,106.93 234.26,102.85 246.28,109.53 258.30,110.28 270.32,108.58 282.34,112.76 294.36,112.06 306.38,109.84 318.40,112.86 330.42,113.23 342.44,110.49 354.46,112.46 366.48,114.49 378.51,110.88 390.53,113.71 402.55,114.48 414.57,110.70 426.59,114.52 438.61,114.33 450.63,111.48 462.65,114.24 474.67,114.79 486.69,112.09 498.71,114.10 510.73,115.02 522.75,111.93 534.77,114.66 546.79,114.95 558.81,111.69 570.83,115.10 582.85,115.11 594.87,112.03 606.89,114.84 618.91,115.39 630.93,112.57 642.95,114.78 654.97,115.39 666.99,112.62 679.01,115.20 691.03,115.37 703.05,112.35 715.07,115.60 727.09,115.55 739.11,112.50 751.13,115.38 763.15,115.80 775.17,112.96 787.19,115.26 799.21,115.75 811.23,113.08 823.25,115.61 835.27,115.68 847.29,112.88 859.31,115.98 871.33,115.86 883.35,112.93 895.37,115.79 907.39,116.13 919.41,113.25 931.43,115.69 943.45,116.03 955.47,113.42 967.49,115.96 979.52,115.94 991.54,113.30 1003.56,116.24 1015.58,116.12 1027.60,113.28 1039.62,116.12 1051.64,116.35 1063.66,113.51 1075.68,116.05 1087.70,116.25 1099.72,113.70 1111.74,116.23 1123.76,116.17 1135.78,113.61 1147.80,116.47 1159.82,116.34 1171.84,113.57 1183.86,116.39 1195.88,116.51 1207.90,113.76 1219.92,116.31 1231.94,116.42 1243.96,113.94 1255.98,116.46 1268.00,116.36" fill="none" stroke="#d37295" stroke-width="2" stroke-linejoin="round" stroke-linecap="round"><title>online_ogd_task_feasibility</title></polyline>
<polyline points="78.00,116.30 90.02,94.51 102.04,91.62 114.06,99.39 126.08,94.49 138.10,94.85 150.12,95.65 162.14,92.89 174.16,96.89 186.18,98.66 198.20,93.95 210.22,99.34 222.24,98.52 234.26,98.24 246.28,99.85 258.30,104.62 270.32,96.77 282.34,104.71 294.36,102.03 306.38,102.48 318.40,103.59 330.42,105.62 342.44,102.26 354.46,104.32 366.48,106.25 378.51,101.60 390.53,106.47 402.55,106.53 414.57,103.34 426.59,109.21 438.61,106.41 450.63,105.68 462.65,106.96 474.67,107.00 486.69,105.06 498.71,108.72 510.73,108.79 522.75,107.01 534.77,107.98 546.79,110.38 558.81,105.19 570.83,111.03 582.85,108.91 594.87,107.57 606.89,110.68 618.91,110.13 630.93,106.19 642.95,110.51 654.97,109.92 666.99,106.65 679.01,109.48 691.03,109.72 703.05,107.24 715.07,111.16 727.09,109.29 739.11,107.87 751.13,110.70 763.15,110.49 775.17,106.95 787.19,110.30 799.21,110.97 811.23,108.45 823.25,109.50 835.27,111.31 847.29,108.36 859.31,109.92 871.33,108.94 883.35,108.64 895.37,111.17 907.39,111.21 919.41,105.96 931.43,110.84 943.45,110.96 955.47,108.50 967.49,108.47 979.52,110.53 991.54,108.07 1003.56,110.75 1015.58,109.06 1027.60,108.27 1039.62,110.36 1051.64,110.76 1063.66,106.38 1075.68,110.93 1087.70,110.24 1099.72,107.87 1111.74,109.36 1123.76,110.39 1135.78,107.64 1147.80,110.81 1159.82,108.99 1171.84,108.13 1183.86,110.29 1195.88,110.60 1207.90,106.85 1219.92,110.42 1231.94,110.15 1243.96,108.44 1255.98,108.75 1268.00,111.09" fill="none" stroke="#edc948" stroke-width="2" stroke-linejoin="round" stroke-linecap="round"><title>residual_balance_normalized</title></polyline>
<polyline points="78.00,116.30 90.02,94.51 102.04,91.62 114.06,99.39 126.08,94.49 138.10,94.85 150.12,95.65 162.14,92.89 174.16,96.89 186.18,98.66 198.20,93.95 210.22,99.34 222.24,98.52 234.26,98.24 246.28,99.85 258.30,104.62 270.32,96.77 282.34,104.71 294.36,102.03 306.38,102.48 318.40,103.59 330.42,105.62 342.44,102.26 354.46,104.32 366.48,106.25 378.51,101.60 390.53,106.47 402.55,106.53 414.57,103.34 426.59,109.21 438.61,106.41 450.63,105.68 462.65,106.96 474.67,107.00 486.69,105.06 498.71,108.72 510.73,108.79 522.75,107.01 534.77,107.98 546.79,110.38 558.81,105.19 570.83,111.03 582.85,108.91 594.87,107.57 606.89,110.68 618.91,110.13 630.93,106.19 642.95,110.51 654.97,109.92 666.99,106.65 679.01,109.48 691.03,109.72 703.05,107.24 715.07,111.16 727.09,109.29 739.11,107.87 751.13,110.70 763.15,110.49 775.17,106.95 787.19,110.30 799.21,110.97 811.23,108.45 823.25,109.50 835.27,111.31 847.29,108.36 859.31,109.92 871.33,108.94 883.35,108.64 895.37,111.17 907.39,111.21 919.41,105.96 931.43,110.84 943.45,110.96 955.47,108.50 967.49,108.47 979.52,110.53 991.54,108.07 1003.56,110.75 1015.58,109.06 1027.60,108.27 1039.62,110.36 1051.64,110.76 1063.66,106.38 1075.68,110.93 1087.70,110.24 1099.72,107.87 1111.74,109.36 1123.76,110.39 1135.78,107.64 1147.80,110.81 1159.82,108.99 1171.84,108.13 1183.86,110.29 1195.88,110.60 1207.90,106.85 1219.92,110.42 1231.94,110.15 1243.96,108.44 1255.98,108.75 1268.00,111.09" fill="none" stroke="#f28e2b" stroke-width="2" stroke-linejoin="round" stroke-linecap="round"><title>residual_balance_raw</title></polyline>
<polyline points="78.00,116.30 90.02,94.51 102.04,91.62 114.06,99.39 126.08,94.49 138.10,94.85 150.12,95.65 162.14,92.89 174.16,96.89 186.18,98.66 198.20,93.95 210.22,99.34 222.24,98.52 234.26,98.24 246.28,99.85 258.30,104.62 270.32,96.77 282.34,104.71 294.36,102.03 306.38,102.48 318.40,103.59 330.42,105.62 342.44,102.26 354.46,104.32 366.48,106.25 378.51,101.60 390.53,106.47 402.55,106.53 414.57,103.34 426.59,109.21 438.61,106.41 450.63,105.68 462.65,106.96 474.67,107.00 486.69,105.06 498.71,108.72 510.73,108.79 522.75,107.01 534.77,107.98 546.79,110.38 558.81,105.19 570.83,111.03 582.85,108.91 594.87,107.57 606.89,110.68 618.91,110.13 630.93,106.19 642.95,110.51 654.97,109.92 666.99,106.65 679.01,109.48 691.03,109.72 703.05,107.24 715.07,111.16 727.09,109.29 739.11,107.87 751.13,110.70 763.15,110.49 775.17,106.95 787.19,110.30 799.21,110.97 811.23,108.45 823.25,109.50 835.27,111.31 847.29,108.36 859.31,109.92 871.33,108.94 883.35,108.64 895.37,111.17 907.39,111.21 919.41,105.96 931.43,110.84 943.45,110.96 955.47,108.50 967.49,108.47 979.52,110.53 991.54,108.07 1003.56,110.75 1015.58,109.06 1027.60,108.27 1039.62,110.36 1051.64,110.76 1063.66,106.38 1075.68,110.93 1087.70,110.24 1099.72,107.87 1111.74,109.36 1123.76,110.39 1135.78,107.64 1147.80,110.81 1159.82,108.99 1171.84,108.13 1183.86,110.29 1195.88,110.60 1207.90,106.85 1219.92,110.42 1231.94,110.15 1243.96,108.44 1255.98,108.75 1268.00,111.09" fill="none" stroke="#ff9da7" stroke-width="2" stroke-linejoin="round" stroke-linecap="round"><title>residual_balance_relative</title></polyline>
<line x1="1286" x2="1302" y1="60" y2="60" stroke="#4e79a7" stroke-width="3"/>
<text x="1308" y="64" font-size="11" font-family="Arial">fixed_rho_0p1</text>
<line x1="1286" x2="1302" y1="80" y2="80" stroke="#e15759" stroke-width="3"/>
<text x="1308" y="84" font-size="11" font-family="Arial">fixed_rho_10</text>
<line x1="1286" x2="1302" y1="100" y2="100" stroke="#59a14f" stroke-width="3"/>
<text x="1308" y="104" font-size="11" font-family="Arial">fixed_rho_1</text>
<line x1="1286" x2="1302" y1="120" y2="120" stroke="#76b7b2" stroke-width="3"/>
<text x="1308" y="124" font-size="11" font-family="Arial">online_ogd_epoch5</text>
<line x1="1286" x2="1302" y1="140" y2="140" stroke="#9c755f" stroke-width="3"/>
<text x="1308" y="144" font-size="11" font-family="Arial">online_ogd_freeze50</text>
<line x1="1286" x2="1302" y1="160" y2="160" stroke="#111827" stroke-width="3"/>
<text x="1308" y="164" font-size="11" font-family="Arial">online_ogd_no_dual_rescale</text>
<line x1="1286" x2="1302" y1="180" y2="180" stroke="#b07aa1" stroke-width="3"/>
<text x="1308" y="184" font-size="11" font-family="Arial">online_ogd</text>
<line x1="1286" x2="1302" y1="200" y2="200" stroke="#6f63b6" stroke-width="3"/>
<text x="1308" y="204" font-size="11" font-family="Arial">online_ogd_task_accept</text>
<line x1="1286" x2="1302" y1="220" y2="220" stroke="#2f8f6b" stroke-width="3"/>
<text x="1308" y="224" font-size="11" font-family="Arial">online_ogd_task_aware</text>
<line x1="1286" x2="1302" y1="240" y2="240" stroke="#d37295" stroke-width="3"/>
<text x="1308" y="244" font-size="11" font-family="Arial">online_ogd_task_feasibility</text>
<line x1="1286" x2="1302" y1="260" y2="260" stroke="#edc948" stroke-width="3"/>
<text x="1308" y="264" font-size="11" font-family="Arial">residual_balance_normalized</text>
<line x1="1286" x2="1302" y1="280" y2="280" stroke="#f28e2b" stroke-width="3"/>
<text x="1308" y="284" font-size="11" font-family="Arial">residual_balance_raw</text>
<line x1="1286" x2="1302" y1="300" y2="300" stroke="#ff9da7" stroke-width="3"/>
<text x="1308" y="304" font-size="11" font-family="Arial">residual_balance_relative</text>
</svg>
