<svg xmlns="http://www.w3.org/2000/svg" width="1420" height="560" viewBox="0 0 1420 560" role="img" aria-label="Tanh Qat Nonconvex Objective">
<title>Tanh Qat Nonconvex Objective</title>
<rect width="1420" height="560" fill="#ffffff"/>
<text x="78" y="28" font-size="20" font-family="Arial" font-weight="700">Tanh Qat Nonconvex Objective</text>
<text x="673.0" y="548" text-anchor="middle" font-size="12" font-family="Arial">ADMM iteration</text>
<text x="18" y="277.0" transform="rotate(-90 18 277.0)" font-size="12" font-family="Arial">objective</text>
<line x1="78" x2="1268" y1="498.00" y2="498.00" stroke="#e5e7eb"/>
<text x="70" y="502.00" text-anchor="end" font-size="11" font-family="Arial" fill="#4b5563">1e-1</text>
<line x1="78" x2="1268" y1="387.50" y2="387.50" stroke="#e5e7eb"/>
<text x="70" y="391.50" text-anchor="end" font-size="11" font-family="Arial" fill="#4b5563">1e0</text>
<line x1="78" x2="1268" y1="277.00" y2="277.00" stroke="#e5e7eb"/>
<text x="70" y="281.00" text-anchor="end" font-size="11" font-family="Arial" fill="#4b5563">1e0</text>
<line x1="78" x2="1268" y1="166.50" y2="166.50" stroke="#e5e7eb"/>
<text x="70" y="170.50" text-anchor="end" font-size="11" font-family="Arial" fill="#4b5563">1e0</text>
<line x1="78" x2="1268" y1="56.00" y2="56.00" stroke="#e5e7eb"/>
<text x="70" y="60.00" text-anchor="end" font-size="11" font-family="Arial" fill="#4b5563">1e1</text>
<line x1="78.00" x2="78.00" y1="56" y2="498" stroke="#f3f4f6"/>
<text x="78.00" y="516" text-anchor="middle" font-size="11" font-family="Arial" fill="#4b5563">1</text>
<line x1="375.50" x2="375.50" y1="56" y2="498" stroke="#f3f4f6"/>
<text x="375.50" y="516" text-anchor="middle" font-size="11" font-family="Arial" fill="#4b5563">25</text>
<line x1="673.00" x2="673.00" y1="56" y2="498" stroke="#f3f4f6"/>
<text x="673.00" y="516" text-anchor="middle" font-size="11" font-family="Arial" fill="#4b5563">50</text>
<line x1="970.50" x2="970.50" y1="56" y2="498" stroke="#f3f4f6"/>
<text x="970.50" y="516" text-anchor="middle" font-size="11" font-family="Arial" fill="#4b5563">75</text>
<line x1="1268.00" x2="1268.00" y1="56" y2="498" stroke="#f3f4f6"/>
<text x="1268.00" y="516" text-anchor="middle" font-size="11" font-family="Arial" fill="#4b5563">100</text>
<polyline points="78.00,204.74 90.02,232.99 102.04,264.25 114.06,297.38 126.08,328.92 138.10,354.97 150.12,373.59 162.14,385.52 174.16,392.69 186.18,396.90 198.20,399.43 210.22,401.00 222.24,402.05 234.26,402.88 246.28,403.53 258.30,404.12 270.32,404.56 282.34,405.07 294.36,405.54 306.38,405.96 318.40,406.39 330.42,406.83 342.44,407.24 354.46,407.72 366.48,408.13 378.51,408.53 390.53,408.94 402.55,409.34 414.57,409.74 426.59,410.16 438.61,410.57 450.63,410.96 462.65,411.37 474.67,411.78 486.69,412.19 498.71,412.61 510.73,412.98 522.75,413.35 534.77,413.72 546.79,414.10 558.81,414.53 570.83,414.89 582.85,415.29 594.87,415.69 606.89,416.05 618.91,416.41 630.93,416.79 642.95,417.18 654.97,417.56 666.99,417.88 679.01,418.28 691.03,418.64 703.05,419.03 715.07,419.40 727.09,419.76 739.11,420.09 751.13,420.46 763.15,420.82 775.17,421.17 787.19,421.50 799.21,421.84 811.23,422.24 823.25,422.58 835.27,422.92 847.29,423.27 859.31,423.62 871.33,423.98 883.35,424.32 895.37,424.70 907.39,425.03 919.41,425.37 931.43,425.70 943.45,426.01 955.47,426.36 967.49,426.68 979.52,427.04 991.54,427.35 1003.56,427.68 1015.58,428.00 1027.60,428.35 1039.62,428.68 1051.64,429.00 1063.66,429.34 1075.68,429.64 1087.70,429.97 1099.72,430.29 1111.74,430.60 1123.76,430.94 1135.78,431.26 1147.80,431.59 1159.82,431.90 1171.84,432.21 1183.86,432.51 1195.88,432.86 1207.90,433.17 1219.92,433.48 1231.94,433.78 1243.96,434.10 1255.98,434.40 1268.00,434.73" fill="none" stroke="#4e79a7" stroke-width="2" stroke-linejoin="round" stroke-linecap="round"><title>fixed_rho_0p1</title></polyline>
<polyline points="78.00,187.64 90.02,186.31 102.04,191.29 114.06,196.83 126.08,202.41 138.10,207.86 150.12,213.51 162.14,219.73 174.16,224.24 186.18,230.76 198.20,235.34 210.22,239.97 222.24,244.81 234.26,249.66 246.28,254.44 258.30,259.15 270.32,263.81 282.34,268.41 294.36,272.94 306.38,277.41 318.40,281.80 330.42,286.10 342.44,290.32 354.46,294.44 366.48,298.46 378.51,302.38 390.53,306.17 402.55,309.85 414.57,313.41 426.59,316.83 438.61,322.43 450.63,325.36 462.65,330.19 474.67,332.78 486.69,337.26 498.71,339.65 510.73,341.82 522.75,346.05 534.77,348.18 546.79,349.99 558.81,351.85 570.83,353.70 582.85,355.46 594.87,357.09 606.89,358.60 618.91,360.01 630.93,361.33 642.95,362.56 654.97,363.71 666.99,364.78 679.01,365.77 691.03,366.70 703.05,367.57 715.07,368.38 727.09,369.14 739.11,369.84 751.13,370.51 763.15,371.13 775.17,371.71 787.19,372.25 799.21,372.76 811.23,373.24 823.25,373.69 835.27,374.12 847.29,374.52 859.31,374.90 871.33,375.26 883.35,375.59 895.37,375.91 907.39,376.22 919.41,376.51 931.43,376.78 943.45,377.04 955.47,377.29 967.49,377.52 979.52,377.75 991.54,377.96 1003.56,378.17 1015.58,378.37 1027.60,378.55 1039.62,378.73 1051.64,378.91 1063.66,379.07 1075.68,379.23 1087.70,379.38 1099.72,379.53 1111.74,379.67 1123.76,379.81 1135.78,379.94 1147.80,380.07 1159.82,380.19 1171.84,380.31 1183.86,380.43 1195.88,380.54 1207.90,380.64 1219.92,380.75 1231.94,380.85 1243.96,380.94 1255.98,381.04 1268.00,381.13" fill="none" stroke="#e15759" stroke-width="2" stroke-linejoin="round" stroke-linecap="round"><title>fixed_rho_10</title></polyline>
<polyline points="78.00,202.21 90.02,228.30 102.04,256.72 114.06,286.95 126.08,316.12 138.10,344.17 150.12,363.23 162.14,378.80 174.16,387.87 186.18,393.60 198.20,397.19 210.22,399.46 222.24,400.72 234.26,401.20 246.28,402.39 258.30,402.56 270.32,403.17 282.34,403.52 294.36,404.05 306.38,404.28 318.40,404.63 330.42,404.77 342.44,404.90 354.46,405.02 366.48,405.22 378.51,405.27 390.53,405.42 402.55,405.42 414.57,405.48 426.59,405.72 438.61,405.89 450.63,405.83 462.65,406.13 474.67,406.11 486.69,406.26 498.71,406.26 510.73,406.41 522.75,406.41 534.77,406.68 546.79,406.73 558.81,406.87 570.83,406.94 582.85,407.08 594.87,407.07 606.89,407.21 618.91,407.22 630.93,407.30 642.95,407.32 654.97,407.61 666.99,407.60 679.01,407.80 691.03,407.83 703.05,407.93 715.07,408.00 727.09,408.18 739.11,408.24 751.13,408.39 763.15,408.48 775.17,408.51 787.19,408.69 799.21,408.64 811.23,408.75 823.25,408.87 835.27,408.93 847.29,408.99 859.31,409.10 871.33,409.24 883.35,409.27 895.37,409.34 907.39,409.38 919.41,409.37 931.43,409.48 943.45,409.58 955.47,409.62 967.49,409.67 979.52,409.72 991.54,409.79 1003.56,409.82 1015.58,409.88 1027.60,409.94 1039.62,409.97 1051.64,410.02 1063.66,410.06 1075.68,410.13 1087.70,410.18 1099.72,410.23 1111.74,410.29 1123.76,410.34 1135.78,410.37 1147.80,410.42 1159.82,410.43 1171.84,410.45 1183.86,410.54 1195.88,410.58 1207.90,410.60 1219.92,410.70 1231.94,410.71 1243.96,410.74 1255.98,410.81 1268.00,410.83" fill="none" stroke="#59a14f" stroke-width="2" stroke-linejoin="round" stroke-linecap="round"><title>fixed_rho_1</title></polyline>
<polyline points="78.00,202.21 90.02,228.30 102.04,256.72 114.06,286.95 126.08,316.12 138.10,344.25 150.12,363.27 162.14,378.85 174.16,388.28 186.18,393.65 198.20,397.31 210.22,399.52 222.24,400.78 234.26,401.34 246.28,402.21 258.30,402.30 270.32,402.95 282.34,403.55 294.36,404.08 306.38,404.40 318.40,404.87 330.42,405.10 342.44,405.19 354.46,405.58 366.48,405.51 378.51,405.71 390.53,405.76 402.55,405.99 414.57,406.10 426.59,406.14 438.61,406.41 450.63,406.36 462.65,406.68 474.67,406.78 486.69,406.93 498.71,407.28 510.73,407.49 522.75,407.55 534.77,407.74 546.79,407.90 558.81,408.12 570.83,408.15 582.85,408.30 594.87,408.44 606.89,408.60 618.91,408.65 630.93,408.63 642.95,408.83 654.97,408.95 666.99,409.01 679.01,409.24 691.03,409.18 703.05,409.39 715.07,409.45 727.09,409.70 739.11,409.68 751.13,409.84 763.15,409.99 775.17,410.08 787.19,410.21 799.21,410.35 811.23,410.28 823.25,410.42 835.27,410.44 847.29,410.61 859.31,410.64 871.33,410.81 883.35,410.81 895.37,410.93 907.39,411.03 919.41,411.08 931.43,411.15 943.45,411.25 955.47,411.29 967.49,411.40 979.52,411.39 991.54,411.58 1003.56,411.60 1015.58,411.68 1027.60,411.72 1039.62,411.79 1051.64,411.86 1063.66,411.99 1075.68,412.01 1087.70,412.15 1099.72,412.16 1111.74,412.32 1123.76,412.29 1135.78,412.40 1147.80,412.44 1159.82,412.52 1171.84,412.47 1183.86,412.65 1195.88,412.69 1207.90,412.77 1219.92,412.82 1231.94,412.87 1243.96,412.93 1255.98,413.05 1268.00,413.03" fill="none" stroke="#76b7b2" stroke-width="2" stroke-linejoin="round" stroke-linecap="round"><title>online_ogd_epoch5</title></polyline>
<polyline points="78.00,202.21 90.02,228.71 102.04,257.82 114.06,288.92 126.08,319.80 138.10,346.54 150.12,366.27 162.14,380.34 174.16,388.77 186.18,394.64 198.20,398.05 210.22,400.30 222.24,401.43 234.26,402.32 246.28,403.00 258.30,403.61 270.32,403.96 282.34,404.53 294.36,405.07 306.38,405.34 318.40,405.64 330.42,406.01 342.44,406.30 354.46,406.82 366.48,407.04 378.51,407.47 390.53,407.83 402.55,408.10 414.57,408.44 426.59,408.78 438.61,409.05 450.63,409.49 462.65,409.51 474.67,409.90 486.69,410.24 498.71,410.51 510.73,410.76 522.75,410.86 534.77,411.16 546.79,411.65 558.81,411.92 570.83,412.32 582.85,412.47 594.87,412.66 606.89,412.98 618.91,413.35 630.93,413.55 642.95,413.80 654.97,414.08 666.99,414.33 679.01,414.62 691.03,414.86 703.05,415.07 715.07,415.37 727.09,415.69 739.11,415.84 751.13,416.10 763.15,416.36 775.17,416.57 787.19,416.83 799.21,416.88 811.23,417.15 823.25,417.46 835.27,417.64 847.29,417.76 859.31,418.00 871.33,418.26 883.35,418.40 895.37,418.65 907.39,418.88 919.41,419.03 931.43,419.22 943.45,419.35 955.47,419.51 967.49,419.90 979.52,420.12 991.54,420.25 1003.56,420.46 1015.58,420.71 1027.60,420.87 1039.62,421.06 1051.64,421.15 1063.66,421.33 1075.68,421.43 1087.70,421.78 1099.72,421.88 1111.74,421.99 1123.76,422.10 1135.78,422.23 1147.80,422.52 1159.82,422.71 1171.84,422.83 1183.86,423.00 1195.88,423.19 1207.90,423.25 1219.92,423.48 1231.94,423.65 1243.96,423.84 1255.98,424.03 1268.00,424.20" fill="none" stroke="#9c755f" stroke-width="2" stroke-linejoin="round" stroke-linecap="round"><title>online_ogd_freeze50</title></polyline>
<polyline points="78.00,202.21 90.02,228.68 102.04,257.72 114.06,288.67 126.08,319.35 138.10,346.50 150.12,366.62 162.14,380.57 174.16,388.73 186.18,395.15 198.20,397.95 210.22,400.14 222.24,401.25 234.26,402.09 246.28,402.67 258.30,403.33 270.32,403.87 282.34,404.22 294.36,404.75 306.38,405.12 318.40,405.28 330.42,405.78 342.44,406.00 354.46,406.24 366.48,406.71 378.51,407.05 390.53,407.37 402.55,407.60 414.57,407.83 426.59,408.10 438.61,408.40 450.63,408.66 462.65,409.06 474.67,409.27 486.69,409.67 498.71,409.80 510.73,410.02 522.75,410.36 534.77,410.58 546.79,410.98 558.81,411.20 570.83,411.47 582.85,411.84 594.87,412.01 606.89,412.34 618.91,412.51 630.93,412.70 642.95,412.94 654.97,413.30 666.99,413.56 679.01,413.82 691.03,414.04 703.05,414.38 715.07,414.45 727.09,414.67 739.11,414.99 751.13,415.15 763.15,415.40 775.17,415.54 787.19,415.78 799.21,415.89 811.23,416.13 823.25,416.21 835.27,416.46 847.29,416.63 859.31,416.87 871.33,416.98 883.35,417.27 895.37,417.53 907.39,417.76 919.41,417.87 931.43,418.03 943.45,418.34 955.47,418.55 967.49,418.76 979.52,419.06 991.54,419.25 1003.56,419.41 1015.58,419.60 1027.60,419.86 1039.62,419.91 1051.64,420.13 1063.66,420.15 1075.68,420.37 1087.70,420.59 1099.72,420.77 1111.74,420.94 1123.76,421.13 1135.78,421.25 1147.80,421.41 1159.82,421.55 1171.84,421.73 1183.86,421.97 1195.88,422.15 1207.90,422.33 1219.92,422.39 1231.94,422.53 1243.96,422.73 1255.98,422.86 1268.00,423.01" fill="none" stroke="#111827" stroke-width="2" stroke-linejoin="round" stroke-linecap="round"><title>online_ogd_no_dual_rescale</title></polyline>
<polyline points="78.00,202.21 90.02,228.71 102.04,257.82 114.06,288.92 126.08,319.80 138.10,346.54 150.12,366.27 162.14,380.34 174.16,388.77 186.18,394.64 198.20,398.05 210.22,400.30 222.24,401.43 234.26,402.32 246.28,403.00 258.30,403.61 270.32,403.96 282.34,404.53 294.36,405.07 306.38,405.34 318.40,405.64 330.42,406.01 342.44,406.30 354.46,406.82 366.48,407.04 378.51,407.47 390.53,407.83 402.55,408.10 414.57,408.44 426.59,408.78 438.61,409.05 450.63,409.49 462.65,409.51 474.67,409.90 486.69,410.24 498.71,410.51 510.73,410.76 522.75,410.86 534.77,411.16 546.79,411.65 558.81,411.92 570.83,412.32 582.85,412.47 594.87,412.66 606.89,412.98 618.91,413.35 630.93,413.55 642.95,413.80 654.97,414.08 666.99,414.33 679.01,414.62 691.03,414.86 703.05,415.07 715.07,415.37 727.09,415.69 739.11,415.84 751.13,416.10 763.15,416.36 775.17,416.57 787.19,416.83 799.21,416.88 811.23,417.15 823.25,417.46 835.27,417.64 847.29,417.76 859.31,418.00 871.33,418.26 883.35,418.40 895.37,418.65 907.39,418.93 919.41,419.05 931.43,419.28 943.45,419.38 955.47,419.58 967.49,419.92 979.52,420.17 991.54,420.30 1003.56,420.51 1015.58,420.75 1027.60,420.91 1039.62,421.10 1051.64,421.20 1063.66,421.42 1075.68,421.54 1087.70,421.89 1099.72,421.94 1111.74,422.08 1123.76,422.18 1135.78,422.33 1147.80,422.62 1159.82,422.79 1171.84,422.90 1183.86,423.10 1195.88,423.31 1207.90,423.37 1219.92,423.60 1231.94,423.77 1243.96,424.01 1255.98,424.17 1268.00,424.34" fill="none" stroke="#b07aa1" stroke-width="2" stroke-linejoin="round" stroke-linecap="round"><title>online_ogd</title></polyline>
<polyline points="78.00,202.21 90.02,228.56 102.04,257.67 114.06,288.31 126.08,318.60 138.10,345.87 150.12,366.00 162.14,380.77 174.16,389.04 186.18,394.99 198.20,397.95 210.22,400.12 222.24,401.40 234.26,402.54 246.28,403.28 258.30,403.76 270.32,404.34 282.34,404.78 294.36,405.31 306.38,405.75 318.40,406.06 330.42,406.65 342.44,406.97 354.46,407.43 366.48,407.78 378.51,408.18 390.53,408.62 402.55,408.95 414.57,409.33 426.59,409.80 438.61,410.16 450.63,410.61 462.65,411.02 474.67,411.38 486.69,411.77 498.71,412.11 510.73,412.48 522.75,412.91 534.77,413.27 546.79,413.63 558.81,414.06 570.83,414.38 582.85,414.78 594.87,415.17 606.89,415.52 618.91,415.90 630.93,416.25 642.95,416.61 654.97,416.98 666.99,417.35 679.01,417.74 691.03,418.11 703.05,418.46 715.07,418.80 727.09,419.15 739.11,419.50 751.13,419.85 763.15,420.22 775.17,420.59 787.19,420.97 799.21,421.29 811.23,421.66 823.25,422.02 835.27,422.34 847.29,422.67 859.31,423.02 871.33,423.38 883.35,423.73 895.37,424.05 907.39,424.37 919.41,424.72 931.43,425.06 943.45,425.37 955.47,425.75 967.49,426.08 979.52,426.41 991.54,426.74 1003.56,427.03 1015.58,427.37 1027.60,427.68 1039.62,428.02 1051.64,428.34 1063.66,428.62 1075.68,428.96 1087.70,429.28 1099.72,429.58 1111.74,429.91 1123.76,430.22 1135.78,430.52 1147.80,430.86 1159.82,431.18 1171.84,431.47 1183.86,431.80 1195.88,432.08 1207.90,432.40 1219.92,432.70 1231.94,433.02 1243.96,433.31 1255.98,433.62 1268.00,433.91" fill="none" stroke="#6f63b6" stroke-width="2" stroke-linejoin="round" stroke-linecap="round"><title>online_ogd_task_accept</title></polyline>
<polyline points="78.00,202.21 90.02,228.56 102.04,257.81 114.06,288.66 126.08,319.31 138.10,346.66 150.12,366.76 162.14,380.91 174.16,389.61 186.18,395.10 198.20,397.85 210.22,400.28 222.24,401.53 234.26,402.40 246.28,403.05 258.30,403.65 270.32,404.15 282.34,404.61 294.36,405.14 306.38,405.54 318.40,405.89 330.42,406.24 342.44,406.59 354.46,406.98 366.48,407.29 378.51,407.70 390.53,408.00 402.55,408.24 414.57,408.76 426.59,409.11 438.61,409.37 450.63,409.78 462.65,410.09 474.67,410.42 486.69,410.76 498.71,411.21 510.73,411.67 522.75,411.83 534.77,412.14 546.79,412.45 558.81,412.85 570.83,413.16 582.85,413.45 594.87,413.84 606.89,414.14 618.91,414.52 630.93,414.92 642.95,415.21 654.97,415.37 666.99,415.80 679.01,416.03 691.03,416.21 703.05,416.57 715.07,416.78 727.09,417.17 739.11,417.39 751.13,417.67 763.15,417.91 775.17,418.14 787.19,418.45 799.21,418.64 811.23,419.07 823.25,419.31 835.27,419.61 847.29,419.92 859.31,420.20 871.33,420.45 883.35,420.74 895.37,421.04 907.39,421.28 919.41,421.46 931.43,421.72 943.45,421.96 955.47,422.26 967.49,422.49 979.52,422.63 991.54,422.88 1003.56,423.08 1015.58,423.36 1027.60,423.64 1039.62,423.87 1051.64,424.06 1063.66,424.25 1075.68,424.53 1087.70,424.71 1099.72,424.95 1111.74,425.18 1123.76,425.43 1135.78,425.74 1147.80,425.94 1159.82,426.03 1171.84,426.25 1183.86,426.43 1195.88,426.64 1207.90,426.84 1219.92,427.09 1231.94,427.16 1243.96,427.38 1255.98,427.49 1268.00,427.82" fill="none" stroke="#2f8f6b" stroke-width="2" stroke-linejoin="round" stroke-linecap="round"><title>online_ogd_task_aware</title></polyline>
<polyline points="78.00,202.21 90.02,228.22 102.04,256.16 114.06,285.73 126.08,316.20 138.10,342.06 150.12,363.53 162.14,376.48 174.16,386.34 186.18,392.72 198.20,396.46 210.22,398.53 222.24,399.94 234.26,400.03 246.28,400.96 258.30,401.45 270.32,401.67 282.34,402.18 294.36,402.27 306.38,402.36 318.40,402.50 330.42,402.78 342.44,402.66 354.46,403.05 366.48,402.87 378.51,403.09 390.53,403.14 402.55,403.41 414.57,403.28 426.59,403.59 438.61,403.39 450.63,403.61 462.65,403.49 474.67,403.71 486.69,403.55 498.71,403.81 510.73,403.58 522.75,403.83 534.77,403.69 546.79,403.94 558.81,403.78 570.83,404.04 582.85,403.82 594.87,404.09 606.89,403.92 618.91,404.16 630.93,404.00 642.95,404.24 654.97,404.01 666.99,404.28 679.01,404.09 691.03,404.34 703.05,404.18 715.07,404.42 727.09,404.20 739.11,404.46 751.13,404.28 763.15,404.51 775.17,404.36 787.19,404.59 799.21,404.37 811.23,404.63 823.25,404.44 835.27,404.67 847.29,404.52 859.31,404.74 871.33,404.53 883.35,404.79 895.37,404.61 907.39,404.83 919.41,404.68 931.43,404.89 943.45,404.69 955.47,404.94 967.49,404.76 979.52,404.98 991.54,404.83 1003.56,405.03 1015.58,404.84 1027.60,405.08 1039.62,404.91 1051.64,405.11 1063.66,404.98 1075.68,405.17 1087.70,404.99 1099.72,405.22 1111.74,405.05 1123.76,405.25 1135.78,405.12 1147.80,405.30 1159.82,405.12 1171.84,405.35 1183.86,405.18 1195.88,405.38 1207.90,405.25 1219.92,405.43 1231.94,405.26 1243.96,405.48 1255.98,405.31 1268.00,405.50" fill="none" stroke="#d37295" stroke-width="2" stroke-linejoin="round" stroke-linecap="round"><title>online_ogd_task_feasibility</title></polyline>
<polyline points="78.00,202.21 90.02,228.30 102.04,256.72 114.06,286.95 126.08,316.12 138.10,344.17 150.12,363.23 162.14,378.80 174.16,387.87 186.18,393.60 198.20,397.19 210.22,399.46 222.24,400.72 234.26,401.20 246.28,402.39 258.30,402.56 270.32,403.17 282.34,403.52 294.36,404.05 306.38,404.28 318.40,404.63 330.42,404.77 342.44,404.90 354.46,405.02 366.48,405.22 378.51,405.27 390.53,405.42 402.55,405.42 414.57,405.48 426.59,405.72 438.61,405.89 450.63,405.83 462.65,406.13 474.67,406.11 486.69,406.26 498.71,406.26 510.73,406.41 522.75,406.41 534.77,406.68 546.79,406.73 558.81,406.87 570.83,406.94 582.85,407.08 594.87,407.07 606.89,407.21 618.91,407.22 630.93,407.30 642.95,407.32 654.97,407.61 666.99,407.60 679.01,407.80 691.03,407.83 703.05,407.93 715.07,408.00 727.09,408.18 739.11,408.24 751.13,408.39 763.15,408.48 775.17,408.51 787.19,408.69 799.21,408.64 811.23,408.75 823.25,408.87 835.27,408.93 847.29,408.99 859.31,409.10 871.33,409.24 883.35,409.27 895.37,409.34 907.39,409.38 919.41,409.37 931.43,409.48 943.45,409.58 955.47,409.62 967.49,409.67 979.52,409.72 991.54,409.79 1003.56,409.82 1015.58,409.88 1027.60,409.94 1039.62,409.97 1051.64,410.02 1063.66,410.06 1075.68,410.13 1087.70,410.18 1099.72,410.23 1111.74,410.29 1123.76,410.34 1135.78,410.37 1147.80,410.42 1159.82,410.43 1171.84,410.45 1183.86,410.54 1195.88,410.58 1207.90,410.60 1219.92,410.70 1231.94,410.71 1243.96,410.74 1255.98,410.81 1268.00,410.83" fill="none" stroke="#edc948" stroke-width="2" stroke-linejoin="round" stroke-linecap="round"><title>residual_balance_normalized</title></polyline>
<polyline points="78.00,202.21 90.02,228.30 102.04,256.72 114.06,286.95 126.08,316.12 138.10,344.17 150.12,363.23 162.14,378.80 174.16,387.87 186.18,393.60 198.20,397.19 210.22,399.46 222.24,400.72 234.26,401.20 246.28,402.39 258.30,402.56 270.32,403.17 282.34,403.52 294.36,404.05 306.38,404.28 318.40,404.63 330.42,404.77 342.44,404.90 354.46,405.02 366.48,405.22 378.51,405.27 390.53,405.42 402.55,405.42 414.57,405.48 426.59,405.72 438.61,405.89 450.63,405.83 462.65,406.13 474.67,406.11 486.69,406.26 498.71,406.26 510.73,406.41 522.75,406.41 534.77,406.68 546.79,406.73 558.81,406.87 570.83,406.94 582.85,407.08 594.87,407.07 606.89,407.21 618.91,407.22 630.93,407.30 642.95,407.32 654.97,407.61 666.99,407.60 679.01,407.80 691.03,407.83 703.05,407.93 715.07,408.00 727.09,408.18 739.11,408.24 751.13,408.39 763.15,408.48 775.17,408.51 787.19,408.69 799.21,408.64 811.23,408.75 823.25,408.87 835.27,408.93 847.29,408.99 859.31,409.10 871.33,409.24 883.35,409.27 895.37,409.34 907.39,409.38 919.41,409.37 931.43,409.48 943.45,409.58 955.47,409.62 967.49,409.67 979.52,409.72 991.54,409.79 1003.56,409.82 1015.58,409.88 1027.60,409.94 1039.62,409.97 1051.64,410.02 1063.66,410.06 1075.68,410.13 1087.70,410.18 1099.72,410.23 1111.74,410.29 1123.76,410.34 1135.78,410.37 1147.80,410.42 1159.82,410.43 1171.84,410.45 1183.86,410.54 1195.88,410.58 1207.90,410.60 1219.92,410.70 1231.94,410.71 1243.96,410.74 1255.98,410.81 1268.00,410.83" fill="none" stroke="#f28e2b" stroke-width="2" stroke-linejoin="round" stroke-linecap="round"><title>residual_balance_raw</title></polyline>
<polyline points="78.00,202.21 90.02,228.30 102.04,256.72 114.06,286.95 126.08,316.12 138.10,344.17 150.12,363.23 162.14,378.80 174.16,387.87 186.18,393.60 198.20,397.19 210.22,399.46 222.24,400.72 234.26,401.20 246.28,402.39 258.30,402.56 270.32,403.17 282.34,403.52 294.36,404.05 306.38,404.28 318.40,404.63 330.42,404.77 342.44,404.90 354.46,405.02 366.48,405.22 378.51,405.27 390.53,405.42 402.55,405.42 414.57,405.48 426.59,405.72 438.61,405.89 450.63,405.83 462.65,406.13 474.67,406.11 486.69,406.26 498.71,406.26 510.73,406.41 522.75,406.41 534.77,406.68 546.79,406.73 558.81,406.87 570.83,406.94 582.85,407.08 594.87,407.07 606.89,407.21 618.91,407.22 630.93,407.30 642.95,407.32 654.97,407.61 666.99,407.60 679.01,407.80 691.03,407.83 703.05,407.93 715.07,408.00 727.09,408.18 739.11,408.24 751.13,408.39 763.15,408.48 775.17,408.51 787.19,408.69 799.21,408.64 811.23,408.75 823.25,408.87 835.27,408.93 847.29,408.99 859.31,409.10 871.33,409.24 883.35,409.27 895.37,409.34 907.39,409.38 919.41,409.37 931.43,409.48 943.45,409.58 955.47,409.62 967.49,409.67 979.52,409.72 991.54,409.79 1003.56,409.82 1015.58,409.88 1027.60,409.94 1039.62,409.97 1051.64,410.02 1063.66,410.06 1075.68,410.13 1087.70,410.18 1099.72,410.23 1111.74,410.29 1123.76,410.34 1135.78,410.37 1147.80,410.42 1159.82,410.43 1171.84,410.45 1183.86,410.54 1195.88,410.58 1207.90,410.60 1219.92,410.70 1231.94,410.71 1243.96,410.74 1255.98,410.81 1268.00,410.83" fill="none" stroke="#ff9da7" stroke-width="2" stroke-linejoin="round" stroke-linecap="round"><title>residual_balance_relative</title></polyline>
<line x1="1286" x2="1302" y1="60" y2="60" stroke="#4e79a7" stroke-width="3"/>
<text x="1308" y="64" font-size="11" font-family="Arial">fixed_rho_0p1</text>
<line x1="1286" x2="1302" y1="80" y2="80" stroke="#e15759" stroke-width="3"/>
<text x="1308" y="84" font-size="11" font-family="Arial">fixed_rho_10</text>
<line x1="1286" x2="1302" y1="100" y2="100" stroke="#59a14f" stroke-width="3"/>
<text x="1308" y="104" font-size="11" font-family="Arial">fixed_rho_1</text>
<line x1="1286" x2="1302" y1="120" y2="120" stroke="#76b7b2" stroke-width="3"/>
<text x="1308" y="124" font-size="11" font-family="Arial">online_ogd_epoch5</text>
<line x1="1286" x2="1302" y1="140" y2="140" stroke="#9c755f" stroke-width="3"/>
<text x="1308" y="144" font-size="11" font-family="Arial">online_ogd_freeze50</text>
<line x1="1286" x2="1302" y1="160" y2="160" stroke="#111827" stroke-width="3"/>
<text x="1308" y="164" font-size="11" font-family="Arial">online_ogd_no_dual_rescale</text>
<line x1="1286" x2="1302" y1="180" y2="180" stroke="#b07aa1" stroke-width="3"/>
<text x="1308" y="184" font-size="11" font-family="Arial">online_ogd</text>
<line x1="1286" x2="1302" y1="200" y2="200" stroke="#6f63b6" stroke-width="3"/>
<text x="1308" y="204" font-size="11" font-family="Arial">online_ogd_task_accept</text>
<line x1="1286" x2="1302" y1="220" y2="220" stroke="#2f8f6b" stroke-width="3"/>
<text x="1308" y="224" font-size="11" font-family="Arial">online_ogd_task_aware</text>
<line x1="1286" x2="1302" y1="240" y2="240" stroke="#d37295" stroke-width="3"/>
<text x="1308" y="244" font-size="11" font-family="Arial">online_ogd_task_feasibility</text>
<line x1="1286" x2="1302" y1="260" y2="260" stroke="#edc948" stroke-width="3"/>
<text x="1308" y="264" font-size="11" font-family="Arial">residual_balance_normalized</text>
<line x1="1286" x2="1302" y1="280" y2="280" stroke="#f28e2b" stroke-width="3"/>
<text x="1308" y="284" font-size="11" font-family="Arial">residual_balance_raw</text>
<line x1="1286" x2="1302" y1="300" y2="300" stroke="#ff9da7" stroke-width="3"/>
<text x="1308" y="304" font-size="11" font-family="Arial">residual_balance_relative</text>
</svg>
