<svg xmlns="http://www.w3.org/2000/svg" width="1420" height="560" viewBox="0 0 1420 560" role="img" aria-label="Tanh Qat Nonconvex Train Loss">
<title>Tanh Qat Nonconvex Train Loss</title>
<rect width="1420" height="560" fill="#ffffff"/>
<text x="78" y="28" font-size="20" font-family="Arial" font-weight="700">Tanh Qat Nonconvex Train Loss</text>
<text x="673.0" y="548" text-anchor="middle" font-size="12" font-family="Arial">ADMM iteration</text>
<text x="18" y="277.0" transform="rotate(-90 18 277.0)" font-size="12" font-family="Arial">continuous train loss</text>
<line x1="78" x2="1268" y1="498.00" y2="498.00" stroke="#e5e7eb"/>
<text x="70" y="502.00" text-anchor="end" font-size="11" font-family="Arial" fill="#4b5563">1e-1</text>
<line x1="78" x2="1268" y1="387.50" y2="387.50" stroke="#e5e7eb"/>
<text x="70" y="391.50" text-anchor="end" font-size="11" font-family="Arial" fill="#4b5563">1e0</text>
<line x1="78" x2="1268" y1="277.00" y2="277.00" stroke="#e5e7eb"/>
<text x="70" y="281.00" text-anchor="end" font-size="11" font-family="Arial" fill="#4b5563">1e0</text>
<line x1="78" x2="1268" y1="166.50" y2="166.50" stroke="#e5e7eb"/>
<text x="70" y="170.50" text-anchor="end" font-size="11" font-family="Arial" fill="#4b5563">1e0</text>
<line x1="78" x2="1268" y1="56.00" y2="56.00" stroke="#e5e7eb"/>
<text x="70" y="60.00" text-anchor="end" font-size="11" font-family="Arial" fill="#4b5563">1e1</text>
<line x1="78.00" x2="78.00" y1="56" y2="498" stroke="#f3f4f6"/>
<text x="78.00" y="516" text-anchor="middle" font-size="11" font-family="Arial" fill="#4b5563">1</text>
<line x1="375.50" x2="375.50" y1="56" y2="498" stroke="#f3f4f6"/>
<text x="375.50" y="516" text-anchor="middle" font-size="11" font-family="Arial" fill="#4b5563">25</text>
<line x1="673.00" x2="673.00" y1="56" y2="498" stroke="#f3f4f6"/>
<text x="673.00" y="516" text-anchor="middle" font-size="11" font-family="Arial" fill="#4b5563">50</text>
<line x1="970.50" x2="970.50" y1="56" y2="498" stroke="#f3f4f6"/>
<text x="970.50" y="516" text-anchor="middle" font-size="11" font-family="Arial" fill="#4b5563">75</text>
<line x1="1268.00" x2="1268.00" y1="56" y2="498" stroke="#f3f4f6"/>
<text x="1268.00" y="516" text-anchor="middle" font-size="11" font-family="Arial" fill="#4b5563">100</text>
<polyline points="78.00,204.77 90.02,233.03 102.04,264.30 114.06,297.46 126.08,329.03 138.10,355.12 150.12,373.78 162.14,385.74 174.16,392.93 186.18,397.16 198.20,399.69 210.22,401.26 222.24,402.32 234.26,403.16 246.28,403.81 258.30,404.40 270.32,404.84 282.34,405.36 294.36,405.83 306.38,406.25 318.40,406.68 330.42,407.12 342.44,407.53 354.46,408.01 366.48,408.43 378.51,408.82 390.53,409.24 402.55,409.64 414.57,410.04 426.59,410.46 438.61,410.87 450.63,411.26 462.65,411.68 474.67,412.09 486.69,412.50 498.71,412.92 510.73,413.29 522.75,413.66 534.77,414.04 546.79,414.42 558.81,414.85 570.83,415.21 582.85,415.61 594.87,416.01 606.89,416.37 618.91,416.74 630.93,417.12 642.95,417.51 654.97,417.89 666.99,418.22 679.01,418.62 691.03,418.98 703.05,419.37 715.07,419.74 727.09,420.11 739.11,420.44 751.13,420.81 763.15,421.17 775.17,421.52 787.19,421.86 799.21,422.19 811.23,422.59 823.25,422.94 835.27,423.28 847.29,423.63 859.31,423.98 871.33,424.35 883.35,424.68 895.37,425.07 907.39,425.40 919.41,425.74 931.43,426.08 943.45,426.39 955.47,426.74 967.49,427.07 979.52,427.42 991.54,427.73 1003.56,428.07 1015.58,428.39 1027.60,428.74 1039.62,429.07 1051.64,429.40 1063.66,429.74 1075.68,430.04 1087.70,430.37 1099.72,430.69 1111.74,431.00 1123.76,431.34 1135.78,431.67 1147.80,432.00 1159.82,432.31 1171.84,432.63 1183.86,432.93 1195.88,433.27 1207.90,433.59 1219.92,433.91 1231.94,434.20 1243.96,434.52 1255.98,434.83 1268.00,435.16" fill="none" stroke="#4e79a7" stroke-width="2" stroke-linejoin="round" stroke-linecap="round"><title>fixed_rho_0p1</title></polyline>
<polyline points="78.00,187.66 90.02,186.33 102.04,191.31 114.06,196.86 126.08,202.44 138.10,207.89 150.12,213.54 162.14,219.77 174.16,224.28 186.18,230.80 198.20,235.38 210.22,240.01 222.24,244.86 234.26,249.71 246.28,254.50 258.30,259.22 270.32,263.88 282.34,268.48 294.36,273.02 306.38,277.49 318.40,281.89 330.42,286.20 342.44,290.42 354.46,294.55 366.48,298.58 378.51,302.50 390.53,306.30 402.55,309.99 414.57,313.55 426.59,316.98 438.61,322.59 450.63,325.53 462.65,330.37 474.67,332.97 486.69,337.46 498.71,339.86 510.73,342.03 522.75,346.28 534.77,348.41 546.79,350.22 558.81,352.10 570.83,353.95 582.85,355.71 594.87,357.35 606.89,358.87 618.91,360.29 630.93,361.61 642.95,362.85 654.97,364.00 666.99,365.07 679.01,366.08 691.03,367.01 703.05,367.88 715.07,368.70 727.09,369.46 739.11,370.17 751.13,370.83 763.15,371.45 775.17,372.04 787.19,372.59 799.21,373.10 811.23,373.58 823.25,374.04 835.27,374.46 847.29,374.87 859.31,375.25 871.33,375.61 883.35,375.95 895.37,376.27 907.39,376.58 919.41,376.87 931.43,377.14 943.45,377.40 955.47,377.65 967.49,377.89 979.52,378.12 991.54,378.33 1003.56,378.54 1015.58,378.74 1027.60,378.93 1039.62,379.11 1051.64,379.28 1063.66,379.45 1075.68,379.61 1087.70,379.77 1099.72,379.91 1111.74,380.06 1123.76,380.20 1135.78,380.33 1147.80,380.46 1159.82,380.58 1171.84,380.70 1183.86,380.81 1195.88,380.93 1207.90,381.03 1219.92,381.14 1231.94,381.24 1243.96,381.34 1255.98,381.43 1268.00,381.53" fill="none" stroke="#e15759" stroke-width="2" stroke-linejoin="round" stroke-linecap="round"><title>fixed_rho_10</title></polyline>
<polyline points="78.00,202.24 90.02,228.34 102.04,256.77 114.06,287.01 126.08,316.22 138.10,344.31 150.12,363.39 162.14,379.01 174.16,388.10 186.18,393.84 198.20,397.44 210.22,399.72 222.24,400.99 234.26,401.47 246.28,402.66 258.30,402.84 270.32,403.44 282.34,403.80 294.36,404.33 306.38,404.56 318.40,404.90 330.42,405.05 342.44,405.18 354.46,405.29 366.48,405.50 378.51,405.55 390.53,405.70 402.55,405.70 414.57,405.76 426.59,406.00 438.61,406.17 450.63,406.11 462.65,406.42 474.67,406.39 486.69,406.54 498.71,406.54 510.73,406.69 522.75,406.70 534.77,406.96 546.79,407.01 558.81,407.15 570.83,407.23 582.85,407.36 594.87,407.35 606.89,407.50 618.91,407.51 630.93,407.58 642.95,407.61 654.97,407.90 666.99,407.89 679.01,408.09 691.03,408.12 703.05,408.23 715.07,408.30 727.09,408.47 739.11,408.53 751.13,408.68 763.15,408.77 775.17,408.81 787.19,408.99 799.21,408.94 811.23,409.04 823.25,409.16 835.27,409.23 847.29,409.29 859.31,409.40 871.33,409.54 883.35,409.57 895.37,409.63 907.39,409.68 919.41,409.67 931.43,409.78 943.45,409.88 955.47,409.92 967.49,409.97 979.52,410.02 991.54,410.09 1003.56,410.12 1015.58,410.18 1027.60,410.25 1039.62,410.27 1051.64,410.32 1063.66,410.37 1075.68,410.44 1087.70,410.48 1099.72,410.54 1111.74,410.59 1123.76,410.65 1135.78,410.67 1147.80,410.72 1159.82,410.74 1171.84,410.76 1183.86,410.85 1195.88,410.89 1207.90,410.91 1219.92,411.01 1231.94,411.02 1243.96,411.05 1255.98,411.12 1268.00,411.15" fill="none" stroke="#59a14f" stroke-width="2" stroke-linejoin="round" stroke-linecap="round"><title>fixed_rho_1</title></polyline>
<polyline points="78.00,202.24 90.02,228.34 102.04,256.77 114.06,287.01 126.08,316.22 138.10,344.38 150.12,363.43 162.14,379.05 174.16,388.51 186.18,393.89 198.20,397.57 210.22,399.78 222.24,401.05 234.26,401.61 246.28,402.48 258.30,402.57 270.32,403.22 282.34,403.82 294.36,404.36 306.38,404.68 318.40,405.15 330.42,405.38 342.44,405.47 354.46,405.86 366.48,405.79 378.51,405.99 390.53,406.05 402.55,406.28 414.57,406.38 426.59,406.43 438.61,406.70 450.63,406.64 462.65,406.97 474.67,407.07 486.69,407.21 498.71,407.57 510.73,407.78 522.75,407.84 534.77,408.03 546.79,408.19 558.81,408.41 570.83,408.44 582.85,408.60 594.87,408.73 606.89,408.90 618.91,408.95 630.93,408.93 642.95,409.13 654.97,409.25 666.99,409.30 679.01,409.54 691.03,409.47 703.05,409.69 715.07,409.75 727.09,410.00 739.11,409.98 751.13,410.14 763.15,410.29 775.17,410.38 787.19,410.52 799.21,410.65 811.23,410.58 823.25,410.72 835.27,410.74 847.29,410.91 859.31,410.94 871.33,411.12 883.35,411.11 895.37,411.23 907.39,411.33 919.41,411.38 931.43,411.46 943.45,411.56 955.47,411.59 967.49,411.71 979.52,411.69 991.54,411.89 1003.56,411.91 1015.58,411.99 1027.60,412.03 1039.62,412.10 1051.64,412.17 1063.66,412.31 1075.68,412.33 1087.70,412.46 1099.72,412.48 1111.74,412.63 1123.76,412.60 1135.78,412.72 1147.80,412.76 1159.82,412.83 1171.84,412.79 1183.86,412.96 1195.88,413.00 1207.90,413.09 1219.92,413.13 1231.94,413.19 1243.96,413.24 1255.98,413.37 1268.00,413.34" fill="none" stroke="#76b7b2" stroke-width="2" stroke-linejoin="round" stroke-linecap="round"><title>online_ogd_epoch5</title></polyline>
<polyline points="78.00,202.24 90.02,228.74 102.04,257.87 114.06,288.99 126.08,319.90 138.10,346.68 150.12,366.45 162.14,380.55 174.16,389.00 186.18,394.88 198.20,398.30 210.22,400.56 222.24,401.70 234.26,402.59 246.28,403.27 258.30,403.89 270.32,404.24 282.34,404.81 294.36,405.35 306.38,405.62 318.40,405.92 330.42,406.29 342.44,406.59 354.46,407.11 366.48,407.33 378.51,407.76 390.53,408.13 402.55,408.39 414.57,408.73 426.59,409.07 438.61,409.34 450.63,409.79 462.65,409.81 474.67,410.20 486.69,410.54 498.71,410.82 510.73,411.06 522.75,411.17 534.77,411.47 546.79,411.95 558.81,412.23 570.83,412.63 582.85,412.78 594.87,412.97 606.89,413.30 618.91,413.67 630.93,413.87 642.95,414.11 654.97,414.40 666.99,414.65 679.01,414.94 691.03,415.19 703.05,415.40 715.07,415.70 727.09,416.02 739.11,416.16 751.13,416.42 763.15,416.68 775.17,416.90 787.19,417.16 799.21,417.21 811.23,417.48 823.25,417.79 835.27,417.97 847.29,418.09 859.31,418.33 871.33,418.59 883.35,418.74 895.37,418.99 907.39,419.22 919.41,419.37 931.43,419.56 943.45,419.69 955.47,419.86 967.49,420.24 979.52,420.47 991.54,420.59 1003.56,420.81 1015.58,421.06 1027.60,421.22 1039.62,421.42 1051.64,421.50 1063.66,421.68 1075.68,421.79 1087.70,422.14 1099.72,422.23 1111.74,422.35 1123.76,422.46 1135.78,422.59 1147.80,422.88 1159.82,423.07 1171.84,423.19 1183.86,423.36 1195.88,423.55 1207.90,423.62 1219.92,423.85 1231.94,424.01 1243.96,424.21 1255.98,424.39 1268.00,424.57" fill="none" stroke="#9c755f" stroke-width="2" stroke-linejoin="round" stroke-linecap="round"><title>online_ogd_freeze50</title></polyline>
<polyline points="78.00,202.24 90.02,228.71 102.04,257.77 114.06,288.74 126.08,319.45 138.10,346.64 150.12,366.79 162.14,380.77 174.16,388.95 186.18,395.40 198.20,398.20 210.22,400.40 222.24,401.52 234.26,402.37 246.28,402.94 258.30,403.61 270.32,404.15 282.34,404.50 294.36,405.03 306.38,405.40 318.40,405.57 330.42,406.07 342.44,406.29 354.46,406.52 366.48,407.00 378.51,407.34 390.53,407.66 402.55,407.89 414.57,408.12 426.59,408.39 438.61,408.70 450.63,408.95 462.65,409.35 474.67,409.57 486.69,409.97 498.71,410.10 510.73,410.32 522.75,410.66 534.77,410.88 546.79,411.28 558.81,411.51 570.83,411.77 582.85,412.14 594.87,412.32 606.89,412.65 618.91,412.82 630.93,413.01 642.95,413.26 654.97,413.61 666.99,413.87 679.01,414.14 691.03,414.36 703.05,414.69 715.07,414.77 727.09,414.99 739.11,415.31 751.13,415.47 763.15,415.72 775.17,415.86 787.19,416.11 799.21,416.22 811.23,416.45 823.25,416.53 835.27,416.79 847.29,416.96 859.31,417.20 871.33,417.31 883.35,417.60 895.37,417.86 907.39,418.10 919.41,418.21 931.43,418.36 943.45,418.68 955.47,418.89 967.49,419.10 979.52,419.40 991.54,419.60 1003.56,419.75 1015.58,419.95 1027.60,420.21 1039.62,420.25 1051.64,420.48 1063.66,420.50 1075.68,420.72 1087.70,420.94 1099.72,421.12 1111.74,421.29 1123.76,421.49 1135.78,421.60 1147.80,421.76 1159.82,421.91 1171.84,422.09 1183.86,422.33 1195.88,422.51 1207.90,422.69 1219.92,422.75 1231.94,422.89 1243.96,423.10 1255.98,423.23 1268.00,423.38" fill="none" stroke="#111827" stroke-width="2" stroke-linejoin="round" stroke-linecap="round"><title>online_ogd_no_dual_rescale</title></polyline>
<polyline points="78.00,202.24 90.02,228.74 102.04,257.87 114.06,288.99 126.08,319.90 138.10,346.68 150.12,366.45 162.14,380.55 174.16,389.00 186.18,394.88 198.20,398.30 210.22,400.56 222.24,401.70 234.26,402.59 246.28,403.27 258.30,403.89 270.32,404.24 282.34,404.81 294.36,405.35 306.38,405.62 318.40,405.92 330.42,406.29 342.44,406.59 354.46,407.11 366.48,407.33 378.51,407.76 390.53,408.13 402.55,408.39 414.57,408.73 426.59,409.07 438.61,409.34 450.63,409.79 462.65,409.81 474.67,410.20 486.69,410.54 498.71,410.82 510.73,411.06 522.75,411.17 534.77,411.47 546.79,411.95 558.81,412.23 570.83,412.63 582.85,412.78 594.87,412.97 606.89,413.30 618.91,413.67 630.93,413.87 642.95,414.11 654.97,414.40 666.99,414.65 679.01,414.94 691.03,415.19 703.05,415.40 715.07,415.70 727.09,416.02 739.11,416.16 751.13,416.42 763.15,416.69 775.17,416.90 787.19,417.16 799.21,417.21 811.23,417.48 823.25,417.79 835.27,417.97 847.29,418.10 859.31,418.33 871.33,418.59 883.35,418.74 895.37,418.99 907.39,419.27 919.41,419.39 931.43,419.62 943.45,419.72 955.47,419.93 967.49,420.26 979.52,420.52 991.54,420.65 1003.56,420.86 1015.58,421.10 1027.60,421.26 1039.62,421.45 1051.64,421.55 1063.66,421.77 1075.68,421.90 1087.70,422.25 1099.72,422.30 1111.74,422.44 1123.76,422.54 1135.78,422.68 1147.80,422.99 1159.82,423.15 1171.84,423.26 1183.86,423.46 1195.88,423.67 1207.90,423.74 1219.92,423.97 1231.94,424.14 1243.96,424.38 1255.98,424.54 1268.00,424.71" fill="none" stroke="#b07aa1" stroke-width="2" stroke-linejoin="round" stroke-linecap="round"><title>online_ogd</title></polyline>
<polyline points="78.00,202.24 90.02,228.59 102.04,257.72 114.06,288.38 126.08,318.70 138.10,346.01 150.12,366.17 162.14,380.98 174.16,389.27 186.18,395.23 198.20,398.20 210.22,400.38 222.24,401.67 234.26,402.81 246.28,403.56 258.30,404.04 270.32,404.62 282.34,405.06 294.36,405.59 306.38,406.03 318.40,406.34 330.42,406.93 342.44,407.26 354.46,407.72 366.48,408.07 378.51,408.47 390.53,408.91 402.55,409.25 414.57,409.63 426.59,410.10 438.61,410.46 450.63,410.91 462.65,411.33 474.67,411.69 486.69,412.07 498.71,412.42 510.73,412.79 522.75,413.22 534.77,413.58 546.79,413.95 558.81,414.37 570.83,414.70 582.85,415.10 594.87,415.49 606.89,415.84 618.91,416.22 630.93,416.58 642.95,416.94 654.97,417.31 666.99,417.68 679.01,418.07 691.03,418.45 703.05,418.79 715.07,419.14 727.09,419.49 739.11,419.84 751.13,420.20 763.15,420.57 775.17,420.94 787.19,421.32 799.21,421.64 811.23,422.01 823.25,422.37 835.27,422.70 847.29,423.03 859.31,423.38 871.33,423.74 883.35,424.09 895.37,424.42 907.39,424.74 919.41,425.09 931.43,425.43 943.45,425.74 955.47,426.12 967.49,426.46 979.52,426.79 991.54,427.12 1003.56,427.41 1015.58,427.75 1027.60,428.07 1039.62,428.40 1051.64,428.73 1063.66,429.01 1075.68,429.36 1087.70,429.68 1099.72,429.98 1111.74,430.31 1123.76,430.62 1135.78,430.93 1147.80,431.26 1159.82,431.58 1171.84,431.88 1183.86,432.21 1195.88,432.49 1207.90,432.81 1219.92,433.12 1231.94,433.44 1243.96,433.73 1255.98,434.04 1268.00,434.33" fill="none" stroke="#6f63b6" stroke-width="2" stroke-linejoin="round" stroke-linecap="round"><title>online_ogd_task_accept</title></polyline>
<polyline points="78.00,202.24 90.02,228.59 102.04,257.86 114.06,288.73 126.08,319.41 138.10,346.80 150.12,366.93 162.14,381.12 174.16,389.84 186.18,395.35 198.20,398.11 210.22,400.54 222.24,401.80 234.26,402.67 246.28,403.33 258.30,403.93 270.32,404.43 282.34,404.89 294.36,405.42 306.38,405.82 318.40,406.18 330.42,406.52 342.44,406.88 354.46,407.27 366.48,407.58 378.51,407.99 390.53,408.29 402.55,408.53 414.57,409.06 426.59,409.41 438.61,409.67 450.63,410.08 462.65,410.39 474.67,410.72 486.69,411.07 498.71,411.51 510.73,411.97 522.75,412.14 534.77,412.45 546.79,412.76 558.81,413.16 570.83,413.47 582.85,413.76 594.87,414.15 606.89,414.46 618.91,414.84 630.93,415.24 642.95,415.53 654.97,415.69 666.99,416.13 679.01,416.36 691.03,416.54 703.05,416.89 715.07,417.11 727.09,417.50 739.11,417.72 751.13,418.01 763.15,418.24 775.17,418.48 787.19,418.79 799.21,418.98 811.23,419.41 823.25,419.65 835.27,419.96 847.29,420.26 859.31,420.55 871.33,420.80 883.35,421.09 895.37,421.39 907.39,421.63 919.41,421.81 931.43,422.07 943.45,422.31 955.47,422.61 967.49,422.85 979.52,422.99 991.54,423.24 1003.56,423.44 1015.58,423.72 1027.60,424.00 1039.62,424.23 1051.64,424.43 1063.66,424.62 1075.68,424.90 1087.70,425.08 1099.72,425.32 1111.74,425.55 1123.76,425.81 1135.78,426.12 1147.80,426.32 1159.82,426.41 1171.84,426.63 1183.86,426.81 1195.88,427.02 1207.90,427.22 1219.92,427.48 1231.94,427.54 1243.96,427.76 1255.98,427.87 1268.00,428.21" fill="none" stroke="#2f8f6b" stroke-width="2" stroke-linejoin="round" stroke-linecap="round"><title>online_ogd_task_aware</title></polyline>
<polyline points="78.00,202.24 90.02,228.25 102.04,256.21 114.06,285.80 126.08,316.29 138.10,342.19 150.12,363.70 162.14,376.68 174.16,386.56 186.18,392.96 198.20,396.71 210.22,398.79 222.24,400.21 234.26,400.30 246.28,401.23 258.30,401.72 270.32,401.94 282.34,402.45 294.36,402.54 306.38,402.64 318.40,402.77 330.42,403.06 342.44,402.93 354.46,403.33 366.48,403.14 378.51,403.37 390.53,403.42 402.55,403.68 414.57,403.56 426.59,403.86 438.61,403.67 450.63,403.89 462.65,403.77 474.67,403.99 486.69,403.82 498.71,404.09 510.73,403.86 522.75,404.11 534.77,403.97 546.79,404.22 558.81,404.05 570.83,404.32 582.85,404.10 594.87,404.37 606.89,404.20 618.91,404.44 630.93,404.28 642.95,404.52 654.97,404.29 666.99,404.56 679.01,404.37 691.03,404.62 703.05,404.46 715.07,404.70 727.09,404.48 739.11,404.74 751.13,404.56 763.15,404.79 775.17,404.64 787.19,404.87 799.21,404.65 811.23,404.91 823.25,404.72 835.27,404.96 847.29,404.80 859.31,405.02 871.33,404.81 883.35,405.07 895.37,404.89 907.39,405.11 919.41,404.96 931.43,405.18 943.45,404.97 955.47,405.22 967.49,405.04 979.52,405.26 991.54,405.12 1003.56,405.32 1015.58,405.12 1027.60,405.37 1039.62,405.19 1051.64,405.39 1063.66,405.26 1075.68,405.46 1087.70,405.27 1099.72,405.50 1111.74,405.33 1123.76,405.53 1135.78,405.40 1147.80,405.59 1159.82,405.41 1171.84,405.64 1183.86,405.47 1195.88,405.66 1207.90,405.53 1219.92,405.72 1231.94,405.54 1243.96,405.76 1255.98,405.60 1268.00,405.79" fill="none" stroke="#d37295" stroke-width="2" stroke-linejoin="round" stroke-linecap="round"><title>online_ogd_task_feasibility</title></polyline>
<polyline points="78.00,202.24 90.02,228.34 102.04,256.77 114.06,287.01 126.08,316.22 138.10,344.31 150.12,363.39 162.14,379.01 174.16,388.10 186.18,393.84 198.20,397.44 210.22,399.72 222.24,400.99 234.26,401.47 246.28,402.66 258.30,402.84 270.32,403.44 282.34,403.80 294.36,404.33 306.38,404.56 318.40,404.90 330.42,405.05 342.44,405.18 354.46,405.29 366.48,405.50 378.51,405.55 390.53,405.70 402.55,405.70 414.57,405.76 426.59,406.00 438.61,406.17 450.63,406.11 462.65,406.42 474.67,406.39 486.69,406.54 498.71,406.54 510.73,406.69 522.75,406.70 534.77,406.96 546.79,407.01 558.81,407.15 570.83,407.23 582.85,407.36 594.87,407.35 606.89,407.50 618.91,407.51 630.93,407.58 642.95,407.61 654.97,407.90 666.99,407.89 679.01,408.09 691.03,408.12 703.05,408.23 715.07,408.30 727.09,408.47 739.11,408.53 751.13,408.68 763.15,408.77 775.17,408.81 787.19,408.99 799.21,408.94 811.23,409.04 823.25,409.16 835.27,409.23 847.29,409.29 859.31,409.40 871.33,409.54 883.35,409.57 895.37,409.63 907.39,409.68 919.41,409.67 931.43,409.78 943.45,409.88 955.47,409.92 967.49,409.97 979.52,410.02 991.54,410.09 1003.56,410.12 1015.58,410.18 1027.60,410.25 1039.62,410.27 1051.64,410.32 1063.66,410.37 1075.68,410.44 1087.70,410.48 1099.72,410.54 1111.74,410.59 1123.76,410.65 1135.78,410.67 1147.80,410.72 1159.82,410.74 1171.84,410.76 1183.86,410.85 1195.88,410.89 1207.90,410.91 1219.92,411.01 1231.94,411.02 1243.96,411.05 1255.98,411.12 1268.00,411.15" fill="none" stroke="#edc948" stroke-width="2" stroke-linejoin="round" stroke-linecap="round"><title>residual_balance_normalized</title></polyline>
<polyline points="78.00,202.24 90.02,228.34 102.04,256.77 114.06,287.01 126.08,316.22 138.10,344.31 150.12,363.39 162.14,379.01 174.16,388.10 186.18,393.84 198.20,397.44 210.22,399.72 222.24,400.99 234.26,401.47 246.28,402.66 258.30,402.84 270.32,403.44 282.34,403.80 294.36,404.33 306.38,404.56 318.40,404.90 330.42,405.05 342.44,405.18 354.46,405.29 366.48,405.50 378.51,405.55 390.53,405.70 402.55,405.70 414.57,405.76 426.59,406.00 438.61,406.17 450.63,406.11 462.65,406.42 474.67,406.39 486.69,406.54 498.71,406.54 510.73,406.69 522.75,406.70 534.77,406.96 546.79,407.01 558.81,407.15 570.83,407.23 582.85,407.36 594.87,407.35 606.89,407.50 618.91,407.51 630.93,407.58 642.95,407.61 654.97,407.90 666.99,407.89 679.01,408.09 691.03,408.12 703.05,408.23 715.07,408.30 727.09,408.47 739.11,408.53 751.13,408.68 763.15,408.77 775.17,408.81 787.19,408.99 799.21,408.94 811.23,409.04 823.25,409.16 835.27,409.23 847.29,409.29 859.31,409.40 871.33,409.54 883.35,409.57 895.37,409.63 907.39,409.68 919.41,409.67 931.43,409.78 943.45,409.88 955.47,409.92 967.49,409.97 979.52,410.02 991.54,410.09 1003.56,410.12 1015.58,410.18 1027.60,410.25 1039.62,410.27 1051.64,410.32 1063.66,410.37 1075.68,410.44 1087.70,410.48 1099.72,410.54 1111.74,410.59 1123.76,410.65 1135.78,410.67 1147.80,410.72 1159.82,410.74 1171.84,410.76 1183.86,410.85 1195.88,410.89 1207.90,410.91 1219.92,411.01 1231.94,411.02 1243.96,411.05 1255.98,411.12 1268.00,411.15" fill="none" stroke="#f28e2b" stroke-width="2" stroke-linejoin="round" stroke-linecap="round"><title>residual_balance_raw</title></polyline>
<polyline points="78.00,202.24 90.02,228.34 102.04,256.77 114.06,287.01 126.08,316.22 138.10,344.31 150.12,363.39 162.14,379.01 174.16,388.10 186.18,393.84 198.20,397.44 210.22,399.72 222.24,400.99 234.26,401.47 246.28,402.66 258.30,402.84 270.32,403.44 282.34,403.80 294.36,404.33 306.38,404.56 318.40,404.90 330.42,405.05 342.44,405.18 354.46,405.29 366.48,405.50 378.51,405.55 390.53,405.70 402.55,405.70 414.57,405.76 426.59,406.00 438.61,406.17 450.63,406.11 462.65,406.42 474.67,406.39 486.69,406.54 498.71,406.54 510.73,406.69 522.75,406.70 534.77,406.96 546.79,407.01 558.81,407.15 570.83,407.23 582.85,407.36 594.87,407.35 606.89,407.50 618.91,407.51 630.93,407.58 642.95,407.61 654.97,407.90 666.99,407.89 679.01,408.09 691.03,408.12 703.05,408.23 715.07,408.30 727.09,408.47 739.11,408.53 751.13,408.68 763.15,408.77 775.17,408.81 787.19,408.99 799.21,408.94 811.23,409.04 823.25,409.16 835.27,409.23 847.29,409.29 859.31,409.40 871.33,409.54 883.35,409.57 895.37,409.63 907.39,409.68 919.41,409.67 931.43,409.78 943.45,409.88 955.47,409.92 967.49,409.97 979.52,410.02 991.54,410.09 1003.56,410.12 1015.58,410.18 1027.60,410.25 1039.62,410.27 1051.64,410.32 1063.66,410.37 1075.68,410.44 1087.70,410.48 1099.72,410.54 1111.74,410.59 1123.76,410.65 1135.78,410.67 1147.80,410.72 1159.82,410.74 1171.84,410.76 1183.86,410.85 1195.88,410.89 1207.90,410.91 1219.92,411.01 1231.94,411.02 1243.96,411.05 1255.98,411.12 1268.00,411.15" fill="none" stroke="#ff9da7" stroke-width="2" stroke-linejoin="round" stroke-linecap="round"><title>residual_balance_relative</title></polyline>
<line x1="1286" x2="1302" y1="60" y2="60" stroke="#4e79a7" stroke-width="3"/>
<text x="1308" y="64" font-size="11" font-family="Arial">fixed_rho_0p1</text>
<line x1="1286" x2="1302" y1="80" y2="80" stroke="#e15759" stroke-width="3"/>
<text x="1308" y="84" font-size="11" font-family="Arial">fixed_rho_10</text>
<line x1="1286" x2="1302" y1="100" y2="100" stroke="#59a14f" stroke-width="3"/>
<text x="1308" y="104" font-size="11" font-family="Arial">fixed_rho_1</text>
<line x1="1286" x2="1302" y1="120" y2="120" stroke="#76b7b2" stroke-width="3"/>
<text x="1308" y="124" font-size="11" font-family="Arial">online_ogd_epoch5</text>
<line x1="1286" x2="1302" y1="140" y2="140" stroke="#9c755f" stroke-width="3"/>
<text x="1308" y="144" font-size="11" font-family="Arial">online_ogd_freeze50</text>
<line x1="1286" x2="1302" y1="160" y2="160" stroke="#111827" stroke-width="3"/>
<text x="1308" y="164" font-size="11" font-family="Arial">online_ogd_no_dual_rescale</text>
<line x1="1286" x2="1302" y1="180" y2="180" stroke="#b07aa1" stroke-width="3"/>
<text x="1308" y="184" font-size="11" font-family="Arial">online_ogd</text>
<line x1="1286" x2="1302" y1="200" y2="200" stroke="#6f63b6" stroke-width="3"/>
<text x="1308" y="204" font-size="11" font-family="Arial">online_ogd_task_accept</text>
<line x1="1286" x2="1302" y1="220" y2="220" stroke="#2f8f6b" stroke-width="3"/>
<text x="1308" y="224" font-size="11" font-family="Arial">online_ogd_task_aware</text>
<line x1="1286" x2="1302" y1="240" y2="240" stroke="#d37295" stroke-width="3"/>
<text x="1308" y="244" font-size="11" font-family="Arial">online_ogd_task_feasibility</text>
<line x1="1286" x2="1302" y1="260" y2="260" stroke="#edc948" stroke-width="3"/>
<text x="1308" y="264" font-size="11" font-family="Arial">residual_balance_normalized</text>
<line x1="1286" x2="1302" y1="280" y2="280" stroke="#f28e2b" stroke-width="3"/>
<text x="1308" y="284" font-size="11" font-family="Arial">residual_balance_raw</text>
<line x1="1286" x2="1302" y1="300" y2="300" stroke="#ff9da7" stroke-width="3"/>
<text x="1308" y="304" font-size="11" font-family="Arial">residual_balance_relative</text>
</svg>
