<svg xmlns="http://www.w3.org/2000/svg" width="1420" height="560" viewBox="0 0 1420 560" role="img" aria-label="Tv Denoising Rho Benchmark Trajectories, Seed 0">
<title>Tv Denoising Rho Benchmark Trajectories, Seed 0</title>
<rect width="1420" height="560" fill="#ffffff"/>
<text x="78" y="28" font-size="20" font-family="Arial" font-weight="700">Tv Denoising Rho Benchmark Trajectories, Seed 0</text>
<text x="654.0" y="548" text-anchor="middle" font-size="12" font-family="Arial">ADMM iteration</text>
<text x="18" y="277.0" transform="rotate(-90 18 277.0)" font-size="12" font-family="Arial">rho, log scale</text>
<line x1="78" x2="1230" y1="498.00" y2="498.00" stroke="#e5e7eb"/>
<text x="70" y="502.00" text-anchor="end" font-size="11" font-family="Arial" fill="#4b5563">1e-1</text>
<line x1="78" x2="1230" y1="387.50" y2="387.50" stroke="#e5e7eb"/>
<text x="70" y="391.50" text-anchor="end" font-size="11" font-family="Arial" fill="#4b5563">1e0</text>
<line x1="78" x2="1230" y1="277.00" y2="277.00" stroke="#e5e7eb"/>
<text x="70" y="281.00" text-anchor="end" font-size="11" font-family="Arial" fill="#4b5563">1e1</text>
<line x1="78" x2="1230" y1="166.50" y2="166.50" stroke="#e5e7eb"/>
<text x="70" y="170.50" text-anchor="end" font-size="11" font-family="Arial" fill="#4b5563">1e2</text>
<line x1="78" x2="1230" y1="56.00" y2="56.00" stroke="#e5e7eb"/>
<text x="70" y="60.00" text-anchor="end" font-size="11" font-family="Arial" fill="#4b5563">1e3</text>
<line x1="78.00" x2="78.00" y1="56" y2="498" stroke="#f3f4f6"/>
<text x="78.00" y="516" text-anchor="middle" font-size="11" font-family="Arial" fill="#4b5563">1</text>
<line x1="366.00" x2="366.00" y1="56" y2="498" stroke="#f3f4f6"/>
<text x="366.00" y="516" text-anchor="middle" font-size="11" font-family="Arial" fill="#4b5563">38</text>
<line x1="654.00" x2="654.00" y1="56" y2="498" stroke="#f3f4f6"/>
<text x="654.00" y="516" text-anchor="middle" font-size="11" font-family="Arial" fill="#4b5563">75</text>
<line x1="942.00" x2="942.00" y1="56" y2="498" stroke="#f3f4f6"/>
<text x="942.00" y="516" text-anchor="middle" font-size="11" font-family="Arial" fill="#4b5563">112</text>
<line x1="1230.00" x2="1230.00" y1="56" y2="498" stroke="#f3f4f6"/>
<text x="1230.00" y="516" text-anchor="middle" font-size="11" font-family="Arial" fill="#4b5563">150</text>
<line x1="78" x2="1230" y1="334.78" y2="334.78" stroke="#111827" stroke-width="2" stroke-dasharray="7 5"/>
<text x="86" y="328.78" font-size="11" font-family="Arial" fill="#111827">oracle fixed rho 3</text>
<polyline points="78.00,387.50 85.73,394.02 93.46,391.34 101.19,386.17 108.93,373.50 116.66,361.53 124.39,357.66 132.12,359.89 139.85,363.90 147.58,382.72 155.32,409.79 163.05,397.04 170.78,374.61 178.51,356.71 186.24,362.90 193.97,378.51 201.70,380.50 209.44,378.92 217.17,378.18 224.90,378.61 232.63,378.66 240.36,378.52 248.09,378.20 255.83,377.15 263.56,372.28 271.29,327.63 279.02,333.04 286.75,339.66 294.48,363.18 302.21,401.07 309.95,397.59 317.68,393.79 325.41,384.75 333.14,302.22 340.87,308.20 348.60,315.01 356.34,335.76 364.07,427.39 371.80,427.12 379.53,426.03 387.26,423.46 394.99,406.47 402.72,371.12 410.46,352.54 418.19,355.25 425.92,360.06 433.65,361.10 441.38,360.21 449.11,358.17 456.85,337.46 464.58,342.92 472.31,350.93 480.04,376.82 487.77,380.88" fill="none" stroke="#bab0ac" stroke-width="2" stroke-linejoin="round" stroke-linecap="round"><title>bb_online_penalty_simplified</title></polyline>
<polyline points="78.00,387.50 85.73,387.50 93.46,387.50 101.19,387.50 108.93,387.50 116.66,387.50 124.39,387.50 132.12,387.50 139.85,387.50 147.58,387.50 155.32,387.50 163.05,387.50 170.78,387.50 178.51,387.50 186.24,387.50 193.97,387.50 201.70,387.50 209.44,387.50 217.17,387.50 224.90,387.50 232.63,387.50 240.36,387.50 248.09,387.50 255.83,387.50 263.56,387.50 271.29,387.50 279.02,387.50 286.75,387.50 294.48,387.50 302.21,387.50 309.95,387.50 317.68,387.50 325.41,387.50 333.14,387.50 340.87,387.50 348.60,387.50 356.34,387.50 364.07,387.50 371.80,387.50 379.53,387.50 387.26,387.50 394.99,387.50 402.72,387.50 410.46,387.50 418.19,387.50 425.92,387.50 433.65,387.50 441.38,387.50 449.11,387.50 456.85,387.50 464.58,387.50 472.31,387.50 480.04,387.50 487.77,387.50 495.50,387.50 503.23,387.50 510.97,387.50 518.70,387.50 526.43,387.50 534.16,387.50 541.89,387.50 549.62,387.50 557.36,387.50 565.09,387.50 572.82,387.50 580.55,387.50 588.28,387.50 596.01,387.50 603.74,387.50 611.48,387.50 619.21,387.50 626.94,387.50 634.67,387.50 642.40,387.50 650.13,387.50 657.87,387.50 665.60,387.50 673.33,387.50 681.06,387.50 688.79,387.50 696.52,387.50 704.26,387.50 711.99,387.50 719.72,387.50 727.45,387.50 735.18,387.50 742.91,387.50 750.64,387.50 758.38,387.50 766.11,387.50 773.84,387.50" fill="none" stroke="#59a14f" stroke-width="2" stroke-linejoin="round" stroke-linecap="round"><title>fixed_rho_1</title></polyline>
<polyline points="78.00,387.50 85.73,387.50 93.46,387.50 101.19,387.50 108.93,387.50 116.66,384.12 124.39,384.12 132.12,384.12 139.85,384.12 147.58,384.12 155.32,382.43 163.05,382.43 170.78,382.43 178.51,382.43 186.24,382.43 193.97,381.30 201.70,381.30 209.44,381.30 217.17,381.30 224.90,381.30 232.63,379.78 240.36,379.78 248.09,379.78 255.83,379.78 263.56,379.78 271.29,379.23 279.02,379.23 286.75,379.23 294.48,379.23 302.21,379.23 309.95,377.55 317.68,377.55 325.41,377.55 333.14,377.55 340.87,377.55 348.60,375.89 356.34,375.89 364.07,375.89 371.80,375.89 379.53,375.89 387.26,374.25 394.99,374.25 402.72,374.25 410.46,374.25 418.19,374.25 425.92,372.73 433.65,372.73 441.38,372.73 449.11,372.73 456.85,372.73 464.58,371.33 472.31,371.33 480.04,371.33 487.77,371.33 495.50,371.33 503.23,370.04 510.97,370.04 518.70,370.04 526.43,370.04 534.16,370.04 541.89,368.84 549.62,368.84 557.36,368.84 565.09,368.84 572.82,368.84 580.55,367.73 588.28,367.73 596.01,367.73 603.74,367.73 611.48,367.73 619.21,366.70" fill="none" stroke="#76b7b2" stroke-width="2" stroke-linejoin="round" stroke-linecap="round"><title>online_ogd_epoch5</title></polyline>
<polyline points="78.00,387.50 85.73,396.63 93.46,398.91 101.19,398.09 108.93,394.73 116.66,390.94 124.39,387.39 132.12,384.13 139.85,381.10 147.58,378.57 155.32,376.60 163.05,375.15 170.78,374.12 178.51,373.34 186.24,372.75 193.97,372.37 201.70,372.19 209.44,372.10 217.17,371.99 224.90,371.76 232.63,371.58 240.36,371.61 248.09,371.82 255.83,372.10 263.56,372.33 271.29,372.42 279.02,372.29 286.75,371.91 294.48,371.30 302.21,370.51 309.95,369.60 317.68,368.60 325.41,367.57 333.14,366.53 340.87,365.52 348.60,364.54 356.34,363.60 364.07,362.72 371.80,361.90 379.53,361.14 387.26,360.44 394.99,359.80 402.72,359.21 410.46,358.67 418.19,358.18 425.92,357.73 433.65,357.32 441.38,356.95 449.11,356.61 456.85,356.31 464.58,356.03 472.31,356.03 480.04,356.03 487.77,356.03 495.50,356.03 503.23,356.03 510.97,356.03 518.70,356.03 526.43,356.03 534.16,356.03" fill="none" stroke="#4e79a7" stroke-width="2" stroke-linejoin="round" stroke-linecap="round"><title>online_ogd_freeze50</title></polyline>
<polyline points="78.00,387.50 85.73,396.63 93.46,399.65 101.19,399.22 108.93,396.52 116.66,393.74 124.39,391.12 132.12,388.57 139.85,386.23 147.58,384.37 155.32,382.96 163.05,381.80 170.78,380.65 178.51,379.52 186.24,378.44 193.97,377.35 201.70,376.25 209.44,375.13 217.17,373.90 224.90,372.52 232.63,370.95 240.36,369.16 248.09,367.16 255.83,364.94 263.56,362.50 271.29,359.86 279.02,357.03 286.75,353.98 294.48,350.67 302.21,347.15 309.95,343.45 317.68,339.59 325.41,335.66 333.14,331.93 340.87,328.77 348.60,326.45 356.34,325.10 364.07,324.79 371.80,325.64 379.53,327.46 387.26,329.72 394.99,332.03 402.72,334.12 410.46,335.77 418.19,336.67 425.92,337.35 433.65,338.21 441.38,339.24 449.11,340.19 456.85,340.89 464.58,341.42 472.31,341.88 480.04,342.28 487.77,342.61 495.50,342.89 503.23,343.11 510.97,343.31 518.70,343.47 526.43,343.64 534.16,343.63 541.89,344.05 549.62,344.41 557.36,344.73 565.09,344.89 572.82,344.62 580.55,344.84 588.28,344.98 596.01,344.96 603.74,345.40 611.48,345.86 619.21,346.36 626.94,346.83 634.67,347.11 642.40,346.95 650.13,347.19 657.87,347.51 665.60,347.42 673.33,347.75 681.06,347.84 688.79,347.77 696.52,348.12 704.26,348.39 711.99,348.63 719.72,348.70 727.45,348.62 735.18,348.92 742.91,348.98 750.64,348.93 758.38,349.28 766.11,349.58 773.84,349.84 781.57,349.98 789.30,349.71 797.03,349.83 804.77,350.12 812.50,350.35 820.23,350.52 827.96,350.51 835.69,350.61 843.42,350.61 851.15,350.94 858.89,351.21 866.62,351.42 874.35,351.42 882.08,351.51 889.81,351.67 897.54,351.36 905.28,351.40 913.01,351.64 920.74,351.94 928.47,352.32 936.20,352.74 943.93,353.09 951.66,353.23 959.40,353.21 967.13,353.44 974.86,353.53 982.59,353.73 990.32,353.61 998.05,353.82 1005.79,353.83 1013.52,353.97 1021.25,353.90 1028.98,354.08 1036.71,354.20 1044.44,354.24 1052.17,354.00 1059.91,354.02 1067.64,354.15 1075.37,354.35 1083.10,354.65 1090.83,355.00 1098.56,355.33 1106.30,355.51 1114.03,355.36 1121.76,355.48 1129.49,355.75 1137.22,355.78 1144.95,355.87 1152.68,355.84 1160.42,356.10 1168.15,356.28 1175.88,356.38 1183.61,356.09 1191.34,356.07 1199.07,356.33 1206.81,356.59 1214.54,356.90 1222.27,357.20 1230.00,357.41" fill="none" stroke="#e15759" stroke-width="2" stroke-linejoin="round" stroke-linecap="round"><title>online_ogd_no_dual_rescale</title></polyline>
<polyline points="78.00,387.50 85.73,396.63 93.46,398.91 101.19,398.09 108.93,394.73 116.66,390.94 124.39,387.39 132.12,384.13 139.85,381.10 147.58,378.57 155.32,376.60 163.05,375.15 170.78,374.12 178.51,373.34 186.24,372.75 193.97,372.37 201.70,372.19 209.44,372.10 217.17,371.99 224.90,371.76 232.63,371.58 240.36,371.61 248.09,371.82 255.83,372.10 263.56,372.33 271.29,372.42 279.02,372.29 286.75,371.91 294.48,371.30 302.21,370.51 309.95,369.60 317.68,368.60 325.41,367.57 333.14,366.53 340.87,365.52 348.60,364.54 356.34,363.60 364.07,362.72 371.80,361.90 379.53,361.14 387.26,360.44 394.99,359.80 402.72,359.21 410.46,358.67 418.19,358.18 425.92,357.73 433.65,357.32 441.38,356.95 449.11,356.61 456.85,356.31 464.58,356.03 472.31,355.78 480.04,355.56 487.77,355.35 495.50,355.16 503.23,354.99 510.97,354.83 518.70,354.68 526.43,354.55 534.16,354.42" fill="none" stroke="#b07aa1" stroke-width="2" stroke-linejoin="round" stroke-linecap="round"><title>online_ogd</title></polyline>
<polyline points="78.00,334.78 85.73,334.78 93.46,334.78 101.19,334.78 108.93,334.78 116.66,334.78 124.39,334.78 132.12,334.78 139.85,334.78 147.58,334.78 155.32,334.78 163.05,334.78 170.78,334.78 178.51,334.78 186.24,334.78 193.97,334.78 201.70,334.78 209.44,334.78 217.17,334.78 224.90,334.78 232.63,334.78 240.36,334.78 248.09,334.78 255.83,334.78 263.56,334.78 271.29,334.78 279.02,334.78 286.75,334.78 294.48,334.78 302.21,334.78 309.95,334.78 317.68,334.78 325.41,334.78 333.14,334.78 340.87,334.78 348.60,334.78 356.34,334.78 364.07,334.78 371.80,334.78 379.53,334.78 387.26,334.78 394.99,334.78 402.72,334.78 410.46,334.78 418.19,334.78 425.92,334.78 433.65,334.78 441.38,334.78 449.11,334.78 456.85,334.78 464.58,334.78 472.31,334.78 480.04,334.78 487.77,334.78 495.50,334.78 503.23,334.78 510.97,334.78 518.70,334.78 526.43,334.78 534.16,334.78" fill="none" stroke="#111827" stroke-width="2" stroke-linejoin="round" stroke-linecap="round"><title>oracle_fixed_grid</title></polyline>
<polyline points="78.00,387.50 85.73,387.50 93.46,387.50 101.19,387.50 108.93,387.50 116.66,387.50 124.39,387.50 132.12,387.50 139.85,387.50 147.58,387.50 155.32,387.50 163.05,387.50 170.78,387.50 178.51,387.50 186.24,387.50 193.97,387.50 201.70,387.50 209.44,387.50 217.17,387.50 224.90,387.50 232.63,387.50 240.36,387.50 248.09,387.50 255.83,387.50 263.56,387.50 271.29,387.50 279.02,387.50 286.75,387.50 294.48,387.50 302.21,387.50 309.95,387.50 317.68,387.50 325.41,387.50 333.14,387.50 340.87,387.50 348.60,387.50 356.34,387.50 364.07,387.50 371.80,387.50 379.53,387.50 387.26,387.50 394.99,387.50 402.72,387.50 410.46,387.50 418.19,387.50 425.92,387.50 433.65,387.50 441.38,387.50 449.11,387.50 456.85,387.50 464.58,387.50 472.31,387.50 480.04,387.50 487.77,387.50 495.50,387.50 503.23,387.50 510.97,387.50 518.70,387.50 526.43,387.50 534.16,387.50 541.89,387.50 549.62,387.50 557.36,387.50 565.09,387.50 572.82,387.50 580.55,387.50 588.28,387.50 596.01,387.50 603.74,387.50 611.48,387.50 619.21,387.50 626.94,387.50 634.67,387.50 642.40,387.50 650.13,387.50 657.87,387.50 665.60,387.50 673.33,387.50 681.06,387.50 688.79,387.50 696.52,387.50 704.26,387.50 711.99,387.50 719.72,387.50 727.45,387.50 735.18,387.50 742.91,387.50 750.64,387.50 758.38,387.50 766.11,387.50 773.84,387.50" fill="none" stroke="#edc948" stroke-width="2" stroke-linejoin="round" stroke-linecap="round"><title>residual_balance_normalized</title></polyline>
<polyline points="78.00,387.50 85.73,387.50 93.46,387.50 101.19,387.50 108.93,387.50 116.66,387.50 124.39,387.50 132.12,387.50 139.85,387.50 147.58,387.50 155.32,387.50 163.05,387.50 170.78,387.50 178.51,387.50 186.24,387.50 193.97,387.50 201.70,387.50 209.44,387.50 217.17,387.50 224.90,387.50 232.63,387.50 240.36,387.50 248.09,387.50 255.83,387.50 263.56,387.50 271.29,387.50 279.02,387.50 286.75,387.50 294.48,387.50 302.21,387.50 309.95,387.50 317.68,387.50 325.41,387.50 333.14,387.50 340.87,387.50 348.60,387.50 356.34,387.50 364.07,387.50 371.80,387.50 379.53,387.50 387.26,387.50 394.99,387.50 402.72,387.50 410.46,387.50 418.19,387.50 425.92,387.50 433.65,387.50 441.38,387.50 449.11,387.50 456.85,387.50 464.58,387.50 472.31,387.50 480.04,387.50 487.77,387.50 495.50,387.50 503.23,387.50 510.97,387.50 518.70,387.50 526.43,387.50 534.16,387.50 541.89,387.50 549.62,387.50 557.36,387.50 565.09,387.50 572.82,387.50 580.55,387.50 588.28,387.50 596.01,387.50 603.74,387.50 611.48,387.50 619.21,387.50 626.94,387.50 634.67,387.50 642.40,387.50 650.13,387.50 657.87,387.50 665.60,387.50 673.33,387.50 681.06,387.50 688.79,387.50 696.52,387.50 704.26,387.50 711.99,387.50 719.72,387.50 727.45,387.50 735.18,387.50 742.91,387.50 750.64,387.50 758.38,387.50 766.11,387.50 773.84,387.50" fill="none" stroke="#f28e2b" stroke-width="2" stroke-linejoin="round" stroke-linecap="round"><title>residual_balance_raw</title></polyline>
<polyline points="78.00,387.50 85.73,387.50 93.46,387.50 101.19,387.50 108.93,354.24 116.66,354.24 124.39,354.24 132.12,354.24 139.85,354.24 147.58,354.24 155.32,354.24 163.05,354.24 170.78,354.24 178.51,354.24 186.24,354.24 193.97,354.24 201.70,354.24 209.44,354.24 217.17,354.24 224.90,354.24 232.63,354.24 240.36,354.24 248.09,354.24 255.83,354.24 263.56,354.24 271.29,354.24 279.02,354.24 286.75,354.24 294.48,354.24 302.21,354.24 309.95,354.24 317.68,354.24 325.41,354.24 333.14,354.24 340.87,354.24 348.60,354.24 356.34,354.24 364.07,354.24 371.80,354.24 379.53,354.24 387.26,354.24 394.99,354.24 402.72,354.24 410.46,354.24 418.19,354.24 425.92,354.24 433.65,354.24 441.38,354.24" fill="none" stroke="#ff9da7" stroke-width="2" stroke-linejoin="round" stroke-linecap="round"><title>residual_balance_relative</title></polyline>
<polyline points="78.00,387.50 85.73,387.50 93.46,437.48 101.19,437.48 108.93,419.40 116.66,419.40 124.39,350.32 132.12,350.32 139.85,270.51 147.58,270.51 155.32,237.09 163.05,237.09 170.78,199.16 178.51,199.16 186.24,152.89 193.97,152.89 201.70,128.32 209.44,128.32 217.17,128.32 224.90,128.32 232.63,128.32 240.36,128.32 248.09,128.32 255.83,128.32 263.56,128.32 271.29,128.32 279.02,128.32 286.75,128.32 294.48,224.49 302.21,224.49 309.95,273.37 317.68,273.37 325.41,290.39 333.14,290.39 340.87,282.76 348.60,282.76 356.34,278.79 364.07,278.79 371.80,328.84 379.53,328.84 387.26,362.94 394.99,362.94 402.72,324.58 410.46,324.58 418.19,277.81 425.92,277.81 433.65,246.11 441.38,246.11 449.11,243.84 456.85,243.84 464.58,243.84 472.31,243.84 480.04,243.84 487.77,243.84 495.50,243.84 503.23,243.84 510.97,243.84 518.70,243.84 526.43,243.84 534.16,243.84 541.89,243.84 549.62,243.84 557.36,243.84 565.09,243.84 572.82,243.84 580.55,243.84 588.28,274.08 596.01,274.08 603.74,278.47 611.48,278.47 619.21,278.47 626.94,278.47 634.67,278.47 642.40,278.47 650.13,344.99 657.87,344.99 665.60,383.97 673.33,383.97 681.06,437.31 688.79,437.31 696.52,440.98 704.26,440.98 711.99,399.50 719.72,399.50 727.45,340.14 735.18,340.14 742.91,293.24 750.64,293.24 758.38,248.65 766.11,248.65 773.84,216.60 781.57,216.60 789.30,206.72 797.03,206.72 804.77,206.72 812.50,206.72 820.23,206.72 827.96,206.72 835.69,206.72 843.42,206.72 851.15,206.72 858.89,206.72 866.62,206.72 874.35,206.72 882.08,206.72 889.81,206.72 897.54,206.72 905.28,206.72 913.01,206.72 920.74,206.72 928.47,206.72 936.20,206.72 943.93,206.72 951.66,206.72 959.40,206.72 967.13,206.72 974.86,206.72 982.59,206.72 990.32,236.89 998.05,236.89 1005.79,246.75 1013.52,246.75 1021.25,258.23 1028.98,258.23 1036.71,298.18 1044.44,298.18" fill="none" stroke="#9c755f" stroke-width="2" stroke-linejoin="round" stroke-linecap="round"><title>spectral_aadmm_xu2017</title></polyline>
<line x1="1248" x2="1264" y1="60" y2="60" stroke="#111827" stroke-width="2" stroke-dasharray="7 5"/>
<text x="1270" y="64" font-size="11" font-family="Arial">oracle rho</text>
<line x1="1248" x2="1264" y1="82" y2="82" stroke="#bab0ac" stroke-width="3"/>
<text x="1270" y="86" font-size="11" font-family="Arial">bb_online_penalty_simplified</text>
<line x1="1248" x2="1264" y1="102" y2="102" stroke="#59a14f" stroke-width="3"/>
<text x="1270" y="106" font-size="11" font-family="Arial">fixed_rho_1</text>
<line x1="1248" x2="1264" y1="122" y2="122" stroke="#76b7b2" stroke-width="3"/>
<text x="1270" y="126" font-size="11" font-family="Arial">online_ogd_epoch5</text>
<line x1="1248" x2="1264" y1="142" y2="142" stroke="#4e79a7" stroke-width="3"/>
<text x="1270" y="146" font-size="11" font-family="Arial">online_ogd_freeze50</text>
<line x1="1248" x2="1264" y1="162" y2="162" stroke="#e15759" stroke-width="3"/>
<text x="1270" y="166" font-size="11" font-family="Arial">online_ogd_no_dual_rescale</text>
<line x1="1248" x2="1264" y1="182" y2="182" stroke="#b07aa1" stroke-width="3"/>
<text x="1270" y="186" font-size="11" font-family="Arial">online_ogd</text>
<line x1="1248" x2="1264" y1="202" y2="202" stroke="#111827" stroke-width="3"/>
<text x="1270" y="206" font-size="11" font-family="Arial">oracle_fixed_grid</text>
<line x1="1248" x2="1264" y1="222" y2="222" stroke="#edc948" stroke-width="3"/>
<text x="1270" y="226" font-size="11" font-family="Arial">residual_balance_normalized</text>
<line x1="1248" x2="1264" y1="242" y2="242" stroke="#f28e2b" stroke-width="3"/>
<text x="1270" y="246" font-size="11" font-family="Arial">residual_balance_raw</text>
<line x1="1248" x2="1264" y1="262" y2="262" stroke="#ff9da7" stroke-width="3"/>
<text x="1270" y="266" font-size="11" font-family="Arial">residual_balance_relative</text>
<line x1="1248" x2="1264" y1="282" y2="282" stroke="#9c755f" stroke-width="3"/>
<text x="1270" y="286" font-size="11" font-family="Arial">spectral_aadmm_xu2017</text>
</svg>
