<svg xmlns="http://www.w3.org/2000/svg" width="1420" height="560" viewBox="0 0 1420 560" role="img" aria-label="Graphical Lasso Primal Norm Benchmark Trajectories, Seed 0">
<title>Graphical Lasso Primal Norm Benchmark Trajectories, Seed 0</title>
<rect width="1420" height="560" fill="#ffffff"/>
<text x="78" y="28" font-size="20" font-family="Arial" font-weight="700">Graphical Lasso Primal Norm Benchmark Trajectories, Seed 0</text>
<text x="673.0" y="548" text-anchor="middle" font-size="12" font-family="Arial">ADMM iteration</text>
<text x="18" y="277.0" transform="rotate(-90 18 277.0)" font-size="12" font-family="Arial">primal residual</text>
<line x1="78" x2="1268" y1="498.00" y2="498.00" stroke="#e5e7eb"/>
<text x="70" y="502.00" text-anchor="end" font-size="11" font-family="Arial" fill="#4b5563">1e-5</text>
<line x1="78" x2="1268" y1="387.50" y2="387.50" stroke="#e5e7eb"/>
<text x="70" y="391.50" text-anchor="end" font-size="11" font-family="Arial" fill="#4b5563">1e-3</text>
<line x1="78" x2="1268" y1="277.00" y2="277.00" stroke="#e5e7eb"/>
<text x="70" y="281.00" text-anchor="end" font-size="11" font-family="Arial" fill="#4b5563">1e-2</text>
<line x1="78" x2="1268" y1="166.50" y2="166.50" stroke="#e5e7eb"/>
<text x="70" y="170.50" text-anchor="end" font-size="11" font-family="Arial" fill="#4b5563">1e-1</text>
<line x1="78" x2="1268" y1="56.00" y2="56.00" stroke="#e5e7eb"/>
<text x="70" y="60.00" text-anchor="end" font-size="11" font-family="Arial" fill="#4b5563">1e0</text>
<line x1="78.00" x2="78.00" y1="56" y2="498" stroke="#f3f4f6"/>
<text x="78.00" y="516" text-anchor="middle" font-size="11" font-family="Arial" fill="#4b5563">1</text>
<line x1="375.50" x2="375.50" y1="56" y2="498" stroke="#f3f4f6"/>
<text x="375.50" y="516" text-anchor="middle" font-size="11" font-family="Arial" fill="#4b5563">38</text>
<line x1="673.00" x2="673.00" y1="56" y2="498" stroke="#f3f4f6"/>
<text x="673.00" y="516" text-anchor="middle" font-size="11" font-family="Arial" fill="#4b5563">75</text>
<line x1="970.50" x2="970.50" y1="56" y2="498" stroke="#f3f4f6"/>
<text x="970.50" y="516" text-anchor="middle" font-size="11" font-family="Arial" fill="#4b5563">112</text>
<line x1="1268.00" x2="1268.00" y1="56" y2="498" stroke="#f3f4f6"/>
<text x="1268.00" y="516" text-anchor="middle" font-size="11" font-family="Arial" fill="#4b5563">150</text>
<polyline points="78.00,58.65 85.99,101.74 93.97,129.20 101.96,140.98 109.95,151.16 117.93,160.29 125.92,169.92 133.91,196.52 141.89,214.07 149.88,223.36 157.87,230.64 165.85,238.77 173.84,246.52 181.83,257.55 189.81,271.48 197.80,285.78 205.79,299.42 213.77,311.86 221.76,322.79 229.74,327.46 237.73,327.07 245.72,328.33 253.70,331.29 261.69,336.31 269.68,353.01 277.66,388.53 285.65,413.57 293.64,423.73 301.62,427.74" fill="none" stroke="#bab0ac" stroke-width="2" stroke-linejoin="round" stroke-linecap="round"><title>bb_online_penalty_simplified</title></polyline>
<polyline points="78.00,58.65 85.99,103.38 93.97,134.08 101.96,153.60 109.95,166.22 117.93,178.57 125.92,194.50 133.91,205.44 141.89,216.84 149.88,227.31 157.87,237.59 165.85,246.67 173.84,255.33 181.83,263.75 189.81,272.01 197.80,281.11 205.79,289.45 213.77,297.43 221.76,305.30 229.74,313.09 237.73,320.83 245.72,328.52 253.70,336.15 261.69,343.74 269.68,351.29 277.66,358.79 285.65,366.25 293.64,373.67 301.62,381.05 309.61,388.40 317.60,395.70 325.58,402.97 333.57,410.20" fill="none" stroke="#59a14f" stroke-width="2" stroke-linejoin="round" stroke-linecap="round"><title>fixed_rho_1</title></polyline>
<polyline points="78.00,58.65 85.99,103.38 93.97,134.08 101.96,153.60 109.95,166.22 117.93,177.65 125.92,192.89 133.91,203.58 141.89,214.56 149.88,223.95 157.87,234.14 165.85,242.66 173.84,250.77 181.83,258.70 189.81,266.50 197.80,274.00 205.79,282.57 213.77,290.11 221.76,297.43 229.74,304.64 237.73,311.75 245.72,318.78 253.70,325.74 261.69,332.63 269.68,339.45 277.66,346.30 285.65,353.08 293.64,359.81 301.62,366.47 309.61,373.08 317.60,379.84 325.58,386.55 333.57,393.22 341.56,399.84 349.54,406.42 357.53,413.21" fill="none" stroke="#76b7b2" stroke-width="2" stroke-linejoin="round" stroke-linecap="round"><title>online_ogd_epoch5</title></polyline>
<polyline points="78.00,58.65 85.99,101.09 93.97,129.42 101.96,146.61 109.95,158.13 117.93,167.25 125.92,175.82 133.91,189.91 141.89,200.96 149.88,209.30 157.87,217.83 165.85,225.38 173.84,235.09 181.83,243.21 189.81,250.99 197.80,258.68 205.79,266.41 213.77,274.24 221.76,282.90 229.74,291.86 237.73,300.28 245.72,308.89 253.70,317.74 261.69,326.89 269.68,336.34 277.66,346.10 285.65,356.18 293.64,366.55 301.62,377.20 309.61,388.10 317.60,399.20 325.58,410.46" fill="none" stroke="#4e79a7" stroke-width="2" stroke-linejoin="round" stroke-linecap="round"><title>online_ogd_freeze50</title></polyline>
<polyline points="78.00,58.65 85.99,94.65 93.97,119.91 101.96,134.92 109.95,149.74 117.93,160.63 125.92,170.79 133.91,183.47 141.89,196.76 149.88,206.56 157.87,208.06 165.85,198.01 173.84,180.39 181.83,167.29 189.81,157.03 197.80,150.77 205.79,145.80 213.77,143.63 221.76,141.10 229.74,140.89 237.73,139.93 245.72,141.39 253.70,146.02 261.69,154.52 269.68,165.73 277.66,178.43 285.65,192.80 293.64,209.82 301.62,232.55 309.61,274.44 317.60,232.83 325.58,222.07 333.57,223.56 341.56,234.11 349.54,252.86 357.53,257.50 365.52,280.23 373.50,261.70 381.49,321.89 389.48,236.80 397.46,242.89 405.45,301.98 413.44,238.13 421.42,250.16 429.41,278.98 437.40,261.59 445.38,262.73 453.37,306.97 461.36,248.40 469.34,251.94 477.33,315.40 485.32,238.38 493.30,246.43 501.29,287.17 509.28,254.57 517.26,261.40 525.25,262.70 533.23,324.33 541.22,250.37 549.21,252.24 557.19,307.36 565.18,246.85 573.17,262.16 581.15,281.27 589.14,274.03 597.13,269.38 605.11,333.04 613.10,241.69 621.09,248.19 629.07,304.35 637.06,245.75 645.05,256.02 653.03,257.08 661.02,349.86 669.01,243.86 676.99,245.93 684.98,290.40 692.97,257.21 700.95,315.00 708.94,247.68 716.93,261.93 724.91,269.91 732.90,306.74 740.89,265.87 748.87,276.77 756.86,257.08 764.85,305.67 772.83,358.02 780.82,248.00 788.81,249.52 796.79,293.21 804.78,261.20 812.77,323.25 820.75,246.44 828.74,257.87 836.72,263.92 844.71,341.36 852.70,250.36 860.68,254.99 868.67,314.02 876.66,247.95 884.64,259.33 892.63,261.01 900.62,350.96 908.60,250.01 916.59,252.93 924.58,314.16 932.56,247.87 940.55,264.29 948.54,285.89 956.52,280.01 964.51,279.80 972.50,284.87 980.48,309.00 988.47,271.56 996.46,287.48 1004.44,267.42 1012.43,324.74 1020.42,302.90 1028.40,269.98 1036.39,284.67 1044.38,272.22 1052.36,359.64 1060.35,251.26 1068.34,254.56 1076.32,316.79 1084.31,249.24 1092.30,265.97 1100.28,288.42 1108.27,281.50 1116.26,283.01 1124.24,275.94 1132.23,367.95 1140.21,245.25 1148.20,250.70 1156.19,313.49 1164.17,249.21 1172.16,267.03 1180.15,294.49 1188.13,274.68 1196.12,282.75 1204.11,248.04 1212.09,269.88 1220.08,248.42 1228.07,241.33 1236.05,230.77 1244.04,225.13 1252.03,218.58 1260.01,214.29 1268.00,210.14" fill="none" stroke="#e15759" stroke-width="2" stroke-linejoin="round" stroke-linecap="round"><title>online_ogd_no_dual_rescale</title></polyline>
<polyline points="78.00,58.65 85.99,101.09 93.97,129.42 101.96,146.61 109.95,158.13 117.93,167.25 125.92,175.82 133.91,189.91 141.89,200.96 149.88,209.30 157.87,217.83 165.85,225.38 173.84,235.09 181.83,243.21 189.81,250.99 197.80,258.68 205.79,266.41 213.77,274.24 221.76,282.90 229.74,291.86 237.73,300.28 245.72,308.89 253.70,317.74 261.69,326.89 269.68,336.34 277.66,346.10 285.65,356.18 293.64,366.55 301.62,377.20 309.61,388.10 317.60,399.20 325.58,410.46" fill="none" stroke="#b07aa1" stroke-width="2" stroke-linejoin="round" stroke-linecap="round"><title>online_ogd</title></polyline>
<polyline points="78.00,58.65 85.99,103.38 93.97,134.08 101.96,153.60 109.95,166.22 117.93,178.57 125.92,194.50 133.91,205.44 141.89,216.84 149.88,227.31 157.87,237.59 165.85,246.67 173.84,255.33 181.83,263.75 189.81,272.01 197.80,281.11 205.79,289.45 213.77,297.43 221.76,305.30 229.74,313.09 237.73,320.83 245.72,328.52 253.70,336.15 261.69,343.74 269.68,351.29 277.66,358.79 285.65,366.25 293.64,373.67 301.62,381.05 309.61,388.40 317.60,395.70 325.58,402.97 333.57,410.20" fill="none" stroke="#111827" stroke-width="2" stroke-linejoin="round" stroke-linecap="round"><title>oracle_fixed_grid</title></polyline>
<polyline points="78.00,58.65 85.99,103.38 93.97,134.08 101.96,153.60 109.95,166.22 117.93,178.57 125.92,194.50 133.91,205.44 141.89,216.84 149.88,227.31 157.87,237.59 165.85,246.67 173.84,255.33 181.83,263.75 189.81,272.01 197.80,281.11 205.79,289.45 213.77,297.43 221.76,305.30 229.74,313.09 237.73,320.83 245.72,328.52 253.70,336.15 261.69,343.74 269.68,351.29 277.66,358.79 285.65,366.25 293.64,373.67 301.62,381.05 309.61,388.40 317.60,395.70 325.58,402.97 333.57,410.20" fill="none" stroke="#edc948" stroke-width="2" stroke-linejoin="round" stroke-linecap="round"><title>residual_balance_normalized</title></polyline>
<polyline points="78.00,58.65 85.99,103.38 93.97,134.08 101.96,153.60 109.95,166.22 117.93,178.57 125.92,194.50 133.91,205.44 141.89,216.84 149.88,227.31 157.87,237.59 165.85,246.67 173.84,255.33 181.83,263.75 189.81,272.01 197.80,281.11 205.79,289.45 213.77,297.43 221.76,305.30 229.74,313.09 237.73,320.83 245.72,328.52 253.70,336.15 261.69,343.74 269.68,351.29 277.66,358.79 285.65,366.25 293.64,373.67 301.62,381.05 309.61,388.40 317.60,395.70 325.58,402.97 333.57,410.20" fill="none" stroke="#f28e2b" stroke-width="2" stroke-linejoin="round" stroke-linecap="round"><title>residual_balance_raw</title></polyline>
<polyline points="78.00,58.65 85.99,103.38 93.97,134.08 101.96,153.60 109.95,166.22 117.93,178.57 125.92,194.50 133.91,205.44 141.89,216.84 149.88,227.31 157.87,237.59 165.85,246.67 173.84,255.33 181.83,263.75 189.81,272.01 197.80,281.11 205.79,289.45 213.77,297.43 221.76,305.30 229.74,313.09 237.73,320.83 245.72,328.52 253.70,336.15 261.69,343.74 269.68,351.29 277.66,358.79 285.65,366.25 293.64,373.67 301.62,381.05 309.61,388.40 317.60,395.70 325.58,402.97 333.57,410.20" fill="none" stroke="#ff9da7" stroke-width="2" stroke-linejoin="round" stroke-linecap="round"><title>residual_balance_relative</title></polyline>
<polyline points="78.00,58.65 85.99,103.38 93.97,143.41 101.96,167.81 109.95,193.86 117.93,216.54 125.92,227.66 133.91,236.36 141.89,216.50 149.88,214.27 157.87,212.50 165.85,214.29 173.84,217.83 181.83,222.41 189.81,236.28 197.80,249.83 205.79,268.04 213.77,284.77 221.76,300.87 229.74,315.45 237.73,332.99 245.72,349.93 253.70,369.10 261.69,388.27 269.68,407.51 277.66,426.56 285.65,441.21 293.64,454.43 301.62,448.25 309.61,447.72 317.60,428.48" fill="none" stroke="#9c755f" stroke-width="2" stroke-linejoin="round" stroke-linecap="round"><title>spectral_aadmm_xu2017</title></polyline>
<line x1="1286" x2="1302" y1="60" y2="60" stroke="#bab0ac" stroke-width="3"/>
<text x="1308" y="64" font-size="11" font-family="Arial">bb_online_penalty_simplified</text>
<line x1="1286" x2="1302" y1="80" y2="80" stroke="#59a14f" stroke-width="3"/>
<text x="1308" y="84" font-size="11" font-family="Arial">fixed_rho_1</text>
<line x1="1286" x2="1302" y1="100" y2="100" stroke="#76b7b2" stroke-width="3"/>
<text x="1308" y="104" font-size="11" font-family="Arial">online_ogd_epoch5</text>
<line x1="1286" x2="1302" y1="120" y2="120" stroke="#4e79a7" stroke-width="3"/>
<text x="1308" y="124" font-size="11" font-family="Arial">online_ogd_freeze50</text>
<line x1="1286" x2="1302" y1="140" y2="140" stroke="#e15759" stroke-width="3"/>
<text x="1308" y="144" font-size="11" font-family="Arial">online_ogd_no_dual_rescale</text>
<line x1="1286" x2="1302" y1="160" y2="160" stroke="#b07aa1" stroke-width="3"/>
<text x="1308" y="164" font-size="11" font-family="Arial">online_ogd</text>
<line x1="1286" x2="1302" y1="180" y2="180" stroke="#111827" stroke-width="3"/>
<text x="1308" y="184" font-size="11" font-family="Arial">oracle_fixed_grid</text>
<line x1="1286" x2="1302" y1="200" y2="200" stroke="#edc948" stroke-width="3"/>
<text x="1308" y="204" font-size="11" font-family="Arial">residual_balance_normalized</text>
<line x1="1286" x2="1302" y1="220" y2="220" stroke="#f28e2b" stroke-width="3"/>
<text x="1308" y="224" font-size="11" font-family="Arial">residual_balance_raw</text>
<line x1="1286" x2="1302" y1="240" y2="240" stroke="#ff9da7" stroke-width="3"/>
<text x="1308" y="244" font-size="11" font-family="Arial">residual_balance_relative</text>
<line x1="1286" x2="1302" y1="260" y2="260" stroke="#9c755f" stroke-width="3"/>
<text x="1308" y="264" font-size="11" font-family="Arial">spectral_aadmm_xu2017</text>
</svg>
