<svg xmlns="http://www.w3.org/2000/svg" width="1420" height="560" viewBox="0 0 1420 560" role="img" aria-label="Tv Denoising Dual Norm Benchmark Trajectories, Seed 0">
<title>Tv Denoising Dual Norm Benchmark Trajectories, Seed 0</title>
<rect width="1420" height="560" fill="#ffffff"/>
<text x="78" y="28" font-size="20" font-family="Arial" font-weight="700">Tv Denoising Dual Norm Benchmark Trajectories, Seed 0</text>
<text x="673.0" y="548" text-anchor="middle" font-size="12" font-family="Arial">ADMM iteration</text>
<text x="18" y="277.0" transform="rotate(-90 18 277.0)" font-size="12" font-family="Arial">dual residual</text>
<line x1="78" x2="1268" y1="498.00" y2="498.00" stroke="#e5e7eb"/>
<text x="70" y="502.00" text-anchor="end" font-size="11" font-family="Arial" fill="#4b5563">1e-5</text>
<line x1="78" x2="1268" y1="387.50" y2="387.50" stroke="#e5e7eb"/>
<text x="70" y="391.50" text-anchor="end" font-size="11" font-family="Arial" fill="#4b5563">1e-3</text>
<line x1="78" x2="1268" y1="277.00" y2="277.00" stroke="#e5e7eb"/>
<text x="70" y="281.00" text-anchor="end" font-size="11" font-family="Arial" fill="#4b5563">1e-2</text>
<line x1="78" x2="1268" y1="166.50" y2="166.50" stroke="#e5e7eb"/>
<text x="70" y="170.50" text-anchor="end" font-size="11" font-family="Arial" fill="#4b5563">1e0</text>
<line x1="78" x2="1268" y1="56.00" y2="56.00" stroke="#e5e7eb"/>
<text x="70" y="60.00" text-anchor="end" font-size="11" font-family="Arial" fill="#4b5563">1e1</text>
<line x1="78.00" x2="78.00" y1="56" y2="498" stroke="#f3f4f6"/>
<text x="78.00" y="516" text-anchor="middle" font-size="11" font-family="Arial" fill="#4b5563">1</text>
<line x1="375.50" x2="375.50" y1="56" y2="498" stroke="#f3f4f6"/>
<text x="375.50" y="516" text-anchor="middle" font-size="11" font-family="Arial" fill="#4b5563">38</text>
<line x1="673.00" x2="673.00" y1="56" y2="498" stroke="#f3f4f6"/>
<text x="673.00" y="516" text-anchor="middle" font-size="11" font-family="Arial" fill="#4b5563">75</text>
<line x1="970.50" x2="970.50" y1="56" y2="498" stroke="#f3f4f6"/>
<text x="970.50" y="516" text-anchor="middle" font-size="11" font-family="Arial" fill="#4b5563">112</text>
<line x1="1268.00" x2="1268.00" y1="56" y2="498" stroke="#f3f4f6"/>
<text x="1268.00" y="516" text-anchor="middle" font-size="11" font-family="Arial" fill="#4b5563">150</text>
<polyline points="78.00,80.24 85.99,133.86 93.97,171.49 101.96,207.85 109.95,195.68 117.93,186.75 125.92,181.52 133.91,180.74 141.89,185.37 149.88,199.64 157.87,223.88 165.85,243.18 173.84,238.16 181.83,230.80 189.81,234.35 197.80,247.54 205.79,258.04 213.77,262.11 221.76,266.64 229.74,275.06 237.73,285.68 245.72,296.70 253.70,306.04 261.69,314.47 269.68,318.65 277.66,303.08 285.65,297.26 293.64,297.60 301.62,306.59 309.61,326.43 317.60,347.96 325.58,366.74 333.57,375.36 341.56,343.71 349.54,328.82 357.53,323.52 365.52,327.55 373.50,356.09 381.49,391.39 389.48,426.21 397.46,421.81 405.45,410.97 413.44,394.63 421.42,387.34 429.41,390.14 437.40,398.01 445.38,407.18 453.37,414.13 461.36,416.80 469.34,408.42 477.33,405.81 485.32,409.09 493.30,422.07 501.29,438.74" fill="none" stroke="#bab0ac" stroke-width="2" stroke-linejoin="round" stroke-linecap="round"><title>bb_online_penalty_simplified</title></polyline>
<polyline points="78.00,80.24 85.99,131.05 93.97,166.64 101.96,203.16 109.95,207.47 117.93,206.50 125.92,209.65 133.91,210.42 141.89,208.72 149.88,213.06 157.87,217.93 165.85,224.11 173.84,233.07 181.83,242.78 189.81,242.72 197.80,243.32 205.79,248.68 213.77,256.44 221.76,265.59 229.74,274.02 237.73,280.44 245.72,283.27 253.70,272.46 261.69,272.29 269.68,279.50 277.66,289.88 285.65,301.06 293.64,311.38 301.62,319.12 309.61,324.68 317.60,330.47 325.58,335.75 333.57,340.30 341.56,343.66 349.54,342.83 357.53,345.24 365.52,348.89 373.50,353.01 381.49,357.04 389.48,360.76 397.46,364.11 405.45,367.17 413.44,370.01 421.42,372.72 429.41,375.34 437.40,377.91 445.38,380.44 453.37,382.95 461.36,385.44 469.34,387.92 477.33,390.37 485.32,392.81 493.30,395.24 501.29,397.64 509.28,400.03 517.26,402.40 525.25,404.76 533.23,407.09 541.22,409.41 549.21,411.72 557.19,414.00 565.18,416.27 573.17,418.53 581.15,420.77 589.14,422.99 597.13,425.20 605.11,427.40 613.10,429.58 621.09,431.75 629.07,433.90 637.06,436.05 645.05,438.18 653.03,440.30 661.02,442.41 669.01,444.51 676.99,446.59 684.98,448.67 692.97,450.74 700.95,452.80 708.94,454.85 716.93,456.90 724.91,458.93 732.90,460.96 740.89,462.98 748.87,465.00 756.86,467.00 764.85,469.01 772.83,471.00 780.82,472.99 788.81,474.98 796.79,476.96" fill="none" stroke="#59a14f" stroke-width="2" stroke-linejoin="round" stroke-linecap="round"><title>fixed_rho_1</title></polyline>
<polyline points="78.00,80.24 85.99,131.05 93.97,166.64 101.96,203.16 109.95,207.47 117.93,204.65 125.92,206.76 133.91,206.18 141.89,205.68 149.88,210.14 157.87,213.91 165.85,221.12 173.84,230.45 181.83,234.52 189.81,236.30 197.80,241.07 205.79,248.28 213.77,257.30 221.76,265.39 229.74,273.91 237.73,267.03 245.72,264.42 253.70,270.28 261.69,279.98 269.68,291.10 277.66,300.94 285.65,310.21 293.64,318.38 301.62,325.23 309.61,330.69 317.60,332.22 325.58,332.99 333.57,335.65 341.56,339.34 349.54,343.51 357.53,347.03 365.52,350.48 373.50,353.85 381.49,357.16 389.48,360.45 397.46,363.02 405.45,365.71 413.44,368.56 421.42,371.56 429.41,374.68 437.40,377.21 445.38,379.87 453.37,382.71 461.36,385.69 469.34,388.77 477.33,391.30 485.32,393.96 493.30,396.77 501.29,399.70 509.28,402.74 517.26,405.27 525.25,407.91 533.23,410.69 541.22,413.59 549.21,416.59 557.19,419.12 565.18,421.75 573.17,424.52 581.15,427.40 589.14,430.37 597.13,432.92 605.11,435.57 613.10,438.34 621.09,441.22 629.07,444.19 637.06,446.78" fill="none" stroke="#76b7b2" stroke-width="2" stroke-linejoin="round" stroke-linecap="round"><title>online_ogd_epoch5</title></polyline>
<polyline points="78.00,80.24 85.99,134.95 93.97,175.00 101.96,217.22 109.95,209.89 117.93,205.71 125.92,207.03 133.91,210.48 141.89,205.82 149.88,204.01 157.87,206.17 165.85,209.71 173.84,216.44 181.83,222.15 189.81,225.15 197.80,230.40 205.79,237.77 213.77,246.54 221.76,256.33 229.74,256.76 237.73,257.90 245.72,264.55 253.70,273.79 261.69,284.02 269.68,294.96 277.66,305.42 285.65,313.70 293.64,320.35 301.62,325.36 309.61,329.05 317.60,332.01 325.58,334.72 333.57,337.38 341.56,340.03 349.54,342.68 357.53,345.38 365.52,348.16 373.50,351.05 381.49,354.05 389.48,357.17 397.46,360.38 405.45,363.67 413.44,367.02 421.42,370.43 429.41,373.88 437.40,377.38 445.38,380.91 453.37,384.48 461.36,388.09 469.34,391.74 477.33,395.44 485.32,399.25 493.30,403.17 501.29,407.18 509.28,411.24 517.26,415.32 525.25,419.41 533.23,423.50 541.22,427.56 549.21,431.60" fill="none" stroke="#4e79a7" stroke-width="2" stroke-linejoin="round" stroke-linecap="round"><title>online_ogd_freeze50</title></polyline>
<polyline points="78.00,80.24 85.99,133.04 93.97,180.38 101.96,208.36 109.95,194.55 117.93,196.54 125.92,202.70 133.91,202.95 141.89,198.42 149.88,201.53 157.87,209.49 165.85,220.32 173.84,222.90 181.83,225.96 189.81,230.85 197.80,234.13 205.79,236.28 213.77,240.34 221.76,242.63 229.74,245.26 237.73,246.30 245.72,246.38 253.70,246.93 261.69,248.38 269.68,248.85 277.66,250.32 285.65,254.27 293.64,258.66 301.62,260.77 309.61,261.51 317.60,264.95 325.58,263.66 333.57,252.05 341.56,232.58 349.54,214.83 357.53,203.04 365.52,196.50 373.50,193.17 381.49,192.50 389.48,193.42 397.46,198.60 405.45,208.06 413.44,224.50 421.42,252.44 429.41,237.17 437.40,224.05 445.38,228.39 453.37,242.41 461.36,256.39 469.34,261.82 477.33,263.24 485.32,268.76 493.30,275.57 501.29,280.22 509.28,286.19 517.26,290.78 525.25,297.45 533.23,299.32 541.22,314.86 549.21,288.34 557.19,283.30 565.18,282.52 573.17,291.51 581.15,322.78 589.14,258.39 597.13,306.67 605.11,325.26 613.10,299.44 621.09,274.33 629.07,266.78 637.06,266.76 645.05,277.88 653.03,307.24 661.02,256.59 669.01,285.12 676.99,317.75 684.98,273.78 692.97,304.94 700.95,323.24 708.94,285.72 716.93,289.24 724.91,290.05 732.90,301.53 740.89,314.30 748.87,277.97 756.86,308.84 764.85,324.40 772.83,291.18 780.82,286.82 788.81,285.94 796.79,294.81 804.78,329.05 812.77,261.44 820.75,299.35 828.74,294.23 836.72,297.06 844.71,313.26 852.70,300.25 860.68,325.09 868.67,301.13 876.66,288.37 884.64,290.30 892.63,307.97 900.62,295.45 908.60,304.77 916.59,349.53 924.58,263.54 932.56,301.49 940.55,287.64 948.54,275.08 956.52,268.63 964.51,271.66 972.50,288.41 980.48,295.67 988.47,270.24 996.46,303.84 1004.44,295.16 1012.43,327.74 1020.42,278.70 1028.40,317.56 1036.39,317.78 1044.38,331.86 1052.36,303.49 1060.35,309.25 1068.34,318.97 1076.32,353.01 1084.31,273.74 1092.30,317.16 1100.28,305.03 1108.27,286.61 1116.26,274.89 1124.24,274.36 1132.23,285.71 1140.21,315.59 1148.20,265.08 1156.19,290.56 1164.17,312.49 1172.16,305.76 1180.15,328.84 1188.13,297.42 1196.12,295.93 1204.11,303.87 1212.09,347.05 1220.08,266.29 1228.07,293.56 1236.05,286.58 1244.04,279.07 1252.03,276.21 1260.01,284.07 1268.00,315.20" fill="none" stroke="#e15759" stroke-width="2" stroke-linejoin="round" stroke-linecap="round"><title>online_ogd_no_dual_rescale</title></polyline>
<polyline points="78.00,80.24 85.99,134.95 93.97,175.00 101.96,217.22 109.95,209.89 117.93,205.71 125.92,207.03 133.91,210.48 141.89,205.82 149.88,204.01 157.87,206.17 165.85,209.71 173.84,216.44 181.83,222.15 189.81,225.15 197.80,230.40 205.79,237.77 213.77,246.54 221.76,256.33 229.74,256.76 237.73,257.90 245.72,264.55 253.70,273.79 261.69,284.02 269.68,294.96 277.66,305.42 285.65,313.70 293.64,320.35 301.62,325.36 309.61,329.05 317.60,332.01 325.58,334.72 333.57,337.38 341.56,340.03 349.54,342.68 357.53,345.38 365.52,348.16 373.50,351.05 381.49,354.05 389.48,357.17 397.46,360.38 405.45,363.67 413.44,367.02 421.42,370.43 429.41,373.88 437.40,377.38 445.38,380.91 453.37,384.48 461.36,388.09 469.34,391.74 477.33,395.44 485.32,399.17 493.30,402.94 501.29,406.74 509.28,410.57 517.26,414.42 525.25,418.30 533.23,422.19 541.22,426.10 549.21,430.02" fill="none" stroke="#b07aa1" stroke-width="2" stroke-linejoin="round" stroke-linecap="round"><title>online_ogd</title></polyline>
<polyline points="78.00,70.74 85.99,84.99 93.97,94.48 101.96,107.84 109.95,122.45 117.93,137.52 125.92,149.72 133.91,160.77 141.89,170.85 149.88,180.42 157.87,184.17 165.85,187.77 173.84,192.25 181.83,198.70 189.81,207.35 197.80,218.60 205.79,232.03 213.77,244.47 221.76,251.37 229.74,253.60 237.73,255.84 245.72,259.44 253.70,265.17 261.69,272.18 269.68,279.74 277.66,286.77 285.65,292.51 293.64,297.11 301.62,301.32 309.61,305.76 317.60,310.66 325.58,315.90 333.57,321.18 341.56,326.17 349.54,330.80 357.53,335.15 365.52,339.42 373.50,343.73 381.49,348.08 389.48,352.42 397.46,356.64 405.45,360.68 413.44,364.57 421.42,368.36 429.41,372.13 437.40,375.92 445.38,379.74 453.37,383.56 461.36,387.32 469.34,391.03 477.33,394.67 485.32,398.26 493.30,401.82 501.29,405.38 509.28,408.93 517.26,412.47 525.25,416.01 533.23,419.52 541.22,423.02 549.21,426.50" fill="none" stroke="#111827" stroke-width="2" stroke-linejoin="round" stroke-linecap="round"><title>oracle_fixed_grid</title></polyline>
<polyline points="78.00,80.24 85.99,131.05 93.97,166.64 101.96,203.16 109.95,207.47 117.93,206.50 125.92,209.65 133.91,210.42 141.89,208.72 149.88,213.06 157.87,217.93 165.85,224.11 173.84,233.07 181.83,242.78 189.81,242.72 197.80,243.32 205.79,248.68 213.77,256.44 221.76,265.59 229.74,274.02 237.73,280.44 245.72,283.27 253.70,272.46 261.69,272.29 269.68,279.50 277.66,289.88 285.65,301.06 293.64,311.38 301.62,319.12 309.61,324.68 317.60,330.47 325.58,335.75 333.57,340.30 341.56,343.66 349.54,342.83 357.53,345.24 365.52,348.89 373.50,353.01 381.49,357.04 389.48,360.76 397.46,364.11 405.45,367.17 413.44,370.01 421.42,372.72 429.41,375.34 437.40,377.91 445.38,380.44 453.37,382.95 461.36,385.44 469.34,387.92 477.33,390.37 485.32,392.81 493.30,395.24 501.29,397.64 509.28,400.03 517.26,402.40 525.25,404.76 533.23,407.09 541.22,409.41 549.21,411.72 557.19,414.00 565.18,416.27 573.17,418.53 581.15,420.77 589.14,422.99 597.13,425.20 605.11,427.40 613.10,429.58 621.09,431.75 629.07,433.90 637.06,436.05 645.05,438.18 653.03,440.30 661.02,442.41 669.01,444.51 676.99,446.59 684.98,448.67 692.97,450.74 700.95,452.80 708.94,454.85 716.93,456.90 724.91,458.93 732.90,460.96 740.89,462.98 748.87,465.00 756.86,467.00 764.85,469.01 772.83,471.00 780.82,472.99 788.81,474.98 796.79,476.96" fill="none" stroke="#edc948" stroke-width="2" stroke-linejoin="round" stroke-linecap="round"><title>residual_balance_normalized</title></polyline>
<polyline points="78.00,80.24 85.99,131.05 93.97,166.64 101.96,203.16 109.95,207.47 117.93,206.50 125.92,209.65 133.91,210.42 141.89,208.72 149.88,213.06 157.87,217.93 165.85,224.11 173.84,233.07 181.83,242.78 189.81,242.72 197.80,243.32 205.79,248.68 213.77,256.44 221.76,265.59 229.74,274.02 237.73,280.44 245.72,283.27 253.70,272.46 261.69,272.29 269.68,279.50 277.66,289.88 285.65,301.06 293.64,311.38 301.62,319.12 309.61,324.68 317.60,330.47 325.58,335.75 333.57,340.30 341.56,343.66 349.54,342.83 357.53,345.24 365.52,348.89 373.50,353.01 381.49,357.04 389.48,360.76 397.46,364.11 405.45,367.17 413.44,370.01 421.42,372.72 429.41,375.34 437.40,377.91 445.38,380.44 453.37,382.95 461.36,385.44 469.34,387.92 477.33,390.37 485.32,392.81 493.30,395.24 501.29,397.64 509.28,400.03 517.26,402.40 525.25,404.76 533.23,407.09 541.22,409.41 549.21,411.72 557.19,414.00 565.18,416.27 573.17,418.53 581.15,420.77 589.14,422.99 597.13,425.20 605.11,427.40 613.10,429.58 621.09,431.75 629.07,433.90 637.06,436.05 645.05,438.18 653.03,440.30 661.02,442.41 669.01,444.51 676.99,446.59 684.98,448.67 692.97,450.74 700.95,452.80 708.94,454.85 716.93,456.90 724.91,458.93 732.90,460.96 740.89,462.98 748.87,465.00 756.86,467.00 764.85,469.01 772.83,471.00 780.82,472.99 788.81,474.98 796.79,476.96" fill="none" stroke="#f28e2b" stroke-width="2" stroke-linejoin="round" stroke-linecap="round"><title>residual_balance_raw</title></polyline>
<polyline points="78.00,80.24 85.99,131.05 93.97,166.64 101.96,203.16 109.95,186.47 117.93,179.12 125.92,175.16 133.91,177.03 141.89,182.47 149.88,189.32 157.87,198.66 165.85,207.99 173.84,215.79 181.83,224.92 189.81,236.07 197.80,248.45 205.79,262.00 213.77,273.97 221.76,277.92 229.74,281.44 237.73,286.43 245.72,293.13 253.70,301.09 261.69,309.30 269.68,316.44 277.66,321.73 285.65,325.72 293.64,329.48 301.62,333.72 309.61,338.66 317.60,344.17 325.58,349.98 333.57,355.76 341.56,361.29 349.54,366.49 357.53,371.42 365.52,376.20 373.50,380.94 381.49,385.69 389.48,390.42 397.46,395.12 405.45,399.77 413.44,404.38 421.42,408.96 429.41,413.55 437.40,418.17 445.38,422.82 453.37,427.51" fill="none" stroke="#ff9da7" stroke-width="2" stroke-linejoin="round" stroke-linecap="round"><title>residual_balance_relative</title></polyline>
<polyline points="78.00,80.24 85.99,131.05 93.97,184.97 101.96,247.46 109.95,225.48 117.93,219.37 125.92,180.98 133.91,174.15 141.89,140.71 149.88,133.99 157.87,130.59 165.85,134.16 173.84,137.98 181.83,141.04 189.81,145.55 197.80,146.78 205.79,149.50 213.77,150.42 221.76,151.13 229.74,151.65 237.73,152.04 245.72,152.36 253.70,153.27 261.69,154.49 269.68,155.16 277.66,155.39 285.65,155.64 293.64,155.87 301.62,157.37 309.61,159.43 317.60,162.19 325.58,166.72 333.57,172.17 341.56,176.60 349.54,180.89 357.53,183.57 365.52,186.00 373.50,188.22 381.49,194.74 389.48,203.16 397.46,217.11 405.45,232.88 413.44,235.95 421.42,235.90 429.41,229.66 437.40,229.79 445.38,229.04 453.37,230.93 461.36,234.81 469.34,239.97 477.33,245.59 485.32,250.74 493.30,254.66 501.29,257.08 509.28,258.37 517.26,259.28 525.25,261.14 533.23,262.71 541.22,264.45 549.21,266.19 557.19,267.71 565.18,268.85 573.17,269.64 581.15,270.23 589.14,270.77 597.13,271.39 605.11,275.88 613.10,284.06 621.09,288.03 629.07,290.71 637.06,292.36 645.05,293.54 653.03,294.72 661.02,296.11 669.01,301.00 676.99,305.92 684.98,314.98 692.97,324.12 700.95,344.79 708.94,366.06 716.93,389.20 724.91,413.61 732.90,428.52 740.89,434.41 748.87,403.03 756.86,395.86 764.85,378.27 772.83,373.13 780.82,361.57 788.81,358.18 796.79,354.92 804.78,356.40 812.77,361.19 820.75,368.45 828.74,376.89 836.72,384.06 844.71,387.45 852.70,387.81 860.68,387.65 868.67,388.42 876.66,390.50 884.64,393.72 892.63,397.56 900.62,401.12 908.60,403.52 916.59,404.53 924.58,404.79 932.56,405.10 940.55,405.90 948.54,407.20 956.52,408.77 964.51,410.26 972.50,411.40 980.48,412.15 988.47,412.67 996.46,413.15 1004.44,413.74 1012.43,414.45 1020.42,415.59 1028.40,416.78 1036.39,418.05 1044.38,419.25 1052.36,420.58 1060.35,421.87 1068.34,424.31 1076.32,426.83" fill="none" stroke="#9c755f" stroke-width="2" stroke-linejoin="round" stroke-linecap="round"><title>spectral_aadmm_xu2017</title></polyline>
<line x1="1286" x2="1302" y1="60" y2="60" stroke="#bab0ac" stroke-width="3"/>
<text x="1308" y="64" font-size="11" font-family="Arial">bb_online_penalty_simplified</text>
<line x1="1286" x2="1302" y1="80" y2="80" stroke="#59a14f" stroke-width="3"/>
<text x="1308" y="84" font-size="11" font-family="Arial">fixed_rho_1</text>
<line x1="1286" x2="1302" y1="100" y2="100" stroke="#76b7b2" stroke-width="3"/>
<text x="1308" y="104" font-size="11" font-family="Arial">online_ogd_epoch5</text>
<line x1="1286" x2="1302" y1="120" y2="120" stroke="#4e79a7" stroke-width="3"/>
<text x="1308" y="124" font-size="11" font-family="Arial">online_ogd_freeze50</text>
<line x1="1286" x2="1302" y1="140" y2="140" stroke="#e15759" stroke-width="3"/>
<text x="1308" y="144" font-size="11" font-family="Arial">online_ogd_no_dual_rescale</text>
<line x1="1286" x2="1302" y1="160" y2="160" stroke="#b07aa1" stroke-width="3"/>
<text x="1308" y="164" font-size="11" font-family="Arial">online_ogd</text>
<line x1="1286" x2="1302" y1="180" y2="180" stroke="#111827" stroke-width="3"/>
<text x="1308" y="184" font-size="11" font-family="Arial">oracle_fixed_grid</text>
<line x1="1286" x2="1302" y1="200" y2="200" stroke="#edc948" stroke-width="3"/>
<text x="1308" y="204" font-size="11" font-family="Arial">residual_balance_normalized</text>
<line x1="1286" x2="1302" y1="220" y2="220" stroke="#f28e2b" stroke-width="3"/>
<text x="1308" y="224" font-size="11" font-family="Arial">residual_balance_raw</text>
<line x1="1286" x2="1302" y1="240" y2="240" stroke="#ff9da7" stroke-width="3"/>
<text x="1308" y="244" font-size="11" font-family="Arial">residual_balance_relative</text>
<line x1="1286" x2="1302" y1="260" y2="260" stroke="#9c755f" stroke-width="3"/>
<text x="1308" y="264" font-size="11" font-family="Arial">spectral_aadmm_xu2017</text>
</svg>
