<svg xmlns="http://www.w3.org/2000/svg" width="1420" height="560" viewBox="0 0 1420 560" role="img" aria-label="Consensus Lasso Primal Norm Benchmark Trajectories, Seed 0">
<title>Consensus Lasso Primal Norm Benchmark Trajectories, Seed 0</title>
<rect width="1420" height="560" fill="#ffffff"/>
<text x="78" y="28" font-size="20" font-family="Arial" font-weight="700">Consensus Lasso Primal Norm Benchmark Trajectories, Seed 0</text>
<text x="673.0" y="548" text-anchor="middle" font-size="12" font-family="Arial">ADMM iteration</text>
<text x="18" y="277.0" transform="rotate(-90 18 277.0)" font-size="12" font-family="Arial">primal residual</text>
<line x1="78" x2="1268" y1="498.00" y2="498.00" stroke="#e5e7eb"/>
<text x="70" y="502.00" text-anchor="end" font-size="11" font-family="Arial" fill="#4b5563">1e-6</text>
<line x1="78" x2="1268" y1="387.50" y2="387.50" stroke="#e5e7eb"/>
<text x="70" y="391.50" text-anchor="end" font-size="11" font-family="Arial" fill="#4b5563">1e-4</text>
<line x1="78" x2="1268" y1="277.00" y2="277.00" stroke="#e5e7eb"/>
<text x="70" y="281.00" text-anchor="end" font-size="11" font-family="Arial" fill="#4b5563">1e-2</text>
<line x1="78" x2="1268" y1="166.50" y2="166.50" stroke="#e5e7eb"/>
<text x="70" y="170.50" text-anchor="end" font-size="11" font-family="Arial" fill="#4b5563">1e0</text>
<line x1="78" x2="1268" y1="56.00" y2="56.00" stroke="#e5e7eb"/>
<text x="70" y="60.00" text-anchor="end" font-size="11" font-family="Arial" fill="#4b5563">1e1</text>
<line x1="78.00" x2="78.00" y1="56" y2="498" stroke="#f3f4f6"/>
<text x="78.00" y="516" text-anchor="middle" font-size="11" font-family="Arial" fill="#4b5563">1</text>
<line x1="375.50" x2="375.50" y1="56" y2="498" stroke="#f3f4f6"/>
<text x="375.50" y="516" text-anchor="middle" font-size="11" font-family="Arial" fill="#4b5563">38</text>
<line x1="673.00" x2="673.00" y1="56" y2="498" stroke="#f3f4f6"/>
<text x="673.00" y="516" text-anchor="middle" font-size="11" font-family="Arial" fill="#4b5563">75</text>
<line x1="970.50" x2="970.50" y1="56" y2="498" stroke="#f3f4f6"/>
<text x="970.50" y="516" text-anchor="middle" font-size="11" font-family="Arial" fill="#4b5563">112</text>
<line x1="1268.00" x2="1268.00" y1="56" y2="498" stroke="#f3f4f6"/>
<text x="1268.00" y="516" text-anchor="middle" font-size="11" font-family="Arial" fill="#4b5563">150</text>
<polyline points="78.00,110.47 85.99,139.16 93.97,137.92 101.96,140.66 109.95,150.55 117.93,163.19 125.92,178.74 133.91,211.53 141.89,235.11 149.88,220.62 157.87,217.42 165.85,227.35 173.84,244.35 181.83,273.04 189.81,298.36 197.80,292.85 205.79,277.53 213.77,286.54 221.76,305.51 229.74,343.58 237.73,371.96 245.72,306.87 253.70,318.85 261.69,352.84 269.68,388.29 277.66,388.53 285.65,335.69 293.64,348.98 301.62,399.93 309.61,436.34 317.60,333.84 325.58,352.72 333.57,406.68 341.56,427.68 349.54,329.97 357.53,348.35 365.52,402.38 373.50,422.62 381.49,324.98 389.48,343.23 397.46,397.59 405.45,417.63 413.44,319.66 421.42,337.89 429.41,392.37 437.40,412.53 445.38,314.20 453.37,332.47 461.36,386.98 469.34,407.28 477.33,308.69 485.32,326.99 493.30,381.48 501.29,401.93 509.28,303.15 517.26,321.49 525.25,375.92 533.23,396.49 541.22,297.58 549.21,315.96 557.19,370.32 565.18,390.99 573.17,291.99 581.15,310.40 589.14,364.69 597.13,385.44 605.11,286.38 613.10,304.82 621.09,359.04 629.07,379.85 637.06,280.75 645.05,299.22 653.03,353.36 661.02,374.24 669.01,275.11 676.99,293.60 684.98,347.68 692.97,368.59 700.95,269.45 708.94,287.96 716.93,341.98 724.91,362.93 732.90,263.78 740.89,282.31 748.87,336.28 756.86,357.26 764.85,258.09 772.83,276.64 780.82,330.56 788.81,351.57 796.79,252.40 804.78,270.96 812.77,324.84 820.75,345.87 828.74,246.70 836.72,265.27 844.71,319.12 852.70,340.16 860.68,240.99 868.67,259.57 876.66,313.39 884.64,334.44 892.63,235.27 900.62,253.86 908.60,307.65 916.59,328.72 924.58,229.55 932.56,248.19 940.55,301.94 948.54,323.08 956.52,223.85 964.51,242.47 972.50,296.20 980.48,317.31 988.47,218.12 996.46,236.81 1004.44,290.49 1012.43,311.79 1020.42,212.47 1028.40,231.14 1036.39,284.78 1044.38,305.95 1052.36,206.74 1060.35,225.47 1068.34,279.08 1076.32,300.47 1084.31,201.12 1092.30,219.81 1100.28,273.39 1108.27,294.60 1116.26,195.39 1124.24,214.14 1132.23,267.69 1140.21,289.15 1148.20,189.78 1156.19,208.49 1164.17,262.01 1172.16,283.26 1180.15,184.05 1188.13,202.81 1196.12,256.32 1204.11,277.82 1212.09,178.43 1220.08,197.34 1228.07,251.10 1236.05,272.19 1244.04,172.88 1252.03,192.27 1260.01,246.61 1268.00,267.83" fill="none" stroke="#bab0ac" stroke-width="2" stroke-linejoin="round" stroke-linecap="round"><title>bb_online_penalty_simplified</title></polyline>
<polyline points="78.00,110.47 85.99,140.95 93.97,146.38 101.96,151.57 109.95,160.39 117.93,171.05 125.92,182.33 133.91,194.60 141.89,206.61 149.88,218.44 157.87,230.11 165.85,241.69 173.84,253.05 181.83,264.18 189.81,275.09 197.80,285.78 205.79,296.24 213.77,306.45 221.76,316.44 229.74,326.23 237.73,335.87 245.72,345.41 253.70,354.87 261.69,364.30 269.68,373.71" fill="none" stroke="#59a14f" stroke-width="2" stroke-linejoin="round" stroke-linecap="round"><title>fixed_rho_1</title></polyline>
<polyline points="78.00,110.47 85.99,140.95 93.97,146.38 101.96,151.57 109.95,160.39 117.93,170.12 125.92,180.95 133.91,192.92 141.89,204.76 149.88,216.48 157.87,228.37 165.85,240.08 173.84,251.44 181.83,262.47 189.81,273.21 197.80,284.02 205.79,294.54 213.77,304.80 221.76,314.82 229.74,324.64 237.73,334.57 245.72,344.39 253.70,354.14 261.69,363.87 269.68,373.59" fill="none" stroke="#76b7b2" stroke-width="2" stroke-linejoin="round" stroke-linecap="round"><title>online_ogd_epoch5</title></polyline>
<polyline points="78.00,110.47 85.99,138.37 93.97,138.98 101.96,142.96 109.95,151.77 117.93,162.79 125.92,175.32 133.91,188.05 141.89,200.50 149.88,212.59 157.87,224.17 165.85,235.36 173.84,246.33 181.83,257.16 189.81,267.89 197.80,278.55 205.79,289.18 213.77,299.83 221.76,310.58 229.74,321.49 237.73,332.62 245.72,344.01 253.70,355.71 261.69,367.71 269.68,380.01" fill="none" stroke="#4e79a7" stroke-width="2" stroke-linejoin="round" stroke-linecap="round"><title>online_ogd_freeze50</title></polyline>
<polyline points="78.00,110.47 85.99,136.82 93.97,141.58 101.96,145.77 109.95,153.50 117.93,163.45 125.92,175.34 133.91,186.65 141.89,188.71 149.88,183.20 157.87,177.34 165.85,172.72 173.84,169.43 181.83,167.42 189.81,166.61 197.80,166.90 205.79,168.15 213.77,171.04 221.76,175.75 229.74,181.33 237.73,187.55 245.72,195.37 253.70,203.95 261.69,212.96 269.68,222.43 277.66,232.81 285.65,245.48 293.64,265.42 301.62,309.85 309.61,247.29 317.60,243.70 325.58,244.90 333.57,247.50 341.56,250.68 349.54,254.16 357.53,257.81 365.52,261.54 373.50,265.27 381.49,268.95 389.48,272.56 397.46,276.09 405.45,279.55 413.44,282.99 421.42,286.41 429.41,289.82 437.40,293.22 445.38,296.63 453.37,300.05 461.36,303.47 469.34,306.90 477.33,310.34 485.32,313.79 493.30,317.25 501.29,320.72 509.28,324.20 517.26,327.69 525.25,331.18 533.23,334.68 541.22,338.21 549.21,341.53 557.19,346.54 565.18,338.90 573.17,327.00 581.15,289.22 589.14,266.28 597.13,254.56 605.11,247.70 613.10,243.31 621.09,240.36 629.07,238.35 637.06,236.98 645.05,236.08 653.03,235.57 661.02,235.35 669.01,235.37 676.99,235.59 684.98,235.98 692.97,236.51 700.95,237.16 708.94,238.97 716.93,241.27 724.91,243.62 732.90,245.97 740.89,248.29 748.87,250.60 756.86,252.89 764.85,255.16 772.83,258.87 780.82,263.48 788.81,268.60 796.79,274.25 804.78,280.62 812.77,288.14 820.75,297.89 828.74,313.35 836.72,369.76 844.71,300.02 852.70,296.60 860.68,295.99 868.67,296.01 876.66,296.33 884.64,296.82 892.63,297.44 900.62,298.14 908.60,298.92 916.59,299.76 924.58,300.66 932.56,301.60 940.55,302.59 948.54,303.62 956.52,304.70 964.51,305.81 972.50,306.95 980.48,308.13 988.47,309.35 996.46,310.58 1004.44,311.85 1012.43,313.13 1020.42,314.43 1028.40,315.75 1036.39,317.08 1044.38,318.42 1052.36,319.76 1060.35,321.10 1068.34,322.45 1076.32,323.79 1084.31,325.13 1092.30,326.46 1100.28,327.79 1108.27,329.11 1116.26,330.42 1124.24,331.71 1132.23,333.00 1140.21,334.28 1148.20,335.54 1156.19,336.80 1164.17,338.04 1172.16,339.27 1180.15,340.50 1188.13,341.71 1196.12,342.91 1204.11,344.11 1212.09,345.30 1220.08,346.48 1228.07,347.65 1236.05,348.82 1244.04,349.98 1252.03,351.13 1260.01,352.28 1268.00,353.43" fill="none" stroke="#e15759" stroke-width="2" stroke-linejoin="round" stroke-linecap="round"><title>online_ogd_no_dual_rescale</title></polyline>
<polyline points="78.00,110.47 85.99,138.37 93.97,138.98 101.96,142.96 109.95,151.77 117.93,162.79 125.92,175.32 133.91,188.05 141.89,200.50 149.88,212.59 157.87,224.17 165.85,235.36 173.84,246.33 181.83,257.16 189.81,267.89 197.80,278.55 205.79,289.18 213.77,299.83 221.76,310.58 229.74,321.49 237.73,332.62 245.72,344.01 253.70,355.71 261.69,367.71 269.68,380.01" fill="none" stroke="#b07aa1" stroke-width="2" stroke-linejoin="round" stroke-linecap="round"><title>online_ogd</title></polyline>
<polyline points="78.00,110.47 85.99,140.95 93.97,146.38 101.96,151.57 109.95,160.39 117.93,171.05 125.92,182.33 133.91,194.60 141.89,206.61 149.88,218.44 157.87,230.11 165.85,241.69 173.84,253.05 181.83,264.18 189.81,275.09 197.80,285.78 205.79,296.24 213.77,306.45 221.76,316.44 229.74,326.23 237.73,335.87 245.72,345.41 253.70,354.87 261.69,364.30 269.68,373.71" fill="none" stroke="#111827" stroke-width="2" stroke-linejoin="round" stroke-linecap="round"><title>oracle_fixed_grid</title></polyline>
<polyline points="78.00,110.47 85.99,140.95 93.97,146.38 101.96,151.57 109.95,160.39 117.93,171.05 125.92,182.33 133.91,194.60 141.89,206.61 149.88,218.44 157.87,230.11 165.85,241.69 173.84,253.05 181.83,264.18 189.81,275.09 197.80,285.78 205.79,296.24 213.77,306.45 221.76,316.44 229.74,326.23 237.73,335.87 245.72,345.41 253.70,354.87 261.69,364.30 269.68,373.71" fill="none" stroke="#edc948" stroke-width="2" stroke-linejoin="round" stroke-linecap="round"><title>residual_balance_normalized</title></polyline>
<polyline points="78.00,110.47 85.99,140.95 93.97,146.38 101.96,151.57 109.95,160.39 117.93,171.05 125.92,182.33 133.91,194.60 141.89,206.61 149.88,218.44 157.87,230.11 165.85,241.69 173.84,253.05 181.83,264.18 189.81,275.09 197.80,285.78 205.79,296.24 213.77,306.45 221.76,316.44 229.74,326.23 237.73,335.87 245.72,345.41 253.70,354.87 261.69,364.30 269.68,373.71" fill="none" stroke="#f28e2b" stroke-width="2" stroke-linejoin="round" stroke-linecap="round"><title>residual_balance_raw</title></polyline>
<polyline points="78.00,110.47 85.99,140.95 93.97,146.38 101.96,151.57 109.95,160.39 117.93,171.05 125.92,182.33 133.91,194.60 141.89,206.61 149.88,218.44 157.87,230.11 165.85,241.69 173.84,253.05 181.83,264.18 189.81,275.09 197.80,285.78 205.79,296.24 213.77,306.45 221.76,316.44 229.74,326.23 237.73,335.87 245.72,345.41 253.70,354.87 261.69,364.30 269.68,373.71" fill="none" stroke="#ff9da7" stroke-width="2" stroke-linejoin="round" stroke-linecap="round"><title>residual_balance_relative</title></polyline>
<polyline points="78.00,110.47 85.99,140.95 93.97,133.74 101.96,137.98 109.95,149.52 117.93,162.30 125.92,175.86 133.91,188.68 141.89,203.88 149.88,218.19 157.87,232.53 165.85,245.75 173.84,256.78 181.83,267.15 189.81,270.94 197.80,277.49 205.79,285.81 213.77,295.06 221.76,308.15 229.74,320.56 237.73,332.90 245.72,344.71 253.70,355.34 261.69,365.75 269.68,375.25" fill="none" stroke="#9c755f" stroke-width="2" stroke-linejoin="round" stroke-linecap="round"><title>spectral_aadmm_xu2017</title></polyline>
<line x1="1286" x2="1302" y1="60" y2="60" stroke="#bab0ac" stroke-width="3"/>
<text x="1308" y="64" font-size="11" font-family="Arial">bb_online_penalty_simplified</text>
<line x1="1286" x2="1302" y1="80" y2="80" stroke="#59a14f" stroke-width="3"/>
<text x="1308" y="84" font-size="11" font-family="Arial">fixed_rho_1</text>
<line x1="1286" x2="1302" y1="100" y2="100" stroke="#76b7b2" stroke-width="3"/>
<text x="1308" y="104" font-size="11" font-family="Arial">online_ogd_epoch5</text>
<line x1="1286" x2="1302" y1="120" y2="120" stroke="#4e79a7" stroke-width="3"/>
<text x="1308" y="124" font-size="11" font-family="Arial">online_ogd_freeze50</text>
<line x1="1286" x2="1302" y1="140" y2="140" stroke="#e15759" stroke-width="3"/>
<text x="1308" y="144" font-size="11" font-family="Arial">online_ogd_no_dual_rescale</text>
<line x1="1286" x2="1302" y1="160" y2="160" stroke="#b07aa1" stroke-width="3"/>
<text x="1308" y="164" font-size="11" font-family="Arial">online_ogd</text>
<line x1="1286" x2="1302" y1="180" y2="180" stroke="#111827" stroke-width="3"/>
<text x="1308" y="184" font-size="11" font-family="Arial">oracle_fixed_grid</text>
<line x1="1286" x2="1302" y1="200" y2="200" stroke="#edc948" stroke-width="3"/>
<text x="1308" y="204" font-size="11" font-family="Arial">residual_balance_normalized</text>
<line x1="1286" x2="1302" y1="220" y2="220" stroke="#f28e2b" stroke-width="3"/>
<text x="1308" y="224" font-size="11" font-family="Arial">residual_balance_raw</text>
<line x1="1286" x2="1302" y1="240" y2="240" stroke="#ff9da7" stroke-width="3"/>
<text x="1308" y="244" font-size="11" font-family="Arial">residual_balance_relative</text>
<line x1="1286" x2="1302" y1="260" y2="260" stroke="#9c755f" stroke-width="3"/>
<text x="1308" y="264" font-size="11" font-family="Arial">spectral_aadmm_xu2017</text>
</svg>
