<svg xmlns="http://www.w3.org/2000/svg" width="1420" height="560" viewBox="0 0 1420 560" role="img" aria-label="Graphical Lasso Rho Benchmark Trajectories, Seed 0">
<title>Graphical Lasso Rho Benchmark Trajectories, Seed 0</title>
<rect width="1420" height="560" fill="#ffffff"/>
<text x="78" y="28" font-size="20" font-family="Arial" font-weight="700">Graphical Lasso Rho Benchmark Trajectories, Seed 0</text>
<text x="654.0" y="548" text-anchor="middle" font-size="12" font-family="Arial">ADMM iteration</text>
<text x="18" y="277.0" transform="rotate(-90 18 277.0)" font-size="12" font-family="Arial">rho, log scale</text>
<line x1="78" x2="1230" y1="498.00" y2="498.00" stroke="#e5e7eb"/>
<text x="70" y="502.00" text-anchor="end" font-size="11" font-family="Arial" fill="#4b5563">1e-1</text>
<line x1="78" x2="1230" y1="387.50" y2="387.50" stroke="#e5e7eb"/>
<text x="70" y="391.50" text-anchor="end" font-size="11" font-family="Arial" fill="#4b5563">1e0</text>
<line x1="78" x2="1230" y1="277.00" y2="277.00" stroke="#e5e7eb"/>
<text x="70" y="281.00" text-anchor="end" font-size="11" font-family="Arial" fill="#4b5563">1e0</text>
<line x1="78" x2="1230" y1="166.50" y2="166.50" stroke="#e5e7eb"/>
<text x="70" y="170.50" text-anchor="end" font-size="11" font-family="Arial" fill="#4b5563">1e0</text>
<line x1="78" x2="1230" y1="56.00" y2="56.00" stroke="#e5e7eb"/>
<text x="70" y="60.00" text-anchor="end" font-size="11" font-family="Arial" fill="#4b5563">1e1</text>
<line x1="78.00" x2="78.00" y1="56" y2="498" stroke="#f3f4f6"/>
<text x="78.00" y="516" text-anchor="middle" font-size="11" font-family="Arial" fill="#4b5563">1</text>
<line x1="366.00" x2="366.00" y1="56" y2="498" stroke="#f3f4f6"/>
<text x="366.00" y="516" text-anchor="middle" font-size="11" font-family="Arial" fill="#4b5563">38</text>
<line x1="654.00" x2="654.00" y1="56" y2="498" stroke="#f3f4f6"/>
<text x="654.00" y="516" text-anchor="middle" font-size="11" font-family="Arial" fill="#4b5563">75</text>
<line x1="942.00" x2="942.00" y1="56" y2="498" stroke="#f3f4f6"/>
<text x="942.00" y="516" text-anchor="middle" font-size="11" font-family="Arial" fill="#4b5563">112</text>
<line x1="1230.00" x2="1230.00" y1="56" y2="498" stroke="#f3f4f6"/>
<text x="1230.00" y="516" text-anchor="middle" font-size="11" font-family="Arial" fill="#4b5563">150</text>
<line x1="78" x2="1230" y1="277.00" y2="277.00" stroke="#111827" stroke-width="2" stroke-dasharray="7 5"/>
<text x="86" y="271.00" font-size="11" font-family="Arial" fill="#111827">oracle fixed rho 1</text>
<polyline points="78.00,277.00 85.73,284.90 93.46,301.61 101.19,339.06 108.93,332.16 116.66,322.35 124.39,297.22 132.12,210.01 139.85,246.99 147.58,308.90 155.32,319.61 163.05,313.07 170.78,297.32 178.51,253.80 186.24,221.99 193.97,223.28 201.70,224.62 209.44,227.40 217.17,239.39 224.90,317.25 232.63,389.86 240.36,379.13 248.09,366.55 255.83,336.40 263.56,199.49 271.29,83.78 279.02,139.31 286.75,298.80 294.48,360.39" fill="none" stroke="#bab0ac" stroke-width="2" stroke-linejoin="round" stroke-linecap="round"><title>bb_online_penalty_simplified</title></polyline>
<polyline points="78.00,277.00 85.73,277.00 93.46,277.00 101.19,277.00 108.93,277.00 116.66,277.00 124.39,277.00 132.12,277.00 139.85,277.00 147.58,277.00 155.32,277.00 163.05,277.00 170.78,277.00 178.51,277.00 186.24,277.00 193.97,277.00 201.70,277.00 209.44,277.00 217.17,277.00 224.90,277.00 232.63,277.00 240.36,277.00 248.09,277.00 255.83,277.00 263.56,277.00 271.29,277.00 279.02,277.00 286.75,277.00 294.48,277.00 302.21,277.00 309.95,277.00 317.68,277.00 325.41,277.00" fill="none" stroke="#59a14f" stroke-width="2" stroke-linejoin="round" stroke-linecap="round"><title>fixed_rho_1</title></polyline>
<polyline points="78.00,277.00 85.73,277.00 93.46,277.00 101.19,277.00 108.93,277.00 116.66,282.94 124.39,282.94 132.12,282.94 139.85,282.94 147.58,282.94 155.32,286.83 163.05,286.83 170.78,286.83 178.51,286.83 186.24,286.83 193.97,289.15 201.70,289.15 209.44,289.15 217.17,289.15 224.90,289.15 232.63,289.63 240.36,289.63 248.09,289.63 255.83,289.63 263.56,289.63 271.29,288.16 279.02,288.16 286.75,288.16 294.48,288.16 302.21,288.16 309.95,284.93 317.68,284.93 325.41,284.93 333.14,284.93 340.87,284.93 348.60,280.87" fill="none" stroke="#76b7b2" stroke-width="2" stroke-linejoin="round" stroke-linecap="round"><title>online_ogd_epoch5</title></polyline>
<polyline points="78.00,277.00 85.73,288.06 93.46,294.89 101.19,300.09 108.93,303.83 116.66,306.27 124.39,307.52 132.12,307.69 139.85,307.57 147.58,307.03 155.32,305.89 163.05,304.23 170.78,301.96 178.51,299.34 186.24,296.32 193.97,292.82 201.70,288.87 209.44,284.52 217.17,279.84 224.90,274.94 232.63,270.14 240.36,265.21 248.09,260.21 255.83,255.20 263.56,250.29 271.29,245.55 279.02,241.06 286.75,236.88 294.48,233.08 302.21,229.70 309.95,226.81 317.68,224.44" fill="none" stroke="#4e79a7" stroke-width="2" stroke-linejoin="round" stroke-linecap="round"><title>online_ogd_freeze50</title></polyline>
<polyline points="78.00,277.00 85.73,288.06 93.46,293.68 101.19,297.26 108.93,299.24 116.66,300.36 124.39,300.62 132.12,300.23 139.85,299.59 147.58,299.12 155.32,298.27 163.05,296.80 170.78,294.28 178.51,290.60 186.24,285.63 193.97,279.52 201.70,272.17 209.44,263.84 217.17,254.11 224.90,243.33 232.63,230.94 240.36,217.44 248.09,203.83 255.83,191.53 263.56,181.39 271.29,173.53 279.02,167.82 286.75,164.04 294.48,162.09 302.21,162.03 309.95,164.59 317.68,167.81 325.41,170.73 333.14,172.82 340.87,174.01 348.60,175.08 356.34,175.62 364.07,176.62 371.80,176.66 379.53,178.61 387.26,180.20 394.99,180.30 402.72,182.11 410.46,183.35 418.19,182.76 425.92,183.72 433.65,184.62 441.38,184.36 449.11,185.70 456.85,186.88 464.58,186.82 472.31,188.51 480.04,189.81 487.77,189.39 495.50,190.47 503.23,191.34 510.97,190.45 518.70,190.61 526.43,191.81 534.16,192.92 541.89,193.05 549.62,194.32 557.36,195.12 565.09,194.61 572.82,195.23 580.55,195.91 588.28,195.86 596.01,197.28 603.74,198.42 611.48,198.25 619.21,199.49 626.94,200.40 634.67,199.46 642.40,199.45 650.13,200.75 657.87,201.94 665.60,202.22 673.33,203.08 681.06,203.15 688.79,204.27 696.52,205.01 704.26,204.37 711.99,204.60 719.72,205.30 727.45,205.80 735.18,204.91 742.91,204.68 750.64,204.67 758.38,205.78 766.11,206.82 773.84,207.07 781.57,207.81 789.30,207.81 797.03,208.92 804.77,209.70 812.50,209.00 820.23,209.06 827.96,210.06 835.69,210.91 843.42,210.81 851.15,211.84 858.89,212.57 866.62,211.83 874.35,211.80 882.08,212.78 889.81,213.66 897.54,213.70 905.28,214.70 913.01,215.32 920.74,214.96 928.47,215.38 936.20,215.80 943.93,215.42 951.66,215.62 959.40,216.15 967.13,216.49 974.86,215.88 982.59,215.76 990.32,216.00 998.05,216.56 1005.79,216.92 1013.52,216.39 1021.25,216.36 1028.98,217.27 1036.71,218.07 1044.44,218.11 1052.17,219.03 1059.91,219.59 1067.64,219.27 1075.37,219.66 1083.10,220.03 1090.83,219.57 1098.56,219.57 1106.30,220.59 1114.03,221.45 1121.76,221.45 1129.49,222.34 1137.22,222.87 1144.95,222.61 1152.68,223.06 1160.42,223.42 1168.15,222.49 1175.88,221.97 1183.61,221.06 1191.34,219.96 1199.07,218.50 1206.81,216.79 1214.54,214.72 1222.27,212.38 1230.00,209.70" fill="none" stroke="#e15759" stroke-width="2" stroke-linejoin="round" stroke-linecap="round"><title>online_ogd_no_dual_rescale</title></polyline>
<polyline points="78.00,277.00 85.73,288.06 93.46,294.89 101.19,300.09 108.93,303.83 116.66,306.27 124.39,307.52 132.12,307.69 139.85,307.57 147.58,307.03 155.32,305.89 163.05,304.23 170.78,301.96 178.51,299.34 186.24,296.32 193.97,292.82 201.70,288.87 209.44,284.52 217.17,279.84 224.90,274.94 232.63,270.14 240.36,265.21 248.09,260.21 255.83,255.20 263.56,250.29 271.29,245.55 279.02,241.06 286.75,236.88 294.48,233.08 302.21,229.70 309.95,226.81 317.68,224.44" fill="none" stroke="#b07aa1" stroke-width="2" stroke-linejoin="round" stroke-linecap="round"><title>online_ogd</title></polyline>
<polyline points="78.00,277.00 85.73,277.00 93.46,277.00 101.19,277.00 108.93,277.00 116.66,277.00 124.39,277.00 132.12,277.00 139.85,277.00 147.58,277.00 155.32,277.00 163.05,277.00 170.78,277.00 178.51,277.00 186.24,277.00 193.97,277.00 201.70,277.00 209.44,277.00 217.17,277.00 224.90,277.00 232.63,277.00 240.36,277.00 248.09,277.00 255.83,277.00 263.56,277.00 271.29,277.00 279.02,277.00 286.75,277.00 294.48,277.00 302.21,277.00 309.95,277.00 317.68,277.00 325.41,277.00" fill="none" stroke="#111827" stroke-width="2" stroke-linejoin="round" stroke-linecap="round"><title>oracle_fixed_grid</title></polyline>
<polyline points="78.00,277.00 85.73,277.00 93.46,277.00 101.19,277.00 108.93,277.00 116.66,277.00 124.39,277.00 132.12,277.00 139.85,277.00 147.58,277.00 155.32,277.00 163.05,277.00 170.78,277.00 178.51,277.00 186.24,277.00 193.97,277.00 201.70,277.00 209.44,277.00 217.17,277.00 224.90,277.00 232.63,277.00 240.36,277.00 248.09,277.00 255.83,277.00 263.56,277.00 271.29,277.00 279.02,277.00 286.75,277.00 294.48,277.00 302.21,277.00 309.95,277.00 317.68,277.00 325.41,277.00" fill="none" stroke="#edc948" stroke-width="2" stroke-linejoin="round" stroke-linecap="round"><title>residual_balance_normalized</title></polyline>
<polyline points="78.00,277.00 85.73,277.00 93.46,277.00 101.19,277.00 108.93,277.00 116.66,277.00 124.39,277.00 132.12,277.00 139.85,277.00 147.58,277.00 155.32,277.00 163.05,277.00 170.78,277.00 178.51,277.00 186.24,277.00 193.97,277.00 201.70,277.00 209.44,277.00 217.17,277.00 224.90,277.00 232.63,277.00 240.36,277.00 248.09,277.00 255.83,277.00 263.56,277.00 271.29,277.00 279.02,277.00 286.75,277.00 294.48,277.00 302.21,277.00 309.95,277.00 317.68,277.00 325.41,277.00" fill="none" stroke="#f28e2b" stroke-width="2" stroke-linejoin="round" stroke-linecap="round"><title>residual_balance_raw</title></polyline>
<polyline points="78.00,277.00 85.73,277.00 93.46,277.00 101.19,277.00 108.93,277.00 116.66,277.00 124.39,277.00 132.12,277.00 139.85,277.00 147.58,277.00 155.32,277.00 163.05,277.00 170.78,277.00 178.51,277.00 186.24,277.00 193.97,277.00 201.70,277.00 209.44,277.00 217.17,277.00 224.90,277.00 232.63,277.00 240.36,277.00 248.09,277.00 255.83,277.00 263.56,277.00 271.29,277.00 279.02,277.00 286.75,277.00 294.48,277.00 302.21,277.00 309.95,277.00 317.68,277.00 325.41,277.00" fill="none" stroke="#ff9da7" stroke-width="2" stroke-linejoin="round" stroke-linecap="round"><title>residual_balance_relative</title></polyline>
<polyline points="78.00,277.00 85.73,277.00 93.46,227.20 101.19,227.20 108.93,200.01 116.66,200.01 124.39,237.87 132.12,237.87 139.85,369.02 147.58,369.02 155.32,400.92 163.05,400.92 170.78,403.83 178.51,403.83 186.24,294.78 193.97,294.78 201.70,248.29 209.44,248.29 217.17,238.50 224.90,238.50 232.63,197.73 240.36,197.73 248.09,175.98 255.83,175.98 263.56,175.14 271.29,175.14 279.02,200.96 286.75,200.96 294.48,279.34 302.21,279.34 309.95,397.62" fill="none" stroke="#9c755f" stroke-width="2" stroke-linejoin="round" stroke-linecap="round"><title>spectral_aadmm_xu2017</title></polyline>
<line x1="1248" x2="1264" y1="60" y2="60" stroke="#111827" stroke-width="2" stroke-dasharray="7 5"/>
<text x="1270" y="64" font-size="11" font-family="Arial">oracle rho</text>
<line x1="1248" x2="1264" y1="82" y2="82" stroke="#bab0ac" stroke-width="3"/>
<text x="1270" y="86" font-size="11" font-family="Arial">bb_online_penalty_simplified</text>
<line x1="1248" x2="1264" y1="102" y2="102" stroke="#59a14f" stroke-width="3"/>
<text x="1270" y="106" font-size="11" font-family="Arial">fixed_rho_1</text>
<line x1="1248" x2="1264" y1="122" y2="122" stroke="#76b7b2" stroke-width="3"/>
<text x="1270" y="126" font-size="11" font-family="Arial">online_ogd_epoch5</text>
<line x1="1248" x2="1264" y1="142" y2="142" stroke="#4e79a7" stroke-width="3"/>
<text x="1270" y="146" font-size="11" font-family="Arial">online_ogd_freeze50</text>
<line x1="1248" x2="1264" y1="162" y2="162" stroke="#e15759" stroke-width="3"/>
<text x="1270" y="166" font-size="11" font-family="Arial">online_ogd_no_dual_rescale</text>
<line x1="1248" x2="1264" y1="182" y2="182" stroke="#b07aa1" stroke-width="3"/>
<text x="1270" y="186" font-size="11" font-family="Arial">online_ogd</text>
<line x1="1248" x2="1264" y1="202" y2="202" stroke="#111827" stroke-width="3"/>
<text x="1270" y="206" font-size="11" font-family="Arial">oracle_fixed_grid</text>
<line x1="1248" x2="1264" y1="222" y2="222" stroke="#edc948" stroke-width="3"/>
<text x="1270" y="226" font-size="11" font-family="Arial">residual_balance_normalized</text>
<line x1="1248" x2="1264" y1="242" y2="242" stroke="#f28e2b" stroke-width="3"/>
<text x="1270" y="246" font-size="11" font-family="Arial">residual_balance_raw</text>
<line x1="1248" x2="1264" y1="262" y2="262" stroke="#ff9da7" stroke-width="3"/>
<text x="1270" y="266" font-size="11" font-family="Arial">residual_balance_relative</text>
<line x1="1248" x2="1264" y1="282" y2="282" stroke="#9c755f" stroke-width="3"/>
<text x="1270" y="286" font-size="11" font-family="Arial">spectral_aadmm_xu2017</text>
</svg>
