<svg xmlns="http://www.w3.org/2000/svg" width="1420" height="560" viewBox="0 0 1420 560" role="img" aria-label="Benchmark Average Penalty Changes">
<title>Benchmark Average Penalty Changes</title>
<rect width="1420" height="560" fill="#ffffff"/>
<text x="82" y="28" font-size="20" font-family="Arial" font-weight="700">Benchmark Average Penalty Changes</text>
<text x="18" y="258.0" transform="rotate(-90 18 258.0)" font-size="12" font-family="Arial">rho changes</text>
<line x1="82" x2="1396" y1="460.00" y2="460.00" stroke="#e5e7eb"/>
<text x="74" y="464.00" text-anchor="end" font-size="11" font-family="Arial" fill="#4b5563">0</text>
<line x1="82" x2="1396" y1="359.00" y2="359.00" stroke="#e5e7eb"/>
<text x="74" y="363.00" text-anchor="end" font-size="11" font-family="Arial" fill="#4b5563">41</text>
<line x1="82" x2="1396" y1="258.00" y2="258.00" stroke="#e5e7eb"/>
<text x="74" y="262.00" text-anchor="end" font-size="11" font-family="Arial" fill="#4b5563">82</text>
<line x1="82" x2="1396" y1="157.00" y2="157.00" stroke="#e5e7eb"/>
<text x="74" y="161.00" text-anchor="end" font-size="11" font-family="Arial" fill="#4b5563">123</text>
<line x1="82" x2="1396" y1="56.00" y2="56.00" stroke="#e5e7eb"/>
<text x="74" y="60.00" text-anchor="end" font-size="11" font-family="Arial" fill="#4b5563">164</text>
<text x="301.00" y="506" text-anchor="middle" font-size="12" font-family="Arial">consensus lasso</text>
<rect x="90.00" y="191.32" width="36.36" height="268.68" fill="#bab0ac"><title>consensus_lasso / bb_online_penalty_simplified: 109</title></rect>
<rect x="128.36" y="460.00" width="36.36" height="0.00" fill="#59a14f"><title>consensus_lasso / fixed_rho_1: 1e-12</title></rect>
<rect x="166.73" y="399.20" width="36.36" height="60.80" fill="#b07aa1"><title>consensus_lasso / online_ogd: 24.67</title></rect>
<rect x="205.09" y="447.68" width="36.36" height="12.32" fill="#76b7b2"><title>consensus_lasso / online_ogd_epoch5: 5</title></rect>
<rect x="243.45" y="399.20" width="36.36" height="60.80" fill="#4e79a7"><title>consensus_lasso / online_ogd_freeze50: 24.67</title></rect>
<rect x="281.82" y="92.73" width="36.36" height="367.27" fill="#e15759"><title>consensus_lasso / online_ogd_no_dual_rescale: 149</title></rect>
<rect x="320.18" y="460.00" width="36.36" height="0.00" fill="#111827"><title>consensus_lasso / oracle_fixed_grid: 1e-12</title></rect>
<rect x="358.55" y="460.00" width="36.36" height="0.00" fill="#edc948"><title>consensus_lasso / residual_balance_normalized: 1e-12</title></rect>
<rect x="396.91" y="460.00" width="36.36" height="0.00" fill="#f28e2b"><title>consensus_lasso / residual_balance_raw: 1e-12</title></rect>
<rect x="435.27" y="460.00" width="36.36" height="0.00" fill="#ff9da7"><title>consensus_lasso / residual_balance_relative: 1e-12</title></rect>
<rect x="473.64" y="431.24" width="36.36" height="28.76" fill="#9c755f"><title>consensus_lasso / spectral_aadmm_xu2017: 11.67</title></rect>
<text x="739.00" y="506" text-anchor="middle" font-size="12" font-family="Arial">graphical lasso</text>
<rect x="528.00" y="388.52" width="36.36" height="71.48" fill="#bab0ac"><title>graphical_lasso / bb_online_penalty_simplified: 29</title></rect>
<rect x="566.36" y="460.00" width="36.36" height="0.00" fill="#59a14f"><title>graphical_lasso / fixed_rho_1: 1e-12</title></rect>
<rect x="604.73" y="375.37" width="36.36" height="84.63" fill="#b07aa1"><title>graphical_lasso / online_ogd: 34.33</title></rect>
<rect x="643.09" y="441.10" width="36.36" height="18.90" fill="#76b7b2"><title>graphical_lasso / online_ogd_epoch5: 7.667</title></rect>
<rect x="681.45" y="375.37" width="36.36" height="84.63" fill="#4e79a7"><title>graphical_lasso / online_ogd_freeze50: 34.33</title></rect>
<rect x="719.82" y="94.37" width="36.36" height="365.63" fill="#e15759"><title>graphical_lasso / online_ogd_no_dual_rescale: 148.3</title></rect>
<rect x="758.18" y="460.00" width="36.36" height="0.00" fill="#111827"><title>graphical_lasso / oracle_fixed_grid: 1e-12</title></rect>
<rect x="796.55" y="460.00" width="36.36" height="0.00" fill="#edc948"><title>graphical_lasso / residual_balance_normalized: 1e-12</title></rect>
<rect x="834.91" y="460.00" width="36.36" height="0.00" fill="#f28e2b"><title>graphical_lasso / residual_balance_raw: 1e-12</title></rect>
<rect x="873.27" y="460.00" width="36.36" height="0.00" fill="#ff9da7"><title>graphical_lasso / residual_balance_relative: 1e-12</title></rect>
<rect x="911.64" y="419.74" width="36.36" height="40.26" fill="#9c755f"><title>graphical_lasso / spectral_aadmm_xu2017: 16.33</title></rect>
<text x="1177.00" y="506" text-anchor="middle" font-size="12" font-family="Arial">tv denoising</text>
<rect x="966.00" y="289.10" width="36.36" height="170.90" fill="#bab0ac"><title>tv_denoising / bb_online_penalty_simplified: 69.33</title></rect>
<rect x="1004.36" y="460.00" width="36.36" height="0.00" fill="#59a14f"><title>tv_denoising / fixed_rho_1: 1e-12</title></rect>
<rect x="1042.73" y="271.84" width="36.36" height="188.16" fill="#b07aa1"><title>tv_denoising / online_ogd: 76.33</title></rect>
<rect x="1081.09" y="411.52" width="36.36" height="48.48" fill="#76b7b2"><title>tv_denoising / online_ogd_epoch5: 19.67</title></rect>
<rect x="1119.45" y="336.75" width="36.36" height="123.25" fill="#4e79a7"><title>tv_denoising / online_ogd_freeze50: 50</title></rect>
<rect x="1157.82" y="93.55" width="36.36" height="366.45" fill="#e15759"><title>tv_denoising / online_ogd_no_dual_rescale: 148.7</title></rect>
<rect x="1196.18" y="460.00" width="36.36" height="0.00" fill="#111827"><title>tv_denoising / oracle_fixed_grid: 1e-12</title></rect>
<rect x="1234.55" y="458.36" width="36.36" height="1.64" fill="#edc948"><title>tv_denoising / residual_balance_normalized: 0.6667</title></rect>
<rect x="1272.91" y="459.18" width="36.36" height="0.82" fill="#f28e2b"><title>tv_denoising / residual_balance_raw: 0.3333</title></rect>
<rect x="1311.27" y="456.71" width="36.36" height="3.29" fill="#ff9da7"><title>tv_denoising / residual_balance_relative: 1.333</title></rect>
<rect x="1349.64" y="364.69" width="36.36" height="95.31" fill="#9c755f"><title>tv_denoising / spectral_aadmm_xu2017: 38.67</title></rect>
<rect x="82" y="520" width="10" height="10" fill="#bab0ac"/>
<text x="97" y="530" font-size="11" font-family="Arial">bb_online_penalty_simplified</text>
<rect x="227" y="520" width="10" height="10" fill="#59a14f"/>
<text x="242" y="530" font-size="11" font-family="Arial">fixed_rho_1</text>
<rect x="372" y="520" width="10" height="10" fill="#b07aa1"/>
<text x="387" y="530" font-size="11" font-family="Arial">online_ogd</text>
<rect x="517" y="520" width="10" height="10" fill="#76b7b2"/>
<text x="532" y="530" font-size="11" font-family="Arial">online_ogd_epoch5</text>
<rect x="662" y="520" width="10" height="10" fill="#4e79a7"/>
<text x="677" y="530" font-size="11" font-family="Arial">online_ogd_freeze50</text>
<rect x="807" y="520" width="10" height="10" fill="#e15759"/>
<text x="822" y="530" font-size="11" font-family="Arial">online_ogd_no_dual_rescale</text>
<rect x="952" y="520" width="10" height="10" fill="#111827"/>
<text x="967" y="530" font-size="11" font-family="Arial">oracle_fixed_grid</text>
<rect x="1097" y="520" width="10" height="10" fill="#edc948"/>
<text x="1112" y="530" font-size="11" font-family="Arial">residual_balance_normalized</text>
<rect x="1242" y="520" width="10" height="10" fill="#f28e2b"/>
<text x="1257" y="530" font-size="11" font-family="Arial">residual_balance_raw</text>
<rect x="1387" y="520" width="10" height="10" fill="#ff9da7"/>
<text x="1402" y="530" font-size="11" font-family="Arial">residual_balance_relative</text>
<rect x="1532" y="520" width="10" height="10" fill="#9c755f"/>
<text x="1547" y="530" font-size="11" font-family="Arial">spectral_aadmm_xu2017</text>
</svg>
