<svg xmlns="http://www.w3.org/2000/svg" width="1420" height="560" viewBox="0 0 1420 560" role="img" aria-label="Consensus Lasso Dual Norm Benchmark Trajectories, Seed 0">
<title>Consensus Lasso Dual Norm Benchmark Trajectories, Seed 0</title>
<rect width="1420" height="560" fill="#ffffff"/>
<text x="78" y="28" font-size="20" font-family="Arial" font-weight="700">Consensus Lasso Dual Norm Benchmark Trajectories, Seed 0</text>
<text x="673.0" y="548" text-anchor="middle" font-size="12" font-family="Arial">ADMM iteration</text>
<text x="18" y="277.0" transform="rotate(-90 18 277.0)" font-size="12" font-family="Arial">dual residual</text>
<line x1="78" x2="1268" y1="498.00" y2="498.00" stroke="#e5e7eb"/>
<text x="70" y="502.00" text-anchor="end" font-size="11" font-family="Arial" fill="#4b5563">1e-5</text>
<line x1="78" x2="1268" y1="387.50" y2="387.50" stroke="#e5e7eb"/>
<text x="70" y="391.50" text-anchor="end" font-size="11" font-family="Arial" fill="#4b5563">1e-3</text>
<line x1="78" x2="1268" y1="277.00" y2="277.00" stroke="#e5e7eb"/>
<text x="70" y="281.00" text-anchor="end" font-size="11" font-family="Arial" fill="#4b5563">1e-2</text>
<line x1="78" x2="1268" y1="166.50" y2="166.50" stroke="#e5e7eb"/>
<text x="70" y="170.50" text-anchor="end" font-size="11" font-family="Arial" fill="#4b5563">1e0</text>
<line x1="78" x2="1268" y1="56.00" y2="56.00" stroke="#e5e7eb"/>
<text x="70" y="60.00" text-anchor="end" font-size="11" font-family="Arial" fill="#4b5563">1e1</text>
<line x1="78.00" x2="78.00" y1="56" y2="498" stroke="#f3f4f6"/>
<text x="78.00" y="516" text-anchor="middle" font-size="11" font-family="Arial" fill="#4b5563">1</text>
<line x1="375.50" x2="375.50" y1="56" y2="498" stroke="#f3f4f6"/>
<text x="375.50" y="516" text-anchor="middle" font-size="11" font-family="Arial" fill="#4b5563">38</text>
<line x1="673.00" x2="673.00" y1="56" y2="498" stroke="#f3f4f6"/>
<text x="673.00" y="516" text-anchor="middle" font-size="11" font-family="Arial" fill="#4b5563">75</text>
<line x1="970.50" x2="970.50" y1="56" y2="498" stroke="#f3f4f6"/>
<text x="970.50" y="516" text-anchor="middle" font-size="11" font-family="Arial" fill="#4b5563">112</text>
<line x1="1268.00" x2="1268.00" y1="56" y2="498" stroke="#f3f4f6"/>
<text x="1268.00" y="516" text-anchor="middle" font-size="11" font-family="Arial" fill="#4b5563">150</text>
<polyline points="78.00,105.03 85.99,118.50 93.97,139.24 101.96,163.65 109.95,190.42 117.93,216.19 125.92,229.68 133.91,215.48 141.89,221.14 149.88,240.83 157.87,267.49 165.85,302.72 173.84,310.56 181.83,290.53 189.81,295.23 197.80,309.99 205.79,333.29 213.77,370.75 221.76,380.95 229.74,351.45 237.73,356.99 245.72,382.92 253.70,438.36 261.69,387.50 269.68,388.01 277.66,398.63 285.65,424.87 293.64,483.62 301.62,407.94 309.61,413.18 317.60,445.35 325.58,460.65 333.57,406.55 341.56,413.26 349.54,445.75 357.53,458.10 365.52,402.18 373.50,408.85 381.49,440.94 389.48,453.01 397.46,396.45 405.45,403.04 413.44,434.70 421.42,446.96 429.41,390.30 437.40,396.80 445.38,428.18 453.37,440.61 461.36,383.99 469.34,390.44 477.33,421.64 485.32,434.18 493.30,377.62 501.29,384.04 509.28,415.12 517.26,427.70 525.25,371.21 533.23,377.61 541.22,408.64 549.21,421.19 557.19,364.77 565.18,371.16 573.17,402.16 581.15,414.66 589.14,358.31 597.13,364.69 605.11,395.68 613.10,408.11 621.09,351.81 629.07,358.19 637.06,389.18 645.05,401.54 653.03,345.29 661.02,351.67 669.01,382.67 676.99,394.96 684.98,338.74 692.97,345.12 700.95,376.14 708.94,388.35 716.93,332.17 724.91,338.56 732.90,369.59 740.89,381.74 748.87,325.59 756.86,331.97 764.85,363.02 772.83,375.10 780.82,318.98 788.81,325.37 796.79,356.43 804.78,368.46 812.77,312.36 820.75,318.75 828.74,349.82 836.72,361.81 844.71,305.73 852.70,312.12 860.68,343.20 868.67,355.15 876.66,299.08 884.64,305.47 892.63,336.57 900.62,348.48 908.60,292.43 916.59,298.82 924.58,329.96 932.56,341.86 940.55,285.81 948.54,292.20 956.52,323.29 964.51,335.15 972.50,279.15 980.48,285.55 988.47,316.71 996.46,328.52 1004.44,272.62 1012.43,279.00 1020.42,310.09 1028.40,321.88 1036.39,265.94 1044.38,272.34 1052.36,303.52 1060.35,315.25 1068.34,259.42 1076.32,265.80 1084.31,296.92 1092.30,308.65 1100.28,252.74 1108.27,259.14 1116.26,290.34 1124.24,302.00 1132.23,246.22 1140.21,252.61 1148.20,283.75 1156.19,295.42 1164.17,239.54 1172.16,245.94 1180.15,277.16 1188.13,288.77 1196.12,233.02 1204.11,239.41 1212.09,270.79 1220.08,282.78 1228.07,226.39 1236.05,232.79 1244.04,264.57 1252.03,277.55 1260.01,220.23 1268.00,226.57" fill="none" stroke="#bab0ac" stroke-width="2" stroke-linejoin="round" stroke-linecap="round"><title>bb_online_penalty_simplified</title></polyline>
<polyline points="78.00,105.03 85.99,116.96 93.97,134.12 101.96,153.22 109.95,173.16 117.93,192.82 125.92,212.13 133.91,229.99 141.89,247.03 149.88,263.64 157.87,279.49 165.85,293.72 173.84,306.26 181.83,317.99 189.81,329.36 197.80,340.73 205.79,352.33 213.77,364.28 221.76,376.64 229.74,389.42 237.73,402.60 245.72,416.15 253.70,430.01 261.69,444.12 269.68,458.43" fill="none" stroke="#59a14f" stroke-width="2" stroke-linejoin="round" stroke-linecap="round"><title>fixed_rho_1</title></polyline>
<polyline points="78.00,105.03 85.99,116.96 93.97,134.12 101.96,153.22 109.95,173.16 117.93,193.10 125.92,213.05 133.91,231.76 141.89,249.40 149.88,265.98 157.87,280.39 165.85,292.35 173.84,303.36 181.83,314.33 189.81,325.59 197.80,336.93 205.79,348.60 213.77,360.72 221.76,373.31 229.74,386.37 237.73,399.67 245.72,413.24 253.70,427.07 261.69,441.14 269.68,455.41" fill="none" stroke="#76b7b2" stroke-width="2" stroke-linejoin="round" stroke-linecap="round"><title>online_ogd_epoch5</title></polyline>
<polyline points="78.00,105.03 85.99,119.13 93.97,139.54 101.96,163.06 109.95,188.62 117.93,214.78 125.92,235.37 133.91,246.33 141.89,253.12 149.88,260.19 157.87,268.84 165.85,279.06 173.84,290.40 181.83,302.52 189.81,315.19 197.80,328.27 205.79,341.64 213.77,355.20 221.76,368.86 229.74,382.48 237.73,395.94 245.72,409.13 253.70,422.00 261.69,434.54 269.68,446.86" fill="none" stroke="#4e79a7" stroke-width="2" stroke-linejoin="round" stroke-linecap="round"><title>online_ogd_freeze50</title></polyline>
<polyline points="78.00,105.03 85.99,120.12 93.97,140.59 101.96,163.39 109.95,187.14 117.93,211.27 125.92,234.06 133.91,250.45 141.89,255.62 149.88,256.31 157.87,259.39 165.85,263.59 173.84,268.34 181.83,273.99 189.81,281.41 197.80,291.29 205.79,300.84 213.77,293.67 221.76,276.04 229.74,265.14 237.73,258.63 245.72,253.72 253.70,251.15 261.69,250.60 269.68,250.96 277.66,252.06 285.65,253.55 293.64,255.16 301.62,256.46 309.61,256.28 317.60,259.80 325.58,264.51 333.57,269.64 341.56,274.89 349.54,280.15 357.53,285.33 365.52,290.39 373.50,295.31 381.49,300.08 389.48,304.72 397.46,309.24 405.45,313.67 413.44,318.02 421.42,322.32 429.41,326.57 437.40,330.80 445.38,335.00 453.37,339.18 461.36,343.35 469.34,347.51 477.33,351.67 485.32,355.81 493.30,359.96 501.29,364.11 509.28,368.25 517.26,372.39 525.25,376.54 533.23,380.68 541.22,384.83 549.21,388.96 557.19,393.17 565.18,396.54 573.17,392.05 581.15,366.20 589.14,342.87 597.13,331.67 605.11,326.41 613.10,324.29 621.09,323.99 629.07,324.86 637.06,326.55 645.05,328.87 653.03,331.73 661.02,335.09 669.01,338.94 676.99,343.30 684.98,348.21 692.97,353.73 700.95,359.90 708.94,372.69 716.93,378.44 724.91,368.65 732.90,358.66 740.89,351.39 748.87,346.10 756.86,342.11 764.85,339.03 772.83,334.27 780.82,329.80 788.81,326.30 796.79,323.60 804.78,321.51 812.77,319.85 820.75,318.45 828.74,317.12 836.72,315.51 844.71,311.48 852.70,312.18 860.68,313.48 868.67,314.95 876.66,316.50 884.64,318.12 892.63,319.80 900.62,321.51 908.60,323.26 916.59,325.04 924.58,326.86 932.56,328.69 940.55,330.55 948.54,332.43 956.52,334.33 964.51,336.25 972.50,338.17 980.48,340.11 988.47,342.05 996.46,344.00 1004.44,345.95 1012.43,347.89 1020.42,349.83 1028.40,351.77 1036.39,353.69 1044.38,355.60 1052.36,357.49 1060.35,359.37 1068.34,361.23 1076.32,363.06 1084.31,364.88 1092.30,366.67 1100.28,368.45 1108.27,370.19 1116.26,371.92 1124.24,373.62 1132.23,375.30 1140.21,376.95 1148.20,378.59 1156.19,380.20 1164.17,381.80 1172.16,383.37 1180.15,384.92 1188.13,386.46 1196.12,387.98 1204.11,389.49 1212.09,390.98 1220.08,392.46 1228.07,393.92 1236.05,395.38 1244.04,396.82 1252.03,398.25 1260.01,399.67 1268.00,401.09" fill="none" stroke="#e15759" stroke-width="2" stroke-linejoin="round" stroke-linecap="round"><title>online_ogd_no_dual_rescale</title></polyline>
<polyline points="78.00,105.03 85.99,119.13 93.97,139.54 101.96,163.06 109.95,188.62 117.93,214.78 125.92,235.37 133.91,246.33 141.89,253.12 149.88,260.19 157.87,268.84 165.85,279.06 173.84,290.40 181.83,302.52 189.81,315.19 197.80,328.27 205.79,341.64 213.77,355.20 221.76,368.86 229.74,382.48 237.73,395.94 245.72,409.13 253.70,422.00 261.69,434.54 269.68,446.86" fill="none" stroke="#b07aa1" stroke-width="2" stroke-linejoin="round" stroke-linecap="round"><title>online_ogd</title></polyline>
<polyline points="78.00,105.03 85.99,116.96 93.97,134.12 101.96,153.22 109.95,173.16 117.93,192.82 125.92,212.13 133.91,229.99 141.89,247.03 149.88,263.64 157.87,279.49 165.85,293.72 173.84,306.26 181.83,317.99 189.81,329.36 197.80,340.73 205.79,352.33 213.77,364.28 221.76,376.64 229.74,389.42 237.73,402.60 245.72,416.15 253.70,430.01 261.69,444.12 269.68,458.43" fill="none" stroke="#111827" stroke-width="2" stroke-linejoin="round" stroke-linecap="round"><title>oracle_fixed_grid</title></polyline>
<polyline points="78.00,105.03 85.99,116.96 93.97,134.12 101.96,153.22 109.95,173.16 117.93,192.82 125.92,212.13 133.91,229.99 141.89,247.03 149.88,263.64 157.87,279.49 165.85,293.72 173.84,306.26 181.83,317.99 189.81,329.36 197.80,340.73 205.79,352.33 213.77,364.28 221.76,376.64 229.74,389.42 237.73,402.60 245.72,416.15 253.70,430.01 261.69,444.12 269.68,458.43" fill="none" stroke="#edc948" stroke-width="2" stroke-linejoin="round" stroke-linecap="round"><title>residual_balance_normalized</title></polyline>
<polyline points="78.00,105.03 85.99,116.96 93.97,134.12 101.96,153.22 109.95,173.16 117.93,192.82 125.92,212.13 133.91,229.99 141.89,247.03 149.88,263.64 157.87,279.49 165.85,293.72 173.84,306.26 181.83,317.99 189.81,329.36 197.80,340.73 205.79,352.33 213.77,364.28 221.76,376.64 229.74,389.42 237.73,402.60 245.72,416.15 253.70,430.01 261.69,444.12 269.68,458.43" fill="none" stroke="#f28e2b" stroke-width="2" stroke-linejoin="round" stroke-linecap="round"><title>residual_balance_raw</title></polyline>
<polyline points="78.00,105.03 85.99,116.96 93.97,134.12 101.96,153.22 109.95,173.16 117.93,192.82 125.92,212.13 133.91,229.99 141.89,247.03 149.88,263.64 157.87,279.49 165.85,293.72 173.84,306.26 181.83,317.99 189.81,329.36 197.80,340.73 205.79,352.33 213.77,364.28 221.76,376.64 229.74,389.42 237.73,402.60 245.72,416.15 253.70,430.01 261.69,444.12 269.68,458.43" fill="none" stroke="#ff9da7" stroke-width="2" stroke-linejoin="round" stroke-linecap="round"><title>residual_balance_relative</title></polyline>
<polyline points="78.00,105.03 85.99,116.96 93.97,139.18 101.96,165.13 109.95,193.44 117.93,218.28 125.92,232.68 133.91,242.11 141.89,244.79 149.88,250.75 157.87,258.64 165.85,268.41 173.84,280.09 181.83,292.99 189.81,309.09 197.80,328.04 205.79,349.39 213.77,371.90 221.76,386.40 229.74,391.96 237.73,397.57 245.72,405.36 253.70,415.53 261.69,427.06 269.68,439.91" fill="none" stroke="#9c755f" stroke-width="2" stroke-linejoin="round" stroke-linecap="round"><title>spectral_aadmm_xu2017</title></polyline>
<line x1="1286" x2="1302" y1="60" y2="60" stroke="#bab0ac" stroke-width="3"/>
<text x="1308" y="64" font-size="11" font-family="Arial">bb_online_penalty_simplified</text>
<line x1="1286" x2="1302" y1="80" y2="80" stroke="#59a14f" stroke-width="3"/>
<text x="1308" y="84" font-size="11" font-family="Arial">fixed_rho_1</text>
<line x1="1286" x2="1302" y1="100" y2="100" stroke="#76b7b2" stroke-width="3"/>
<text x="1308" y="104" font-size="11" font-family="Arial">online_ogd_epoch5</text>
<line x1="1286" x2="1302" y1="120" y2="120" stroke="#4e79a7" stroke-width="3"/>
<text x="1308" y="124" font-size="11" font-family="Arial">online_ogd_freeze50</text>
<line x1="1286" x2="1302" y1="140" y2="140" stroke="#e15759" stroke-width="3"/>
<text x="1308" y="144" font-size="11" font-family="Arial">online_ogd_no_dual_rescale</text>
<line x1="1286" x2="1302" y1="160" y2="160" stroke="#b07aa1" stroke-width="3"/>
<text x="1308" y="164" font-size="11" font-family="Arial">online_ogd</text>
<line x1="1286" x2="1302" y1="180" y2="180" stroke="#111827" stroke-width="3"/>
<text x="1308" y="184" font-size="11" font-family="Arial">oracle_fixed_grid</text>
<line x1="1286" x2="1302" y1="200" y2="200" stroke="#edc948" stroke-width="3"/>
<text x="1308" y="204" font-size="11" font-family="Arial">residual_balance_normalized</text>
<line x1="1286" x2="1302" y1="220" y2="220" stroke="#f28e2b" stroke-width="3"/>
<text x="1308" y="224" font-size="11" font-family="Arial">residual_balance_raw</text>
<line x1="1286" x2="1302" y1="240" y2="240" stroke="#ff9da7" stroke-width="3"/>
<text x="1308" y="244" font-size="11" font-family="Arial">residual_balance_relative</text>
<line x1="1286" x2="1302" y1="260" y2="260" stroke="#9c755f" stroke-width="3"/>
<text x="1308" y="264" font-size="11" font-family="Arial">spectral_aadmm_xu2017</text>
</svg>
