<svg xmlns="http://www.w3.org/2000/svg" width="1420" height="560" viewBox="0 0 1420 560" role="img" aria-label="Benchmark Average Final Dual Residual">
<title>Benchmark Average Final Dual Residual</title>
<rect width="1420" height="560" fill="#ffffff"/>
<text x="82" y="28" font-size="20" font-family="Arial" font-weight="700">Benchmark Average Final Dual Residual</text>
<text x="18" y="258.0" transform="rotate(-90 18 258.0)" font-size="12" font-family="Arial">dual residual</text>
<line x1="82" x2="1396" y1="460.00" y2="460.00" stroke="#e5e7eb"/>
<text x="74" y="464.00" text-anchor="end" font-size="11" font-family="Arial" fill="#4b5563">1e-5</text>
<line x1="82" x2="1396" y1="359.00" y2="359.00" stroke="#e5e7eb"/>
<text x="74" y="363.00" text-anchor="end" font-size="11" font-family="Arial" fill="#4b5563">1e-4</text>
<line x1="82" x2="1396" y1="258.00" y2="258.00" stroke="#e5e7eb"/>
<text x="74" y="262.00" text-anchor="end" font-size="11" font-family="Arial" fill="#4b5563">1e-3</text>
<line x1="82" x2="1396" y1="157.00" y2="157.00" stroke="#e5e7eb"/>
<text x="74" y="161.00" text-anchor="end" font-size="11" font-family="Arial" fill="#4b5563">1e-2</text>
<line x1="82" x2="1396" y1="56.00" y2="56.00" stroke="#e5e7eb"/>
<text x="74" y="60.00" text-anchor="end" font-size="11" font-family="Arial" fill="#4b5563">1e-1</text>
<text x="301.00" y="506" text-anchor="middle" font-size="12" font-family="Arial">consensus lasso</text>
<rect x="90.00" y="76.44" width="36.36" height="383.56" fill="#bab0ac"><title>consensus_lasso / bb_online_penalty_simplified: 0.06276</title></rect>
<rect x="128.36" y="425.44" width="36.36" height="34.56" fill="#59a14f"><title>consensus_lasso / fixed_rho_1: 2.199e-05</title></rect>
<rect x="166.73" y="374.24" width="36.36" height="85.76" fill="#b07aa1"><title>consensus_lasso / online_ogd: 7.064e-05</title></rect>
<rect x="205.09" y="408.69" width="36.36" height="51.31" fill="#76b7b2"><title>consensus_lasso / online_ogd_epoch5: 3.221e-05</title></rect>
<rect x="243.45" y="374.24" width="36.36" height="85.76" fill="#4e79a7"><title>consensus_lasso / online_ogd_freeze50: 7.064e-05</title></rect>
<rect x="281.82" y="311.41" width="36.36" height="148.59" fill="#e15759"><title>consensus_lasso / online_ogd_no_dual_rescale: 0.0002959</title></rect>
<rect x="320.18" y="425.44" width="36.36" height="34.56" fill="#111827"><title>consensus_lasso / oracle_fixed_grid: 2.199e-05</title></rect>
<rect x="358.55" y="425.44" width="36.36" height="34.56" fill="#edc948"><title>consensus_lasso / residual_balance_normalized: 2.199e-05</title></rect>
<rect x="396.91" y="425.44" width="36.36" height="34.56" fill="#f28e2b"><title>consensus_lasso / residual_balance_raw: 2.199e-05</title></rect>
<rect x="435.27" y="425.44" width="36.36" height="34.56" fill="#ff9da7"><title>consensus_lasso / residual_balance_relative: 2.199e-05</title></rect>
<rect x="473.64" y="379.35" width="36.36" height="80.65" fill="#9c755f"><title>consensus_lasso / spectral_aadmm_xu2017: 6.288e-05</title></rect>
<text x="739.00" y="506" text-anchor="middle" font-size="12" font-family="Arial">graphical lasso</text>
<rect x="528.00" y="382.44" width="36.36" height="77.56" fill="#bab0ac"><title>graphical_lasso / bb_online_penalty_simplified: 5.86e-05</title></rect>
<rect x="566.36" y="360.87" width="36.36" height="99.13" fill="#59a14f"><title>graphical_lasso / fixed_rho_1: 9.583e-05</title></rect>
<rect x="604.73" y="365.41" width="36.36" height="94.59" fill="#b07aa1"><title>graphical_lasso / online_ogd: 8.641e-05</title></rect>
<rect x="643.09" y="415.66" width="36.36" height="44.34" fill="#76b7b2"><title>graphical_lasso / online_ogd_epoch5: 2.748e-05</title></rect>
<rect x="681.45" y="365.41" width="36.36" height="94.59" fill="#4e79a7"><title>graphical_lasso / online_ogd_freeze50: 8.641e-05</title></rect>
<rect x="719.82" y="219.15" width="36.36" height="240.85" fill="#e15759"><title>graphical_lasso / online_ogd_no_dual_rescale: 0.002425</title></rect>
<rect x="758.18" y="360.87" width="36.36" height="99.13" fill="#111827"><title>graphical_lasso / oracle_fixed_grid: 9.583e-05</title></rect>
<rect x="796.55" y="360.87" width="36.36" height="99.13" fill="#edc948"><title>graphical_lasso / residual_balance_normalized: 9.583e-05</title></rect>
<rect x="834.91" y="360.87" width="36.36" height="99.13" fill="#f28e2b"><title>graphical_lasso / residual_balance_raw: 9.583e-05</title></rect>
<rect x="873.27" y="360.87" width="36.36" height="99.13" fill="#ff9da7"><title>graphical_lasso / residual_balance_relative: 9.583e-05</title></rect>
<rect x="911.64" y="379.61" width="36.36" height="80.39" fill="#9c755f"><title>graphical_lasso / spectral_aadmm_xu2017: 6.251e-05</title></rect>
<text x="1177.00" y="506" text-anchor="middle" font-size="12" font-family="Arial">tv denoising</text>
<rect x="966.00" y="379.57" width="36.36" height="80.43" fill="#bab0ac"><title>tv_denoising / bb_online_penalty_simplified: 6.257e-05</title></rect>
<rect x="1004.36" y="416.36" width="36.36" height="43.64" fill="#59a14f"><title>tv_denoising / fixed_rho_1: 2.704e-05</title></rect>
<rect x="1042.73" y="370.80" width="36.36" height="89.20" fill="#b07aa1"><title>tv_denoising / online_ogd: 7.641e-05</title></rect>
<rect x="1081.09" y="390.42" width="36.36" height="69.58" fill="#76b7b2"><title>tv_denoising / online_ogd_epoch5: 4.886e-05</title></rect>
<rect x="1119.45" y="369.19" width="36.36" height="90.81" fill="#4e79a7"><title>tv_denoising / online_ogd_freeze50: 7.928e-05</title></rect>
<rect x="1157.82" y="222.14" width="36.36" height="237.86" fill="#e15759"><title>tv_denoising / online_ogd_no_dual_rescale: 0.002265</title></rect>
<rect x="1196.18" y="361.59" width="36.36" height="98.41" fill="#111827"><title>tv_denoising / oracle_fixed_grid: 9.426e-05</title></rect>
<rect x="1234.55" y="401.46" width="36.36" height="58.54" fill="#edc948"><title>tv_denoising / residual_balance_normalized: 3.799e-05</title></rect>
<rect x="1272.91" y="412.49" width="36.36" height="47.51" fill="#f28e2b"><title>tv_denoising / residual_balance_raw: 2.954e-05</title></rect>
<rect x="1311.27" y="370.72" width="36.36" height="89.28" fill="#ff9da7"><title>tv_denoising / residual_balance_relative: 7.655e-05</title></rect>
<rect x="1349.64" y="364.61" width="36.36" height="95.39" fill="#9c755f"><title>tv_denoising / spectral_aadmm_xu2017: 8.8e-05</title></rect>
<rect x="82" y="520" width="10" height="10" fill="#bab0ac"/>
<text x="97" y="530" font-size="11" font-family="Arial">bb_online_penalty_simplified</text>
<rect x="227" y="520" width="10" height="10" fill="#59a14f"/>
<text x="242" y="530" font-size="11" font-family="Arial">fixed_rho_1</text>
<rect x="372" y="520" width="10" height="10" fill="#b07aa1"/>
<text x="387" y="530" font-size="11" font-family="Arial">online_ogd</text>
<rect x="517" y="520" width="10" height="10" fill="#76b7b2"/>
<text x="532" y="530" font-size="11" font-family="Arial">online_ogd_epoch5</text>
<rect x="662" y="520" width="10" height="10" fill="#4e79a7"/>
<text x="677" y="530" font-size="11" font-family="Arial">online_ogd_freeze50</text>
<rect x="807" y="520" width="10" height="10" fill="#e15759"/>
<text x="822" y="530" font-size="11" font-family="Arial">online_ogd_no_dual_rescale</text>
<rect x="952" y="520" width="10" height="10" fill="#111827"/>
<text x="967" y="530" font-size="11" font-family="Arial">oracle_fixed_grid</text>
<rect x="1097" y="520" width="10" height="10" fill="#edc948"/>
<text x="1112" y="530" font-size="11" font-family="Arial">residual_balance_normalized</text>
<rect x="1242" y="520" width="10" height="10" fill="#f28e2b"/>
<text x="1257" y="530" font-size="11" font-family="Arial">residual_balance_raw</text>
<rect x="1387" y="520" width="10" height="10" fill="#ff9da7"/>
<text x="1402" y="530" font-size="11" font-family="Arial">residual_balance_relative</text>
<rect x="1532" y="520" width="10" height="10" fill="#9c755f"/>
<text x="1547" y="530" font-size="11" font-family="Arial">spectral_aadmm_xu2017</text>
</svg>
