<svg xmlns="http://www.w3.org/2000/svg" width="1420" height="560" viewBox="0 0 1420 560" role="img" aria-label="Consensus Lasso Rho Benchmark Trajectories, Seed 0">
<title>Consensus Lasso Rho Benchmark Trajectories, Seed 0</title>
<rect width="1420" height="560" fill="#ffffff"/>
<text x="78" y="28" font-size="20" font-family="Arial" font-weight="700">Consensus Lasso Rho Benchmark Trajectories, Seed 0</text>
<text x="654.0" y="548" text-anchor="middle" font-size="12" font-family="Arial">ADMM iteration</text>
<text x="18" y="277.0" transform="rotate(-90 18 277.0)" font-size="12" font-family="Arial">rho, log scale</text>
<line x1="78" x2="1230" y1="498.00" y2="498.00" stroke="#e5e7eb"/>
<text x="70" y="502.00" text-anchor="end" font-size="11" font-family="Arial" fill="#4b5563">1e-2</text>
<line x1="78" x2="1230" y1="387.50" y2="387.50" stroke="#e5e7eb"/>
<text x="70" y="391.50" text-anchor="end" font-size="11" font-family="Arial" fill="#4b5563">1e-1</text>
<line x1="78" x2="1230" y1="277.00" y2="277.00" stroke="#e5e7eb"/>
<text x="70" y="281.00" text-anchor="end" font-size="11" font-family="Arial" fill="#4b5563">1e0</text>
<line x1="78" x2="1230" y1="166.50" y2="166.50" stroke="#e5e7eb"/>
<text x="70" y="170.50" text-anchor="end" font-size="11" font-family="Arial" fill="#4b5563">1e1</text>
<line x1="78" x2="1230" y1="56.00" y2="56.00" stroke="#e5e7eb"/>
<text x="70" y="60.00" text-anchor="end" font-size="11" font-family="Arial" fill="#4b5563">1e2</text>
<line x1="78.00" x2="78.00" y1="56" y2="498" stroke="#f3f4f6"/>
<text x="78.00" y="516" text-anchor="middle" font-size="11" font-family="Arial" fill="#4b5563">1</text>
<line x1="366.00" x2="366.00" y1="56" y2="498" stroke="#f3f4f6"/>
<text x="366.00" y="516" text-anchor="middle" font-size="11" font-family="Arial" fill="#4b5563">38</text>
<line x1="654.00" x2="654.00" y1="56" y2="498" stroke="#f3f4f6"/>
<text x="654.00" y="516" text-anchor="middle" font-size="11" font-family="Arial" fill="#4b5563">75</text>
<line x1="942.00" x2="942.00" y1="56" y2="498" stroke="#f3f4f6"/>
<text x="942.00" y="516" text-anchor="middle" font-size="11" font-family="Arial" fill="#4b5563">112</text>
<line x1="1230.00" x2="1230.00" y1="56" y2="498" stroke="#f3f4f6"/>
<text x="1230.00" y="516" text-anchor="middle" font-size="11" font-family="Arial" fill="#4b5563">150</text>
<line x1="78" x2="1230" y1="277.00" y2="277.00" stroke="#111827" stroke-width="2" stroke-dasharray="7 5"/>
<text x="86" y="271.00" font-size="11" font-family="Arial" fill="#111827">oracle fixed rho 1</text>
<polyline points="78.00,277.00 85.73,282.44 93.46,291.83 101.19,297.05 108.93,294.86 116.66,291.40 124.39,280.38 132.12,211.79 139.85,240.52 147.58,298.15 155.32,309.52 163.05,300.85 170.78,283.68 178.51,233.81 186.24,251.23 193.97,281.76 201.70,313.97 209.44,299.23 217.17,274.20 224.90,203.11 232.63,241.63 240.36,344.64 248.09,308.74 255.83,231.52 263.56,246.03 271.29,265.81 279.02,352.37 286.75,310.44 294.48,185.15 302.21,239.68 309.95,383.65 317.68,311.66 325.41,180.09 333.14,245.93 340.87,389.90 348.60,317.92 356.34,180.61 364.07,247.47 371.80,391.44 379.53,319.46 387.26,180.18 394.99,247.59 402.72,391.56 410.46,319.57 418.19,179.90 425.92,247.45 433.65,391.41 441.38,319.43 449.11,179.77 456.85,247.32 464.58,391.29 472.31,319.31 480.04,179.77 487.77,247.27 495.50,391.23 503.23,319.25 510.97,179.84 518.70,247.26 526.43,391.23 534.16,319.24 541.89,179.95 549.62,247.29 557.36,391.26 565.09,319.27 572.82,180.09 580.55,247.34 588.28,391.31 596.01,319.32 603.74,180.23 611.48,247.40 619.21,391.37 626.94,319.38 634.67,180.37 642.40,247.46 650.13,391.43 657.87,319.44 665.60,180.50 673.33,247.52 681.06,391.49 688.79,319.51 696.52,180.62 704.26,247.58 711.99,391.55 719.72,319.57 727.45,180.73 735.18,247.64 742.91,391.61 750.64,319.62 758.38,180.82 766.11,247.69 773.84,391.66 781.57,319.67 789.30,180.91 797.03,247.73 804.77,391.70 812.50,319.72 820.23,180.98 827.96,247.77 835.69,391.74 843.42,319.75 851.15,181.04 858.89,247.80 866.62,391.77 874.35,319.79 882.08,181.10 889.81,247.83 897.54,391.80 905.28,319.82 913.01,181.12 920.74,247.83 928.47,391.80 936.20,319.82 943.93,181.23 951.66,247.89 959.40,391.85 967.13,319.87 974.86,181.33 982.59,247.90 990.32,391.87 998.05,319.89 1005.79,181.38 1013.52,247.95 1021.25,391.92 1028.98,319.94 1036.71,181.49 1044.44,247.97 1052.17,391.94 1059.91,319.95 1067.64,181.50 1075.37,248.01 1083.10,391.98 1090.83,319.99 1098.56,181.61 1106.30,248.02 1114.03,391.99 1121.76,320.01 1129.49,181.60 1137.22,248.06 1144.95,392.02 1152.68,320.04 1160.42,181.70 1168.15,248.07 1175.88,392.04 1183.61,320.05 1191.34,180.82 1199.07,247.72 1206.81,391.69 1214.54,319.70 1222.27,178.93 1230.00,246.74" fill="none" stroke="#bab0ac" stroke-width="2" stroke-linejoin="round" stroke-linecap="round"><title>bb_online_penalty_simplified</title></polyline>
<polyline points="78.00,277.00 85.73,277.00 93.46,277.00 101.19,277.00 108.93,277.00 116.66,277.00 124.39,277.00 132.12,277.00 139.85,277.00 147.58,277.00 155.32,277.00 163.05,277.00 170.78,277.00 178.51,277.00 186.24,277.00 193.97,277.00 201.70,277.00 209.44,277.00 217.17,277.00 224.90,277.00 232.63,277.00 240.36,277.00 248.09,277.00 255.83,277.00 263.56,277.00" fill="none" stroke="#59a14f" stroke-width="2" stroke-linejoin="round" stroke-linecap="round"><title>fixed_rho_1</title></polyline>
<polyline points="78.00,277.00 85.73,277.00 93.46,277.00 101.19,277.00 108.93,277.00 116.66,279.54 124.39,279.54 132.12,279.54 139.85,279.54 147.58,279.54 155.32,277.81 163.05,277.81 170.78,277.81 178.51,277.81 186.24,277.81 193.97,276.11 201.70,276.11 209.44,276.11 217.17,276.11 224.90,276.11 232.63,274.78 240.36,274.78 248.09,274.78 255.83,274.78 263.56,274.78" fill="none" stroke="#76b7b2" stroke-width="2" stroke-linejoin="round" stroke-linecap="round"><title>online_ogd_epoch5</title></polyline>
<polyline points="78.00,277.00 85.73,284.62 93.46,289.87 101.19,293.25 108.93,294.83 116.66,294.78 124.39,293.28 132.12,290.74 139.85,287.74 147.58,284.76 155.32,282.05 163.05,279.68 170.78,277.64 178.51,275.87 186.24,274.31 193.97,272.89 201.70,271.56 209.44,270.27 217.17,268.98 224.90,267.69 232.63,266.36 240.36,265.01 248.09,263.66 255.83,262.32 263.56,261.03" fill="none" stroke="#4e79a7" stroke-width="2" stroke-linejoin="round" stroke-linecap="round"><title>online_ogd_freeze50</title></polyline>
<polyline points="78.00,277.00 85.73,284.62 93.46,289.66 101.19,293.06 108.93,294.80 116.66,295.01 124.39,293.86 132.12,291.59 139.85,288.55 147.58,284.98 155.32,280.86 163.05,276.11 170.78,270.69 178.51,264.61 186.24,257.91 193.97,250.61 201.70,242.68 209.44,234.53 217.17,226.62 224.90,218.91 232.63,211.55 240.36,205.13 248.09,199.71 255.83,195.30 263.56,191.84 271.29,189.31 279.02,187.68 286.75,186.96 294.48,187.32 302.21,189.46 309.95,191.47 317.68,193.24 325.41,194.76 333.14,196.07 340.87,197.18 348.60,198.13 356.34,198.94 364.07,199.64 371.80,200.24 379.53,200.76 387.26,201.22 394.99,201.61 402.72,201.96 410.46,202.27 418.19,202.53 425.92,202.77 433.65,202.98 441.38,203.16 449.11,203.32 456.85,203.46 464.58,203.58 472.31,203.69 480.04,203.79 487.77,203.87 495.50,203.94 503.23,204.01 510.97,204.07 518.70,204.12 526.43,204.16 534.16,204.20 541.89,204.23 549.62,204.28 557.36,204.18 565.09,203.83 572.82,203.08 580.55,201.96 588.28,200.54 596.01,198.86 603.74,196.96 611.48,194.84 619.21,192.52 626.94,190.02 634.67,187.33 642.40,184.47 650.13,181.44 657.87,178.24 665.60,174.86 673.33,171.30 681.06,167.54 688.79,163.76 696.52,160.01 704.26,156.28 711.99,152.57 719.72,148.88 727.45,145.21 735.18,141.57 742.91,137.95 750.64,134.55 758.38,131.49 766.11,128.79 773.84,126.48 781.57,124.56 789.30,123.06 797.03,121.98 804.77,121.36 812.50,121.31 820.23,122.42 827.96,123.58 835.69,124.73 843.42,125.85 851.15,126.93 858.89,127.97 866.62,128.96 874.35,129.91 882.08,130.81 889.81,131.67 897.54,132.49 905.28,133.27 913.01,134.01 920.74,134.71 928.47,135.37 936.20,136.00 943.93,136.60 951.66,137.16 959.40,137.69 967.13,138.19 974.86,138.67 982.59,139.12 990.32,139.54 998.05,139.95 1005.79,140.33 1013.52,140.68 1021.25,141.02 1028.98,141.34 1036.71,141.65 1044.44,141.93 1052.17,142.20 1059.91,142.46 1067.64,142.70 1075.37,142.94 1083.10,143.15 1090.83,143.36 1098.56,143.56 1106.30,143.75 1114.03,143.93 1121.76,144.10 1129.49,144.26 1137.22,144.42 1144.95,144.56 1152.68,144.70 1160.42,144.84 1168.15,144.97 1175.88,145.09 1183.61,145.20 1191.34,145.32 1199.07,145.42 1206.81,145.53 1214.54,145.62 1222.27,145.72 1230.00,145.81" fill="none" stroke="#e15759" stroke-width="2" stroke-linejoin="round" stroke-linecap="round"><title>online_ogd_no_dual_rescale</title></polyline>
<polyline points="78.00,277.00 85.73,284.62 93.46,289.87 101.19,293.25 108.93,294.83 116.66,294.78 124.39,293.28 132.12,290.74 139.85,287.74 147.58,284.76 155.32,282.05 163.05,279.68 170.78,277.64 178.51,275.87 186.24,274.31 193.97,272.89 201.70,271.56 209.44,270.27 217.17,268.98 224.90,267.69 232.63,266.36 240.36,265.01 248.09,263.66 255.83,262.32 263.56,261.03" fill="none" stroke="#b07aa1" stroke-width="2" stroke-linejoin="round" stroke-linecap="round"><title>online_ogd</title></polyline>
<polyline points="78.00,277.00 85.73,277.00 93.46,277.00 101.19,277.00 108.93,277.00 116.66,277.00 124.39,277.00 132.12,277.00 139.85,277.00 147.58,277.00 155.32,277.00 163.05,277.00 170.78,277.00 178.51,277.00 186.24,277.00 193.97,277.00 201.70,277.00 209.44,277.00 217.17,277.00 224.90,277.00 232.63,277.00 240.36,277.00 248.09,277.00 255.83,277.00 263.56,277.00" fill="none" stroke="#111827" stroke-width="2" stroke-linejoin="round" stroke-linecap="round"><title>oracle_fixed_grid</title></polyline>
<polyline points="78.00,277.00 85.73,277.00 93.46,277.00 101.19,277.00 108.93,277.00 116.66,277.00 124.39,277.00 132.12,277.00 139.85,277.00 147.58,277.00 155.32,277.00 163.05,277.00 170.78,277.00 178.51,277.00 186.24,277.00 193.97,277.00 201.70,277.00 209.44,277.00 217.17,277.00 224.90,277.00 232.63,277.00 240.36,277.00 248.09,277.00 255.83,277.00 263.56,277.00" fill="none" stroke="#edc948" stroke-width="2" stroke-linejoin="round" stroke-linecap="round"><title>residual_balance_normalized</title></polyline>
<polyline points="78.00,277.00 85.73,277.00 93.46,277.00 101.19,277.00 108.93,277.00 116.66,277.00 124.39,277.00 132.12,277.00 139.85,277.00 147.58,277.00 155.32,277.00 163.05,277.00 170.78,277.00 178.51,277.00 186.24,277.00 193.97,277.00 201.70,277.00 209.44,277.00 217.17,277.00 224.90,277.00 232.63,277.00 240.36,277.00 248.09,277.00 255.83,277.00 263.56,277.00" fill="none" stroke="#f28e2b" stroke-width="2" stroke-linejoin="round" stroke-linecap="round"><title>residual_balance_raw</title></polyline>
<polyline points="78.00,277.00 85.73,277.00 93.46,277.00 101.19,277.00 108.93,277.00 116.66,277.00 124.39,277.00 132.12,277.00 139.85,277.00 147.58,277.00 155.32,277.00 163.05,277.00 170.78,277.00 178.51,277.00 186.24,277.00 193.97,277.00 201.70,277.00 209.44,277.00 217.17,277.00 224.90,277.00 232.63,277.00 240.36,277.00 248.09,277.00 255.83,277.00 263.56,277.00" fill="none" stroke="#ff9da7" stroke-width="2" stroke-linejoin="round" stroke-linecap="round"><title>residual_balance_relative</title></polyline>
<polyline points="78.00,277.00 85.73,277.00 93.46,298.96 101.19,298.96 108.93,293.89 116.66,293.89 124.39,291.53 132.12,291.53 139.85,271.42 147.58,271.42 155.32,265.96 163.05,265.96 170.78,269.80 178.51,269.80 186.24,289.39 193.97,289.39 201.70,289.37 209.44,289.37 217.17,270.57 224.90,270.57 232.63,267.53 240.36,267.53 248.09,271.43 255.83,271.43 263.56,275.46" fill="none" stroke="#9c755f" stroke-width="2" stroke-linejoin="round" stroke-linecap="round"><title>spectral_aadmm_xu2017</title></polyline>
<line x1="1248" x2="1264" y1="60" y2="60" stroke="#111827" stroke-width="2" stroke-dasharray="7 5"/>
<text x="1270" y="64" font-size="11" font-family="Arial">oracle rho</text>
<line x1="1248" x2="1264" y1="82" y2="82" stroke="#bab0ac" stroke-width="3"/>
<text x="1270" y="86" font-size="11" font-family="Arial">bb_online_penalty_simplified</text>
<line x1="1248" x2="1264" y1="102" y2="102" stroke="#59a14f" stroke-width="3"/>
<text x="1270" y="106" font-size="11" font-family="Arial">fixed_rho_1</text>
<line x1="1248" x2="1264" y1="122" y2="122" stroke="#76b7b2" stroke-width="3"/>
<text x="1270" y="126" font-size="11" font-family="Arial">online_ogd_epoch5</text>
<line x1="1248" x2="1264" y1="142" y2="142" stroke="#4e79a7" stroke-width="3"/>
<text x="1270" y="146" font-size="11" font-family="Arial">online_ogd_freeze50</text>
<line x1="1248" x2="1264" y1="162" y2="162" stroke="#e15759" stroke-width="3"/>
<text x="1270" y="166" font-size="11" font-family="Arial">online_ogd_no_dual_rescale</text>
<line x1="1248" x2="1264" y1="182" y2="182" stroke="#b07aa1" stroke-width="3"/>
<text x="1270" y="186" font-size="11" font-family="Arial">online_ogd</text>
<line x1="1248" x2="1264" y1="202" y2="202" stroke="#111827" stroke-width="3"/>
<text x="1270" y="206" font-size="11" font-family="Arial">oracle_fixed_grid</text>
<line x1="1248" x2="1264" y1="222" y2="222" stroke="#edc948" stroke-width="3"/>
<text x="1270" y="226" font-size="11" font-family="Arial">residual_balance_normalized</text>
<line x1="1248" x2="1264" y1="242" y2="242" stroke="#f28e2b" stroke-width="3"/>
<text x="1270" y="246" font-size="11" font-family="Arial">residual_balance_raw</text>
<line x1="1248" x2="1264" y1="262" y2="262" stroke="#ff9da7" stroke-width="3"/>
<text x="1270" y="266" font-size="11" font-family="Arial">residual_balance_relative</text>
<line x1="1248" x2="1264" y1="282" y2="282" stroke="#9c755f" stroke-width="3"/>
<text x="1270" y="286" font-size="11" font-family="Arial">spectral_aadmm_xu2017</text>
</svg>
