<svg xmlns="http://www.w3.org/2000/svg" width="1420" height="560" viewBox="0 0 1420 560" role="img" aria-label="Tv Denoising Objective Benchmark Trajectories, Seed 0">
<title>Tv Denoising Objective Benchmark Trajectories, Seed 0</title>
<rect width="1420" height="560" fill="#ffffff"/>
<text x="78" y="28" font-size="20" font-family="Arial" font-weight="700">Tv Denoising Objective Benchmark Trajectories, Seed 0</text>
<text x="673.0" y="548" text-anchor="middle" font-size="12" font-family="Arial">ADMM iteration</text>
<text x="18" y="277.0" transform="rotate(-90 18 277.0)" font-size="12" font-family="Arial">objective</text>
<line x1="78" x2="1268" y1="498.00" y2="498.00" stroke="#e5e7eb"/>
<text x="70" y="502.00" text-anchor="end" font-size="11" font-family="Arial" fill="#4b5563">1.5</text>
<line x1="78" x2="1268" y1="387.50" y2="387.50" stroke="#e5e7eb"/>
<text x="70" y="391.50" text-anchor="end" font-size="11" font-family="Arial" fill="#4b5563">2.7</text>
<line x1="78" x2="1268" y1="277.00" y2="277.00" stroke="#e5e7eb"/>
<text x="70" y="281.00" text-anchor="end" font-size="11" font-family="Arial" fill="#4b5563">4</text>
<line x1="78" x2="1268" y1="166.50" y2="166.50" stroke="#e5e7eb"/>
<text x="70" y="170.50" text-anchor="end" font-size="11" font-family="Arial" fill="#4b5563">5.3</text>
<line x1="78" x2="1268" y1="56.00" y2="56.00" stroke="#e5e7eb"/>
<text x="70" y="60.00" text-anchor="end" font-size="11" font-family="Arial" fill="#4b5563">6.6</text>
<line x1="78.00" x2="78.00" y1="56" y2="498" stroke="#f3f4f6"/>
<text x="78.00" y="516" text-anchor="middle" font-size="11" font-family="Arial" fill="#4b5563">1</text>
<line x1="375.50" x2="375.50" y1="56" y2="498" stroke="#f3f4f6"/>
<text x="375.50" y="516" text-anchor="middle" font-size="11" font-family="Arial" fill="#4b5563">38</text>
<line x1="673.00" x2="673.00" y1="56" y2="498" stroke="#f3f4f6"/>
<text x="673.00" y="516" text-anchor="middle" font-size="11" font-family="Arial" fill="#4b5563">75</text>
<line x1="970.50" x2="970.50" y1="56" y2="498" stroke="#f3f4f6"/>
<text x="970.50" y="516" text-anchor="middle" font-size="11" font-family="Arial" fill="#4b5563">112</text>
<line x1="1268.00" x2="1268.00" y1="56" y2="498" stroke="#f3f4f6"/>
<text x="1268.00" y="516" text-anchor="middle" font-size="11" font-family="Arial" fill="#4b5563">150</text>
<polyline points="78.00,491.30 85.99,317.82 93.97,371.10 101.96,391.90 109.95,393.77 117.93,390.43 125.92,384.46 133.91,378.35 141.89,371.91 149.88,366.97 157.87,363.43 165.85,362.07 173.84,361.51 181.83,361.12 189.81,360.68 197.80,360.07 205.79,359.41 213.77,358.93 221.76,358.53 229.74,358.24 237.73,358.07 245.72,357.98 253.70,357.93 261.69,357.91 269.68,357.89 277.66,357.89 285.65,357.88 293.64,357.85 301.62,357.82 309.61,357.78 317.60,357.77 325.58,357.77 333.57,357.77 341.56,357.78 349.54,357.78 357.53,357.77 365.52,357.76 373.50,357.74 381.49,357.73 389.48,357.73 397.46,357.73 405.45,357.74 413.44,357.74 421.42,357.75 429.41,357.75 437.40,357.75 445.38,357.75 453.37,357.75 461.36,357.75 469.34,357.75 477.33,357.75 485.32,357.75 493.30,357.75 501.29,357.75" fill="none" stroke="#bab0ac" stroke-width="2" stroke-linejoin="round" stroke-linecap="round"><title>bb_online_penalty_simplified</title></polyline>
<polyline points="78.00,491.30 85.99,328.56 93.97,373.03 101.96,391.29 109.95,393.27 117.93,391.67 125.92,388.90 133.91,384.87 141.89,380.70 149.88,377.15 157.87,373.49 165.85,370.54 173.84,368.30 181.83,366.53 189.81,364.64 197.80,363.19 205.79,362.21 213.77,361.50 221.76,360.99 229.74,360.56 237.73,360.22 245.72,359.78 253.70,359.24 261.69,358.84 269.68,358.54 277.66,358.34 285.65,358.21 293.64,358.13 301.62,358.07 309.61,358.03 317.60,358.00 325.58,357.97 333.57,357.95 341.56,357.93 349.54,357.91 357.53,357.89 365.52,357.88 373.50,357.87 381.49,357.86 389.48,357.85 397.46,357.84 405.45,357.83 413.44,357.83 421.42,357.82 429.41,357.81 437.40,357.81 445.38,357.80 453.37,357.80 461.36,357.80 469.34,357.79 477.33,357.79 485.32,357.79 493.30,357.78 501.29,357.78 509.28,357.78 517.26,357.77 525.25,357.77 533.23,357.77 541.22,357.77 549.21,357.77 557.19,357.77 565.18,357.76 573.17,357.76 581.15,357.76 589.14,357.76 597.13,357.76 605.11,357.76 613.10,357.76 621.09,357.76 629.07,357.76 637.06,357.76 645.05,357.76 653.03,357.75 661.02,357.75 669.01,357.75 676.99,357.75 684.98,357.75 692.97,357.75 700.95,357.75 708.94,357.75 716.93,357.75 724.91,357.75 732.90,357.75 740.89,357.75 748.87,357.75 756.86,357.75 764.85,357.75 772.83,357.75 780.82,357.75 788.81,357.75 796.79,357.75" fill="none" stroke="#59a14f" stroke-width="2" stroke-linejoin="round" stroke-linecap="round"><title>fixed_rho_1</title></polyline>
<polyline points="78.00,491.30 85.99,328.56 93.97,373.03 101.96,391.29 109.95,393.27 117.93,391.58 125.92,388.55 133.91,384.14 141.89,379.97 149.88,376.20 157.87,372.30 165.85,369.39 173.84,367.21 181.83,364.97 189.81,363.24 197.80,362.14 205.79,361.37 213.77,360.79 221.76,360.31 229.74,359.89 237.73,359.30 245.72,358.82 253.70,358.50 261.69,358.26 269.68,358.13 277.66,358.03 285.65,357.99 293.64,357.96 301.62,357.94 309.61,357.93 317.60,357.91 325.58,357.89 333.57,357.87 341.56,357.86 349.54,357.85 357.53,357.84 365.52,357.83 373.50,357.82 381.49,357.81 389.48,357.81 397.46,357.80 405.45,357.80 413.44,357.79 421.42,357.79 429.41,357.78 437.40,357.78 445.38,357.78 453.37,357.77 461.36,357.77 469.34,357.77 477.33,357.77 485.32,357.76 493.30,357.76 501.29,357.76 509.28,357.76 517.26,357.76 525.25,357.76 533.23,357.76 541.22,357.75 549.21,357.75 557.19,357.75 565.18,357.75 573.17,357.75 581.15,357.75 589.14,357.75 597.13,357.75 605.11,357.75 613.10,357.75 621.09,357.75 629.07,357.75 637.06,357.75" fill="none" stroke="#76b7b2" stroke-width="2" stroke-linejoin="round" stroke-linecap="round"><title>online_ogd_epoch5</title></polyline>
<polyline points="78.00,491.30 85.99,313.15 93.97,366.71 101.96,390.25 109.95,395.13 117.93,393.79 125.92,391.06 133.91,387.84 141.89,383.16 149.88,379.06 157.87,374.76 165.85,370.94 173.84,367.92 181.83,365.11 189.81,363.06 197.80,361.81 205.79,360.95 213.77,360.26 221.76,359.67 229.74,358.99 237.73,358.53 245.72,358.24 253.70,358.04 261.69,357.94 269.68,357.91 277.66,357.89 285.65,357.88 293.64,357.88 301.62,357.87 309.61,357.86 317.60,357.85 325.58,357.84 333.57,357.83 341.56,357.82 349.54,357.81 357.53,357.81 365.52,357.80 373.50,357.79 381.49,357.79 389.48,357.78 397.46,357.78 405.45,357.77 413.44,357.77 421.42,357.76 429.41,357.76 437.40,357.76 445.38,357.76 453.37,357.76 461.36,357.76 469.34,357.75 477.33,357.75 485.32,357.75 493.30,357.75 501.29,357.75 509.28,357.75 517.26,357.75 525.25,357.75 533.23,357.75 541.22,357.75 549.21,357.75" fill="none" stroke="#4e79a7" stroke-width="2" stroke-linejoin="round" stroke-linecap="round"><title>online_ogd_freeze50</title></polyline>
<polyline points="78.00,491.30 85.99,365.79 93.97,391.41 101.96,397.34 109.95,387.96 117.93,381.56 125.92,376.93 133.91,370.68 141.89,364.33 149.88,359.42 157.87,356.32 165.85,354.44 173.84,351.97 181.83,350.54 189.81,349.58 197.80,348.53 205.79,347.51 213.77,346.52 221.76,345.33 229.74,344.03 237.73,342.44 245.72,340.72 253.70,339.07 261.69,337.55 269.68,336.12 277.66,335.05 285.65,334.33 293.64,333.77 301.62,333.27 309.61,333.11 317.60,333.45 325.58,334.09 333.57,335.27 341.56,337.49 349.54,340.96 357.53,345.19 365.52,349.59 373.50,354.17 381.49,358.75 389.48,363.05 397.46,366.01 405.45,367.75 413.44,368.28 421.42,367.55 429.41,365.22 437.40,363.27 445.38,362.65 453.37,362.66 461.36,362.42 469.34,361.71 477.33,360.98 485.32,360.52 493.30,360.15 501.29,359.77 509.28,359.48 517.26,359.20 525.25,359.01 533.23,358.77 541.22,358.75 549.21,358.14 557.19,359.33 565.18,359.53 573.17,359.62 581.15,359.18 589.14,357.55 597.13,358.49 605.11,358.44 613.10,357.93 621.09,359.30 629.07,359.91 637.06,360.45 645.05,360.62 653.03,360.09 661.02,358.36 669.01,358.95 676.99,359.31 684.98,358.04 692.97,359.08 700.95,358.56 708.94,357.87 716.93,359.06 724.91,359.22 732.90,359.26 740.89,358.74 748.87,357.96 756.86,358.98 764.85,358.43 772.83,357.89 780.82,359.09 788.81,359.34 796.79,359.45 804.78,359.06 812.77,357.44 820.75,358.13 828.74,358.89 836.72,358.99 844.71,358.97 852.70,358.29 860.68,358.43 868.67,358.04 876.66,359.11 884.64,359.29 892.63,359.27 900.62,358.48 908.60,358.47 916.59,358.69 924.58,356.98 932.56,357.62 940.55,358.49 948.54,359.10 956.52,359.83 964.51,360.31 972.50,360.34 980.48,359.55 988.47,358.60 996.46,359.07 1004.44,358.62 1012.43,358.90 1020.42,357.77 1028.40,358.64 1036.39,358.10 1044.38,358.44 1052.36,357.79 1060.35,358.51 1068.34,358.52 1076.32,358.27 1084.31,357.05 1092.30,357.60 1100.28,358.12 1108.27,358.63 1116.26,359.35 1124.24,359.91 1132.23,360.09 1140.21,359.63 1148.20,358.10 1156.19,358.47 1164.17,359.11 1172.16,358.38 1180.15,358.45 1188.13,357.91 1196.12,358.91 1204.11,358.96 1212.09,358.72 1220.08,357.06 1228.07,357.43 1236.05,358.59 1244.04,359.09 1252.03,359.65 1260.01,359.93 1268.00,359.67" fill="none" stroke="#e15759" stroke-width="2" stroke-linejoin="round" stroke-linecap="round"><title>online_ogd_no_dual_rescale</title></polyline>
<polyline points="78.00,491.30 85.99,313.15 93.97,366.71 101.96,390.25 109.95,395.13 117.93,393.79 125.92,391.06 133.91,387.84 141.89,383.16 149.88,379.06 157.87,374.76 165.85,370.94 173.84,367.92 181.83,365.11 189.81,363.06 197.80,361.81 205.79,360.95 213.77,360.26 221.76,359.67 229.74,358.99 237.73,358.53 245.72,358.24 253.70,358.04 261.69,357.94 269.68,357.91 277.66,357.89 285.65,357.88 293.64,357.88 301.62,357.87 309.61,357.86 317.60,357.85 325.58,357.84 333.57,357.83 341.56,357.82 349.54,357.81 357.53,357.81 365.52,357.80 373.50,357.79 381.49,357.79 389.48,357.78 397.46,357.78 405.45,357.77 413.44,357.77 421.42,357.76 429.41,357.76 437.40,357.76 445.38,357.76 453.37,357.76 461.36,357.76 469.34,357.75 477.33,357.75 485.32,357.75 493.30,357.75 501.29,357.75 509.28,357.75 517.26,357.75 525.25,357.75 533.23,357.75 541.22,357.75 549.21,357.75" fill="none" stroke="#b07aa1" stroke-width="2" stroke-linejoin="round" stroke-linecap="round"><title>online_ogd</title></polyline>
<polyline points="78.00,83.11 85.99,193.64 93.97,293.13 101.96,338.66 109.95,356.05 117.93,363.42 125.92,366.31 133.91,364.60 141.89,362.87 149.88,360.93 157.87,359.92 165.85,358.77 173.84,357.83 181.83,357.25 189.81,357.14 197.80,357.17 205.79,357.27 213.77,357.39 221.76,357.48 229.74,357.54 237.73,357.58 245.72,357.64 253.70,357.68 261.69,357.72 269.68,357.75 277.66,357.77 285.65,357.78 293.64,357.78 301.62,357.77 309.61,357.76 317.60,357.76 325.58,357.75 333.57,357.75 341.56,357.74 349.54,357.74 357.53,357.74 365.52,357.74 373.50,357.74 381.49,357.75 389.48,357.75 397.46,357.75 405.45,357.75 413.44,357.75 421.42,357.75 429.41,357.75 437.40,357.75 445.38,357.75 453.37,357.75 461.36,357.75 469.34,357.75 477.33,357.75 485.32,357.75 493.30,357.75 501.29,357.75 509.28,357.75 517.26,357.75 525.25,357.75 533.23,357.75 541.22,357.75 549.21,357.75" fill="none" stroke="#111827" stroke-width="2" stroke-linejoin="round" stroke-linecap="round"><title>oracle_fixed_grid</title></polyline>
<polyline points="78.00,491.30 85.99,328.56 93.97,373.03 101.96,391.29 109.95,393.27 117.93,391.67 125.92,388.90 133.91,384.87 141.89,380.70 149.88,377.15 157.87,373.49 165.85,370.54 173.84,368.30 181.83,366.53 189.81,364.64 197.80,363.19 205.79,362.21 213.77,361.50 221.76,360.99 229.74,360.56 237.73,360.22 245.72,359.78 253.70,359.24 261.69,358.84 269.68,358.54 277.66,358.34 285.65,358.21 293.64,358.13 301.62,358.07 309.61,358.03 317.60,358.00 325.58,357.97 333.57,357.95 341.56,357.93 349.54,357.91 357.53,357.89 365.52,357.88 373.50,357.87 381.49,357.86 389.48,357.85 397.46,357.84 405.45,357.83 413.44,357.83 421.42,357.82 429.41,357.81 437.40,357.81 445.38,357.80 453.37,357.80 461.36,357.80 469.34,357.79 477.33,357.79 485.32,357.79 493.30,357.78 501.29,357.78 509.28,357.78 517.26,357.77 525.25,357.77 533.23,357.77 541.22,357.77 549.21,357.77 557.19,357.77 565.18,357.76 573.17,357.76 581.15,357.76 589.14,357.76 597.13,357.76 605.11,357.76 613.10,357.76 621.09,357.76 629.07,357.76 637.06,357.76 645.05,357.76 653.03,357.75 661.02,357.75 669.01,357.75 676.99,357.75 684.98,357.75 692.97,357.75 700.95,357.75 708.94,357.75 716.93,357.75 724.91,357.75 732.90,357.75 740.89,357.75 748.87,357.75 756.86,357.75 764.85,357.75 772.83,357.75 780.82,357.75 788.81,357.75 796.79,357.75" fill="none" stroke="#edc948" stroke-width="2" stroke-linejoin="round" stroke-linecap="round"><title>residual_balance_normalized</title></polyline>
<polyline points="78.00,491.30 85.99,328.56 93.97,373.03 101.96,391.29 109.95,393.27 117.93,391.67 125.92,388.90 133.91,384.87 141.89,380.70 149.88,377.15 157.87,373.49 165.85,370.54 173.84,368.30 181.83,366.53 189.81,364.64 197.80,363.19 205.79,362.21 213.77,361.50 221.76,360.99 229.74,360.56 237.73,360.22 245.72,359.78 253.70,359.24 261.69,358.84 269.68,358.54 277.66,358.34 285.65,358.21 293.64,358.13 301.62,358.07 309.61,358.03 317.60,358.00 325.58,357.97 333.57,357.95 341.56,357.93 349.54,357.91 357.53,357.89 365.52,357.88 373.50,357.87 381.49,357.86 389.48,357.85 397.46,357.84 405.45,357.83 413.44,357.83 421.42,357.82 429.41,357.81 437.40,357.81 445.38,357.80 453.37,357.80 461.36,357.80 469.34,357.79 477.33,357.79 485.32,357.79 493.30,357.78 501.29,357.78 509.28,357.78 517.26,357.77 525.25,357.77 533.23,357.77 541.22,357.77 549.21,357.77 557.19,357.77 565.18,357.76 573.17,357.76 581.15,357.76 589.14,357.76 597.13,357.76 605.11,357.76 613.10,357.76 621.09,357.76 629.07,357.76 637.06,357.76 645.05,357.76 653.03,357.75 661.02,357.75 669.01,357.75 676.99,357.75 684.98,357.75 692.97,357.75 700.95,357.75 708.94,357.75 716.93,357.75 724.91,357.75 732.90,357.75 740.89,357.75 748.87,357.75 756.86,357.75 764.85,357.75 772.83,357.75 780.82,357.75 788.81,357.75 796.79,357.75" fill="none" stroke="#f28e2b" stroke-width="2" stroke-linejoin="round" stroke-linecap="round"><title>residual_balance_raw</title></polyline>
<polyline points="78.00,491.30 85.99,328.56 93.97,373.03 101.96,391.29 109.95,392.34 117.93,387.67 125.92,380.90 133.91,373.52 141.89,367.96 149.88,363.93 157.87,361.10 165.85,359.36 173.84,358.17 181.83,357.66 189.81,357.46 197.80,357.40 205.79,357.45 213.77,357.48 221.76,357.57 229.74,357.65 237.73,357.72 245.72,357.77 253.70,357.79 261.69,357.80 269.68,357.80 277.66,357.79 285.65,357.78 293.64,357.78 301.62,357.77 309.61,357.76 317.60,357.76 325.58,357.75 333.57,357.75 341.56,357.75 349.54,357.75 357.53,357.75 365.52,357.75 373.50,357.75 381.49,357.75 389.48,357.75 397.46,357.75 405.45,357.75 413.44,357.75 421.42,357.75 429.41,357.75 437.40,357.75 445.38,357.75 453.37,357.75" fill="none" stroke="#ff9da7" stroke-width="2" stroke-linejoin="round" stroke-linecap="round"><title>residual_balance_relative</title></polyline>
<polyline points="78.00,491.30 85.99,328.56 93.97,336.95 101.96,372.89 109.95,391.30 117.93,396.12 125.92,393.26 133.91,387.57 141.89,367.83 149.88,355.79 157.87,353.42 165.85,353.04 173.84,353.53 181.83,353.99 189.81,354.26 197.80,354.48 205.79,354.56 213.77,354.62 221.76,354.67 229.74,354.72 237.73,354.76 245.72,354.81 253.70,354.85 261.69,354.88 269.68,354.92 277.66,354.95 285.65,354.99 293.64,355.03 301.62,355.21 309.61,355.37 317.60,355.67 325.58,355.83 333.57,355.97 341.56,356.26 349.54,356.51 357.53,356.86 365.52,357.10 373.50,357.29 381.49,357.31 389.48,357.03 397.46,356.57 405.45,356.53 413.44,356.89 421.42,357.25 429.41,357.45 437.40,357.61 445.38,357.68 453.37,357.74 461.36,357.77 469.34,357.79 477.33,357.80 485.32,357.79 493.30,357.78 501.29,357.77 509.28,357.75 517.26,357.75 525.25,357.74 533.23,357.73 541.22,357.73 549.21,357.73 557.19,357.74 565.18,357.74 573.17,357.74 581.15,357.74 589.14,357.75 597.13,357.75 605.11,357.74 613.10,357.74 621.09,357.74 629.07,357.74 637.06,357.74 645.05,357.74 653.03,357.75 661.02,357.75 669.01,357.75 676.99,357.74 684.98,357.74 692.97,357.74 700.95,357.73 708.94,357.73 716.93,357.73 724.91,357.73 732.90,357.73 740.89,357.74 748.87,357.74 756.86,357.74 764.85,357.74 772.83,357.75 780.82,357.75 788.81,357.75 796.79,357.75 804.78,357.75 812.77,357.75 820.75,357.75 828.74,357.75 836.72,357.75 844.71,357.75 852.70,357.75 860.68,357.75 868.67,357.75 876.66,357.75 884.64,357.75 892.63,357.75 900.62,357.75 908.60,357.75 916.59,357.75 924.58,357.75 932.56,357.75 940.55,357.75 948.54,357.75 956.52,357.75 964.51,357.75 972.50,357.75 980.48,357.75 988.47,357.75 996.46,357.75 1004.44,357.75 1012.43,357.75 1020.42,357.75 1028.40,357.75 1036.39,357.75 1044.38,357.75 1052.36,357.75 1060.35,357.75 1068.34,357.75 1076.32,357.75" fill="none" stroke="#9c755f" stroke-width="2" stroke-linejoin="round" stroke-linecap="round"><title>spectral_aadmm_xu2017</title></polyline>
<line x1="1286" x2="1302" y1="60" y2="60" stroke="#bab0ac" stroke-width="3"/>
<text x="1308" y="64" font-size="11" font-family="Arial">bb_online_penalty_simplified</text>
<line x1="1286" x2="1302" y1="80" y2="80" stroke="#59a14f" stroke-width="3"/>
<text x="1308" y="84" font-size="11" font-family="Arial">fixed_rho_1</text>
<line x1="1286" x2="1302" y1="100" y2="100" stroke="#76b7b2" stroke-width="3"/>
<text x="1308" y="104" font-size="11" font-family="Arial">online_ogd_epoch5</text>
<line x1="1286" x2="1302" y1="120" y2="120" stroke="#4e79a7" stroke-width="3"/>
<text x="1308" y="124" font-size="11" font-family="Arial">online_ogd_freeze50</text>
<line x1="1286" x2="1302" y1="140" y2="140" stroke="#e15759" stroke-width="3"/>
<text x="1308" y="144" font-size="11" font-family="Arial">online_ogd_no_dual_rescale</text>
<line x1="1286" x2="1302" y1="160" y2="160" stroke="#b07aa1" stroke-width="3"/>
<text x="1308" y="164" font-size="11" font-family="Arial">online_ogd</text>
<line x1="1286" x2="1302" y1="180" y2="180" stroke="#111827" stroke-width="3"/>
<text x="1308" y="184" font-size="11" font-family="Arial">oracle_fixed_grid</text>
<line x1="1286" x2="1302" y1="200" y2="200" stroke="#edc948" stroke-width="3"/>
<text x="1308" y="204" font-size="11" font-family="Arial">residual_balance_normalized</text>
<line x1="1286" x2="1302" y1="220" y2="220" stroke="#f28e2b" stroke-width="3"/>
<text x="1308" y="224" font-size="11" font-family="Arial">residual_balance_raw</text>
<line x1="1286" x2="1302" y1="240" y2="240" stroke="#ff9da7" stroke-width="3"/>
<text x="1308" y="244" font-size="11" font-family="Arial">residual_balance_relative</text>
<line x1="1286" x2="1302" y1="260" y2="260" stroke="#9c755f" stroke-width="3"/>
<text x="1308" y="264" font-size="11" font-family="Arial">spectral_aadmm_xu2017</text>
</svg>
