<svg xmlns="http://www.w3.org/2000/svg" width="1420" height="560" viewBox="0 0 1420 560" role="img" aria-label="Tv Denoising Primal Norm Benchmark Trajectories, Seed 0">
<title>Tv Denoising Primal Norm Benchmark Trajectories, Seed 0</title>
<rect width="1420" height="560" fill="#ffffff"/>
<text x="78" y="28" font-size="20" font-family="Arial" font-weight="700">Tv Denoising Primal Norm Benchmark Trajectories, Seed 0</text>
<text x="673.0" y="548" text-anchor="middle" font-size="12" font-family="Arial">ADMM iteration</text>
<text x="18" y="277.0" transform="rotate(-90 18 277.0)" font-size="12" font-family="Arial">primal residual</text>
<line x1="78" x2="1268" y1="498.00" y2="498.00" stroke="#e5e7eb"/>
<text x="70" y="502.00" text-anchor="end" font-size="11" font-family="Arial" fill="#4b5563">1e-7</text>
<line x1="78" x2="1268" y1="387.50" y2="387.50" stroke="#e5e7eb"/>
<text x="70" y="391.50" text-anchor="end" font-size="11" font-family="Arial" fill="#4b5563">1e-5</text>
<line x1="78" x2="1268" y1="277.00" y2="277.00" stroke="#e5e7eb"/>
<text x="70" y="281.00" text-anchor="end" font-size="11" font-family="Arial" fill="#4b5563">1e-3</text>
<line x1="78" x2="1268" y1="166.50" y2="166.50" stroke="#e5e7eb"/>
<text x="70" y="170.50" text-anchor="end" font-size="11" font-family="Arial" fill="#4b5563">1e-1</text>
<line x1="78" x2="1268" y1="56.00" y2="56.00" stroke="#e5e7eb"/>
<text x="70" y="60.00" text-anchor="end" font-size="11" font-family="Arial" fill="#4b5563">1e1</text>
<line x1="78.00" x2="78.00" y1="56" y2="498" stroke="#f3f4f6"/>
<text x="78.00" y="516" text-anchor="middle" font-size="11" font-family="Arial" fill="#4b5563">1</text>
<line x1="375.50" x2="375.50" y1="56" y2="498" stroke="#f3f4f6"/>
<text x="375.50" y="516" text-anchor="middle" font-size="11" font-family="Arial" fill="#4b5563">38</text>
<line x1="673.00" x2="673.00" y1="56" y2="498" stroke="#f3f4f6"/>
<text x="673.00" y="516" text-anchor="middle" font-size="11" font-family="Arial" fill="#4b5563">75</text>
<line x1="970.50" x2="970.50" y1="56" y2="498" stroke="#f3f4f6"/>
<text x="970.50" y="516" text-anchor="middle" font-size="11" font-family="Arial" fill="#4b5563">112</text>
<line x1="1268.00" x2="1268.00" y1="56" y2="498" stroke="#f3f4f6"/>
<text x="1268.00" y="516" text-anchor="middle" font-size="11" font-family="Arial" fill="#4b5563">150</text>
<polyline points="78.00,87.22 85.99,105.31 93.97,123.78 101.96,138.05 109.95,145.29 117.93,150.28 125.92,155.26 133.91,161.08 141.89,167.68 149.88,172.75 157.87,173.87 165.85,177.76 173.84,184.35 181.83,191.47 189.81,197.00 197.80,200.47 205.79,204.41 213.77,209.59 221.76,215.34 229.74,220.45 237.73,224.69 245.72,228.47 253.70,231.88 261.69,235.03 269.68,238.10 277.66,243.36 285.65,248.11 293.64,252.75 301.62,256.57 309.61,257.54 317.60,259.69 325.58,262.71 333.57,265.93 341.56,274.09 349.54,279.65 357.53,284.96 365.52,290.20 373.50,280.98 381.49,280.08 389.48,283.72 397.46,288.67 405.45,294.07 413.44,300.27 421.42,306.16 429.41,310.37 437.40,313.17 445.38,315.33 453.37,317.42 461.36,319.70 469.34,322.78 477.33,326.09 485.32,329.45 493.30,331.90 501.29,334.04" fill="none" stroke="#bab0ac" stroke-width="2" stroke-linejoin="round" stroke-linecap="round"><title>bb_online_penalty_simplified</title></polyline>
<polyline points="78.00,87.22 85.99,107.87 93.97,125.25 101.96,138.56 109.95,144.88 117.93,149.02 125.92,152.18 133.91,155.43 141.89,159.14 149.88,163.17 157.87,167.07 165.85,170.87 173.84,174.23 181.83,177.31 189.81,180.69 197.80,184.63 205.79,188.50 213.77,191.80 221.76,194.60 229.74,197.17 237.73,199.57 245.72,202.42 253.70,206.49 261.69,211.84 269.68,216.57 277.66,220.33 285.65,223.53 293.64,226.38 301.62,229.03 309.61,231.46 317.60,233.72 325.58,235.85 333.57,237.88 341.56,239.93 349.54,242.00 357.53,244.13 365.52,246.18 373.50,248.17 381.49,250.11 389.48,252.02 397.46,253.90 405.45,255.75 413.44,257.58 421.42,259.40 429.41,261.19 437.40,262.97 445.38,264.74 453.37,266.49 461.36,268.22 469.34,269.95 477.33,271.66 485.32,273.36 493.30,275.04 501.29,276.72 509.28,278.38 517.26,280.03 525.25,281.67 533.23,283.30 541.22,284.92 549.21,286.53 557.19,288.13 565.18,289.73 573.17,291.31 581.15,292.88 589.14,294.45 597.13,296.01 605.11,297.56 613.10,299.11 621.09,300.65 629.07,302.18 637.06,303.71 645.05,305.23 653.03,306.75 661.02,308.26 669.01,309.76 676.99,311.26 684.98,312.76 692.97,314.25 700.95,315.74 708.94,317.22 716.93,318.70 724.91,320.18 732.90,321.65 740.89,323.12 748.87,324.59 756.86,326.05 764.85,327.51 772.83,328.97 780.82,330.43 788.81,331.88 796.79,333.33" fill="none" stroke="#59a14f" stroke-width="2" stroke-linejoin="round" stroke-linecap="round"><title>fixed_rho_1</title></polyline>
<polyline points="78.00,87.22 85.99,107.87 93.97,125.25 101.96,138.56 109.95,144.88 117.93,149.13 125.92,152.44 133.91,155.96 141.89,159.96 149.88,164.15 157.87,168.28 165.85,172.46 173.84,175.95 181.83,179.57 189.81,183.87 197.80,188.28 205.79,192.08 213.77,195.30 221.76,198.21 229.74,201.19 237.73,205.36 245.72,211.10 253.70,216.65 261.69,221.08 269.68,224.82 277.66,228.25 285.65,231.34 293.64,234.10 301.62,236.64 309.61,239.04 317.60,241.53 325.58,244.08 333.57,246.60 341.56,249.06 349.54,251.45 357.53,253.85 365.52,256.20 373.50,258.53 381.49,260.84 389.48,263.12 397.46,265.43 405.45,267.73 413.44,270.00 421.42,272.27 429.41,274.51 437.40,276.78 445.38,279.04 453.37,281.28 461.36,283.51 469.34,285.73 477.33,287.97 485.32,290.20 493.30,292.42 501.29,294.63 509.28,296.83 517.26,299.05 525.25,301.27 533.23,303.48 541.22,305.68 549.21,307.88 557.19,310.10 565.18,312.31 573.17,314.52 581.15,316.73 589.14,318.94 597.13,321.17 605.11,323.39 613.10,325.62 621.09,327.84 629.07,330.07 637.06,332.31" fill="none" stroke="#76b7b2" stroke-width="2" stroke-linejoin="round" stroke-linecap="round"><title>online_ogd_epoch5</title></polyline>
<polyline points="78.00,87.22 85.99,104.30 93.97,121.37 101.96,135.24 109.95,142.61 117.93,146.97 125.92,150.38 133.91,153.37 141.89,156.88 149.88,161.14 157.87,165.72 165.85,170.34 173.84,174.71 181.83,179.14 189.81,184.01 197.80,189.11 205.79,193.63 213.77,197.48 221.76,201.39 229.74,206.34 237.73,212.55 245.72,218.53 253.70,223.73 261.69,228.27 269.68,232.25 277.66,235.74 285.65,238.91 293.64,241.91 301.62,244.76 309.61,247.55 317.60,250.31 325.58,253.07 333.57,255.83 341.56,258.60 349.54,261.40 357.53,264.23 365.52,267.09 373.50,269.97 381.49,272.88 389.48,275.81 397.46,278.75 405.45,281.70 413.44,284.66 421.42,287.63 429.41,290.59 437.40,293.56 445.38,296.54 453.37,299.51 461.36,302.48 469.34,305.45 477.33,308.42 485.32,311.39 493.30,314.34 501.29,317.29 509.28,320.23 517.26,323.15 525.25,326.07 533.23,328.97 541.22,331.87 549.21,334.75" fill="none" stroke="#4e79a7" stroke-width="2" stroke-linejoin="round" stroke-linecap="round"><title>online_ogd_freeze50</title></polyline>
<polyline points="78.00,87.22 85.99,110.41 93.97,125.48 101.96,135.29 109.95,140.85 117.93,145.50 125.92,149.22 133.91,152.46 141.89,156.18 149.88,161.42 157.87,166.33 165.85,170.37 173.84,172.62 181.83,175.48 189.81,178.05 197.80,180.05 205.79,181.03 213.77,181.26 221.76,180.56 229.74,179.19 237.73,177.14 245.72,174.94 253.70,172.97 261.69,171.29 269.68,169.81 277.66,168.78 285.65,168.13 293.64,167.63 301.62,167.20 309.61,167.08 317.60,167.43 325.58,168.07 333.57,169.28 341.56,171.67 349.54,175.92 357.53,182.39 365.52,191.60 373.50,206.00 381.49,211.97 389.48,199.52 397.46,191.25 405.45,187.35 413.44,186.08 421.42,187.44 429.41,192.24 437.40,199.05 445.38,204.02 453.37,204.51 461.36,205.88 469.34,210.00 477.33,214.79 485.32,218.47 493.30,221.85 501.29,225.90 509.28,229.56 517.26,233.61 525.25,237.00 533.23,241.81 541.22,242.40 549.21,254.11 557.19,228.24 565.18,228.82 573.17,228.21 581.15,233.37 589.14,232.43 597.13,242.66 605.11,250.10 613.10,265.32 621.09,227.46 629.07,223.35 637.06,218.95 645.05,217.84 653.03,221.83 661.02,228.35 669.01,236.75 676.99,231.10 684.98,244.63 692.97,232.32 700.95,247.40 708.94,254.30 716.93,231.35 724.91,233.25 732.90,233.28 740.89,240.42 748.87,246.97 756.86,233.98 764.85,250.83 772.83,258.48 780.82,230.96 788.81,231.34 796.79,230.36 804.78,235.45 812.77,232.15 820.75,252.57 828.74,234.41 836.72,237.37 844.71,238.42 852.70,247.08 860.68,252.20 868.67,263.43 876.66,231.46 884.64,232.24 892.63,233.20 900.62,241.56 908.60,249.89 916.59,244.22 924.58,232.01 932.56,255.78 940.55,237.74 948.54,232.51 956.52,224.25 964.51,220.17 972.50,220.19 980.48,226.28 988.47,235.16 996.46,235.31 1004.44,245.41 1012.43,238.90 1020.42,246.61 1028.40,240.06 1036.39,262.02 1044.38,249.99 1052.36,259.66 1060.35,244.39 1068.34,249.12 1076.32,256.64 1084.31,236.43 1092.30,260.86 1100.28,250.49 1108.27,241.57 1116.26,229.76 1124.24,224.02 1132.23,222.63 1140.21,226.84 1148.20,231.80 1156.19,247.19 1164.17,232.80 1172.16,249.79 1180.15,251.43 1188.13,261.48 1196.12,234.48 1204.11,238.10 1212.09,243.23 1220.08,230.57 1228.07,258.03 1236.05,234.11 1244.04,233.04 1252.03,226.65 1260.01,224.24 1268.00,226.97" fill="none" stroke="#e15759" stroke-width="2" stroke-linejoin="round" stroke-linecap="round"><title>online_ogd_no_dual_rescale</title></polyline>
<polyline points="78.00,87.22 85.99,104.30 93.97,121.37 101.96,135.24 109.95,142.61 117.93,146.97 125.92,150.38 133.91,153.37 141.89,156.88 149.88,161.14 157.87,165.72 165.85,170.34 173.84,174.71 181.83,179.14 189.81,184.01 197.80,189.11 205.79,193.63 213.77,197.48 221.76,201.39 229.74,206.34 237.73,212.55 245.72,218.53 253.70,223.73 261.69,228.27 269.68,232.25 277.66,235.74 285.65,238.91 293.64,241.91 301.62,244.76 309.61,247.55 317.60,250.31 325.58,253.07 333.57,255.83 341.56,258.60 349.54,261.40 357.53,264.23 365.52,267.09 373.50,269.97 381.49,272.88 389.48,275.81 397.46,278.75 405.45,281.70 413.44,284.66 421.42,287.63 429.41,290.59 437.40,293.56 445.38,296.54 453.37,299.51 461.36,302.48 469.34,305.45 477.33,308.42 485.32,311.40 493.30,314.37 501.29,317.34 509.28,320.32 517.26,323.29 525.25,326.27 533.23,329.24 541.22,332.21 549.21,335.19" fill="none" stroke="#b07aa1" stroke-width="2" stroke-linejoin="round" stroke-linecap="round"><title>online_ogd</title></polyline>
<polyline points="78.00,105.25 85.99,130.32 93.97,137.05 101.96,140.26 109.95,146.10 117.93,153.25 125.92,161.43 133.91,165.64 141.89,171.67 149.88,175.77 157.87,182.96 165.85,189.99 173.84,198.43 181.83,207.64 189.81,215.10 197.80,218.33 205.79,220.10 213.77,223.11 221.76,228.08 229.74,234.79 237.73,242.67 245.72,251.42 253.70,257.84 261.69,261.79 269.68,264.73 277.66,267.97 285.65,272.16 293.64,277.33 301.62,283.12 309.61,288.97 317.60,294.29 325.58,298.90 333.57,303.25 341.56,308.00 349.54,313.36 357.53,319.35 365.52,325.52 373.50,331.09 381.49,335.43 389.48,338.79 397.46,341.99 405.45,345.70 413.44,350.23 421.42,355.53 429.41,361.24 437.40,366.69 445.38,371.20 453.37,374.68 461.36,377.66 469.34,380.78 477.33,384.38 485.32,388.50 493.30,392.93 501.29,397.32 509.28,401.31 517.26,404.77 525.25,407.85 533.23,410.81 541.22,413.88 549.21,417.13" fill="none" stroke="#111827" stroke-width="2" stroke-linejoin="round" stroke-linecap="round"><title>oracle_fixed_grid</title></polyline>
<polyline points="78.00,87.22 85.99,107.87 93.97,125.25 101.96,138.56 109.95,144.88 117.93,149.02 125.92,152.18 133.91,155.43 141.89,159.14 149.88,163.17 157.87,167.07 165.85,170.87 173.84,174.23 181.83,177.31 189.81,180.69 197.80,184.63 205.79,188.50 213.77,191.80 221.76,194.60 229.74,197.17 237.73,199.57 245.72,202.42 253.70,206.49 261.69,211.84 269.68,216.57 277.66,220.33 285.65,223.53 293.64,226.38 301.62,229.03 309.61,231.46 317.60,233.72 325.58,235.85 333.57,237.88 341.56,239.93 349.54,242.00 357.53,244.13 365.52,246.18 373.50,248.17 381.49,250.11 389.48,252.02 397.46,253.90 405.45,255.75 413.44,257.58 421.42,259.40 429.41,261.19 437.40,262.97 445.38,264.74 453.37,266.49 461.36,268.22 469.34,269.95 477.33,271.66 485.32,273.36 493.30,275.04 501.29,276.72 509.28,278.38 517.26,280.03 525.25,281.67 533.23,283.30 541.22,284.92 549.21,286.53 557.19,288.13 565.18,289.73 573.17,291.31 581.15,292.88 589.14,294.45 597.13,296.01 605.11,297.56 613.10,299.11 621.09,300.65 629.07,302.18 637.06,303.71 645.05,305.23 653.03,306.75 661.02,308.26 669.01,309.76 676.99,311.26 684.98,312.76 692.97,314.25 700.95,315.74 708.94,317.22 716.93,318.70 724.91,320.18 732.90,321.65 740.89,323.12 748.87,324.59 756.86,326.05 764.85,327.51 772.83,328.97 780.82,330.43 788.81,331.88 796.79,333.33" fill="none" stroke="#edc948" stroke-width="2" stroke-linejoin="round" stroke-linecap="round"><title>residual_balance_normalized</title></polyline>
<polyline points="78.00,87.22 85.99,107.87 93.97,125.25 101.96,138.56 109.95,144.88 117.93,149.02 125.92,152.18 133.91,155.43 141.89,159.14 149.88,163.17 157.87,167.07 165.85,170.87 173.84,174.23 181.83,177.31 189.81,180.69 197.80,184.63 205.79,188.50 213.77,191.80 221.76,194.60 229.74,197.17 237.73,199.57 245.72,202.42 253.70,206.49 261.69,211.84 269.68,216.57 277.66,220.33 285.65,223.53 293.64,226.38 301.62,229.03 309.61,231.46 317.60,233.72 325.58,235.85 333.57,237.88 341.56,239.93 349.54,242.00 357.53,244.13 365.52,246.18 373.50,248.17 381.49,250.11 389.48,252.02 397.46,253.90 405.45,255.75 413.44,257.58 421.42,259.40 429.41,261.19 437.40,262.97 445.38,264.74 453.37,266.49 461.36,268.22 469.34,269.95 477.33,271.66 485.32,273.36 493.30,275.04 501.29,276.72 509.28,278.38 517.26,280.03 525.25,281.67 533.23,283.30 541.22,284.92 549.21,286.53 557.19,288.13 565.18,289.73 573.17,291.31 581.15,292.88 589.14,294.45 597.13,296.01 605.11,297.56 613.10,299.11 621.09,300.65 629.07,302.18 637.06,303.71 645.05,305.23 653.03,306.75 661.02,308.26 669.01,309.76 676.99,311.26 684.98,312.76 692.97,314.25 700.95,315.74 708.94,317.22 716.93,318.70 724.91,320.18 732.90,321.65 740.89,323.12 748.87,324.59 756.86,326.05 764.85,327.51 772.83,328.97 780.82,330.43 788.81,331.88 796.79,333.33" fill="none" stroke="#f28e2b" stroke-width="2" stroke-linejoin="round" stroke-linecap="round"><title>residual_balance_raw</title></polyline>
<polyline points="78.00,87.22 85.99,107.87 93.97,125.25 101.96,138.56 109.95,146.83 117.93,152.34 125.92,158.02 133.91,165.32 141.89,172.69 149.88,179.58 157.87,186.16 165.85,193.81 173.84,202.64 181.83,211.59 189.81,218.14 197.80,222.97 205.79,227.69 213.77,232.51 221.76,239.63 229.74,246.56 237.73,253.04 245.72,258.22 253.70,261.88 261.69,264.72 269.68,267.51 277.66,270.66 285.65,274.21 293.64,278.01 301.62,281.85 309.61,285.58 317.60,289.12 325.58,292.51 333.57,295.82 341.56,299.11 349.54,302.40 357.53,305.69 365.52,308.94 373.50,312.14 381.49,315.27 389.48,318.35 397.46,321.39 405.45,324.42 413.44,327.45 421.42,330.48 429.41,333.52 437.40,336.55 445.38,339.59 453.37,342.62" fill="none" stroke="#ff9da7" stroke-width="2" stroke-linejoin="round" stroke-linecap="round"><title>residual_balance_relative</title></polyline>
<polyline points="78.00,87.22 85.99,107.87 93.97,111.12 101.96,123.39 109.95,134.40 117.93,140.40 125.92,146.90 133.91,152.49 141.89,165.71 149.88,184.80 157.87,209.03 165.85,223.77 173.84,232.61 181.83,240.63 189.81,255.41 197.80,273.10 205.79,286.51 213.77,300.14 221.76,309.75 229.74,314.59 237.73,320.72 245.72,328.16 253.70,324.23 261.69,310.19 269.68,315.97 277.66,319.21 285.65,344.09 293.64,354.66 301.62,273.79 309.61,263.69 317.60,242.70 325.58,230.63 333.57,225.06 341.56,228.89 349.54,232.53 357.53,243.77 365.52,251.79 373.50,263.70 381.49,231.69 389.48,224.29 397.46,211.32 405.45,212.19 413.44,224.19 421.42,235.51 429.41,247.05 437.40,259.77 445.38,274.76 453.37,292.34 461.36,297.64 469.34,291.70 477.33,288.98 485.32,289.36 493.30,291.80 501.29,295.79 509.28,301.27 517.26,308.48 525.25,312.20 533.23,322.60 541.22,326.33 549.21,326.66 557.19,326.35 565.18,327.38 573.17,330.51 581.15,336.13 589.14,344.65 597.13,355.74 605.11,327.61 613.10,306.60 621.09,315.53 629.07,317.08 637.06,321.83 645.05,329.62 653.03,341.63 661.02,357.28 669.01,322.80 676.99,316.72 684.98,305.18 692.97,304.07 700.95,293.80 708.94,292.92 716.93,294.69 724.91,297.66 732.90,303.88 740.89,309.47 748.87,318.20 756.86,326.75 764.85,336.44 772.83,346.84 780.82,358.31 788.81,373.44 796.79,390.89 804.78,408.40 812.77,402.95 820.75,396.68 828.74,394.92 836.72,396.34 844.71,400.24 852.70,406.34 860.68,414.46 868.67,423.44 876.66,428.69 884.64,427.46 892.63,424.94 900.62,424.20 908.60,425.79 916.59,429.86 924.58,436.64 932.56,446.32 940.55,456.38 948.54,457.26 956.52,452.38 964.51,449.59 972.50,449.84 980.48,452.94 988.47,458.89 996.46,467.80 1004.44,478.14 1012.43,481.58 1020.42,464.54 1028.40,458.39 1036.39,454.14 1044.38,454.25 1052.36,454.00 1060.35,456.46 1068.34,441.43 1076.32,437.77" fill="none" stroke="#9c755f" stroke-width="2" stroke-linejoin="round" stroke-linecap="round"><title>spectral_aadmm_xu2017</title></polyline>
<line x1="1286" x2="1302" y1="60" y2="60" stroke="#bab0ac" stroke-width="3"/>
<text x="1308" y="64" font-size="11" font-family="Arial">bb_online_penalty_simplified</text>
<line x1="1286" x2="1302" y1="80" y2="80" stroke="#59a14f" stroke-width="3"/>
<text x="1308" y="84" font-size="11" font-family="Arial">fixed_rho_1</text>
<line x1="1286" x2="1302" y1="100" y2="100" stroke="#76b7b2" stroke-width="3"/>
<text x="1308" y="104" font-size="11" font-family="Arial">online_ogd_epoch5</text>
<line x1="1286" x2="1302" y1="120" y2="120" stroke="#4e79a7" stroke-width="3"/>
<text x="1308" y="124" font-size="11" font-family="Arial">online_ogd_freeze50</text>
<line x1="1286" x2="1302" y1="140" y2="140" stroke="#e15759" stroke-width="3"/>
<text x="1308" y="144" font-size="11" font-family="Arial">online_ogd_no_dual_rescale</text>
<line x1="1286" x2="1302" y1="160" y2="160" stroke="#b07aa1" stroke-width="3"/>
<text x="1308" y="164" font-size="11" font-family="Arial">online_ogd</text>
<line x1="1286" x2="1302" y1="180" y2="180" stroke="#111827" stroke-width="3"/>
<text x="1308" y="184" font-size="11" font-family="Arial">oracle_fixed_grid</text>
<line x1="1286" x2="1302" y1="200" y2="200" stroke="#edc948" stroke-width="3"/>
<text x="1308" y="204" font-size="11" font-family="Arial">residual_balance_normalized</text>
<line x1="1286" x2="1302" y1="220" y2="220" stroke="#f28e2b" stroke-width="3"/>
<text x="1308" y="224" font-size="11" font-family="Arial">residual_balance_raw</text>
<line x1="1286" x2="1302" y1="240" y2="240" stroke="#ff9da7" stroke-width="3"/>
<text x="1308" y="244" font-size="11" font-family="Arial">residual_balance_relative</text>
<line x1="1286" x2="1302" y1="260" y2="260" stroke="#9c755f" stroke-width="3"/>
<text x="1308" y="264" font-size="11" font-family="Arial">spectral_aadmm_xu2017</text>
</svg>
