<svg xmlns="http://www.w3.org/2000/svg" width="1420" height="560" viewBox="0 0 1420 560" role="img" aria-label="Consensus Lasso Objective Benchmark Trajectories, Seed 0">
<title>Consensus Lasso Objective Benchmark Trajectories, Seed 0</title>
<rect width="1420" height="560" fill="#ffffff"/>
<text x="78" y="28" font-size="20" font-family="Arial" font-weight="700">Consensus Lasso Objective Benchmark Trajectories, Seed 0</text>
<text x="673.0" y="548" text-anchor="middle" font-size="12" font-family="Arial">ADMM iteration</text>
<text x="18" y="277.0" transform="rotate(-90 18 277.0)" font-size="12" font-family="Arial">objective</text>
<line x1="78" x2="1268" y1="498.00" y2="498.00" stroke="#e5e7eb"/>
<text x="70" y="502.00" text-anchor="end" font-size="11" font-family="Arial" fill="#4b5563">2.3</text>
<line x1="78" x2="1268" y1="387.50" y2="387.50" stroke="#e5e7eb"/>
<text x="70" y="391.50" text-anchor="end" font-size="11" font-family="Arial" fill="#4b5563">3.6</text>
<line x1="78" x2="1268" y1="277.00" y2="277.00" stroke="#e5e7eb"/>
<text x="70" y="281.00" text-anchor="end" font-size="11" font-family="Arial" fill="#4b5563">4.9</text>
<line x1="78" x2="1268" y1="166.50" y2="166.50" stroke="#e5e7eb"/>
<text x="70" y="170.50" text-anchor="end" font-size="11" font-family="Arial" fill="#4b5563">6.3</text>
<line x1="78" x2="1268" y1="56.00" y2="56.00" stroke="#e5e7eb"/>
<text x="70" y="60.00" text-anchor="end" font-size="11" font-family="Arial" fill="#4b5563">7.6</text>
<line x1="78.00" x2="78.00" y1="56" y2="498" stroke="#f3f4f6"/>
<text x="78.00" y="516" text-anchor="middle" font-size="11" font-family="Arial" fill="#4b5563">1</text>
<line x1="375.50" x2="375.50" y1="56" y2="498" stroke="#f3f4f6"/>
<text x="375.50" y="516" text-anchor="middle" font-size="11" font-family="Arial" fill="#4b5563">38</text>
<line x1="673.00" x2="673.00" y1="56" y2="498" stroke="#f3f4f6"/>
<text x="673.00" y="516" text-anchor="middle" font-size="11" font-family="Arial" fill="#4b5563">75</text>
<line x1="970.50" x2="970.50" y1="56" y2="498" stroke="#f3f4f6"/>
<text x="970.50" y="516" text-anchor="middle" font-size="11" font-family="Arial" fill="#4b5563">112</text>
<line x1="1268.00" x2="1268.00" y1="56" y2="498" stroke="#f3f4f6"/>
<text x="1268.00" y="516" text-anchor="middle" font-size="11" font-family="Arial" fill="#4b5563">150</text>
<polyline points="78.00,86.40 85.99,392.37 93.97,473.02 101.96,485.03 109.95,486.21 117.93,486.74 125.92,487.18 133.91,487.32 141.89,487.50 149.88,487.65 157.87,487.65 165.85,487.65 173.84,487.65 181.83,487.66 189.81,487.66 197.80,487.66 205.79,487.66 213.77,487.66 221.76,487.66 229.74,487.66 237.73,487.66 245.72,487.66 253.70,487.66 261.69,487.66 269.68,487.66 277.66,487.66 285.65,487.66 293.64,487.66 301.62,487.66 309.61,487.66 317.60,487.66 325.58,487.66 333.57,487.66 341.56,487.66 349.54,487.66 357.53,487.66 365.52,487.66 373.50,487.66 381.49,487.66 389.48,487.66 397.46,487.66 405.45,487.66 413.44,487.66 421.42,487.66 429.41,487.66 437.40,487.66 445.38,487.66 453.37,487.66 461.36,487.66 469.34,487.66 477.33,487.66 485.32,487.66 493.30,487.66 501.29,487.66 509.28,487.66 517.26,487.66 525.25,487.66 533.23,487.66 541.22,487.66 549.21,487.66 557.19,487.66 565.18,487.66 573.17,487.66 581.15,487.66 589.14,487.66 597.13,487.66 605.11,487.66 613.10,487.66 621.09,487.66 629.07,487.66 637.06,487.66 645.05,487.66 653.03,487.66 661.02,487.66 669.01,487.66 676.99,487.66 684.98,487.66 692.97,487.66 700.95,487.66 708.94,487.66 716.93,487.66 724.91,487.66 732.90,487.66 740.89,487.66 748.87,487.66 756.86,487.66 764.85,487.66 772.83,487.66 780.82,487.66 788.81,487.66 796.79,487.66 804.78,487.66 812.77,487.66 820.75,487.66 828.74,487.66 836.72,487.66 844.71,487.66 852.70,487.66 860.68,487.66 868.67,487.66 876.66,487.66 884.64,487.66 892.63,487.66 900.62,487.66 908.60,487.66 916.59,487.66 924.58,487.65 932.56,487.66 940.55,487.66 948.54,487.66 956.52,487.65 964.51,487.65 972.50,487.66 980.48,487.66 988.47,487.64 996.46,487.65 1004.44,487.65 1012.43,487.66 1020.42,487.63 1028.40,487.64 1036.39,487.65 1044.38,487.66 1052.36,487.62 1060.35,487.64 1068.34,487.64 1076.32,487.65 1084.31,487.60 1092.30,487.62 1100.28,487.63 1108.27,487.65 1116.26,487.57 1124.24,487.61 1132.23,487.62 1140.21,487.64 1148.20,487.52 1156.19,487.58 1164.17,487.59 1172.16,487.63 1180.15,487.45 1188.13,487.53 1196.12,487.56 1204.11,487.61 1212.09,487.35 1220.08,487.47 1228.07,487.50 1236.05,487.59 1244.04,487.21 1252.03,487.38 1260.01,487.43 1268.00,487.55" fill="none" stroke="#bab0ac" stroke-width="2" stroke-linejoin="round" stroke-linecap="round"><title>bb_online_penalty_simplified</title></polyline>
<polyline points="78.00,86.40 85.99,379.84 93.97,461.19 101.96,480.97 109.95,485.66 117.93,486.94 125.92,487.36 133.91,487.54 141.89,487.61 149.88,487.64 157.87,487.65 165.85,487.66 173.84,487.66 181.83,487.66 189.81,487.66 197.80,487.66 205.79,487.66 213.77,487.66 221.76,487.66 229.74,487.66 237.73,487.66 245.72,487.66 253.70,487.66 261.69,487.66 269.68,487.66" fill="none" stroke="#59a14f" stroke-width="2" stroke-linejoin="round" stroke-linecap="round"><title>fixed_rho_1</title></polyline>
<polyline points="78.00,86.40 85.99,379.84 93.97,461.19 101.96,480.97 109.95,485.66 117.93,486.97 125.92,487.37 133.91,487.53 141.89,487.61 149.88,487.64 157.87,487.65 165.85,487.66 173.84,487.66 181.83,487.66 189.81,487.66 197.80,487.66 205.79,487.66 213.77,487.66 221.76,487.66 229.74,487.66 237.73,487.66 245.72,487.66 253.70,487.66 261.69,487.66 269.68,487.66" fill="none" stroke="#76b7b2" stroke-width="2" stroke-linejoin="round" stroke-linecap="round"><title>online_ogd_epoch5</title></polyline>
<polyline points="78.00,86.40 85.99,397.29 93.97,472.70 101.96,484.86 109.95,486.39 117.93,486.82 125.92,487.19 133.91,487.42 141.89,487.55 149.88,487.61 157.87,487.64 165.85,487.65 173.84,487.66 181.83,487.66 189.81,487.66 197.80,487.66 205.79,487.66 213.77,487.66 221.76,487.66 229.74,487.66 237.73,487.66 245.72,487.66 253.70,487.66 261.69,487.66 269.68,487.66" fill="none" stroke="#4e79a7" stroke-width="2" stroke-linejoin="round" stroke-linecap="round"><title>online_ogd_freeze50</title></polyline>
<polyline points="78.00,86.40 85.99,391.14 93.97,469.04 101.96,484.17 109.95,486.68 117.93,487.15 125.92,487.33 133.91,487.46 141.89,487.54 149.88,487.58 157.87,487.58 165.85,487.56 173.84,487.54 181.83,487.52 189.81,487.50 197.80,487.49 205.79,487.49 213.77,487.50 221.76,487.52 229.74,487.54 237.73,487.56 245.72,487.58 253.70,487.59 261.69,487.61 269.68,487.62 277.66,487.62 285.65,487.63 293.64,487.64 301.62,487.64 309.61,487.65 317.60,487.65 325.58,487.65 333.57,487.66 341.56,487.66 349.54,487.66 357.53,487.66 365.52,487.66 373.50,487.66 381.49,487.66 389.48,487.66 397.46,487.66 405.45,487.66 413.44,487.66 421.42,487.66 429.41,487.66 437.40,487.66 445.38,487.66 453.37,487.66 461.36,487.66 469.34,487.66 477.33,487.66 485.32,487.66 493.30,487.66 501.29,487.66 509.28,487.66 517.26,487.66 525.25,487.66 533.23,487.66 541.22,487.66 549.21,487.66 557.19,487.66 565.18,487.66 573.17,487.66 581.15,487.66 589.14,487.66 597.13,487.66 605.11,487.66 613.10,487.66 621.09,487.66 629.07,487.66 637.06,487.66 645.05,487.66 653.03,487.66 661.02,487.66 669.01,487.66 676.99,487.66 684.98,487.66 692.97,487.66 700.95,487.66 708.94,487.66 716.93,487.66 724.91,487.66 732.90,487.66 740.89,487.66 748.87,487.66 756.86,487.66 764.85,487.66 772.83,487.66 780.82,487.66 788.81,487.66 796.79,487.66 804.78,487.66 812.77,487.66 820.75,487.66 828.74,487.66 836.72,487.66 844.71,487.66 852.70,487.66 860.68,487.66 868.67,487.66 876.66,487.66 884.64,487.66 892.63,487.66 900.62,487.66 908.60,487.66 916.59,487.66 924.58,487.66 932.56,487.66 940.55,487.66 948.54,487.66 956.52,487.66 964.51,487.66 972.50,487.66 980.48,487.66 988.47,487.66 996.46,487.66 1004.44,487.66 1012.43,487.66 1020.42,487.66 1028.40,487.66 1036.39,487.66 1044.38,487.66 1052.36,487.66 1060.35,487.66 1068.34,487.66 1076.32,487.66 1084.31,487.66 1092.30,487.66 1100.28,487.66 1108.27,487.66 1116.26,487.66 1124.24,487.66 1132.23,487.66 1140.21,487.66 1148.20,487.66 1156.19,487.66 1164.17,487.66 1172.16,487.66 1180.15,487.66 1188.13,487.66 1196.12,487.66 1204.11,487.66 1212.09,487.66 1220.08,487.66 1228.07,487.66 1236.05,487.66 1244.04,487.66 1252.03,487.66 1260.01,487.66 1268.00,487.66" fill="none" stroke="#e15759" stroke-width="2" stroke-linejoin="round" stroke-linecap="round"><title>online_ogd_no_dual_rescale</title></polyline>
<polyline points="78.00,86.40 85.99,397.29 93.97,472.70 101.96,484.86 109.95,486.39 117.93,486.82 125.92,487.19 133.91,487.42 141.89,487.55 149.88,487.61 157.87,487.64 165.85,487.65 173.84,487.66 181.83,487.66 189.81,487.66 197.80,487.66 205.79,487.66 213.77,487.66 221.76,487.66 229.74,487.66 237.73,487.66 245.72,487.66 253.70,487.66 261.69,487.66 269.68,487.66" fill="none" stroke="#b07aa1" stroke-width="2" stroke-linejoin="round" stroke-linecap="round"><title>online_ogd</title></polyline>
<polyline points="78.00,86.40 85.99,379.84 93.97,461.19 101.96,480.97 109.95,485.66 117.93,486.94 125.92,487.36 133.91,487.54 141.89,487.61 149.88,487.64 157.87,487.65 165.85,487.66 173.84,487.66 181.83,487.66 189.81,487.66 197.80,487.66 205.79,487.66 213.77,487.66 221.76,487.66 229.74,487.66 237.73,487.66 245.72,487.66 253.70,487.66 261.69,487.66 269.68,487.66" fill="none" stroke="#111827" stroke-width="2" stroke-linejoin="round" stroke-linecap="round"><title>oracle_fixed_grid</title></polyline>
<polyline points="78.00,86.40 85.99,379.84 93.97,461.19 101.96,480.97 109.95,485.66 117.93,486.94 125.92,487.36 133.91,487.54 141.89,487.61 149.88,487.64 157.87,487.65 165.85,487.66 173.84,487.66 181.83,487.66 189.81,487.66 197.80,487.66 205.79,487.66 213.77,487.66 221.76,487.66 229.74,487.66 237.73,487.66 245.72,487.66 253.70,487.66 261.69,487.66 269.68,487.66" fill="none" stroke="#edc948" stroke-width="2" stroke-linejoin="round" stroke-linecap="round"><title>residual_balance_normalized</title></polyline>
<polyline points="78.00,86.40 85.99,379.84 93.97,461.19 101.96,480.97 109.95,485.66 117.93,486.94 125.92,487.36 133.91,487.54 141.89,487.61 149.88,487.64 157.87,487.65 165.85,487.66 173.84,487.66 181.83,487.66 189.81,487.66 197.80,487.66 205.79,487.66 213.77,487.66 221.76,487.66 229.74,487.66 237.73,487.66 245.72,487.66 253.70,487.66 261.69,487.66 269.68,487.66" fill="none" stroke="#f28e2b" stroke-width="2" stroke-linejoin="round" stroke-linecap="round"><title>residual_balance_raw</title></polyline>
<polyline points="78.00,86.40 85.99,379.84 93.97,461.19 101.96,480.97 109.95,485.66 117.93,486.94 125.92,487.36 133.91,487.54 141.89,487.61 149.88,487.64 157.87,487.65 165.85,487.66 173.84,487.66 181.83,487.66 189.81,487.66 197.80,487.66 205.79,487.66 213.77,487.66 221.76,487.66 229.74,487.66 237.73,487.66 245.72,487.66 253.70,487.66 261.69,487.66 269.68,487.66" fill="none" stroke="#ff9da7" stroke-width="2" stroke-linejoin="round" stroke-linecap="round"><title>residual_balance_relative</title></polyline>
<polyline points="78.00,86.40 85.99,379.84 93.97,475.38 101.96,485.03 109.95,485.90 117.93,486.58 125.92,487.11 133.91,487.41 141.89,487.53 149.88,487.60 157.87,487.63 165.85,487.65 173.84,487.66 181.83,487.66 189.81,487.66 197.80,487.66 205.79,487.66 213.77,487.66 221.76,487.66 229.74,487.66 237.73,487.66 245.72,487.66 253.70,487.66 261.69,487.66 269.68,487.66" fill="none" stroke="#9c755f" stroke-width="2" stroke-linejoin="round" stroke-linecap="round"><title>spectral_aadmm_xu2017</title></polyline>
<line x1="1286" x2="1302" y1="60" y2="60" stroke="#bab0ac" stroke-width="3"/>
<text x="1308" y="64" font-size="11" font-family="Arial">bb_online_penalty_simplified</text>
<line x1="1286" x2="1302" y1="80" y2="80" stroke="#59a14f" stroke-width="3"/>
<text x="1308" y="84" font-size="11" font-family="Arial">fixed_rho_1</text>
<line x1="1286" x2="1302" y1="100" y2="100" stroke="#76b7b2" stroke-width="3"/>
<text x="1308" y="104" font-size="11" font-family="Arial">online_ogd_epoch5</text>
<line x1="1286" x2="1302" y1="120" y2="120" stroke="#4e79a7" stroke-width="3"/>
<text x="1308" y="124" font-size="11" font-family="Arial">online_ogd_freeze50</text>
<line x1="1286" x2="1302" y1="140" y2="140" stroke="#e15759" stroke-width="3"/>
<text x="1308" y="144" font-size="11" font-family="Arial">online_ogd_no_dual_rescale</text>
<line x1="1286" x2="1302" y1="160" y2="160" stroke="#b07aa1" stroke-width="3"/>
<text x="1308" y="164" font-size="11" font-family="Arial">online_ogd</text>
<line x1="1286" x2="1302" y1="180" y2="180" stroke="#111827" stroke-width="3"/>
<text x="1308" y="184" font-size="11" font-family="Arial">oracle_fixed_grid</text>
<line x1="1286" x2="1302" y1="200" y2="200" stroke="#edc948" stroke-width="3"/>
<text x="1308" y="204" font-size="11" font-family="Arial">residual_balance_normalized</text>
<line x1="1286" x2="1302" y1="220" y2="220" stroke="#f28e2b" stroke-width="3"/>
<text x="1308" y="224" font-size="11" font-family="Arial">residual_balance_raw</text>
<line x1="1286" x2="1302" y1="240" y2="240" stroke="#ff9da7" stroke-width="3"/>
<text x="1308" y="244" font-size="11" font-family="Arial">residual_balance_relative</text>
<line x1="1286" x2="1302" y1="260" y2="260" stroke="#9c755f" stroke-width="3"/>
<text x="1308" y="264" font-size="11" font-family="Arial">spectral_aadmm_xu2017</text>
</svg>
