<svg xmlns="http://www.w3.org/2000/svg" width="1420" height="560" viewBox="0 0 1420 560" role="img" aria-label="Graphical Lasso Dual Norm Benchmark Trajectories, Seed 0">
<title>Graphical Lasso Dual Norm Benchmark Trajectories, Seed 0</title>
<rect width="1420" height="560" fill="#ffffff"/>
<text x="78" y="28" font-size="20" font-family="Arial" font-weight="700">Graphical Lasso Dual Norm Benchmark Trajectories, Seed 0</text>
<text x="673.0" y="548" text-anchor="middle" font-size="12" font-family="Arial">ADMM iteration</text>
<text x="18" y="277.0" transform="rotate(-90 18 277.0)" font-size="12" font-family="Arial">dual residual</text>
<line x1="78" x2="1268" y1="498.00" y2="498.00" stroke="#e5e7eb"/>
<text x="70" y="502.00" text-anchor="end" font-size="11" font-family="Arial" fill="#4b5563">1e-5</text>
<line x1="78" x2="1268" y1="387.50" y2="387.50" stroke="#e5e7eb"/>
<text x="70" y="391.50" text-anchor="end" font-size="11" font-family="Arial" fill="#4b5563">1e-3</text>
<line x1="78" x2="1268" y1="277.00" y2="277.00" stroke="#e5e7eb"/>
<text x="70" y="281.00" text-anchor="end" font-size="11" font-family="Arial" fill="#4b5563">1e-2</text>
<line x1="78" x2="1268" y1="166.50" y2="166.50" stroke="#e5e7eb"/>
<text x="70" y="170.50" text-anchor="end" font-size="11" font-family="Arial" fill="#4b5563">1e0</text>
<line x1="78" x2="1268" y1="56.00" y2="56.00" stroke="#e5e7eb"/>
<text x="70" y="60.00" text-anchor="end" font-size="11" font-family="Arial" fill="#4b5563">1e1</text>
<line x1="78.00" x2="78.00" y1="56" y2="498" stroke="#f3f4f6"/>
<text x="78.00" y="516" text-anchor="middle" font-size="11" font-family="Arial" fill="#4b5563">1</text>
<line x1="375.50" x2="375.50" y1="56" y2="498" stroke="#f3f4f6"/>
<text x="375.50" y="516" text-anchor="middle" font-size="11" font-family="Arial" fill="#4b5563">38</text>
<line x1="673.00" x2="673.00" y1="56" y2="498" stroke="#f3f4f6"/>
<text x="673.00" y="516" text-anchor="middle" font-size="11" font-family="Arial" fill="#4b5563">75</text>
<line x1="970.50" x2="970.50" y1="56" y2="498" stroke="#f3f4f6"/>
<text x="970.50" y="516" text-anchor="middle" font-size="11" font-family="Arial" fill="#4b5563">112</text>
<line x1="1268.00" x2="1268.00" y1="56" y2="498" stroke="#f3f4f6"/>
<text x="1268.00" y="516" text-anchor="middle" font-size="11" font-family="Arial" fill="#4b5563">150</text>
<polyline points="78.00,121.34 85.99,147.80 93.97,176.85 101.96,203.60 109.95,219.54 117.93,233.91 125.92,243.98 133.91,232.50 141.89,247.64 149.88,266.75 157.87,278.92 165.85,288.34 173.84,298.41 181.83,304.69 189.81,308.93 197.80,313.47 205.79,317.69 213.77,323.58 221.76,329.17 229.74,339.75 237.73,358.36 245.72,375.63 253.70,391.71 261.69,405.12 269.68,402.89 277.66,383.05 285.65,392.20 293.64,422.42 301.62,445.04" fill="none" stroke="#bab0ac" stroke-width="2" stroke-linejoin="round" stroke-linecap="round"><title>bb_online_penalty_simplified</title></polyline>
<polyline points="78.00,121.34 85.99,145.78 93.97,171.44 101.96,191.12 109.95,205.48 117.93,216.35 125.92,224.46 133.91,234.60 141.89,243.19 149.88,251.30 157.87,258.98 165.85,267.02 173.84,274.74 181.83,282.37 189.81,289.95 197.80,297.42 205.79,304.91 213.77,312.53 221.76,320.04 229.74,327.53 237.73,335.01 245.72,342.49 253.70,349.96 261.69,357.44 269.68,364.91 277.66,372.38 285.65,379.84 293.64,387.31 301.62,394.78 309.61,402.25 317.60,409.72 325.58,417.19 333.57,424.66" fill="none" stroke="#59a14f" stroke-width="2" stroke-linejoin="round" stroke-linecap="round"><title>fixed_rho_1</title></polyline>
<polyline points="78.00,121.34 85.99,145.78 93.97,171.44 101.96,191.12 109.95,205.48 117.93,216.91 125.92,225.43 133.91,235.86 141.89,245.01 149.88,253.48 157.87,261.66 165.85,270.54 173.84,278.99 181.83,287.35 189.81,295.67 197.80,304.13 205.79,312.33 213.77,320.88 221.76,329.50 229.74,337.99 237.73,346.50 245.72,355.03 253.70,363.56 261.69,372.11 269.68,380.66 277.66,389.10 285.65,397.56 293.64,406.01 301.62,414.45 309.61,422.89 317.60,431.04 325.58,439.21 333.57,447.35 341.56,455.46 349.54,463.53 357.53,471.14" fill="none" stroke="#76b7b2" stroke-width="2" stroke-linejoin="round" stroke-linecap="round"><title>online_ogd_epoch5</title></polyline>
<polyline points="78.00,121.34 85.99,148.61 93.97,175.71 101.96,196.93 109.95,212.24 117.93,225.39 125.92,237.34 133.91,244.33 141.89,257.11 149.88,269.03 157.87,278.66 165.85,289.41 173.84,297.04 181.83,306.99 189.81,317.65 197.80,326.79 205.79,335.45 213.77,343.72 221.76,350.95 229.74,353.53 237.73,365.50 245.72,372.77 253.70,379.20 261.69,385.26 269.68,391.03 277.66,396.57 285.65,401.93 293.64,407.15 301.62,412.23 309.61,417.20 317.60,422.06 325.58,426.82" fill="none" stroke="#4e79a7" stroke-width="2" stroke-linejoin="round" stroke-linecap="round"><title>online_ogd_freeze50</title></polyline>
<polyline points="78.00,121.34 85.99,151.42 93.97,176.21 101.96,195.34 109.95,208.41 117.93,221.78 125.92,232.39 133.91,241.08 141.89,247.73 149.88,263.06 157.87,270.55 165.85,272.98 173.84,266.50 181.83,265.37 189.81,262.46 197.80,266.39 205.79,266.11 213.77,279.29 221.76,280.17 229.74,299.79 237.73,299.30 245.72,287.33 253.70,260.51 261.69,240.07 269.68,232.34 277.66,231.42 285.65,233.59 293.64,237.31 301.62,241.56 309.61,244.04 317.60,241.50 325.58,253.33 333.57,271.20 341.56,288.11 349.54,288.15 357.53,305.01 365.52,299.22 373.50,321.86 381.49,293.91 389.48,276.39 397.46,318.45 405.45,281.25 413.44,284.66 421.42,339.86 429.41,270.46 437.40,295.00 445.38,332.78 453.37,287.99 461.36,284.44 469.34,324.77 477.33,286.81 485.32,280.56 493.30,337.06 501.29,273.50 509.28,293.24 517.26,355.73 525.25,272.17 533.23,313.99 541.22,284.59 549.21,318.89 557.19,295.94 565.18,294.70 573.17,343.68 581.15,279.16 589.14,303.09 597.13,329.72 605.11,303.48 613.10,281.75 621.09,331.14 629.07,282.07 637.06,289.35 645.05,361.84 653.03,269.04 661.02,320.62 669.01,278.17 676.99,314.07 684.98,297.62 692.97,322.19 700.95,300.38 708.94,294.70 716.93,352.24 724.91,277.23 732.90,316.19 740.89,305.89 748.87,369.23 756.86,277.48 764.85,330.50 772.83,331.13 780.82,281.61 788.81,315.29 796.79,302.31 804.78,326.88 812.77,301.41 820.75,291.41 828.74,358.46 836.72,274.63 844.71,323.10 852.70,287.56 860.68,331.24 868.67,291.86 876.66,292.55 884.64,361.74 892.63,274.63 900.62,326.63 908.60,285.29 916.59,324.68 924.58,297.19 932.56,297.26 940.55,344.65 948.54,286.17 956.52,311.68 964.51,351.81 972.50,295.34 980.48,321.10 988.47,313.22 996.46,366.81 1004.44,288.11 1012.43,336.41 1020.42,316.00 1028.40,311.52 1036.39,362.63 1044.38,289.98 1052.36,333.49 1060.35,286.83 1068.34,326.47 1076.32,298.95 1084.31,298.78 1092.30,345.35 1100.28,288.80 1108.27,313.95 1116.26,359.76 1124.24,293.16 1132.23,333.38 1140.21,283.79 1148.20,329.12 1156.19,294.29 1164.17,299.78 1172.16,342.60 1180.15,291.93 1188.13,311.62 1196.12,386.90 1204.11,277.86 1212.09,337.28 1220.08,312.38 1228.07,319.28 1236.05,308.58 1244.04,313.28 1252.03,308.50 1260.01,311.50 1268.00,310.82" fill="none" stroke="#e15759" stroke-width="2" stroke-linejoin="round" stroke-linecap="round"><title>online_ogd_no_dual_rescale</title></polyline>
<polyline points="78.00,121.34 85.99,148.61 93.97,175.71 101.96,196.93 109.95,212.24 117.93,225.39 125.92,237.34 133.91,244.33 141.89,257.11 149.88,269.03 157.87,278.66 165.85,289.41 173.84,297.04 181.83,306.99 189.81,317.65 197.80,326.79 205.79,335.45 213.77,343.72 221.76,350.95 229.74,353.53 237.73,365.50 245.72,372.77 253.70,379.20 261.69,385.26 269.68,391.03 277.66,396.57 285.65,401.93 293.64,407.15 301.62,412.23 309.61,417.20 317.60,422.06 325.58,426.82" fill="none" stroke="#b07aa1" stroke-width="2" stroke-linejoin="round" stroke-linecap="round"><title>online_ogd</title></polyline>
<polyline points="78.00,121.34 85.99,145.78 93.97,171.44 101.96,191.12 109.95,205.48 117.93,216.35 125.92,224.46 133.91,234.60 141.89,243.19 149.88,251.30 157.87,258.98 165.85,267.02 173.84,274.74 181.83,282.37 189.81,289.95 197.80,297.42 205.79,304.91 213.77,312.53 221.76,320.04 229.74,327.53 237.73,335.01 245.72,342.49 253.70,349.96 261.69,357.44 269.68,364.91 277.66,372.38 285.65,379.84 293.64,387.31 301.62,394.78 309.61,402.25 317.60,409.72 325.58,417.19 333.57,424.66" fill="none" stroke="#111827" stroke-width="2" stroke-linejoin="round" stroke-linecap="round"><title>oracle_fixed_grid</title></polyline>
<polyline points="78.00,121.34 85.99,145.78 93.97,171.44 101.96,191.12 109.95,205.48 117.93,216.35 125.92,224.46 133.91,234.60 141.89,243.19 149.88,251.30 157.87,258.98 165.85,267.02 173.84,274.74 181.83,282.37 189.81,289.95 197.80,297.42 205.79,304.91 213.77,312.53 221.76,320.04 229.74,327.53 237.73,335.01 245.72,342.49 253.70,349.96 261.69,357.44 269.68,364.91 277.66,372.38 285.65,379.84 293.64,387.31 301.62,394.78 309.61,402.25 317.60,409.72 325.58,417.19 333.57,424.66" fill="none" stroke="#edc948" stroke-width="2" stroke-linejoin="round" stroke-linecap="round"><title>residual_balance_normalized</title></polyline>
<polyline points="78.00,121.34 85.99,145.78 93.97,171.44 101.96,191.12 109.95,205.48 117.93,216.35 125.92,224.46 133.91,234.60 141.89,243.19 149.88,251.30 157.87,258.98 165.85,267.02 173.84,274.74 181.83,282.37 189.81,289.95 197.80,297.42 205.79,304.91 213.77,312.53 221.76,320.04 229.74,327.53 237.73,335.01 245.72,342.49 253.70,349.96 261.69,357.44 269.68,364.91 277.66,372.38 285.65,379.84 293.64,387.31 301.62,394.78 309.61,402.25 317.60,409.72 325.58,417.19 333.57,424.66" fill="none" stroke="#f28e2b" stroke-width="2" stroke-linejoin="round" stroke-linecap="round"><title>residual_balance_raw</title></polyline>
<polyline points="78.00,121.34 85.99,145.78 93.97,171.44 101.96,191.12 109.95,205.48 117.93,216.35 125.92,224.46 133.91,234.60 141.89,243.19 149.88,251.30 157.87,258.98 165.85,267.02 173.84,274.74 181.83,282.37 189.81,289.95 197.80,297.42 205.79,304.91 213.77,312.53 221.76,320.04 229.74,327.53 237.73,335.01 245.72,342.49 253.70,349.96 261.69,357.44 269.68,364.91 277.66,372.38 285.65,379.84 293.64,387.31 301.62,394.78 309.61,402.25 317.60,409.72 325.58,417.19 333.57,424.66" fill="none" stroke="#ff9da7" stroke-width="2" stroke-linejoin="round" stroke-linecap="round"><title>residual_balance_relative</title></polyline>
<polyline points="78.00,121.34 85.99,145.78 93.97,161.87 101.96,180.25 109.95,190.38 117.93,198.24 125.92,206.85 133.91,214.11 141.89,233.08 149.88,250.67 157.87,271.91 165.85,293.30 173.84,315.62 181.83,339.13 189.81,341.39 197.80,344.42 205.79,332.51 213.77,340.70 221.76,346.68 229.74,354.28 237.73,356.85 245.72,362.18 253.70,366.34 261.69,371.44 269.68,376.52 277.66,381.30 285.65,386.77 293.64,391.70 301.62,400.45 309.61,408.81 317.60,429.32" fill="none" stroke="#9c755f" stroke-width="2" stroke-linejoin="round" stroke-linecap="round"><title>spectral_aadmm_xu2017</title></polyline>
<line x1="1286" x2="1302" y1="60" y2="60" stroke="#bab0ac" stroke-width="3"/>
<text x="1308" y="64" font-size="11" font-family="Arial">bb_online_penalty_simplified</text>
<line x1="1286" x2="1302" y1="80" y2="80" stroke="#59a14f" stroke-width="3"/>
<text x="1308" y="84" font-size="11" font-family="Arial">fixed_rho_1</text>
<line x1="1286" x2="1302" y1="100" y2="100" stroke="#76b7b2" stroke-width="3"/>
<text x="1308" y="104" font-size="11" font-family="Arial">online_ogd_epoch5</text>
<line x1="1286" x2="1302" y1="120" y2="120" stroke="#4e79a7" stroke-width="3"/>
<text x="1308" y="124" font-size="11" font-family="Arial">online_ogd_freeze50</text>
<line x1="1286" x2="1302" y1="140" y2="140" stroke="#e15759" stroke-width="3"/>
<text x="1308" y="144" font-size="11" font-family="Arial">online_ogd_no_dual_rescale</text>
<line x1="1286" x2="1302" y1="160" y2="160" stroke="#b07aa1" stroke-width="3"/>
<text x="1308" y="164" font-size="11" font-family="Arial">online_ogd</text>
<line x1="1286" x2="1302" y1="180" y2="180" stroke="#111827" stroke-width="3"/>
<text x="1308" y="184" font-size="11" font-family="Arial">oracle_fixed_grid</text>
<line x1="1286" x2="1302" y1="200" y2="200" stroke="#edc948" stroke-width="3"/>
<text x="1308" y="204" font-size="11" font-family="Arial">residual_balance_normalized</text>
<line x1="1286" x2="1302" y1="220" y2="220" stroke="#f28e2b" stroke-width="3"/>
<text x="1308" y="224" font-size="11" font-family="Arial">residual_balance_raw</text>
<line x1="1286" x2="1302" y1="240" y2="240" stroke="#ff9da7" stroke-width="3"/>
<text x="1308" y="244" font-size="11" font-family="Arial">residual_balance_relative</text>
<line x1="1286" x2="1302" y1="260" y2="260" stroke="#9c755f" stroke-width="3"/>
<text x="1308" y="264" font-size="11" font-family="Arial">spectral_aadmm_xu2017</text>
</svg>
