<svg xmlns="http://www.w3.org/2000/svg" width="1420" height="560" viewBox="0 0 1420 560" role="img" aria-label="Graphical Lasso Objective Benchmark Trajectories, Seed 0">
<title>Graphical Lasso Objective Benchmark Trajectories, Seed 0</title>
<rect width="1420" height="560" fill="#ffffff"/>
<text x="78" y="28" font-size="20" font-family="Arial" font-weight="700">Graphical Lasso Objective Benchmark Trajectories, Seed 0</text>
<text x="673.0" y="548" text-anchor="middle" font-size="12" font-family="Arial">ADMM iteration</text>
<text x="18" y="277.0" transform="rotate(-90 18 277.0)" font-size="12" font-family="Arial">objective</text>
<line x1="78" x2="1268" y1="498.00" y2="498.00" stroke="#e5e7eb"/>
<text x="70" y="502.00" text-anchor="end" font-size="11" font-family="Arial" fill="#4b5563">25</text>
<line x1="78" x2="1268" y1="387.50" y2="387.50" stroke="#e5e7eb"/>
<text x="70" y="391.50" text-anchor="end" font-size="11" font-family="Arial" fill="#4b5563">26</text>
<line x1="78" x2="1268" y1="277.00" y2="277.00" stroke="#e5e7eb"/>
<text x="70" y="281.00" text-anchor="end" font-size="11" font-family="Arial" fill="#4b5563">27</text>
<line x1="78" x2="1268" y1="166.50" y2="166.50" stroke="#e5e7eb"/>
<text x="70" y="170.50" text-anchor="end" font-size="11" font-family="Arial" fill="#4b5563">28</text>
<line x1="78" x2="1268" y1="56.00" y2="56.00" stroke="#e5e7eb"/>
<text x="70" y="60.00" text-anchor="end" font-size="11" font-family="Arial" fill="#4b5563">29</text>
<line x1="78.00" x2="78.00" y1="56" y2="498" stroke="#f3f4f6"/>
<text x="78.00" y="516" text-anchor="middle" font-size="11" font-family="Arial" fill="#4b5563">1</text>
<line x1="375.50" x2="375.50" y1="56" y2="498" stroke="#f3f4f6"/>
<text x="375.50" y="516" text-anchor="middle" font-size="11" font-family="Arial" fill="#4b5563">38</text>
<line x1="673.00" x2="673.00" y1="56" y2="498" stroke="#f3f4f6"/>
<text x="673.00" y="516" text-anchor="middle" font-size="11" font-family="Arial" fill="#4b5563">75</text>
<line x1="970.50" x2="970.50" y1="56" y2="498" stroke="#f3f4f6"/>
<text x="970.50" y="516" text-anchor="middle" font-size="11" font-family="Arial" fill="#4b5563">112</text>
<line x1="1268.00" x2="1268.00" y1="56" y2="498" stroke="#f3f4f6"/>
<text x="1268.00" y="516" text-anchor="middle" font-size="11" font-family="Arial" fill="#4b5563">150</text>
<polyline points="78.00,333.19 85.99,269.06 93.97,253.70 101.96,251.95 109.95,249.95 117.93,248.78 125.92,247.70 133.91,245.89 141.89,245.17 149.88,244.98 157.87,244.86 165.85,244.74 173.84,244.67 181.83,244.61 189.81,244.55 197.80,244.50 205.79,244.47 213.77,244.46 221.76,244.45 229.74,244.44 237.73,244.44 245.72,244.43 253.70,244.43 261.69,244.43 269.68,244.43 277.66,244.42 285.65,244.42 293.64,244.42 301.62,244.42" fill="none" stroke="#bab0ac" stroke-width="2" stroke-linejoin="round" stroke-linecap="round"><title>bb_online_penalty_simplified</title></polyline>
<polyline points="78.00,333.19 85.99,266.36 93.97,250.75 101.96,247.87 109.95,247.00 117.93,246.30 125.92,245.43 133.91,245.16 141.89,244.92 149.88,244.78 157.87,244.66 165.85,244.61 173.84,244.57 181.83,244.53 189.81,244.51 197.80,244.49 205.79,244.47 213.77,244.46 221.76,244.45 229.74,244.44 237.73,244.44 245.72,244.44 253.70,244.43 261.69,244.43 269.68,244.43 277.66,244.43 285.65,244.42 293.64,244.42 301.62,244.42 309.61,244.42 317.60,244.42 325.58,244.42 333.57,244.42" fill="none" stroke="#59a14f" stroke-width="2" stroke-linejoin="round" stroke-linecap="round"><title>fixed_rho_1</title></polyline>
<polyline points="78.00,333.19 85.99,266.36 93.97,250.75 101.96,247.87 109.95,247.00 117.93,246.39 125.92,245.53 133.91,245.22 141.89,244.99 149.88,244.84 157.87,244.71 165.85,244.65 173.84,244.60 181.83,244.56 189.81,244.53 197.80,244.51 205.79,244.49 213.77,244.47 221.76,244.46 229.74,244.46 237.73,244.45 245.72,244.44 253.70,244.44 261.69,244.44 269.68,244.43 277.66,244.43 285.65,244.43 293.64,244.43 301.62,244.43 309.61,244.42 317.60,244.42 325.58,244.42 333.57,244.42 341.56,244.42 349.54,244.42 357.53,244.42" fill="none" stroke="#76b7b2" stroke-width="2" stroke-linejoin="round" stroke-linecap="round"><title>online_ogd_epoch5</title></polyline>
<polyline points="78.00,333.19 85.99,270.13 93.97,253.53 101.96,250.21 109.95,248.60 117.93,247.70 125.92,247.07 133.91,246.00 141.89,245.49 149.88,245.26 157.87,245.06 165.85,244.94 173.84,244.80 181.83,244.71 189.81,244.65 197.80,244.61 205.79,244.57 213.77,244.54 221.76,244.51 229.74,244.49 237.73,244.47 245.72,244.46 253.70,244.45 261.69,244.44 269.68,244.44 277.66,244.43 285.65,244.43 293.64,244.43 301.62,244.42 309.61,244.42 317.60,244.42 325.58,244.42" fill="none" stroke="#4e79a7" stroke-width="2" stroke-linejoin="round" stroke-linecap="round"><title>online_ogd_freeze50</title></polyline>
<polyline points="78.00,333.19 85.99,284.13 93.97,264.92 101.96,258.68 109.95,253.59 117.93,250.81 125.92,248.17 133.91,245.76 141.89,244.14 149.88,244.15 157.87,243.03 165.85,241.33 173.84,238.70 181.83,235.99 189.81,233.15 197.80,230.97 205.79,228.96 213.77,227.98 221.76,226.80 229.74,226.65 237.73,226.16 245.72,226.82 253.70,228.83 261.69,231.96 269.68,235.16 277.66,237.81 285.65,239.90 293.64,241.54 301.62,242.88 309.61,244.19 317.60,245.91 325.58,246.49 333.57,246.44 341.56,245.96 349.54,245.35 357.53,245.25 365.52,244.87 373.50,245.17 381.49,244.50 389.48,245.84 397.46,245.65 405.45,244.58 413.44,245.80 421.42,245.44 429.41,244.04 437.40,245.16 445.38,245.15 453.37,244.26 461.36,245.47 469.34,245.39 477.33,244.44 485.32,245.78 493.30,245.54 501.29,244.16 509.28,245.32 517.26,245.18 525.25,243.75 533.23,244.54 541.22,245.41 549.21,245.38 557.19,244.60 565.18,245.52 573.17,245.16 581.15,244.04 589.14,244.95 597.13,245.03 605.11,244.41 613.10,245.67 621.09,245.49 629.07,244.34 637.06,245.55 645.05,245.29 653.03,243.65 661.02,244.40 669.01,245.59 676.99,245.55 684.98,244.75 692.97,245.26 700.95,244.54 708.94,245.49 716.93,245.17 724.91,243.89 732.90,244.64 740.89,245.08 748.87,244.93 756.86,243.62 764.85,244.19 772.83,244.39 780.82,245.46 788.81,245.45 796.79,244.73 804.78,245.18 812.77,244.47 820.75,245.53 828.74,245.25 836.72,243.79 844.71,244.49 852.70,245.41 860.68,245.31 868.67,244.38 876.66,245.48 884.64,245.22 892.63,243.73 900.62,244.39 908.60,245.41 916.59,245.36 924.58,244.53 932.56,245.49 940.55,245.12 948.54,244.10 956.52,244.88 964.51,244.89 972.50,244.05 980.48,244.63 988.47,244.99 996.46,244.80 1004.44,243.81 1012.43,244.28 1020.42,244.66 1028.40,245.01 1036.39,244.83 1044.38,243.89 1052.36,244.38 1060.35,245.38 1068.34,245.32 1076.32,244.51 1084.31,245.45 1092.30,245.09 1100.28,244.13 1108.27,244.86 1116.26,244.85 1124.24,243.94 1132.23,244.41 1140.21,245.54 1148.20,245.42 1156.19,244.49 1164.17,245.45 1172.16,245.07 1180.15,244.19 1188.13,244.95 1196.12,244.85 1204.11,243.40 1212.09,243.82 1220.08,243.36 1228.07,243.14 1236.05,242.73 1244.04,242.46 1252.03,242.10 1260.01,241.82 1268.00,241.52" fill="none" stroke="#e15759" stroke-width="2" stroke-linejoin="round" stroke-linecap="round"><title>online_ogd_no_dual_rescale</title></polyline>
<polyline points="78.00,333.19 85.99,270.13 93.97,253.53 101.96,250.21 109.95,248.60 117.93,247.70 125.92,247.07 133.91,246.00 141.89,245.49 149.88,245.26 157.87,245.06 165.85,244.94 173.84,244.80 181.83,244.71 189.81,244.65 197.80,244.61 205.79,244.57 213.77,244.54 221.76,244.51 229.74,244.49 237.73,244.47 245.72,244.46 253.70,244.45 261.69,244.44 269.68,244.44 277.66,244.43 285.65,244.43 293.64,244.43 301.62,244.42 309.61,244.42 317.60,244.42 325.58,244.42" fill="none" stroke="#b07aa1" stroke-width="2" stroke-linejoin="round" stroke-linecap="round"><title>online_ogd</title></polyline>
<polyline points="78.00,333.19 85.99,266.36 93.97,250.75 101.96,247.87 109.95,247.00 117.93,246.30 125.92,245.43 133.91,245.16 141.89,244.92 149.88,244.78 157.87,244.66 165.85,244.61 173.84,244.57 181.83,244.53 189.81,244.51 197.80,244.49 205.79,244.47 213.77,244.46 221.76,244.45 229.74,244.44 237.73,244.44 245.72,244.44 253.70,244.43 261.69,244.43 269.68,244.43 277.66,244.43 285.65,244.42 293.64,244.42 301.62,244.42 309.61,244.42 317.60,244.42 325.58,244.42 333.57,244.42" fill="none" stroke="#111827" stroke-width="2" stroke-linejoin="round" stroke-linecap="round"><title>oracle_fixed_grid</title></polyline>
<polyline points="78.00,333.19 85.99,266.36 93.97,250.75 101.96,247.87 109.95,247.00 117.93,246.30 125.92,245.43 133.91,245.16 141.89,244.92 149.88,244.78 157.87,244.66 165.85,244.61 173.84,244.57 181.83,244.53 189.81,244.51 197.80,244.49 205.79,244.47 213.77,244.46 221.76,244.45 229.74,244.44 237.73,244.44 245.72,244.44 253.70,244.43 261.69,244.43 269.68,244.43 277.66,244.43 285.65,244.42 293.64,244.42 301.62,244.42 309.61,244.42 317.60,244.42 325.58,244.42 333.57,244.42" fill="none" stroke="#edc948" stroke-width="2" stroke-linejoin="round" stroke-linecap="round"><title>residual_balance_normalized</title></polyline>
<polyline points="78.00,333.19 85.99,266.36 93.97,250.75 101.96,247.87 109.95,247.00 117.93,246.30 125.92,245.43 133.91,245.16 141.89,244.92 149.88,244.78 157.87,244.66 165.85,244.61 173.84,244.57 181.83,244.53 189.81,244.51 197.80,244.49 205.79,244.47 213.77,244.46 221.76,244.45 229.74,244.44 237.73,244.44 245.72,244.44 253.70,244.43 261.69,244.43 269.68,244.43 277.66,244.43 285.65,244.42 293.64,244.42 301.62,244.42 309.61,244.42 317.60,244.42 325.58,244.42 333.57,244.42" fill="none" stroke="#f28e2b" stroke-width="2" stroke-linejoin="round" stroke-linecap="round"><title>residual_balance_raw</title></polyline>
<polyline points="78.00,333.19 85.99,266.36 93.97,250.75 101.96,247.87 109.95,247.00 117.93,246.30 125.92,245.43 133.91,245.16 141.89,244.92 149.88,244.78 157.87,244.66 165.85,244.61 173.84,244.57 181.83,244.53 189.81,244.51 197.80,244.49 205.79,244.47 213.77,244.46 221.76,244.45 229.74,244.44 237.73,244.44 245.72,244.44 253.70,244.43 261.69,244.43 269.68,244.43 277.66,244.43 285.65,244.42 293.64,244.42 301.62,244.42 309.61,244.42 317.60,244.42 325.58,244.42 333.57,244.42" fill="none" stroke="#ff9da7" stroke-width="2" stroke-linejoin="round" stroke-linecap="round"><title>residual_balance_relative</title></polyline>
<polyline points="78.00,333.19 85.99,266.36 93.97,245.99 101.96,244.20 109.95,243.18 117.93,243.02 125.92,243.40 133.91,243.72 141.89,244.38 149.88,244.49 157.87,244.48 165.85,244.49 173.84,244.48 181.83,244.48 189.81,244.48 197.80,244.48 205.79,244.46 213.77,244.45 221.76,244.45 229.74,244.44 237.73,244.43 245.72,244.43 253.70,244.42 261.69,244.42 269.68,244.42 277.66,244.42 285.65,244.42 293.64,244.42 301.62,244.42 309.61,244.42 317.60,244.42" fill="none" stroke="#9c755f" stroke-width="2" stroke-linejoin="round" stroke-linecap="round"><title>spectral_aadmm_xu2017</title></polyline>
<line x1="1286" x2="1302" y1="60" y2="60" stroke="#bab0ac" stroke-width="3"/>
<text x="1308" y="64" font-size="11" font-family="Arial">bb_online_penalty_simplified</text>
<line x1="1286" x2="1302" y1="80" y2="80" stroke="#59a14f" stroke-width="3"/>
<text x="1308" y="84" font-size="11" font-family="Arial">fixed_rho_1</text>
<line x1="1286" x2="1302" y1="100" y2="100" stroke="#76b7b2" stroke-width="3"/>
<text x="1308" y="104" font-size="11" font-family="Arial">online_ogd_epoch5</text>
<line x1="1286" x2="1302" y1="120" y2="120" stroke="#4e79a7" stroke-width="3"/>
<text x="1308" y="124" font-size="11" font-family="Arial">online_ogd_freeze50</text>
<line x1="1286" x2="1302" y1="140" y2="140" stroke="#e15759" stroke-width="3"/>
<text x="1308" y="144" font-size="11" font-family="Arial">online_ogd_no_dual_rescale</text>
<line x1="1286" x2="1302" y1="160" y2="160" stroke="#b07aa1" stroke-width="3"/>
<text x="1308" y="164" font-size="11" font-family="Arial">online_ogd</text>
<line x1="1286" x2="1302" y1="180" y2="180" stroke="#111827" stroke-width="3"/>
<text x="1308" y="184" font-size="11" font-family="Arial">oracle_fixed_grid</text>
<line x1="1286" x2="1302" y1="200" y2="200" stroke="#edc948" stroke-width="3"/>
<text x="1308" y="204" font-size="11" font-family="Arial">residual_balance_normalized</text>
<line x1="1286" x2="1302" y1="220" y2="220" stroke="#f28e2b" stroke-width="3"/>
<text x="1308" y="224" font-size="11" font-family="Arial">residual_balance_raw</text>
<line x1="1286" x2="1302" y1="240" y2="240" stroke="#ff9da7" stroke-width="3"/>
<text x="1308" y="244" font-size="11" font-family="Arial">residual_balance_relative</text>
<line x1="1286" x2="1302" y1="260" y2="260" stroke="#9c755f" stroke-width="3"/>
<text x="1308" y="264" font-size="11" font-family="Arial">spectral_aadmm_xu2017</text>
</svg>
