<svg xmlns="http://www.w3.org/2000/svg" width="1420" height="560" viewBox="0 0 1420 560" role="img" aria-label="Graphical Lasso Fixed-Rho Sensitivity: Max Final Residual">
<title>Graphical Lasso Fixed-Rho Sensitivity: Max Final Residual</title>
<rect width="1420" height="560" fill="#ffffff"/>
<text x="86" y="28" font-size="20" font-family="Arial" font-weight="700">Graphical Lasso Fixed-Rho Sensitivity: Max Final Residual</text>
<text x="623.0" y="542" text-anchor="middle" font-size="12" font-family="Arial">fixed rho grid, log scale</text>
<text x="18" y="272.0" transform="rotate(-90 18 272.0)" font-size="12" font-family="Arial">max final residual</text>
<line x1="86" x2="1160" y1="488.00" y2="488.00" stroke="#e5e7eb"/>
<text x="78" y="492.00" text-anchor="end" font-size="11" font-family="Arial" fill="#4b5563">1e-5</text>
<line x1="86" x2="1160" y1="380.00" y2="380.00" stroke="#e5e7eb"/>
<text x="78" y="384.00" text-anchor="end" font-size="11" font-family="Arial" fill="#4b5563">1e-3</text>
<line x1="86" x2="1160" y1="272.00" y2="272.00" stroke="#e5e7eb"/>
<text x="78" y="276.00" text-anchor="end" font-size="11" font-family="Arial" fill="#4b5563">1e-2</text>
<line x1="86" x2="1160" y1="164.00" y2="164.00" stroke="#e5e7eb"/>
<text x="78" y="168.00" text-anchor="end" font-size="11" font-family="Arial" fill="#4b5563">1e-1</text>
<line x1="86" x2="1160" y1="56.00" y2="56.00" stroke="#e5e7eb"/>
<text x="78" y="60.00" text-anchor="end" font-size="11" font-family="Arial" fill="#4b5563">1e0</text>
<line x1="86.00" x2="86.00" y1="56" y2="488" stroke="#f3f4f6"/>
<text x="86.00" y="506" text-anchor="middle" font-size="11" font-family="Arial" fill="#4b5563">0.01</text>
<line x1="214.11" x2="214.11" y1="56" y2="488" stroke="#f3f4f6"/>
<text x="214.11" y="506" text-anchor="middle" font-size="11" font-family="Arial" fill="#4b5563">0.03</text>
<line x1="354.50" x2="354.50" y1="56" y2="488" stroke="#f3f4f6"/>
<text x="354.50" y="506" text-anchor="middle" font-size="11" font-family="Arial" fill="#4b5563">0.1</text>
<line x1="482.61" x2="482.61" y1="56" y2="488" stroke="#f3f4f6"/>
<text x="482.61" y="506" text-anchor="middle" font-size="11" font-family="Arial" fill="#4b5563">0.3</text>
<line x1="623.00" x2="623.00" y1="56" y2="488" stroke="#f3f4f6"/>
<text x="623.00" y="506" text-anchor="middle" font-size="11" font-family="Arial" fill="#4b5563">1</text>
<line x1="751.11" x2="751.11" y1="56" y2="488" stroke="#f3f4f6"/>
<text x="751.11" y="506" text-anchor="middle" font-size="11" font-family="Arial" fill="#4b5563">3</text>
<line x1="891.50" x2="891.50" y1="56" y2="488" stroke="#f3f4f6"/>
<text x="891.50" y="506" text-anchor="middle" font-size="11" font-family="Arial" fill="#4b5563">10</text>
<line x1="1019.61" x2="1019.61" y1="56" y2="488" stroke="#f3f4f6"/>
<text x="1019.61" y="506" text-anchor="middle" font-size="11" font-family="Arial" fill="#4b5563">30</text>
<line x1="1160.00" x2="1160.00" y1="56" y2="488" stroke="#f3f4f6"/>
<text x="1160.00" y="506" text-anchor="middle" font-size="11" font-family="Arial" fill="#4b5563">100</text>
<polygon points="86.00,100.96 214.11,166.52 354.50,277.30 482.61,402.43 623.00,401.61 751.11,401.91 891.50,231.28 1019.61,144.73 1160.00,95.72 1160.00,107.64 1019.61,161.91 891.50,261.43 751.11,402.35 623.00,406.18 482.61,403.04 354.50,281.25 214.11,168.10 86.00,105.54" fill="#d1d5db" opacity="0.45"><title>seed min-max band</title></polygon>
<polyline points="86.00,102.99 214.11,167.32 354.50,278.70 482.61,402.64 623.00,403.20 751.11,402.08 891.50,247.33 1019.61,153.27 1160.00,100.63" fill="none" stroke="#111827" stroke-width="3" stroke-linejoin="round" stroke-linecap="round"><title>fixed rho mean</title></polyline>
<circle cx="86.00" cy="102.99" r="4" fill="#111827"><title>rho=0.01, mean=0.2858</title></circle>
<circle cx="214.11" cy="167.32" r="4" fill="#111827"><title>rho=0.03, mean=0.05148</title></circle>
<circle cx="354.50" cy="278.70" r="4" fill="#111827"><title>rho=0.1, mean=0.002646</title></circle>
<circle cx="482.61" cy="402.64" r="4" fill="#111827"><title>rho=0.3, mean=9.728e-05</title></circle>
<circle cx="623.00" cy="403.20" r="4" fill="#111827"><title>rho=1, mean=9.583e-05</title></circle>
<circle cx="751.11" cy="402.08" r="4" fill="#111827"><title>rho=3, mean=9.873e-05</title></circle>
<circle cx="891.50" cy="247.33" r="4" fill="#111827"><title>rho=10, mean=0.006103</title></circle>
<circle cx="1019.61" cy="153.27" r="4" fill="#111827"><title>rho=30, mean=0.07486</title></circle>
<circle cx="1160.00" cy="100.63" r="4" fill="#111827"><title>rho=100, mean=0.3044</title></circle>
<line x1="623.00" x2="623.00" y1="56" y2="488" stroke="#111827" stroke-width="2" stroke-dasharray="6 5"/>
<text x="628.00" y="72" font-size="11" font-family="Arial" fill="#111827">oracle rho 1</text>
<line x1="1184" x2="1208" y1="64" y2="64" stroke="#111827" stroke-width="3"/>
<text x="1216" y="68" font-size="11" font-family="Arial">fixed rho mean</text>
<rect x="1184" y="78" width="24" height="10" fill="#d1d5db" opacity="0.45"/>
<text x="1216" y="88" font-size="11" font-family="Arial">seed min-max band</text>
<line x1="535.79" x2="535.79" y1="56" y2="488" stroke="#bab0ac" stroke-width="2" stroke-dasharray="3 4" opacity="0.9"><title>bb_online_penalty_simplified final rho 0.4734</title></line>
<line x1="1184" x2="1208" y1="110" y2="110" stroke="#bab0ac" stroke-width="2" stroke-dasharray="3 4"/>
<text x="1216" y="114" font-size="11" font-family="Arial">bb_online_penalty_simplified rho 0.473</text>
<line x1="686.40" x2="686.40" y1="56" y2="488" stroke="#b07aa1" stroke-width="2" stroke-dasharray="3 4" opacity="0.9"><title>online_ogd final rho 1.722</title></line>
<line x1="1184" x2="1208" y1="129" y2="129" stroke="#b07aa1" stroke-width="2" stroke-dasharray="3 4"/>
<text x="1216" y="133" font-size="11" font-family="Arial">online_ogd rho 1.72</text>
<line x1="623.00" x2="623.00" y1="56" y2="488" stroke="#ff9da7" stroke-width="2" stroke-dasharray="3 4" opacity="0.9"><title>residual_balance_relative final rho 1</title></line>
<line x1="1184" x2="1208" y1="148" y2="148" stroke="#ff9da7" stroke-width="2" stroke-dasharray="3 4"/>
<text x="1216" y="152" font-size="11" font-family="Arial">residual_balance_relative rho 1</text>
<line x1="642.81" x2="642.81" y1="56" y2="488" stroke="#9c755f" stroke-width="2" stroke-dasharray="3 4" opacity="0.9"><title>spectral_aadmm_xu2017 final rho 1.185</title></line>
<line x1="1184" x2="1208" y1="167" y2="167" stroke="#9c755f" stroke-width="2" stroke-dasharray="3 4"/>
<text x="1216" y="171" font-size="11" font-family="Arial">spectral_aadmm_xu2017 rho 1.19</text>
</svg>
