<svg xmlns="http://www.w3.org/2000/svg" width="980" height="470" viewBox="0 0 980 470" role="img" aria-label="Consensus Lasso Primal Norm Trajectories, Seed 0">
<title>Consensus Lasso Primal Norm Trajectories, Seed 0</title>
<rect width="980" height="470" fill="#ffffff"/>
<text x="78" y="28" font-size="20" font-family="Arial" font-weight="700">Consensus Lasso Primal Norm Trajectories, Seed 0</text>
<text x="453.0" y="458" text-anchor="middle" font-size="12" font-family="Arial">ADMM iteration</text>
<text x="18" y="232.0" transform="rotate(-90 18 232.0)" font-size="12" font-family="Arial">primal residual</text>
<line x1="78" x2="828" y1="408.00" y2="408.00" stroke="#e5e7eb"/>
<text x="70" y="412.00" text-anchor="end" font-size="11" font-family="Arial" fill="#4b5563">1e-6</text>
<line x1="78" x2="828" y1="320.00" y2="320.00" stroke="#e5e7eb"/>
<text x="70" y="324.00" text-anchor="end" font-size="11" font-family="Arial" fill="#4b5563">1e-4</text>
<line x1="78" x2="828" y1="232.00" y2="232.00" stroke="#e5e7eb"/>
<text x="70" y="236.00" text-anchor="end" font-size="11" font-family="Arial" fill="#4b5563">1e-2</text>
<line x1="78" x2="828" y1="144.00" y2="144.00" stroke="#e5e7eb"/>
<text x="70" y="148.00" text-anchor="end" font-size="11" font-family="Arial" fill="#4b5563">1e0</text>
<line x1="78" x2="828" y1="56.00" y2="56.00" stroke="#e5e7eb"/>
<text x="70" y="60.00" text-anchor="end" font-size="11" font-family="Arial" fill="#4b5563">1e1</text>
<line x1="78.00" x2="78.00" y1="56" y2="408" stroke="#f3f4f6"/>
<text x="78.00" y="426" text-anchor="middle" font-size="11" font-family="Arial" fill="#4b5563">1</text>
<line x1="265.50" x2="265.50" y1="56" y2="408" stroke="#f3f4f6"/>
<text x="265.50" y="426" text-anchor="middle" font-size="11" font-family="Arial" fill="#4b5563">38</text>
<line x1="453.00" x2="453.00" y1="56" y2="408" stroke="#f3f4f6"/>
<text x="453.00" y="426" text-anchor="middle" font-size="11" font-family="Arial" fill="#4b5563">75</text>
<line x1="640.50" x2="640.50" y1="56" y2="408" stroke="#f3f4f6"/>
<text x="640.50" y="426" text-anchor="middle" font-size="11" font-family="Arial" fill="#4b5563">112</text>
<line x1="828.00" x2="828.00" y1="56" y2="408" stroke="#f3f4f6"/>
<text x="828.00" y="426" text-anchor="middle" font-size="11" font-family="Arial" fill="#4b5563">150</text>
<polyline points="78.00,85.88 83.03,97.89 88.07,102.16 93.10,105.83 98.13,108.97 103.17,111.67 108.20,114.07 113.23,116.25 118.27,118.29 123.30,120.21 128.34,122.03 133.37,123.78 138.40,125.57 143.44,127.25 148.47,128.85 153.50,130.40 158.54,131.90 163.57,133.37 168.60,134.80 173.64,136.20 178.67,137.58 183.70,138.93 188.74,140.25 193.77,141.56 198.81,142.84 203.84,144.11 208.87,145.36 213.91,146.59 218.94,147.81 223.97,149.01 229.01,150.19 234.04,151.37 239.07,152.53 244.11,153.68 249.14,154.89 254.17,156.15 259.21,157.35 264.24,158.52 269.28,159.66 274.31,160.79 279.34,161.90 284.38,163.01 289.41,164.11 294.44,165.20 299.48,166.30 304.51,167.41 309.54,168.50 314.58,169.58 319.61,170.64 324.64,171.70 329.68,172.75 334.71,173.79 339.74,174.83 344.78,175.86 349.81,176.88 354.85,177.90 359.88,178.92 364.91,179.93 369.95,180.94 374.98,181.94 380.01,182.93 385.05,183.93 390.08,184.91 395.11,185.90 400.15,186.88 405.18,187.86 410.21,188.83 415.25,189.80 420.28,190.76 425.32,191.73 430.35,192.69 435.38,193.64 440.42,194.59 445.45,195.54 450.48,196.49 455.52,197.43 460.55,198.38 465.58,199.31 470.62,200.25 475.65,201.18 480.68,202.11 485.72,203.04 490.75,203.96 495.79,204.89 500.82,205.81 505.85,206.72 510.89,207.64 515.92,208.55 520.95,209.46 525.99,210.37 531.02,211.28 536.05,212.18 541.09,213.08 546.12,213.98 551.15,214.88 556.19,215.77 561.22,216.67 566.26,217.56 571.29,218.46 576.32,219.36 581.36,220.25 586.39,221.14 591.42,222.03 596.46,222.91 601.49,223.79 606.52,224.67 611.56,225.55 616.59,226.42 621.62,227.30 626.66,228.17 631.69,229.04 636.72,229.91 641.76,230.78 646.79,231.64 651.83,232.51 656.86,233.37 661.89,234.23 666.93,235.09 671.96,235.95 676.99,236.80 682.03,237.66 687.06,238.51 692.09,239.36 697.13,240.21 702.16,241.06 707.19,241.91 712.23,242.75 717.26,243.60 722.30,244.44 727.33,245.28 732.36,246.12 737.40,246.96 742.43,247.80 747.46,248.63 752.50,249.47 757.53,250.30 762.56,251.14 767.60,251.97 772.63,252.80 777.66,253.62 782.70,254.45 787.73,255.28 792.77,256.10 797.80,256.93 802.83,257.75 807.87,258.57 812.90,259.39 817.93,260.21 822.97,261.02 828.00,261.84" fill="none" stroke="#4e79a7" stroke-width="2" stroke-linejoin="round" stroke-linecap="round"><title>fixed_rho_0.1</title></polyline>
<polyline points="78.00,99.38 83.03,123.65 88.07,127.98 93.10,132.11 98.13,139.14 103.17,147.63 108.20,156.61 113.23,166.38 118.27,175.94 123.30,185.36 128.34,194.65 133.37,203.88 138.40,212.93 143.44,221.79 148.47,230.48 153.50,238.99 158.54,247.32 163.57,255.45 168.60,263.41 173.64,271.21 178.67,278.88 183.70,286.48 188.74,294.02 193.77,301.53 198.81,309.02" fill="none" stroke="#59a14f" stroke-width="2" stroke-linejoin="round" stroke-linecap="round"><title>fixed_rho_1.0</title></polyline>
<polyline points="78.00,127.68 83.03,180.22 88.07,183.32 93.10,181.48 98.13,183.20 103.17,185.63 108.20,188.22 113.23,190.82 118.27,193.39 123.30,195.92 128.34,198.42 133.37,200.88 138.40,203.30 143.44,205.68 148.47,207.80 153.50,208.56 158.54,212.52 163.57,214.60 168.60,216.87 173.64,219.00 178.67,221.05 183.70,223.06 188.74,225.01 193.77,226.93 198.81,228.80 203.84,230.63 208.87,232.41 213.91,218.15 218.94,234.27 223.97,234.43 229.01,238.94 234.04,240.71 239.07,242.37 244.11,243.99 249.14,245.58 254.17,247.24 259.21,248.79 264.24,250.30 269.28,251.74 274.31,251.92 279.34,254.62 284.38,256.09 289.41,257.51 294.44,258.27 299.48,250.16 304.51,261.93 309.54,263.41 314.58,264.72 319.61,266.03 324.64,267.34 329.68,268.63 334.71,269.91 339.74,271.18 344.78,272.44 349.81,273.69 354.85,274.94 359.88,276.17 364.91,277.40 369.95,278.63 374.98,279.85 380.01,281.06 385.05,282.28 390.08,283.48 395.11,284.68 400.15,285.88 405.18,287.08 410.21,288.27 415.25,289.47 420.28,290.65 425.32,291.84 430.35,293.02 435.38,294.21 440.42,295.39 445.45,296.56 450.48,297.74 455.52,298.92 460.55,300.09 465.58,301.26 470.62,302.43 475.65,303.60 480.68,304.77 485.72,305.94 490.75,307.10 495.79,308.27 500.82,309.43 505.85,310.59 510.89,311.75 515.92,312.91 520.95,314.07 525.99,315.23 531.02,316.38 536.05,317.54 541.09,318.69 546.12,319.84 551.15,321.00 556.19,322.15 561.22,323.30 566.26,324.45 571.29,325.59 576.32,326.74 581.36,327.89 586.39,329.03 591.42,330.18 596.46,331.32 601.49,332.46 606.52,333.60 611.56,334.74 616.59,336.06 621.62,337.22 626.66,338.37 631.69,339.51 636.72,340.65 641.76,341.78 646.79,342.92 651.83,344.05 656.86,345.17 661.89,346.30 666.93,347.42 671.96,348.54 676.99,349.66 682.03,350.78 687.06,351.90 692.09,353.01 697.13,354.12 702.16,355.23 707.19,356.34 712.23,357.45 717.26,358.56 722.30,359.66 727.33,360.76 732.36,361.87 737.40,362.97 742.43,364.07 747.46,365.16 752.50,366.26 757.53,367.36 762.56,368.45 767.60,369.55 772.63,370.64 777.66,371.73 782.70,372.82 787.73,373.91 792.77,375.00 797.80,376.08 802.83,377.17 807.87,378.26 812.90,379.34 817.93,380.42 822.97,381.51 828.00,382.59" fill="none" stroke="#e15759" stroke-width="2" stroke-linejoin="round" stroke-linecap="round"><title>fixed_rho_10.0</title></polyline>
<polyline points="78.00,99.38 83.03,123.65 88.07,127.98 93.10,129.98 98.13,136.50 103.17,144.88 108.20,154.05 113.23,163.73 118.27,173.29 123.30,182.93 128.34,192.31 133.37,201.32 138.40,210.28 143.44,218.91 148.47,227.27 153.50,235.63 158.54,243.75 163.57,251.65 168.60,259.60 173.64,267.39 178.67,275.10 183.70,282.99 188.74,290.85 193.77,298.70 198.81,306.84 203.84,314.97" fill="none" stroke="#76b7b2" stroke-width="2" stroke-linejoin="round" stroke-linecap="round"><title>online_ogd_epoch3</title></polyline>
<polyline points="78.00,99.38 83.03,121.60 88.07,122.08 93.10,125.25 98.13,132.27 103.17,141.05 108.20,151.03 113.23,161.16 118.27,171.08 123.30,180.70 128.34,189.93 133.37,198.84 138.40,207.57 143.44,216.20 148.47,224.74 153.50,233.24 158.54,241.70 163.57,250.18 168.60,258.74 173.64,267.43 178.67,276.29 183.70,285.37 188.74,294.68 193.77,304.24 198.81,314.04" fill="none" stroke="#b07aa1" stroke-width="2" stroke-linejoin="round" stroke-linecap="round"><title>online_ogd</title></polyline>
<polyline points="78.00,99.38 83.03,123.65 88.07,127.98 93.10,132.11 98.13,139.14 103.17,147.63 108.20,156.61 113.23,166.38 118.27,175.94 123.30,185.36 128.34,194.65 133.37,203.88 138.40,212.93 143.44,221.79 148.47,230.48 153.50,238.99 158.54,247.32 163.57,255.45 168.60,263.41 173.64,271.21 178.67,278.88 183.70,286.48 188.74,294.02 193.77,301.53 198.81,309.02" fill="none" stroke="#f28e2b" stroke-width="2" stroke-linejoin="round" stroke-linecap="round"><title>residual_balance</title></polyline>
<line x1="846" x2="862" y1="60" y2="60" stroke="#4e79a7" stroke-width="3"/>
<text x="868" y="64" font-size="11" font-family="Arial">fixed_rho_0.1</text>
<line x1="846" x2="862" y1="80" y2="80" stroke="#59a14f" stroke-width="3"/>
<text x="868" y="84" font-size="11" font-family="Arial">fixed_rho_1.0</text>
<line x1="846" x2="862" y1="100" y2="100" stroke="#e15759" stroke-width="3"/>
<text x="868" y="104" font-size="11" font-family="Arial">fixed_rho_10.0</text>
<line x1="846" x2="862" y1="120" y2="120" stroke="#76b7b2" stroke-width="3"/>
<text x="868" y="124" font-size="11" font-family="Arial">online_ogd_epoch3</text>
<line x1="846" x2="862" y1="140" y2="140" stroke="#b07aa1" stroke-width="3"/>
<text x="868" y="144" font-size="11" font-family="Arial">online_ogd</text>
<line x1="846" x2="862" y1="160" y2="160" stroke="#f28e2b" stroke-width="3"/>
<text x="868" y="164" font-size="11" font-family="Arial">residual_balance</text>
</svg>
