<svg xmlns="http://www.w3.org/2000/svg" width="980" height="470" viewBox="0 0 980 470" role="img" aria-label="Consensus Lasso Objective Trajectories, Seed 0">
<title>Consensus Lasso Objective Trajectories, Seed 0</title>
<rect width="980" height="470" fill="#ffffff"/>
<text x="78" y="28" font-size="20" font-family="Arial" font-weight="700">Consensus Lasso Objective Trajectories, Seed 0</text>
<text x="453.0" y="458" text-anchor="middle" font-size="12" font-family="Arial">ADMM iteration</text>
<text x="18" y="232.0" transform="rotate(-90 18 232.0)" font-size="12" font-family="Arial">objective</text>
<line x1="78" x2="828" y1="408.00" y2="408.00" stroke="#e5e7eb"/>
<text x="70" y="412.00" text-anchor="end" font-size="11" font-family="Arial" fill="#4b5563">2.3</text>
<line x1="78" x2="828" y1="320.00" y2="320.00" stroke="#e5e7eb"/>
<text x="70" y="324.00" text-anchor="end" font-size="11" font-family="Arial" fill="#4b5563">5.4</text>
<line x1="78" x2="828" y1="232.00" y2="232.00" stroke="#e5e7eb"/>
<text x="70" y="236.00" text-anchor="end" font-size="11" font-family="Arial" fill="#4b5563">8.5</text>
<line x1="78" x2="828" y1="144.00" y2="144.00" stroke="#e5e7eb"/>
<text x="70" y="148.00" text-anchor="end" font-size="11" font-family="Arial" fill="#4b5563">12</text>
<line x1="78" x2="828" y1="56.00" y2="56.00" stroke="#e5e7eb"/>
<text x="70" y="60.00" text-anchor="end" font-size="11" font-family="Arial" fill="#4b5563">15</text>
<line x1="78.00" x2="78.00" y1="56" y2="408" stroke="#f3f4f6"/>
<text x="78.00" y="426" text-anchor="middle" font-size="11" font-family="Arial" fill="#4b5563">1</text>
<line x1="265.50" x2="265.50" y1="56" y2="408" stroke="#f3f4f6"/>
<text x="265.50" y="426" text-anchor="middle" font-size="11" font-family="Arial" fill="#4b5563">38</text>
<line x1="453.00" x2="453.00" y1="56" y2="408" stroke="#f3f4f6"/>
<text x="453.00" y="426" text-anchor="middle" font-size="11" font-family="Arial" fill="#4b5563">75</text>
<line x1="640.50" x2="640.50" y1="56" y2="408" stroke="#f3f4f6"/>
<text x="640.50" y="426" text-anchor="middle" font-size="11" font-family="Arial" fill="#4b5563">112</text>
<line x1="828.00" x2="828.00" y1="56" y2="408" stroke="#f3f4f6"/>
<text x="828.00" y="426" text-anchor="middle" font-size="11" font-family="Arial" fill="#4b5563">150</text>
<polyline points="78.00,361.02 83.03,400.56 88.07,402.32 93.10,402.94 98.13,403.37 103.17,403.60 108.20,403.75 113.23,403.85 118.27,403.93 123.30,404.00 128.34,404.05 133.37,404.10 138.40,404.22 143.44,404.28 148.47,404.31 153.50,404.34 158.54,404.37 163.57,404.38 168.60,404.40 173.64,404.41 178.67,404.43 183.70,404.44 188.74,404.45 193.77,404.45 198.81,404.46 203.84,404.46 208.87,404.47 213.91,404.47 218.94,404.48 223.97,404.48 229.01,404.48 234.04,404.49 239.07,404.49 244.11,404.49 249.14,404.50 254.17,404.50 259.21,404.51 264.24,404.51 269.28,404.51 274.31,404.51 279.34,404.52 284.38,404.52 289.41,404.52 294.44,404.52 299.48,404.52 304.51,404.52 309.54,404.52 314.58,404.52 319.61,404.52 324.64,404.52 329.68,404.52 334.71,404.52 339.74,404.53 344.78,404.53 349.81,404.53 354.85,404.53 359.88,404.53 364.91,404.53 369.95,404.53 374.98,404.53 380.01,404.53 385.05,404.53 390.08,404.53 395.11,404.53 400.15,404.53 405.18,404.53 410.21,404.53 415.25,404.53 420.28,404.53 425.32,404.53 430.35,404.53 435.38,404.53 440.42,404.53 445.45,404.53 450.48,404.53 455.52,404.53 460.55,404.53 465.58,404.53 470.62,404.53 475.65,404.53 480.68,404.53 485.72,404.53 490.75,404.53 495.79,404.53 500.82,404.53 505.85,404.53 510.89,404.53 515.92,404.53 520.95,404.53 525.99,404.53 531.02,404.53 536.05,404.53 541.09,404.53 546.12,404.53 551.15,404.53 556.19,404.53 561.22,404.53 566.26,404.53 571.29,404.53 576.32,404.53 581.36,404.53 586.39,404.53 591.42,404.53 596.46,404.53 601.49,404.53 606.52,404.53 611.56,404.53 616.59,404.53 621.62,404.53 626.66,404.53 631.69,404.53 636.72,404.53 641.76,404.53 646.79,404.53 651.83,404.53 656.86,404.53 661.89,404.53 666.93,404.53 671.96,404.53 676.99,404.53 682.03,404.53 687.06,404.53 692.09,404.53 697.13,404.53 702.16,404.53 707.19,404.53 712.23,404.53 717.26,404.53 722.30,404.53 727.33,404.53 732.36,404.53 737.40,404.53 742.43,404.53 747.46,404.53 752.50,404.53 757.53,404.53 762.56,404.53 767.60,404.53 772.63,404.53 777.66,404.53 782.70,404.53 787.73,404.53 792.77,404.53 797.80,404.53 802.83,404.53 807.87,404.53 812.90,404.53 817.93,404.53 822.97,404.53 828.00,404.53" fill="none" stroke="#4e79a7" stroke-width="2" stroke-linejoin="round" stroke-linecap="round"><title>fixed_rho_0.1</title></polyline>
<polyline points="78.00,269.81 83.03,368.33 88.07,395.64 93.10,402.28 98.13,403.86 103.17,404.29 108.20,404.43 113.23,404.49 118.27,404.51 123.30,404.52 128.34,404.53 133.37,404.53 138.40,404.53 143.44,404.53 148.47,404.53 153.50,404.53 158.54,404.53 163.57,404.53 168.60,404.53 173.64,404.53 178.67,404.53 183.70,404.53 188.74,404.53 193.77,404.53 198.81,404.53" fill="none" stroke="#59a14f" stroke-width="2" stroke-linejoin="round" stroke-linecap="round"><title>fixed_rho_1.0</title></polyline>
<polyline points="78.00,75.90 83.03,138.31 88.07,188.31 93.10,228.19 98.13,260.07 103.17,285.66 108.20,306.28 113.23,322.97 118.27,336.54 123.30,347.62 128.34,356.72 133.37,364.21 138.40,370.41 143.44,375.56 148.47,379.85 153.50,383.44 158.54,386.45 163.57,388.99 168.60,391.14 173.64,392.97 178.67,394.53 183.70,395.87 188.74,397.01 193.77,398.00 198.81,398.85 203.84,399.58 208.87,400.22 213.91,400.75 218.94,401.22 223.97,401.62 229.01,401.97 234.04,402.28 239.07,402.54 244.11,402.78 249.14,402.98 254.17,403.16 259.21,403.32 264.24,403.46 269.28,403.58 274.31,403.68 279.34,403.78 284.38,403.86 289.41,403.94 294.44,404.00 299.48,404.06 304.51,404.11 309.54,404.16 314.58,404.20 319.61,404.23 324.64,404.26 329.68,404.29 334.71,404.32 339.74,404.34 344.78,404.36 349.81,404.38 354.85,404.39 359.88,404.41 364.91,404.42 369.95,404.43 374.98,404.44 380.01,404.45 385.05,404.46 390.08,404.47 395.11,404.47 400.15,404.48 405.18,404.48 410.21,404.49 415.25,404.49 420.28,404.50 425.32,404.50 430.35,404.50 435.38,404.51 440.42,404.51 445.45,404.51 450.48,404.51 455.52,404.51 460.55,404.51 465.58,404.52 470.62,404.52 475.65,404.52 480.68,404.52 485.72,404.52 490.75,404.52 495.79,404.52 500.82,404.52 505.85,404.52 510.89,404.52 515.92,404.52 520.95,404.52 525.99,404.53 531.02,404.53 536.05,404.53 541.09,404.53 546.12,404.53 551.15,404.53 556.19,404.53 561.22,404.53 566.26,404.53 571.29,404.53 576.32,404.53 581.36,404.53 586.39,404.53 591.42,404.53 596.46,404.53 601.49,404.53 606.52,404.53 611.56,404.53 616.59,404.53 621.62,404.53 626.66,404.53 631.69,404.53 636.72,404.53 641.76,404.53 646.79,404.53 651.83,404.53 656.86,404.53 661.89,404.53 666.93,404.53 671.96,404.53 676.99,404.53 682.03,404.53 687.06,404.53 692.09,404.53 697.13,404.53 702.16,404.53 707.19,404.53 712.23,404.53 717.26,404.53 722.30,404.53 727.33,404.53 732.36,404.53 737.40,404.53 742.43,404.53 747.46,404.53 752.50,404.53 757.53,404.53 762.56,404.53 767.60,404.53 772.63,404.53 777.66,404.53 782.70,404.53 787.73,404.53 792.77,404.53 797.80,404.53 802.83,404.53 807.87,404.53 812.90,404.53 817.93,404.53 822.97,404.53 828.00,404.53" fill="none" stroke="#e15759" stroke-width="2" stroke-linejoin="round" stroke-linecap="round"><title>fixed_rho_10.0</title></polyline>
<polyline points="78.00,269.81 83.03,368.33 88.07,395.64 93.10,402.59 98.13,403.98 103.17,404.31 108.20,404.43 113.23,404.48 118.27,404.51 123.30,404.52 128.34,404.52 133.37,404.53 138.40,404.53 143.44,404.53 148.47,404.53 153.50,404.53 158.54,404.53 163.57,404.53 168.60,404.53 173.64,404.53 178.67,404.53 183.70,404.53 188.74,404.53 193.77,404.53 198.81,404.53 203.84,404.53" fill="none" stroke="#76b7b2" stroke-width="2" stroke-linejoin="round" stroke-linecap="round"><title>online_ogd_epoch3</title></polyline>
<polyline points="78.00,269.81 83.03,374.19 88.07,399.51 93.10,403.59 98.13,404.10 103.17,404.25 108.20,404.37 113.23,404.45 118.27,404.49 123.30,404.51 128.34,404.52 133.37,404.53 138.40,404.53 143.44,404.53 148.47,404.53 153.50,404.53 158.54,404.53 163.57,404.53 168.60,404.53 173.64,404.53 178.67,404.53 183.70,404.53 188.74,404.53 193.77,404.53 198.81,404.53" fill="none" stroke="#b07aa1" stroke-width="2" stroke-linejoin="round" stroke-linecap="round"><title>online_ogd</title></polyline>
<polyline points="78.00,269.81 83.03,368.33 88.07,395.64 93.10,402.28 98.13,403.86 103.17,404.29 108.20,404.43 113.23,404.49 118.27,404.51 123.30,404.52 128.34,404.53 133.37,404.53 138.40,404.53 143.44,404.53 148.47,404.53 153.50,404.53 158.54,404.53 163.57,404.53 168.60,404.53 173.64,404.53 178.67,404.53 183.70,404.53 188.74,404.53 193.77,404.53 198.81,404.53" fill="none" stroke="#f28e2b" stroke-width="2" stroke-linejoin="round" stroke-linecap="round"><title>residual_balance</title></polyline>
<line x1="846" x2="862" y1="60" y2="60" stroke="#4e79a7" stroke-width="3"/>
<text x="868" y="64" font-size="11" font-family="Arial">fixed_rho_0.1</text>
<line x1="846" x2="862" y1="80" y2="80" stroke="#59a14f" stroke-width="3"/>
<text x="868" y="84" font-size="11" font-family="Arial">fixed_rho_1.0</text>
<line x1="846" x2="862" y1="100" y2="100" stroke="#e15759" stroke-width="3"/>
<text x="868" y="104" font-size="11" font-family="Arial">fixed_rho_10.0</text>
<line x1="846" x2="862" y1="120" y2="120" stroke="#76b7b2" stroke-width="3"/>
<text x="868" y="124" font-size="11" font-family="Arial">online_ogd_epoch3</text>
<line x1="846" x2="862" y1="140" y2="140" stroke="#b07aa1" stroke-width="3"/>
<text x="868" y="144" font-size="11" font-family="Arial">online_ogd</text>
<line x1="846" x2="862" y1="160" y2="160" stroke="#f28e2b" stroke-width="3"/>
<text x="868" y="164" font-size="11" font-family="Arial">residual_balance</text>
</svg>
