<svg xmlns="http://www.w3.org/2000/svg" width="980" height="470" viewBox="0 0 980 470" role="img" aria-label="Consensus Lasso Dual Norm Trajectories, Seed 0">
<title>Consensus Lasso Dual Norm Trajectories, Seed 0</title>
<rect width="980" height="470" fill="#ffffff"/>
<text x="78" y="28" font-size="20" font-family="Arial" font-weight="700">Consensus Lasso Dual Norm Trajectories, Seed 0</text>
<text x="453.0" y="458" text-anchor="middle" font-size="12" font-family="Arial">ADMM iteration</text>
<text x="18" y="232.0" transform="rotate(-90 18 232.0)" font-size="12" font-family="Arial">dual residual</text>
<line x1="78" x2="828" y1="408.00" y2="408.00" stroke="#e5e7eb"/>
<text x="70" y="412.00" text-anchor="end" font-size="11" font-family="Arial" fill="#4b5563">1e-6</text>
<line x1="78" x2="828" y1="320.00" y2="320.00" stroke="#e5e7eb"/>
<text x="70" y="324.00" text-anchor="end" font-size="11" font-family="Arial" fill="#4b5563">1e-4</text>
<line x1="78" x2="828" y1="232.00" y2="232.00" stroke="#e5e7eb"/>
<text x="70" y="236.00" text-anchor="end" font-size="11" font-family="Arial" fill="#4b5563">1e-2</text>
<line x1="78" x2="828" y1="144.00" y2="144.00" stroke="#e5e7eb"/>
<text x="70" y="148.00" text-anchor="end" font-size="11" font-family="Arial" fill="#4b5563">1e0</text>
<line x1="78" x2="828" y1="56.00" y2="56.00" stroke="#e5e7eb"/>
<text x="70" y="60.00" text-anchor="end" font-size="11" font-family="Arial" fill="#4b5563">1e1</text>
<line x1="78.00" x2="78.00" y1="56" y2="408" stroke="#f3f4f6"/>
<text x="78.00" y="426" text-anchor="middle" font-size="11" font-family="Arial" fill="#4b5563">1</text>
<line x1="265.50" x2="265.50" y1="56" y2="408" stroke="#f3f4f6"/>
<text x="265.50" y="426" text-anchor="middle" font-size="11" font-family="Arial" fill="#4b5563">38</text>
<line x1="453.00" x2="453.00" y1="56" y2="408" stroke="#f3f4f6"/>
<text x="453.00" y="426" text-anchor="middle" font-size="11" font-family="Arial" fill="#4b5563">75</text>
<line x1="640.50" x2="640.50" y1="56" y2="408" stroke="#f3f4f6"/>
<text x="640.50" y="426" text-anchor="middle" font-size="11" font-family="Arial" fill="#4b5563">112</text>
<line x1="828.00" x2="828.00" y1="56" y2="408" stroke="#f3f4f6"/>
<text x="828.00" y="426" text-anchor="middle" font-size="11" font-family="Arial" fill="#4b5563">150</text>
<polyline points="78.00,128.84 83.03,148.00 88.07,176.03 93.10,197.04 98.13,208.77 103.17,220.49 108.20,222.22 113.23,236.12 118.27,241.61 123.30,244.42 128.34,246.97 133.37,249.52 138.40,228.38 143.44,238.09 148.47,248.88 153.50,254.97 158.54,258.80 163.57,261.57 168.60,263.87 173.64,265.36 178.67,265.01 183.70,269.01 188.74,271.34 193.77,273.24 198.81,274.98 203.84,276.66 208.87,278.30 213.91,279.91 218.94,281.49 223.97,283.06 229.01,284.60 234.04,286.12 239.07,287.62 244.11,289.10 249.14,268.61 254.17,258.28 259.21,267.38 264.24,281.08 269.28,289.59 274.31,293.66 279.34,295.69 284.38,297.11 289.41,298.41 294.44,299.71 299.48,293.16 304.51,279.01 309.54,292.92 314.58,300.76 319.61,304.32 324.64,306.26 329.68,307.71 334.71,309.01 339.74,310.27 344.78,311.52 349.81,312.75 354.85,313.96 359.88,315.16 364.91,316.33 369.95,317.49 374.98,318.64 380.01,319.77 385.05,320.89 390.08,322.00 395.11,323.10 400.15,324.18 405.18,325.26 410.21,326.33 415.25,327.39 420.28,328.44 425.32,329.48 430.35,330.51 435.38,331.54 440.42,332.56 445.45,333.58 450.48,334.59 455.52,335.59 460.55,336.58 465.58,337.57 470.62,338.56 475.65,339.54 480.68,340.51 485.72,341.48 490.75,342.45 495.79,343.41 500.82,344.37 505.85,345.32 510.89,346.27 515.92,347.21 520.95,348.16 525.99,349.09 531.02,350.03 536.05,350.96 541.09,351.89 546.12,352.81 551.15,353.73 556.19,354.65 561.22,355.57 566.26,356.48 571.29,353.02 576.32,340.96 581.36,355.29 586.39,359.43 591.42,360.74 596.46,361.68 601.49,362.64 606.52,363.61 611.56,364.57 616.59,365.51 621.62,366.43 626.66,367.34 631.69,368.24 636.72,369.13 641.76,370.03 646.79,370.91 651.83,371.80 656.86,372.68 661.89,373.56 666.93,374.44 671.96,375.32 676.99,376.19 682.03,377.07 687.06,377.94 692.09,378.81 697.13,379.67 702.16,380.54 707.19,381.41 712.23,382.27 717.26,383.13 722.30,383.99 727.33,384.85 732.36,385.71 737.40,386.56 742.43,387.42 747.46,388.27 752.50,389.13 757.53,389.98 762.56,390.83 767.60,391.68 772.63,392.52 777.66,393.37 782.70,394.21 787.73,395.06 792.77,395.90 797.80,396.74 802.83,397.58 807.87,398.42 812.90,399.26 817.93,400.10 822.97,400.93 828.00,401.77" fill="none" stroke="#4e79a7" stroke-width="2" stroke-linejoin="round" stroke-linecap="round"><title>fixed_rho_0.1</title></polyline>
<polyline points="78.00,89.47 83.03,97.61 88.07,109.33 93.10,122.36 98.13,135.98 103.17,149.40 108.20,162.58 113.23,174.77 118.27,186.40 123.30,197.74 128.34,208.56 133.37,218.27 138.40,226.83 143.44,234.84 148.47,242.60 153.50,250.36 158.54,258.28 163.57,266.44 168.60,274.87 173.64,283.60 178.67,292.60 183.70,301.84 188.74,311.30 193.77,320.94 198.81,330.70" fill="none" stroke="#59a14f" stroke-width="2" stroke-linejoin="round" stroke-linecap="round"><title>fixed_rho_1.0</title></polyline>
<polyline points="78.00,72.03 83.03,73.20 88.07,75.52 93.10,77.96 98.13,80.39 103.17,82.78 108.20,85.13 113.23,87.43 118.27,89.68 123.30,91.88 128.34,94.03 133.37,96.14 138.40,98.19 143.44,100.20 148.47,102.18 153.50,104.15 158.54,106.04 163.57,107.89 168.60,109.69 173.64,111.46 178.67,113.19 183.70,114.89 188.74,116.56 193.77,118.19 198.81,119.80 203.84,121.39 208.87,122.95 213.91,124.84 218.94,126.40 223.97,127.94 229.01,129.46 234.04,130.95 239.07,132.42 244.11,133.88 249.14,135.32 254.17,136.75 259.21,138.17 264.24,139.56 269.28,140.95 274.31,142.33 279.34,143.70 284.38,145.05 289.41,146.39 294.44,147.75 299.48,149.14 304.51,150.45 309.54,151.75 314.58,153.05 319.61,154.33 324.64,155.61 329.68,156.88 334.71,158.15 339.74,159.41 344.78,160.66 349.81,161.91 354.85,163.16 359.88,164.40 364.91,165.63 369.95,166.86 374.98,168.09 380.01,169.31 385.05,170.53 390.08,171.75 395.11,172.97 400.15,174.18 405.18,175.38 410.21,176.59 415.25,177.79 420.28,178.99 425.32,180.19 430.35,181.38 435.38,182.57 440.42,183.76 445.45,184.95 450.48,186.14 455.52,187.32 460.55,188.50 465.58,189.68 470.62,190.86 475.65,192.04 480.68,193.21 485.72,194.38 490.75,195.55 495.79,196.72 500.82,197.89 505.85,199.05 510.89,200.21 515.92,201.38 520.95,202.54 525.99,203.69 531.02,204.85 536.05,206.01 541.09,207.16 546.12,208.31 551.15,209.46 556.19,210.61 561.22,211.76 566.26,212.91 571.29,214.05 576.32,215.20 581.36,216.34 586.39,217.48 591.42,218.62 596.46,219.76 601.49,220.90 606.52,222.03 611.56,223.17 616.59,224.30 621.62,225.43 626.66,226.55 631.69,227.68 636.72,228.80 641.76,229.92 646.79,231.03 651.83,232.14 656.86,233.25 661.89,234.36 666.93,235.47 671.96,236.57 676.99,237.67 682.03,238.78 687.06,239.87 692.09,240.97 697.13,242.07 702.16,243.16 707.19,244.25 712.23,245.34 717.26,246.43 722.30,247.52 727.33,248.61 732.36,249.69 737.40,250.78 742.43,251.86 747.46,252.94 752.50,254.02 757.53,255.10 762.56,256.18 767.60,257.26 772.63,258.33 777.66,259.41 782.70,260.48 787.73,261.56 792.77,262.63 797.80,263.70 802.83,264.77 807.87,265.84 812.90,266.91 817.93,267.98 822.97,269.04 828.00,270.11" fill="none" stroke="#e15759" stroke-width="2" stroke-linejoin="round" stroke-linecap="round"><title>fixed_rho_10.0</title></polyline>
<polyline points="78.00,89.47 83.03,97.61 88.07,109.33 93.10,122.95 98.13,137.58 103.17,152.40 108.20,166.67 113.23,179.52 118.27,190.87 123.30,200.26 128.34,208.11 133.37,215.30 138.40,222.41 143.44,229.89 148.47,237.82 153.50,245.99 158.54,254.49 163.57,263.33 168.60,272.37 173.64,281.66 178.67,291.19 183.70,300.76 188.74,310.36 193.77,320.00 198.81,329.37 203.84,338.54" fill="none" stroke="#76b7b2" stroke-width="2" stroke-linejoin="round" stroke-linecap="round"><title>online_ogd_epoch3</title></polyline>
<polyline points="78.00,89.47 83.03,99.10 88.07,113.02 93.10,129.08 98.13,146.53 103.17,164.38 108.20,178.44 113.23,185.92 118.27,190.56 123.30,195.39 128.34,201.28 133.37,208.27 138.40,216.00 143.44,224.28 148.47,232.93 153.50,241.85 158.54,250.98 163.57,260.24 168.60,269.56 173.64,278.86 178.67,288.05 183.70,297.05 188.74,305.83 193.77,314.40 198.81,322.80" fill="none" stroke="#b07aa1" stroke-width="2" stroke-linejoin="round" stroke-linecap="round"><title>online_ogd</title></polyline>
<polyline points="78.00,89.47 83.03,97.61 88.07,109.33 93.10,122.36 98.13,135.98 103.17,149.40 108.20,162.58 113.23,174.77 118.27,186.40 123.30,197.74 128.34,208.56 133.37,218.27 138.40,226.83 143.44,234.84 148.47,242.60 153.50,250.36 158.54,258.28 163.57,266.44 168.60,274.87 173.64,283.60 178.67,292.60 183.70,301.84 188.74,311.30 193.77,320.94 198.81,330.70" fill="none" stroke="#f28e2b" stroke-width="2" stroke-linejoin="round" stroke-linecap="round"><title>residual_balance</title></polyline>
<line x1="846" x2="862" y1="60" y2="60" stroke="#4e79a7" stroke-width="3"/>
<text x="868" y="64" font-size="11" font-family="Arial">fixed_rho_0.1</text>
<line x1="846" x2="862" y1="80" y2="80" stroke="#59a14f" stroke-width="3"/>
<text x="868" y="84" font-size="11" font-family="Arial">fixed_rho_1.0</text>
<line x1="846" x2="862" y1="100" y2="100" stroke="#e15759" stroke-width="3"/>
<text x="868" y="104" font-size="11" font-family="Arial">fixed_rho_10.0</text>
<line x1="846" x2="862" y1="120" y2="120" stroke="#76b7b2" stroke-width="3"/>
<text x="868" y="124" font-size="11" font-family="Arial">online_ogd_epoch3</text>
<line x1="846" x2="862" y1="140" y2="140" stroke="#b07aa1" stroke-width="3"/>
<text x="868" y="144" font-size="11" font-family="Arial">online_ogd</text>
<line x1="846" x2="862" y1="160" y2="160" stroke="#f28e2b" stroke-width="3"/>
<text x="868" y="164" font-size="11" font-family="Arial">residual_balance</text>
</svg>
