<svg xmlns="http://www.w3.org/2000/svg" width="980" height="470" viewBox="0 0 980 470" role="img" aria-label="Average Final Dual Residual">
<title>Average Final Dual Residual</title>
<rect width="980" height="470" fill="#ffffff"/>
<text x="82" y="28" font-size="20" font-family="Arial" font-weight="700">Average Final Dual Residual</text>
<text x="18" y="213.0" transform="rotate(-90 18 213.0)" font-size="12" font-family="Arial">dual residual</text>
<line x1="82" x2="956" y1="370.00" y2="370.00" stroke="#e5e7eb"/>
<text x="74" y="374.00" text-anchor="end" font-size="11" font-family="Arial" fill="#4b5563">1e-6</text>
<line x1="82" x2="956" y1="291.50" y2="291.50" stroke="#e5e7eb"/>
<text x="74" y="295.50" text-anchor="end" font-size="11" font-family="Arial" fill="#4b5563">1e-5</text>
<line x1="82" x2="956" y1="213.00" y2="213.00" stroke="#e5e7eb"/>
<text x="74" y="217.00" text-anchor="end" font-size="11" font-family="Arial" fill="#4b5563">1e-4</text>
<line x1="82" x2="956" y1="134.50" y2="134.50" stroke="#e5e7eb"/>
<text x="74" y="138.50" text-anchor="end" font-size="11" font-family="Arial" fill="#4b5563">1e-3</text>
<line x1="82" x2="956" y1="56.00" y2="56.00" stroke="#e5e7eb"/>
<text x="74" y="60.00" text-anchor="end" font-size="11" font-family="Arial" fill="#4b5563">1e-2</text>
<text x="227.67" y="416" text-anchor="middle" font-size="12" font-family="Arial">consensus lasso</text>
<rect x="90.00" y="349.00" width="43.89" height="21.00" fill="#4e79a7"><title>consensus_lasso / fixed_rho_0.1: 1.852e-06</title></rect>
<rect x="135.89" y="264.64" width="43.89" height="105.36" fill="#59a14f"><title>consensus_lasso / fixed_rho_1.0: 2.199e-05</title></rect>
<rect x="181.78" y="172.33" width="43.89" height="197.67" fill="#e15759"><title>consensus_lasso / fixed_rho_10.0: 0.0003296</title></rect>
<rect x="227.67" y="224.85" width="43.89" height="145.15" fill="#b07aa1"><title>consensus_lasso / online_ogd: 7.064e-05</title></rect>
<rect x="273.56" y="250.38" width="43.89" height="119.62" fill="#76b7b2"><title>consensus_lasso / online_ogd_epoch3: 3.341e-05</title></rect>
<rect x="319.44" y="264.64" width="43.89" height="105.36" fill="#f28e2b"><title>consensus_lasso / residual_balance: 2.199e-05</title></rect>
<text x="519.00" y="416" text-anchor="middle" font-size="12" font-family="Arial">graphical lasso</text>
<rect x="381.33" y="336.13" width="43.89" height="33.87" fill="#4e79a7"><title>graphical_lasso / fixed_rho_0.1: 2.701e-06</title></rect>
<rect x="427.22" y="214.45" width="43.89" height="155.55" fill="#59a14f"><title>graphical_lasso / fixed_rho_1.0: 9.583e-05</title></rect>
<rect x="473.11" y="72.84" width="43.89" height="297.16" fill="#e15759"><title>graphical_lasso / fixed_rho_10.0: 0.006103</title></rect>
<rect x="519.00" y="217.98" width="43.89" height="152.02" fill="#b07aa1"><title>graphical_lasso / online_ogd: 8.641e-05</title></rect>
<rect x="564.89" y="270.65" width="43.89" height="99.35" fill="#76b7b2"><title>graphical_lasso / online_ogd_epoch3: 1.843e-05</title></rect>
<rect x="610.78" y="214.45" width="43.89" height="155.55" fill="#f28e2b"><title>graphical_lasso / residual_balance: 9.583e-05</title></rect>
<text x="810.33" y="416" text-anchor="middle" font-size="12" font-family="Arial">tv denoising</text>
<rect x="672.67" y="198.66" width="43.89" height="171.34" fill="#4e79a7"><title>tv_denoising / fixed_rho_0.1: 0.0001523</title></rect>
<rect x="718.56" y="257.58" width="43.89" height="112.42" fill="#59a14f"><title>tv_denoising / fixed_rho_1.0: 2.704e-05</title></rect>
<rect x="764.44" y="183.73" width="43.89" height="186.27" fill="#e15759"><title>tv_denoising / fixed_rho_10.0: 0.000236</title></rect>
<rect x="810.33" y="222.17" width="43.89" height="147.83" fill="#b07aa1"><title>tv_denoising / online_ogd: 7.641e-05</title></rect>
<rect x="856.22" y="229.05" width="43.89" height="140.95" fill="#76b7b2"><title>tv_denoising / online_ogd_epoch3: 6.245e-05</title></rect>
<rect x="902.11" y="254.57" width="43.89" height="115.43" fill="#f28e2b"><title>tv_denoising / residual_balance: 2.954e-05</title></rect>
<rect x="82" y="430" width="10" height="10" fill="#4e79a7"/>
<text x="97" y="440" font-size="11" font-family="Arial">fixed_rho_0.1</text>
<rect x="227" y="430" width="10" height="10" fill="#59a14f"/>
<text x="242" y="440" font-size="11" font-family="Arial">fixed_rho_1.0</text>
<rect x="372" y="430" width="10" height="10" fill="#e15759"/>
<text x="387" y="440" font-size="11" font-family="Arial">fixed_rho_10.0</text>
<rect x="517" y="430" width="10" height="10" fill="#b07aa1"/>
<text x="532" y="440" font-size="11" font-family="Arial">online_ogd</text>
<rect x="662" y="430" width="10" height="10" fill="#76b7b2"/>
<text x="677" y="440" font-size="11" font-family="Arial">online_ogd_epoch3</text>
<rect x="807" y="430" width="10" height="10" fill="#f28e2b"/>
<text x="822" y="440" font-size="11" font-family="Arial">residual_balance</text>
</svg>
