<svg xmlns="http://www.w3.org/2000/svg" width="980" height="470" viewBox="0 0 980 470" role="img" aria-label="Average Final Primal Residual">
<title>Average Final Primal Residual</title>
<rect width="980" height="470" fill="#ffffff"/>
<text x="82" y="28" font-size="20" font-family="Arial" font-weight="700">Average Final Primal Residual</text>
<text x="18" y="213.0" transform="rotate(-90 18 213.0)" font-size="12" font-family="Arial">primal residual</text>
<line x1="82" x2="956" y1="370.00" y2="370.00" stroke="#e5e7eb"/>
<text x="74" y="374.00" text-anchor="end" font-size="11" font-family="Arial" fill="#4b5563">1e-7</text>
<line x1="82" x2="956" y1="291.50" y2="291.50" stroke="#e5e7eb"/>
<text x="74" y="295.50" text-anchor="end" font-size="11" font-family="Arial" fill="#4b5563">1e-5</text>
<line x1="82" x2="956" y1="213.00" y2="213.00" stroke="#e5e7eb"/>
<text x="74" y="217.00" text-anchor="end" font-size="11" font-family="Arial" fill="#4b5563">1e-4</text>
<line x1="82" x2="956" y1="134.50" y2="134.50" stroke="#e5e7eb"/>
<text x="74" y="138.50" text-anchor="end" font-size="11" font-family="Arial" fill="#4b5563">1e-2</text>
<line x1="82" x2="956" y1="56.00" y2="56.00" stroke="#e5e7eb"/>
<text x="74" y="60.00" text-anchor="end" font-size="11" font-family="Arial" fill="#4b5563">1e-1</text>
<text x="227.67" y="416" text-anchor="middle" font-size="12" font-family="Arial">consensus lasso</text>
<rect x="90.00" y="151.67" width="43.89" height="218.33" fill="#4e79a7"><title>consensus_lasso / fixed_rho_0.1: 0.001486</title></rect>
<rect x="135.89" y="217.57" width="43.89" height="152.43" fill="#59a14f"><title>consensus_lasso / fixed_rho_1.0: 8.178e-05</title></rect>
<rect x="181.78" y="301.91" width="43.89" height="68.09" fill="#e15759"><title>consensus_lasso / fixed_rho_10.0: 2e-06</title></rect>
<rect x="227.67" y="220.84" width="43.89" height="149.16" fill="#b07aa1"><title>consensus_lasso / online_ogd: 7.081e-05</title></rect>
<rect x="273.56" y="218.89" width="43.89" height="151.11" fill="#76b7b2"><title>consensus_lasso / online_ogd_epoch3: 7.718e-05</title></rect>
<rect x="319.44" y="217.57" width="43.89" height="152.43" fill="#f28e2b"><title>consensus_lasso / residual_balance: 8.178e-05</title></rect>
<text x="519.00" y="416" text-anchor="middle" font-size="12" font-family="Arial">graphical lasso</text>
<rect x="381.33" y="138.56" width="43.89" height="231.44" fill="#4e79a7"><title>graphical_lasso / fixed_rho_0.1: 0.002646</title></rect>
<rect x="427.22" y="219.40" width="43.89" height="150.60" fill="#59a14f"><title>graphical_lasso / fixed_rho_1.0: 7.547e-05</title></rect>
<rect x="473.11" y="271.01" width="43.89" height="98.99" fill="#e15759"><title>graphical_lasso / fixed_rho_10.0: 7.788e-06</title></rect>
<rect x="519.00" y="216.85" width="43.89" height="153.15" fill="#b07aa1"><title>graphical_lasso / online_ogd: 8.44e-05</title></rect>
<rect x="564.89" y="216.19" width="43.89" height="153.81" fill="#76b7b2"><title>graphical_lasso / online_ogd_epoch3: 8.689e-05</title></rect>
<rect x="610.78" y="219.40" width="43.89" height="150.60" fill="#f28e2b"><title>graphical_lasso / residual_balance: 7.547e-05</title></rect>
<text x="810.33" y="416" text-anchor="middle" font-size="12" font-family="Arial">tv denoising</text>
<rect x="672.67" y="75.82" width="43.89" height="294.18" fill="#4e79a7"><title>tv_denoising / fixed_rho_0.1: 0.0418</title></rect>
<rect x="718.56" y="196.14" width="43.89" height="173.86" fill="#59a14f"><title>tv_denoising / fixed_rho_1.0: 0.00021</title></rect>
<rect x="764.44" y="329.50" width="43.89" height="40.50" fill="#e15759"><title>tv_denoising / fixed_rho_10.0: 5.941e-07</title></rect>
<rect x="810.33" y="214.54" width="43.89" height="155.46" fill="#b07aa1"><title>tv_denoising / online_ogd: 9.346e-05</title></rect>
<rect x="856.22" y="214.56" width="43.89" height="155.44" fill="#76b7b2"><title>tv_denoising / online_ogd_epoch3: 9.338e-05</title></rect>
<rect x="902.11" y="207.69" width="43.89" height="162.31" fill="#f28e2b"><title>tv_denoising / residual_balance: 0.0001263</title></rect>
<rect x="82" y="430" width="10" height="10" fill="#4e79a7"/>
<text x="97" y="440" font-size="11" font-family="Arial">fixed_rho_0.1</text>
<rect x="227" y="430" width="10" height="10" fill="#59a14f"/>
<text x="242" y="440" font-size="11" font-family="Arial">fixed_rho_1.0</text>
<rect x="372" y="430" width="10" height="10" fill="#e15759"/>
<text x="387" y="440" font-size="11" font-family="Arial">fixed_rho_10.0</text>
<rect x="517" y="430" width="10" height="10" fill="#b07aa1"/>
<text x="532" y="440" font-size="11" font-family="Arial">online_ogd</text>
<rect x="662" y="430" width="10" height="10" fill="#76b7b2"/>
<text x="677" y="440" font-size="11" font-family="Arial">online_ogd_epoch3</text>
<rect x="807" y="430" width="10" height="10" fill="#f28e2b"/>
<text x="822" y="440" font-size="11" font-family="Arial">residual_balance</text>
</svg>
