<svg xmlns="http://www.w3.org/2000/svg" width="980" height="470" viewBox="0 0 980 470" role="img" aria-label="Graphical Lasso Rho Trajectories, Seed 0">
<title>Graphical Lasso Rho Trajectories, Seed 0</title>
<rect width="980" height="470" fill="#ffffff"/>
<text x="78" y="28" font-size="20" font-family="Arial" font-weight="700">Graphical Lasso Rho Trajectories, Seed 0</text>
<text x="453.0" y="458" text-anchor="middle" font-size="12" font-family="Arial">ADMM iteration</text>
<text x="18" y="232.0" transform="rotate(-90 18 232.0)" font-size="12" font-family="Arial">rho</text>
<line x1="78" x2="828" y1="408.00" y2="408.00" stroke="#e5e7eb"/>
<text x="70" y="412.00" text-anchor="end" font-size="11" font-family="Arial" fill="#4b5563">1e-1</text>
<line x1="78" x2="828" y1="320.00" y2="320.00" stroke="#e5e7eb"/>
<text x="70" y="324.00" text-anchor="end" font-size="11" font-family="Arial" fill="#4b5563">1e0</text>
<line x1="78" x2="828" y1="232.00" y2="232.00" stroke="#e5e7eb"/>
<text x="70" y="236.00" text-anchor="end" font-size="11" font-family="Arial" fill="#4b5563">1e0</text>
<line x1="78" x2="828" y1="144.00" y2="144.00" stroke="#e5e7eb"/>
<text x="70" y="148.00" text-anchor="end" font-size="11" font-family="Arial" fill="#4b5563">1e0</text>
<line x1="78" x2="828" y1="56.00" y2="56.00" stroke="#e5e7eb"/>
<text x="70" y="60.00" text-anchor="end" font-size="11" font-family="Arial" fill="#4b5563">1e1</text>
<line x1="78.00" x2="78.00" y1="56" y2="408" stroke="#f3f4f6"/>
<text x="78.00" y="426" text-anchor="middle" font-size="11" font-family="Arial" fill="#4b5563">1</text>
<line x1="265.50" x2="265.50" y1="56" y2="408" stroke="#f3f4f6"/>
<text x="265.50" y="426" text-anchor="middle" font-size="11" font-family="Arial" fill="#4b5563">38</text>
<line x1="453.00" x2="453.00" y1="56" y2="408" stroke="#f3f4f6"/>
<text x="453.00" y="426" text-anchor="middle" font-size="11" font-family="Arial" fill="#4b5563">75</text>
<line x1="640.50" x2="640.50" y1="56" y2="408" stroke="#f3f4f6"/>
<text x="640.50" y="426" text-anchor="middle" font-size="11" font-family="Arial" fill="#4b5563">112</text>
<line x1="828.00" x2="828.00" y1="56" y2="408" stroke="#f3f4f6"/>
<text x="828.00" y="426" text-anchor="middle" font-size="11" font-family="Arial" fill="#4b5563">150</text>
<polyline points="78.00,408.00 83.03,408.00 88.07,408.00 93.10,408.00 98.13,408.00 103.17,408.00 108.20,408.00 113.23,408.00 118.27,408.00 123.30,408.00 128.34,408.00 133.37,408.00 138.40,408.00 143.44,408.00 148.47,408.00 153.50,408.00 158.54,408.00 163.57,408.00 168.60,408.00 173.64,408.00 178.67,408.00 183.70,408.00 188.74,408.00 193.77,408.00 198.81,408.00 203.84,408.00 208.87,408.00 213.91,408.00 218.94,408.00 223.97,408.00 229.01,408.00 234.04,408.00 239.07,408.00 244.11,408.00 249.14,408.00 254.17,408.00 259.21,408.00 264.24,408.00 269.28,408.00 274.31,408.00 279.34,408.00 284.38,408.00 289.41,408.00 294.44,408.00 299.48,408.00 304.51,408.00 309.54,408.00 314.58,408.00 319.61,408.00 324.64,408.00 329.68,408.00 334.71,408.00 339.74,408.00 344.78,408.00 349.81,408.00 354.85,408.00 359.88,408.00 364.91,408.00 369.95,408.00 374.98,408.00 380.01,408.00 385.05,408.00 390.08,408.00 395.11,408.00 400.15,408.00 405.18,408.00 410.21,408.00 415.25,408.00 420.28,408.00 425.32,408.00 430.35,408.00 435.38,408.00 440.42,408.00 445.45,408.00 450.48,408.00 455.52,408.00 460.55,408.00 465.58,408.00 470.62,408.00 475.65,408.00 480.68,408.00 485.72,408.00 490.75,408.00 495.79,408.00 500.82,408.00 505.85,408.00 510.89,408.00 515.92,408.00 520.95,408.00 525.99,408.00 531.02,408.00 536.05,408.00 541.09,408.00 546.12,408.00 551.15,408.00 556.19,408.00 561.22,408.00 566.26,408.00 571.29,408.00 576.32,408.00 581.36,408.00 586.39,408.00 591.42,408.00 596.46,408.00 601.49,408.00 606.52,408.00 611.56,408.00 616.59,408.00 621.62,408.00 626.66,408.00 631.69,408.00 636.72,408.00 641.76,408.00 646.79,408.00 651.83,408.00 656.86,408.00 661.89,408.00 666.93,408.00 671.96,408.00 676.99,408.00 682.03,408.00 687.06,408.00 692.09,408.00 697.13,408.00 702.16,408.00 707.19,408.00 712.23,408.00 717.26,408.00 722.30,408.00 727.33,408.00 732.36,408.00 737.40,408.00 742.43,408.00 747.46,408.00 752.50,408.00 757.53,408.00 762.56,408.00 767.60,408.00 772.63,408.00 777.66,408.00 782.70,408.00 787.73,408.00 792.77,408.00 797.80,408.00 802.83,408.00 807.87,408.00 812.90,408.00 817.93,408.00 822.97,408.00 828.00,408.00" fill="none" stroke="#4e79a7" stroke-width="2" stroke-linejoin="round" stroke-linecap="round"><title>fixed_rho_0.1</title></polyline>
<polyline points="78.00,232.00 83.03,232.00 88.07,232.00 93.10,232.00 98.13,232.00 103.17,232.00 108.20,232.00 113.23,232.00 118.27,232.00 123.30,232.00 128.34,232.00 133.37,232.00 138.40,232.00 143.44,232.00 148.47,232.00 153.50,232.00 158.54,232.00 163.57,232.00 168.60,232.00 173.64,232.00 178.67,232.00 183.70,232.00 188.74,232.00 193.77,232.00 198.81,232.00 203.84,232.00 208.87,232.00 213.91,232.00 218.94,232.00 223.97,232.00 229.01,232.00 234.04,232.00 239.07,232.00" fill="none" stroke="#59a14f" stroke-width="2" stroke-linejoin="round" stroke-linecap="round"><title>fixed_rho_1.0</title></polyline>
<polyline points="78.00,56.00 83.03,56.00 88.07,56.00 93.10,56.00 98.13,56.00 103.17,56.00 108.20,56.00 113.23,56.00 118.27,56.00 123.30,56.00 128.34,56.00 133.37,56.00 138.40,56.00 143.44,56.00 148.47,56.00 153.50,56.00 158.54,56.00 163.57,56.00 168.60,56.00 173.64,56.00 178.67,56.00 183.70,56.00 188.74,56.00 193.77,56.00 198.81,56.00 203.84,56.00 208.87,56.00 213.91,56.00 218.94,56.00 223.97,56.00 229.01,56.00 234.04,56.00 239.07,56.00 244.11,56.00 249.14,56.00 254.17,56.00 259.21,56.00 264.24,56.00 269.28,56.00 274.31,56.00 279.34,56.00 284.38,56.00 289.41,56.00 294.44,56.00 299.48,56.00 304.51,56.00 309.54,56.00 314.58,56.00 319.61,56.00 324.64,56.00 329.68,56.00 334.71,56.00 339.74,56.00 344.78,56.00 349.81,56.00 354.85,56.00 359.88,56.00 364.91,56.00 369.95,56.00 374.98,56.00 380.01,56.00 385.05,56.00 390.08,56.00 395.11,56.00 400.15,56.00 405.18,56.00 410.21,56.00 415.25,56.00 420.28,56.00 425.32,56.00 430.35,56.00 435.38,56.00 440.42,56.00 445.45,56.00 450.48,56.00 455.52,56.00 460.55,56.00 465.58,56.00 470.62,56.00 475.65,56.00 480.68,56.00 485.72,56.00 490.75,56.00 495.79,56.00 500.82,56.00 505.85,56.00 510.89,56.00 515.92,56.00 520.95,56.00 525.99,56.00 531.02,56.00 536.05,56.00 541.09,56.00 546.12,56.00 551.15,56.00 556.19,56.00 561.22,56.00 566.26,56.00 571.29,56.00 576.32,56.00 581.36,56.00 586.39,56.00 591.42,56.00 596.46,56.00 601.49,56.00 606.52,56.00 611.56,56.00 616.59,56.00 621.62,56.00 626.66,56.00 631.69,56.00 636.72,56.00 641.76,56.00 646.79,56.00 651.83,56.00 656.86,56.00 661.89,56.00 666.93,56.00 671.96,56.00 676.99,56.00 682.03,56.00 687.06,56.00 692.09,56.00 697.13,56.00 702.16,56.00 707.19,56.00 712.23,56.00 717.26,56.00 722.30,56.00 727.33,56.00 732.36,56.00 737.40,56.00 742.43,56.00 747.46,56.00 752.50,56.00 757.53,56.00 762.56,56.00 767.60,56.00 772.63,56.00 777.66,56.00 782.70,56.00 787.73,56.00 792.77,56.00 797.80,56.00 802.83,56.00 807.87,56.00 812.90,56.00 817.93,56.00 822.97,56.00 828.00,56.00" fill="none" stroke="#e15759" stroke-width="2" stroke-linejoin="round" stroke-linecap="round"><title>fixed_rho_10.0</title></polyline>
<polyline points="78.00,232.00 83.03,232.00 88.07,232.00 93.10,238.18 98.13,238.18 103.17,238.18 108.20,241.45 113.23,241.45 118.27,241.45 123.30,243.92 128.34,243.92 133.37,243.92 138.40,245.54 143.44,245.54 148.47,245.54 153.50,246.09 158.54,246.09 163.57,246.09 168.60,245.62 173.64,245.62 178.67,245.62 183.70,244.09 188.74,244.09 193.77,244.09 198.81,241.55 203.84,241.55 208.87,241.55 213.91,238.13 218.94,238.13 223.97,238.13 229.01,234.64 234.04,234.64 239.07,234.64 244.11,231.32 249.14,231.32 254.17,231.32 259.21,228.13" fill="none" stroke="#76b7b2" stroke-width="2" stroke-linejoin="round" stroke-linecap="round"><title>online_ogd_epoch3</title></polyline>
<polyline points="78.00,232.00 83.03,240.81 88.07,246.25 93.10,250.39 98.13,253.36 103.17,255.31 108.20,256.30 113.23,256.44 118.27,256.35 123.30,255.91 128.34,255.01 133.37,253.69 138.40,251.88 143.44,249.79 148.47,247.38 153.50,244.60 158.54,241.45 163.57,237.99 168.60,234.26 173.64,230.36 178.67,226.54 183.70,222.61 188.74,218.63 193.77,214.64 198.81,210.73 203.84,206.96 208.87,203.38 213.91,200.05 218.94,197.02 223.97,194.33 229.01,192.03 234.04,190.14" fill="none" stroke="#b07aa1" stroke-width="2" stroke-linejoin="round" stroke-linecap="round"><title>online_ogd</title></polyline>
<polyline points="78.00,232.00 83.03,232.00 88.07,232.00 93.10,232.00 98.13,232.00 103.17,232.00 108.20,232.00 113.23,232.00 118.27,232.00 123.30,232.00 128.34,232.00 133.37,232.00 138.40,232.00 143.44,232.00 148.47,232.00 153.50,232.00 158.54,232.00 163.57,232.00 168.60,232.00 173.64,232.00 178.67,232.00 183.70,232.00 188.74,232.00 193.77,232.00 198.81,232.00 203.84,232.00 208.87,232.00 213.91,232.00 218.94,232.00 223.97,232.00 229.01,232.00 234.04,232.00 239.07,232.00" fill="none" stroke="#f28e2b" stroke-width="2" stroke-linejoin="round" stroke-linecap="round"><title>residual_balance</title></polyline>
<line x1="846" x2="862" y1="60" y2="60" stroke="#4e79a7" stroke-width="3"/>
<text x="868" y="64" font-size="11" font-family="Arial">fixed_rho_0.1</text>
<line x1="846" x2="862" y1="80" y2="80" stroke="#59a14f" stroke-width="3"/>
<text x="868" y="84" font-size="11" font-family="Arial">fixed_rho_1.0</text>
<line x1="846" x2="862" y1="100" y2="100" stroke="#e15759" stroke-width="3"/>
<text x="868" y="104" font-size="11" font-family="Arial">fixed_rho_10.0</text>
<line x1="846" x2="862" y1="120" y2="120" stroke="#76b7b2" stroke-width="3"/>
<text x="868" y="124" font-size="11" font-family="Arial">online_ogd_epoch3</text>
<line x1="846" x2="862" y1="140" y2="140" stroke="#b07aa1" stroke-width="3"/>
<text x="868" y="144" font-size="11" font-family="Arial">online_ogd</text>
<line x1="846" x2="862" y1="160" y2="160" stroke="#f28e2b" stroke-width="3"/>
<text x="868" y="164" font-size="11" font-family="Arial">residual_balance</text>
</svg>
