<svg xmlns="http://www.w3.org/2000/svg" width="980" height="470" viewBox="0 0 980 470" role="img" aria-label="Graphical Lasso Dual Norm Trajectories, Seed 0">
<title>Graphical Lasso Dual Norm Trajectories, Seed 0</title>
<rect width="980" height="470" fill="#ffffff"/>
<text x="78" y="28" font-size="20" font-family="Arial" font-weight="700">Graphical Lasso Dual Norm Trajectories, Seed 0</text>
<text x="453.0" y="458" text-anchor="middle" font-size="12" font-family="Arial">ADMM iteration</text>
<text x="18" y="232.0" transform="rotate(-90 18 232.0)" font-size="12" font-family="Arial">dual residual</text>
<line x1="78" x2="828" y1="408.00" y2="408.00" stroke="#e5e7eb"/>
<text x="70" y="412.00" text-anchor="end" font-size="11" font-family="Arial" fill="#4b5563">1e-6</text>
<line x1="78" x2="828" y1="320.00" y2="320.00" stroke="#e5e7eb"/>
<text x="70" y="324.00" text-anchor="end" font-size="11" font-family="Arial" fill="#4b5563">1e-4</text>
<line x1="78" x2="828" y1="232.00" y2="232.00" stroke="#e5e7eb"/>
<text x="70" y="236.00" text-anchor="end" font-size="11" font-family="Arial" fill="#4b5563">1e-2</text>
<line x1="78" x2="828" y1="144.00" y2="144.00" stroke="#e5e7eb"/>
<text x="70" y="148.00" text-anchor="end" font-size="11" font-family="Arial" fill="#4b5563">1e0</text>
<line x1="78" x2="828" y1="56.00" y2="56.00" stroke="#e5e7eb"/>
<text x="70" y="60.00" text-anchor="end" font-size="11" font-family="Arial" fill="#4b5563">1e1</text>
<line x1="78.00" x2="78.00" y1="56" y2="408" stroke="#f3f4f6"/>
<text x="78.00" y="426" text-anchor="middle" font-size="11" font-family="Arial" fill="#4b5563">1</text>
<line x1="265.50" x2="265.50" y1="56" y2="408" stroke="#f3f4f6"/>
<text x="265.50" y="426" text-anchor="middle" font-size="11" font-family="Arial" fill="#4b5563">38</text>
<line x1="453.00" x2="453.00" y1="56" y2="408" stroke="#f3f4f6"/>
<text x="453.00" y="426" text-anchor="middle" font-size="11" font-family="Arial" fill="#4b5563">75</text>
<line x1="640.50" x2="640.50" y1="56" y2="408" stroke="#f3f4f6"/>
<text x="640.50" y="426" text-anchor="middle" font-size="11" font-family="Arial" fill="#4b5563">112</text>
<line x1="828.00" x2="828.00" y1="56" y2="408" stroke="#f3f4f6"/>
<text x="828.00" y="426" text-anchor="middle" font-size="11" font-family="Arial" fill="#4b5563">150</text>
<polyline points="78.00,145.34 83.03,197.23 88.07,168.44 93.10,167.69 98.13,189.54 103.17,181.41 108.20,194.87 113.23,207.83 118.27,189.59 123.30,193.21 128.34,194.83 133.37,208.19 138.40,199.81 143.44,204.96 148.47,206.64 153.50,211.78 158.54,224.71 163.57,216.20 168.60,216.66 173.64,225.41 178.67,221.91 183.70,223.25 188.74,220.25 193.77,225.55 198.81,241.91 203.84,263.53 208.87,288.78 213.91,270.77 218.94,231.63 223.97,234.15 229.01,231.35 234.04,259.61 239.07,246.02 244.11,240.39 249.14,269.95 254.17,261.27 259.21,243.23 264.24,250.77 269.28,262.78 274.31,254.07 279.34,307.75 284.38,309.15 289.41,269.24 294.44,256.24 299.48,278.07 304.51,313.96 309.54,315.59 314.58,316.59 319.61,317.58 324.64,277.40 329.68,269.98 334.71,318.95 339.74,321.19 344.78,263.93 349.81,298.10 354.85,306.75 359.88,266.22 364.91,319.97 369.95,292.72 374.98,255.30 380.01,256.16 385.05,288.07 390.08,271.72 395.11,271.99 400.15,332.56 405.18,334.48 410.21,335.33 415.25,336.18 420.28,337.02 425.32,337.85 430.35,338.67 435.38,339.49 440.42,340.29 445.45,341.08 450.48,341.86 455.52,314.47 460.55,288.06 465.58,340.02 470.62,344.49 475.65,345.35 480.68,346.10 485.72,346.85 490.75,347.58 495.79,348.30 500.82,349.02 505.85,349.73 510.89,350.43 515.92,351.13 520.95,351.82 525.99,352.50 531.02,353.17 536.05,318.69 541.09,317.78 546.12,353.97 551.15,355.81 556.19,356.49 561.22,299.69 566.26,288.74 571.29,348.87 576.32,357.62 581.36,358.59 586.39,359.30 591.42,359.99 596.46,360.67 601.49,361.35 606.52,362.01 611.56,362.68 616.59,363.33 621.62,363.99 626.66,364.63 631.69,365.28 636.72,365.91 641.76,366.55 646.79,367.17 651.83,367.80 656.86,368.42 661.89,369.03 666.93,369.64 671.96,370.25 676.99,370.86 682.03,371.46 687.06,372.05 692.09,372.64 697.13,373.23 702.16,373.82 707.19,374.40 712.23,374.98 717.26,375.56 722.30,376.14 727.33,376.71 732.36,377.28 737.40,377.84 742.43,378.40 747.46,378.96 752.50,379.52 757.53,380.08 762.56,380.63 767.60,381.18 772.63,381.73 777.66,382.28 782.70,323.46 787.73,335.47 792.77,382.18 797.80,384.25 802.83,384.83 807.87,385.37 812.90,385.91 817.93,386.45 822.97,386.98 828.00,387.51" fill="none" stroke="#4e79a7" stroke-width="2" stroke-linejoin="round" stroke-linecap="round"><title>fixed_rho_0.1</title></polyline>
<polyline points="78.00,100.60 83.03,117.29 88.07,134.80 93.10,148.23 98.13,158.03 103.17,165.45 108.20,170.99 113.23,177.92 118.27,183.78 123.30,189.32 128.34,194.55 133.37,200.04 138.40,205.31 143.44,210.52 148.47,215.70 153.50,220.79 158.54,225.91 163.57,231.11 168.60,236.24 173.64,241.35 178.67,246.46 183.70,251.56 188.74,256.66 193.77,261.76 198.81,266.86 203.84,271.96 208.87,277.06 213.91,282.16 218.94,287.26 223.97,292.36 229.01,297.45 234.04,302.55 239.07,307.65" fill="none" stroke="#59a14f" stroke-width="2" stroke-linejoin="round" stroke-linecap="round"><title>fixed_rho_1.0</title></polyline>
<polyline points="78.00,73.91 83.03,77.18 88.07,82.35 93.10,88.94 98.13,96.11 103.17,102.93 108.20,108.96 113.23,114.19 118.27,118.66 123.30,122.48 128.34,125.75 133.37,128.56 138.40,131.03 143.44,133.17 148.47,135.05 153.50,136.72 158.54,138.23 163.57,139.61 168.60,140.90 173.64,142.11 178.67,143.26 183.70,144.35 188.74,145.41 193.77,146.43 198.81,147.42 203.84,148.39 208.87,149.33 213.91,150.25 218.94,151.16 223.97,152.04 229.01,152.91 234.04,153.76 239.07,154.61 244.11,155.43 249.14,156.25 254.17,157.05 259.21,157.85 264.24,158.63 269.28,159.41 274.31,160.17 279.34,160.93 284.38,161.68 289.41,162.42 294.44,163.16 299.48,163.88 304.51,164.60 309.54,165.31 314.58,166.01 319.61,166.71 324.64,167.40 329.68,168.08 334.71,168.76 339.74,169.43 344.78,170.09 349.81,170.75 354.85,171.41 359.88,172.06 364.91,172.71 369.95,173.35 374.98,173.99 380.01,174.63 385.05,175.26 390.08,175.89 395.11,176.51 400.15,177.14 405.18,177.75 410.21,178.37 415.25,178.98 420.28,179.59 425.32,180.22 430.35,180.85 435.38,181.47 440.42,182.09 445.45,182.70 450.48,183.30 455.52,183.91 460.55,184.51 465.58,185.12 470.62,185.72 475.65,186.31 480.68,186.91 485.72,187.50 490.75,188.10 495.79,188.69 500.82,189.28 505.85,189.87 510.89,190.45 515.92,191.04 520.95,191.62 525.99,192.21 531.02,192.79 536.05,193.37 541.09,193.95 546.12,194.52 551.15,195.10 556.19,195.68 561.22,196.25 566.26,196.83 571.29,197.40 576.32,197.97 581.36,198.54 586.39,199.11 591.42,199.68 596.46,200.25 601.49,200.82 606.52,201.39 611.56,201.95 616.59,202.52 621.62,203.08 626.66,203.65 631.69,204.21 636.72,204.78 641.76,205.34 646.79,205.90 651.83,206.46 656.86,207.02 661.89,207.58 666.93,208.14 671.96,208.70 676.99,209.26 682.03,209.82 687.06,210.38 692.09,210.93 697.13,211.49 702.16,212.05 707.19,212.60 712.23,213.16 717.26,213.71 722.30,214.27 727.33,214.82 732.36,215.38 737.40,215.93 742.43,216.48 747.46,217.04 752.50,217.59 757.53,218.14 762.56,218.70 767.60,219.25 772.63,219.80 777.66,220.35 782.70,220.90 787.73,221.45 792.77,222.00 797.80,222.55 802.83,223.10 807.87,223.65 812.90,224.20 817.93,224.75 822.97,225.30 828.00,225.85" fill="none" stroke="#e15759" stroke-width="2" stroke-linejoin="round" stroke-linecap="round"><title>fixed_rho_10.0</title></polyline>
<polyline points="78.00,100.60 83.03,117.29 88.07,134.80 93.10,148.99 98.13,159.12 103.17,166.82 108.20,172.68 113.23,180.09 118.27,186.89 123.30,193.02 128.34,199.07 133.37,205.06 138.40,211.38 143.44,217.49 148.47,223.57 153.50,229.68 158.54,235.80 163.57,241.32 168.60,247.87 173.64,254.12 178.67,260.26 183.70,266.28 188.74,272.32 193.77,278.35 198.81,284.20 203.84,290.05 208.87,295.90 213.91,301.45 218.94,307.01 223.97,312.56 229.01,317.74 234.04,322.97 239.07,328.18 244.11,332.98 249.14,337.87 254.17,342.77 259.21,347.22" fill="none" stroke="#76b7b2" stroke-width="2" stroke-linejoin="round" stroke-linecap="round"><title>online_ogd_epoch3</title></polyline>
<polyline points="78.00,100.60 83.03,119.22 88.07,137.71 93.10,152.20 98.13,162.65 103.17,171.62 108.20,179.79 113.23,184.55 118.27,193.28 123.30,201.42 128.34,207.99 133.37,215.33 138.40,220.53 143.44,227.33 148.47,234.60 153.50,240.84 158.54,246.76 163.57,252.40 168.60,257.34 173.64,259.10 178.67,267.27 183.70,272.23 188.74,276.62 193.77,280.75 198.81,284.69 203.84,288.48 208.87,292.14 213.91,295.70 218.94,299.17 223.97,302.56 229.01,305.88 234.04,309.12" fill="none" stroke="#b07aa1" stroke-width="2" stroke-linejoin="round" stroke-linecap="round"><title>online_ogd</title></polyline>
<polyline points="78.00,100.60 83.03,117.29 88.07,134.80 93.10,148.23 98.13,158.03 103.17,165.45 108.20,170.99 113.23,177.92 118.27,183.78 123.30,189.32 128.34,194.55 133.37,200.04 138.40,205.31 143.44,210.52 148.47,215.70 153.50,220.79 158.54,225.91 163.57,231.11 168.60,236.24 173.64,241.35 178.67,246.46 183.70,251.56 188.74,256.66 193.77,261.76 198.81,266.86 203.84,271.96 208.87,277.06 213.91,282.16 218.94,287.26 223.97,292.36 229.01,297.45 234.04,302.55 239.07,307.65" fill="none" stroke="#f28e2b" stroke-width="2" stroke-linejoin="round" stroke-linecap="round"><title>residual_balance</title></polyline>
<line x1="846" x2="862" y1="60" y2="60" stroke="#4e79a7" stroke-width="3"/>
<text x="868" y="64" font-size="11" font-family="Arial">fixed_rho_0.1</text>
<line x1="846" x2="862" y1="80" y2="80" stroke="#59a14f" stroke-width="3"/>
<text x="868" y="84" font-size="11" font-family="Arial">fixed_rho_1.0</text>
<line x1="846" x2="862" y1="100" y2="100" stroke="#e15759" stroke-width="3"/>
<text x="868" y="104" font-size="11" font-family="Arial">fixed_rho_10.0</text>
<line x1="846" x2="862" y1="120" y2="120" stroke="#76b7b2" stroke-width="3"/>
<text x="868" y="124" font-size="11" font-family="Arial">online_ogd_epoch3</text>
<line x1="846" x2="862" y1="140" y2="140" stroke="#b07aa1" stroke-width="3"/>
<text x="868" y="144" font-size="11" font-family="Arial">online_ogd</text>
<line x1="846" x2="862" y1="160" y2="160" stroke="#f28e2b" stroke-width="3"/>
<text x="868" y="164" font-size="11" font-family="Arial">residual_balance</text>
</svg>
