<svg xmlns="http://www.w3.org/2000/svg" width="980" height="470" viewBox="0 0 980 470" role="img" aria-label="Graphical Lasso Objective Trajectories, Seed 0">
<title>Graphical Lasso Objective Trajectories, Seed 0</title>
<rect width="980" height="470" fill="#ffffff"/>
<text x="78" y="28" font-size="20" font-family="Arial" font-weight="700">Graphical Lasso Objective Trajectories, Seed 0</text>
<text x="453.0" y="458" text-anchor="middle" font-size="12" font-family="Arial">ADMM iteration</text>
<text x="18" y="232.0" transform="rotate(-90 18 232.0)" font-size="12" font-family="Arial">objective</text>
<line x1="78" x2="828" y1="408.00" y2="408.00" stroke="#e5e7eb"/>
<text x="70" y="412.00" text-anchor="end" font-size="11" font-family="Arial" fill="#4b5563">25</text>
<line x1="78" x2="828" y1="320.00" y2="320.00" stroke="#e5e7eb"/>
<text x="70" y="324.00" text-anchor="end" font-size="11" font-family="Arial" fill="#4b5563">27</text>
<line x1="78" x2="828" y1="232.00" y2="232.00" stroke="#e5e7eb"/>
<text x="70" y="236.00" text-anchor="end" font-size="11" font-family="Arial" fill="#4b5563">29</text>
<line x1="78" x2="828" y1="144.00" y2="144.00" stroke="#e5e7eb"/>
<text x="70" y="148.00" text-anchor="end" font-size="11" font-family="Arial" fill="#4b5563">31</text>
<line x1="78" x2="828" y1="56.00" y2="56.00" stroke="#e5e7eb"/>
<text x="70" y="60.00" text-anchor="end" font-size="11" font-family="Arial" fill="#4b5563">33</text>
<line x1="78.00" x2="78.00" y1="56" y2="408" stroke="#f3f4f6"/>
<text x="78.00" y="426" text-anchor="middle" font-size="11" font-family="Arial" fill="#4b5563">1</text>
<line x1="265.50" x2="265.50" y1="56" y2="408" stroke="#f3f4f6"/>
<text x="265.50" y="426" text-anchor="middle" font-size="11" font-family="Arial" fill="#4b5563">38</text>
<line x1="453.00" x2="453.00" y1="56" y2="408" stroke="#f3f4f6"/>
<text x="453.00" y="426" text-anchor="middle" font-size="11" font-family="Arial" fill="#4b5563">75</text>
<line x1="640.50" x2="640.50" y1="56" y2="408" stroke="#f3f4f6"/>
<text x="640.50" y="426" text-anchor="middle" font-size="11" font-family="Arial" fill="#4b5563">112</text>
<line x1="828.00" x2="828.00" y1="56" y2="408" stroke="#f3f4f6"/>
<text x="828.00" y="426" text-anchor="middle" font-size="11" font-family="Arial" fill="#4b5563">150</text>
<polyline points="78.00,351.10 83.03,347.96 88.07,339.67 93.10,329.38 98.13,325.01 103.17,318.83 108.20,315.53 113.23,313.48 118.27,308.54 123.30,304.42 128.34,301.25 133.37,299.57 138.40,296.96 143.44,295.00 148.47,293.23 153.50,291.90 158.54,291.22 163.57,290.33 168.60,289.49 173.64,288.86 178.67,288.20 183.70,287.46 188.74,286.71 193.77,286.32 198.81,286.04 203.84,285.88 208.87,285.75 213.91,285.60 218.94,285.21 223.97,284.83 229.01,284.46 234.04,284.33 239.07,284.17 244.11,283.95 249.14,283.86 254.17,283.76 259.21,283.61 264.24,283.48 269.28,283.39 274.31,283.28 279.34,283.24 284.38,283.20 289.41,283.13 294.44,283.02 299.48,282.97 304.51,282.94 309.54,282.91 314.58,282.88 319.61,282.85 324.64,282.80 329.68,282.74 334.71,282.72 339.74,282.69 344.78,282.63 349.81,282.60 354.85,282.58 359.88,282.52 364.91,282.50 369.95,282.48 374.98,282.40 380.01,282.32 385.05,282.30 390.08,282.26 395.11,282.22 400.15,282.20 405.18,282.19 410.21,282.18 415.25,282.17 420.28,282.16 425.32,282.15 430.35,282.14 435.38,282.13 440.42,282.12 445.45,282.11 450.48,282.10 455.52,282.09 460.55,282.07 465.58,282.06 470.62,282.05 475.65,282.04 480.68,282.04 485.72,282.03 490.75,282.02 495.79,282.02 500.82,282.01 505.85,282.01 510.89,282.00 515.92,281.99 520.95,281.99 525.99,281.98 531.02,281.98 536.05,281.97 541.09,281.96 546.12,281.96 551.15,281.95 556.19,281.95 561.22,281.94 566.26,281.92 571.29,281.92 576.32,281.92 581.36,281.91 586.39,281.91 591.42,281.91 596.46,281.90 601.49,281.90 606.52,281.90 611.56,281.90 616.59,281.89 621.62,281.89 626.66,281.89 631.69,281.88 636.72,281.88 641.76,281.88 646.79,281.88 651.83,281.88 656.86,281.87 661.89,281.87 666.93,281.87 671.96,281.87 676.99,281.87 682.03,281.86 687.06,281.86 692.09,281.86 697.13,281.86 702.16,281.86 707.19,281.86 712.23,281.85 717.26,281.85 722.30,281.85 727.33,281.85 732.36,281.85 737.40,281.85 742.43,281.85 747.46,281.84 752.50,281.84 757.53,281.84 762.56,281.84 767.60,281.84 772.63,281.84 777.66,281.84 782.70,281.83 787.73,281.83 792.77,281.83 797.80,281.83 802.83,281.83 807.87,281.83 812.90,281.83 817.93,281.83 822.97,281.83 828.00,281.83" fill="none" stroke="#4e79a7" stroke-width="2" stroke-linejoin="round" stroke-linecap="round"><title>fixed_rho_0.1</title></polyline>
<polyline points="78.00,313.46 83.03,289.62 88.07,284.05 93.10,283.03 98.13,282.72 103.17,282.47 108.20,282.16 113.23,282.06 118.27,281.97 123.30,281.93 128.34,281.88 133.37,281.86 138.40,281.85 143.44,281.84 148.47,281.83 153.50,281.82 158.54,281.81 163.57,281.81 168.60,281.81 173.64,281.81 178.67,281.80 183.70,281.80 188.74,281.80 193.77,281.80 198.81,281.80 203.84,281.80 208.87,281.80 213.91,281.80 218.94,281.80 223.97,281.80 229.01,281.80 234.04,281.80 239.07,281.80" fill="none" stroke="#59a14f" stroke-width="2" stroke-linejoin="round" stroke-linecap="round"><title>fixed_rho_1.0</title></polyline>
<polyline points="78.00,124.24 83.03,176.95 88.07,221.60 93.10,246.90 98.13,260.14 103.17,267.15 108.20,271.09 113.23,273.46 118.27,275.02 123.30,276.11 128.34,276.90 133.37,277.51 138.40,277.98 143.44,278.37 148.47,278.70 153.50,278.98 158.54,279.23 163.57,279.44 168.60,279.63 173.64,279.80 178.67,279.96 183.70,280.09 188.74,280.22 193.77,280.33 198.81,280.44 203.84,280.53 208.87,280.62 213.91,280.70 218.94,280.77 223.97,280.84 229.01,280.90 234.04,280.96 239.07,281.01 244.11,281.06 249.14,281.11 254.17,281.15 259.21,281.19 264.24,281.23 269.28,281.26 274.31,281.29 279.34,281.32 284.38,281.35 289.41,281.38 294.44,281.40 299.48,281.42 304.51,281.45 309.54,281.47 314.58,281.48 319.61,281.50 324.64,281.52 329.68,281.53 334.71,281.55 339.74,281.56 344.78,281.58 349.81,281.59 354.85,281.60 359.88,281.61 364.91,281.62 369.95,281.63 374.98,281.64 380.01,281.65 385.05,281.65 390.08,281.66 395.11,281.67 400.15,281.68 405.18,281.68 410.21,281.69 415.25,281.69 420.28,281.70 425.32,281.70 430.35,281.71 435.38,281.71 440.42,281.72 445.45,281.72 450.48,281.73 455.52,281.73 460.55,281.73 465.58,281.74 470.62,281.74 475.65,281.74 480.68,281.75 485.72,281.75 490.75,281.75 495.79,281.75 500.82,281.76 505.85,281.76 510.89,281.76 515.92,281.76 520.95,281.76 525.99,281.76 531.02,281.77 536.05,281.77 541.09,281.77 546.12,281.77 551.15,281.77 556.19,281.77 561.22,281.77 566.26,281.78 571.29,281.78 576.32,281.78 581.36,281.78 586.39,281.78 591.42,281.78 596.46,281.78 601.49,281.78 606.52,281.78 611.56,281.78 616.59,281.78 621.62,281.78 626.66,281.79 631.69,281.79 636.72,281.79 641.76,281.79 646.79,281.79 651.83,281.79 656.86,281.79 661.89,281.79 666.93,281.79 671.96,281.79 676.99,281.79 682.03,281.79 687.06,281.79 692.09,281.79 697.13,281.79 702.16,281.79 707.19,281.79 712.23,281.79 717.26,281.79 722.30,281.79 727.33,281.79 732.36,281.79 737.40,281.79 742.43,281.79 747.46,281.79 752.50,281.79 757.53,281.79 762.56,281.79 767.60,281.79 772.63,281.79 777.66,281.79 782.70,281.79 787.73,281.79 792.77,281.79 797.80,281.79 802.83,281.79 807.87,281.79 812.90,281.79 817.93,281.79 822.97,281.80 828.00,281.80" fill="none" stroke="#e15759" stroke-width="2" stroke-linejoin="round" stroke-linecap="round"><title>fixed_rho_10.0</title></polyline>
<polyline points="78.00,313.46 83.03,289.62 88.07,284.05 93.10,283.12 98.13,282.84 103.17,282.60 108.20,282.26 113.23,282.12 118.27,282.04 123.30,281.98 128.34,281.93 133.37,281.89 138.40,281.87 143.44,281.86 148.47,281.85 153.50,281.84 158.54,281.83 163.57,281.82 168.60,281.82 173.64,281.81 178.67,281.81 183.70,281.81 188.74,281.81 193.77,281.81 198.81,281.80 203.84,281.80 208.87,281.80 213.91,281.80 218.94,281.80 223.97,281.80 229.01,281.80 234.04,281.80 239.07,281.80 244.11,281.80 249.14,281.80 254.17,281.80 259.21,281.80" fill="none" stroke="#76b7b2" stroke-width="2" stroke-linejoin="round" stroke-linecap="round"><title>online_ogd_epoch3</title></polyline>
<polyline points="78.00,313.46 83.03,290.97 88.07,285.05 93.10,283.86 98.13,283.29 103.17,282.97 108.20,282.74 113.23,282.36 118.27,282.18 123.30,282.10 128.34,282.03 133.37,281.98 138.40,281.93 143.44,281.90 148.47,281.88 153.50,281.86 158.54,281.85 163.57,281.84 168.60,281.83 173.64,281.82 178.67,281.82 183.70,281.81 188.74,281.81 193.77,281.81 198.81,281.80 203.84,281.80 208.87,281.80 213.91,281.80 218.94,281.80 223.97,281.80 229.01,281.80 234.04,281.80" fill="none" stroke="#b07aa1" stroke-width="2" stroke-linejoin="round" stroke-linecap="round"><title>online_ogd</title></polyline>
<polyline points="78.00,313.46 83.03,289.62 88.07,284.05 93.10,283.03 98.13,282.72 103.17,282.47 108.20,282.16 113.23,282.06 118.27,281.97 123.30,281.93 128.34,281.88 133.37,281.86 138.40,281.85 143.44,281.84 148.47,281.83 153.50,281.82 158.54,281.81 163.57,281.81 168.60,281.81 173.64,281.81 178.67,281.80 183.70,281.80 188.74,281.80 193.77,281.80 198.81,281.80 203.84,281.80 208.87,281.80 213.91,281.80 218.94,281.80 223.97,281.80 229.01,281.80 234.04,281.80 239.07,281.80" fill="none" stroke="#f28e2b" stroke-width="2" stroke-linejoin="round" stroke-linecap="round"><title>residual_balance</title></polyline>
<line x1="846" x2="862" y1="60" y2="60" stroke="#4e79a7" stroke-width="3"/>
<text x="868" y="64" font-size="11" font-family="Arial">fixed_rho_0.1</text>
<line x1="846" x2="862" y1="80" y2="80" stroke="#59a14f" stroke-width="3"/>
<text x="868" y="84" font-size="11" font-family="Arial">fixed_rho_1.0</text>
<line x1="846" x2="862" y1="100" y2="100" stroke="#e15759" stroke-width="3"/>
<text x="868" y="104" font-size="11" font-family="Arial">fixed_rho_10.0</text>
<line x1="846" x2="862" y1="120" y2="120" stroke="#76b7b2" stroke-width="3"/>
<text x="868" y="124" font-size="11" font-family="Arial">online_ogd_epoch3</text>
<line x1="846" x2="862" y1="140" y2="140" stroke="#b07aa1" stroke-width="3"/>
<text x="868" y="144" font-size="11" font-family="Arial">online_ogd</text>
<line x1="846" x2="862" y1="160" y2="160" stroke="#f28e2b" stroke-width="3"/>
<text x="868" y="164" font-size="11" font-family="Arial">residual_balance</text>
</svg>
