<svg xmlns="http://www.w3.org/2000/svg" width="980" height="470" viewBox="0 0 980 470" role="img" aria-label="Graphical Lasso Primal Norm Trajectories, Seed 0">
<title>Graphical Lasso Primal Norm Trajectories, Seed 0</title>
<rect width="980" height="470" fill="#ffffff"/>
<text x="78" y="28" font-size="20" font-family="Arial" font-weight="700">Graphical Lasso Primal Norm Trajectories, Seed 0</text>
<text x="453.0" y="458" text-anchor="middle" font-size="12" font-family="Arial">ADMM iteration</text>
<text x="18" y="232.0" transform="rotate(-90 18 232.0)" font-size="12" font-family="Arial">primal residual</text>
<line x1="78" x2="828" y1="408.00" y2="408.00" stroke="#e5e7eb"/>
<text x="70" y="412.00" text-anchor="end" font-size="11" font-family="Arial" fill="#4b5563">1e-6</text>
<line x1="78" x2="828" y1="320.00" y2="320.00" stroke="#e5e7eb"/>
<text x="70" y="324.00" text-anchor="end" font-size="11" font-family="Arial" fill="#4b5563">1e-4</text>
<line x1="78" x2="828" y1="232.00" y2="232.00" stroke="#e5e7eb"/>
<text x="70" y="236.00" text-anchor="end" font-size="11" font-family="Arial" fill="#4b5563">1e-2</text>
<line x1="78" x2="828" y1="144.00" y2="144.00" stroke="#e5e7eb"/>
<text x="70" y="148.00" text-anchor="end" font-size="11" font-family="Arial" fill="#4b5563">1e0</text>
<line x1="78" x2="828" y1="56.00" y2="56.00" stroke="#e5e7eb"/>
<text x="70" y="60.00" text-anchor="end" font-size="11" font-family="Arial" fill="#4b5563">1e1</text>
<line x1="78.00" x2="78.00" y1="56" y2="408" stroke="#f3f4f6"/>
<text x="78.00" y="426" text-anchor="middle" font-size="11" font-family="Arial" fill="#4b5563">1</text>
<line x1="265.50" x2="265.50" y1="56" y2="408" stroke="#f3f4f6"/>
<text x="265.50" y="426" text-anchor="middle" font-size="11" font-family="Arial" fill="#4b5563">38</text>
<line x1="453.00" x2="453.00" y1="56" y2="408" stroke="#f3f4f6"/>
<text x="453.00" y="426" text-anchor="middle" font-size="11" font-family="Arial" fill="#4b5563">75</text>
<line x1="640.50" x2="640.50" y1="56" y2="408" stroke="#f3f4f6"/>
<text x="640.50" y="426" text-anchor="middle" font-size="11" font-family="Arial" fill="#4b5563">112</text>
<line x1="828.00" x2="828.00" y1="56" y2="408" stroke="#f3f4f6"/>
<text x="828.00" y="426" text-anchor="middle" font-size="11" font-family="Arial" fill="#4b5563">150</text>
<polyline points="78.00,90.93 83.03,93.99 88.07,98.59 93.10,104.16 98.13,106.72 103.17,110.33 108.20,112.39 113.23,113.96 118.27,117.51 123.30,120.10 128.34,122.88 133.37,124.50 138.40,127.47 143.44,129.63 148.47,132.20 153.50,133.99 158.54,135.30 163.57,137.02 168.60,139.02 173.64,140.50 178.67,142.08 183.70,144.40 188.74,146.30 193.77,148.00 198.81,149.16 203.84,149.97 208.87,150.73 213.91,151.56 218.94,153.50 223.97,155.23 229.01,157.10 234.04,157.96 239.07,159.06 244.11,160.77 249.14,161.48 254.17,162.27 259.21,163.74 264.24,164.98 269.28,166.16 274.31,167.16 279.34,167.78 284.38,168.40 289.41,169.39 294.44,170.61 299.48,171.26 304.51,171.85 309.54,172.43 314.58,173.00 319.61,173.56 324.64,174.44 329.68,175.17 334.71,175.71 339.74,176.25 344.78,177.27 349.81,177.83 354.85,178.46 359.88,179.35 364.91,179.89 369.95,180.86 374.98,182.69 380.01,185.36 385.05,186.04 390.08,188.05 395.11,189.18 400.15,189.79 405.18,190.40 410.21,191.00 415.25,191.60 420.28,192.19 425.32,192.78 430.35,193.36 435.38,193.94 440.42,194.52 445.45,195.10 450.48,195.67 455.52,196.39 460.55,197.21 465.58,197.78 470.62,198.34 475.65,198.90 480.68,199.45 485.72,200.00 490.75,200.55 495.79,201.10 500.82,201.64 505.85,202.17 510.89,202.71 515.92,203.24 520.95,203.77 525.99,204.30 531.02,204.83 536.05,205.45 541.09,206.00 546.12,206.52 551.15,207.03 556.19,207.55 561.22,209.17 566.26,210.48 571.29,211.06 576.32,211.61 581.36,212.15 586.39,212.70 591.42,213.24 596.46,213.77 601.49,214.31 606.52,214.84 611.56,215.37 616.59,215.90 621.62,216.43 626.66,216.95 631.69,217.48 636.72,218.00 641.76,218.52 646.79,219.03 651.83,219.55 656.86,220.06 661.89,220.57 666.93,221.09 671.96,221.59 676.99,222.10 682.03,222.61 687.06,223.11 692.09,223.61 697.13,224.11 702.16,224.61 707.19,225.11 712.23,225.61 717.26,226.10 722.30,226.60 727.33,227.09 732.36,227.58 737.40,228.07 742.43,228.56 747.46,229.05 752.50,229.54 757.53,230.02 762.56,230.51 767.60,230.99 772.63,231.47 777.66,231.95 782.70,233.00 787.73,233.56 792.77,234.05 797.80,234.53 802.83,235.01 807.87,235.48 812.90,235.96 817.93,236.43 822.97,236.91 828.00,237.38" fill="none" stroke="#4e79a7" stroke-width="2" stroke-linejoin="round" stroke-linecap="round"><title>fixed_rho_0.1</title></polyline>
<polyline points="78.00,107.79 83.03,133.24 88.07,150.70 93.10,161.81 98.13,168.98 103.17,176.01 108.20,185.07 113.23,191.29 118.27,197.78 123.30,203.73 128.34,209.58 133.37,214.75 138.40,219.67 143.44,224.46 148.47,229.16 153.50,234.34 158.54,239.08 163.57,243.62 168.60,248.10 173.64,252.53 178.67,256.93 183.70,261.31 188.74,265.65 193.77,269.97 198.81,274.26 203.84,278.52 208.87,282.77 213.91,286.99 218.94,291.19 223.97,295.37 229.01,299.52 234.04,303.66 239.07,307.77" fill="none" stroke="#59a14f" stroke-width="2" stroke-linejoin="round" stroke-linecap="round"><title>fixed_rho_1.0</title></polyline>
<polyline points="78.00,150.92 83.03,222.37 88.07,224.65 93.10,217.87 98.13,215.92 103.17,219.65 108.20,225.79 113.23,226.10 118.27,235.39 123.30,244.45 128.34,248.69 133.37,253.69 138.40,240.43 143.44,252.03 148.47,259.12 153.50,261.95 158.54,266.23 163.57,269.33 168.60,271.68 173.64,273.15 178.67,275.46 183.70,277.38 188.74,279.06 193.77,280.61 198.81,282.07 203.84,283.45 208.87,284.77 213.91,286.03 218.94,287.23 223.97,288.39 229.01,289.50 234.04,290.58 239.07,291.62 244.11,292.64 249.14,293.62 254.17,294.58 259.21,295.52 264.24,296.43 269.28,297.33 274.31,298.20 279.34,299.06 284.38,299.91 289.41,300.74 294.44,301.56 299.48,304.25 304.51,305.53 309.54,306.55 314.58,307.46 319.61,308.32 324.64,309.16 329.68,309.96 334.71,310.75 339.74,311.51 344.78,312.26 349.81,312.99 354.85,313.71 359.88,314.42 364.91,315.12 369.95,315.81 374.98,316.49 380.01,317.16 385.05,317.83 390.08,318.49 395.11,319.14 400.15,319.79 405.18,320.44 410.21,321.08 415.25,321.71 420.28,322.34 425.32,315.43 430.35,296.74 435.38,313.58 440.42,318.99 445.45,320.83 450.48,321.83 455.52,322.63 460.55,323.37 465.58,324.07 470.62,324.75 475.65,325.42 480.68,326.07 485.72,326.72 490.75,327.36 495.79,327.99 500.82,328.62 505.85,329.24 510.89,329.86 515.92,330.47 520.95,331.08 525.99,331.69 531.02,332.29 536.05,332.90 541.09,333.50 546.12,334.09 551.15,334.69 556.19,335.28 561.22,335.87 566.26,336.46 571.29,337.05 576.32,337.64 581.36,338.23 586.39,338.81 591.42,339.39 596.46,339.97 601.49,340.55 606.52,341.13 611.56,341.71 616.59,342.29 621.62,342.86 626.66,343.44 631.69,344.01 636.72,344.59 641.76,345.16 646.79,345.73 651.83,346.30 656.86,346.87 661.89,347.44 666.93,348.01 671.96,348.57 676.99,349.14 682.03,349.71 687.06,350.27 692.09,350.84 697.13,351.40 702.16,351.96 707.19,352.53 712.23,353.09 717.26,353.65 722.30,354.21 727.33,354.77 732.36,355.33 737.40,355.89 742.43,356.45 747.46,357.01 752.50,357.57 757.53,358.13 762.56,358.68 767.60,359.24 772.63,359.80 777.66,360.35 782.70,360.91 787.73,361.46 792.77,362.02 797.80,362.57 802.83,363.13 807.87,363.68 812.90,364.23 817.93,364.79 822.97,365.34 828.00,365.89" fill="none" stroke="#e15759" stroke-width="2" stroke-linejoin="round" stroke-linecap="round"><title>fixed_rho_10.0</title></polyline>
<polyline points="78.00,107.79 83.03,133.24 88.07,150.70 93.10,161.31 98.13,167.95 103.17,173.85 108.20,182.45 113.23,188.79 118.27,194.79 123.30,199.77 128.34,205.37 133.37,210.33 138.40,214.82 143.44,219.16 148.47,223.42 153.50,227.59 158.54,231.69 163.57,236.49 168.60,240.56 173.64,244.53 178.67,248.43 183.70,252.35 188.74,256.21 193.77,260.02 198.81,263.89 203.84,267.73 208.87,271.52 213.91,275.43 218.94,279.30 223.97,283.15 229.01,287.12 234.04,291.07 239.07,294.99 244.11,299.04 249.14,303.07 254.17,307.07 259.21,311.20" fill="none" stroke="#76b7b2" stroke-width="2" stroke-linejoin="round" stroke-linecap="round"><title>online_ogd_epoch3</title></polyline>
<polyline points="78.00,107.79 83.03,131.93 88.07,148.05 93.10,157.83 98.13,164.38 103.17,169.57 108.20,174.45 113.23,182.46 118.27,188.74 123.30,193.49 128.34,198.34 133.37,202.63 138.40,208.16 143.44,212.78 148.47,217.20 153.50,221.58 158.54,225.98 163.57,230.43 168.60,235.36 173.64,240.45 178.67,245.25 183.70,250.14 188.74,255.18 193.77,260.38 198.81,265.75 203.84,271.31 208.87,277.04 213.91,282.94 218.94,289.00 223.97,295.20 229.01,301.51 234.04,307.92" fill="none" stroke="#b07aa1" stroke-width="2" stroke-linejoin="round" stroke-linecap="round"><title>online_ogd</title></polyline>
<polyline points="78.00,107.79 83.03,133.24 88.07,150.70 93.10,161.81 98.13,168.98 103.17,176.01 108.20,185.07 113.23,191.29 118.27,197.78 123.30,203.73 128.34,209.58 133.37,214.75 138.40,219.67 143.44,224.46 148.47,229.16 153.50,234.34 158.54,239.08 163.57,243.62 168.60,248.10 173.64,252.53 178.67,256.93 183.70,261.31 188.74,265.65 193.77,269.97 198.81,274.26 203.84,278.52 208.87,282.77 213.91,286.99 218.94,291.19 223.97,295.37 229.01,299.52 234.04,303.66 239.07,307.77" fill="none" stroke="#f28e2b" stroke-width="2" stroke-linejoin="round" stroke-linecap="round"><title>residual_balance</title></polyline>
<line x1="846" x2="862" y1="60" y2="60" stroke="#4e79a7" stroke-width="3"/>
<text x="868" y="64" font-size="11" font-family="Arial">fixed_rho_0.1</text>
<line x1="846" x2="862" y1="80" y2="80" stroke="#59a14f" stroke-width="3"/>
<text x="868" y="84" font-size="11" font-family="Arial">fixed_rho_1.0</text>
<line x1="846" x2="862" y1="100" y2="100" stroke="#e15759" stroke-width="3"/>
<text x="868" y="104" font-size="11" font-family="Arial">fixed_rho_10.0</text>
<line x1="846" x2="862" y1="120" y2="120" stroke="#76b7b2" stroke-width="3"/>
<text x="868" y="124" font-size="11" font-family="Arial">online_ogd_epoch3</text>
<line x1="846" x2="862" y1="140" y2="140" stroke="#b07aa1" stroke-width="3"/>
<text x="868" y="144" font-size="11" font-family="Arial">online_ogd</text>
<line x1="846" x2="862" y1="160" y2="160" stroke="#f28e2b" stroke-width="3"/>
<text x="868" y="164" font-size="11" font-family="Arial">residual_balance</text>
</svg>
