<svg xmlns="http://www.w3.org/2000/svg" width="980" height="470" viewBox="0 0 980 470" role="img" aria-label="Tv Denoising Rho Trajectories, Seed 0">
<title>Tv Denoising Rho Trajectories, Seed 0</title>
<rect width="980" height="470" fill="#ffffff"/>
<text x="78" y="28" font-size="20" font-family="Arial" font-weight="700">Tv Denoising Rho Trajectories, Seed 0</text>
<text x="453.0" y="458" text-anchor="middle" font-size="12" font-family="Arial">ADMM iteration</text>
<text x="18" y="232.0" transform="rotate(-90 18 232.0)" font-size="12" font-family="Arial">rho</text>
<line x1="78" x2="828" y1="408.00" y2="408.00" stroke="#e5e7eb"/>
<text x="70" y="412.00" text-anchor="end" font-size="11" font-family="Arial" fill="#4b5563">1e-1</text>
<line x1="78" x2="828" y1="320.00" y2="320.00" stroke="#e5e7eb"/>
<text x="70" y="324.00" text-anchor="end" font-size="11" font-family="Arial" fill="#4b5563">1e0</text>
<line x1="78" x2="828" y1="232.00" y2="232.00" stroke="#e5e7eb"/>
<text x="70" y="236.00" text-anchor="end" font-size="11" font-family="Arial" fill="#4b5563">1e0</text>
<line x1="78" x2="828" y1="144.00" y2="144.00" stroke="#e5e7eb"/>
<text x="70" y="148.00" text-anchor="end" font-size="11" font-family="Arial" fill="#4b5563">1e0</text>
<line x1="78" x2="828" y1="56.00" y2="56.00" stroke="#e5e7eb"/>
<text x="70" y="60.00" text-anchor="end" font-size="11" font-family="Arial" fill="#4b5563">1e1</text>
<line x1="78.00" x2="78.00" y1="56" y2="408" stroke="#f3f4f6"/>
<text x="78.00" y="426" text-anchor="middle" font-size="11" font-family="Arial" fill="#4b5563">1</text>
<line x1="265.50" x2="265.50" y1="56" y2="408" stroke="#f3f4f6"/>
<text x="265.50" y="426" text-anchor="middle" font-size="11" font-family="Arial" fill="#4b5563">38</text>
<line x1="453.00" x2="453.00" y1="56" y2="408" stroke="#f3f4f6"/>
<text x="453.00" y="426" text-anchor="middle" font-size="11" font-family="Arial" fill="#4b5563">75</text>
<line x1="640.50" x2="640.50" y1="56" y2="408" stroke="#f3f4f6"/>
<text x="640.50" y="426" text-anchor="middle" font-size="11" font-family="Arial" fill="#4b5563">112</text>
<line x1="828.00" x2="828.00" y1="56" y2="408" stroke="#f3f4f6"/>
<text x="828.00" y="426" text-anchor="middle" font-size="11" font-family="Arial" fill="#4b5563">150</text>
<polyline points="78.00,408.00 83.03,408.00 88.07,408.00 93.10,408.00 98.13,408.00 103.17,408.00 108.20,408.00 113.23,408.00 118.27,408.00 123.30,408.00 128.34,408.00 133.37,408.00 138.40,408.00 143.44,408.00 148.47,408.00 153.50,408.00 158.54,408.00 163.57,408.00 168.60,408.00 173.64,408.00 178.67,408.00 183.70,408.00 188.74,408.00 193.77,408.00 198.81,408.00 203.84,408.00 208.87,408.00 213.91,408.00 218.94,408.00 223.97,408.00 229.01,408.00 234.04,408.00 239.07,408.00 244.11,408.00 249.14,408.00 254.17,408.00 259.21,408.00 264.24,408.00 269.28,408.00 274.31,408.00 279.34,408.00 284.38,408.00 289.41,408.00 294.44,408.00 299.48,408.00 304.51,408.00 309.54,408.00 314.58,408.00 319.61,408.00 324.64,408.00 329.68,408.00 334.71,408.00 339.74,408.00 344.78,408.00 349.81,408.00 354.85,408.00 359.88,408.00 364.91,408.00 369.95,408.00 374.98,408.00 380.01,408.00 385.05,408.00 390.08,408.00 395.11,408.00 400.15,408.00 405.18,408.00 410.21,408.00 415.25,408.00 420.28,408.00 425.32,408.00 430.35,408.00 435.38,408.00 440.42,408.00 445.45,408.00 450.48,408.00 455.52,408.00 460.55,408.00 465.58,408.00 470.62,408.00 475.65,408.00 480.68,408.00 485.72,408.00 490.75,408.00 495.79,408.00 500.82,408.00 505.85,408.00 510.89,408.00 515.92,408.00 520.95,408.00 525.99,408.00 531.02,408.00 536.05,408.00 541.09,408.00 546.12,408.00 551.15,408.00 556.19,408.00 561.22,408.00 566.26,408.00 571.29,408.00 576.32,408.00 581.36,408.00 586.39,408.00 591.42,408.00 596.46,408.00 601.49,408.00 606.52,408.00 611.56,408.00 616.59,408.00 621.62,408.00 626.66,408.00 631.69,408.00 636.72,408.00 641.76,408.00 646.79,408.00 651.83,408.00 656.86,408.00 661.89,408.00 666.93,408.00 671.96,408.00 676.99,408.00 682.03,408.00 687.06,408.00 692.09,408.00 697.13,408.00 702.16,408.00 707.19,408.00 712.23,408.00 717.26,408.00 722.30,408.00 727.33,408.00 732.36,408.00 737.40,408.00 742.43,408.00 747.46,408.00 752.50,408.00 757.53,408.00 762.56,408.00 767.60,408.00 772.63,408.00 777.66,408.00 782.70,408.00 787.73,408.00 792.77,408.00 797.80,408.00 802.83,408.00 807.87,408.00 812.90,408.00 817.93,408.00 822.97,408.00 828.00,408.00" fill="none" stroke="#4e79a7" stroke-width="2" stroke-linejoin="round" stroke-linecap="round"><title>fixed_rho_0.1</title></polyline>
<polyline points="78.00,232.00 83.03,232.00 88.07,232.00 93.10,232.00 98.13,232.00 103.17,232.00 108.20,232.00 113.23,232.00 118.27,232.00 123.30,232.00 128.34,232.00 133.37,232.00 138.40,232.00 143.44,232.00 148.47,232.00 153.50,232.00 158.54,232.00 163.57,232.00 168.60,232.00 173.64,232.00 178.67,232.00 183.70,232.00 188.74,232.00 193.77,232.00 198.81,232.00 203.84,232.00 208.87,232.00 213.91,232.00 218.94,232.00 223.97,232.00 229.01,232.00 234.04,232.00 239.07,232.00 244.11,232.00 249.14,232.00 254.17,232.00 259.21,232.00 264.24,232.00 269.28,232.00 274.31,232.00 279.34,232.00 284.38,232.00 289.41,232.00 294.44,232.00 299.48,232.00 304.51,232.00 309.54,232.00 314.58,232.00 319.61,232.00 324.64,232.00 329.68,232.00 334.71,232.00 339.74,232.00 344.78,232.00 349.81,232.00 354.85,232.00 359.88,232.00 364.91,232.00 369.95,232.00 374.98,232.00 380.01,232.00 385.05,232.00 390.08,232.00 395.11,232.00 400.15,232.00 405.18,232.00 410.21,232.00 415.25,232.00 420.28,232.00 425.32,232.00 430.35,232.00 435.38,232.00 440.42,232.00 445.45,232.00 450.48,232.00 455.52,232.00 460.55,232.00 465.58,232.00 470.62,232.00 475.65,232.00 480.68,232.00 485.72,232.00 490.75,232.00 495.79,232.00 500.82,232.00 505.85,232.00 510.89,232.00 515.92,232.00 520.95,232.00 525.99,232.00 531.02,232.00" fill="none" stroke="#59a14f" stroke-width="2" stroke-linejoin="round" stroke-linecap="round"><title>fixed_rho_1.0</title></polyline>
<polyline points="78.00,56.00 83.03,56.00 88.07,56.00 93.10,56.00 98.13,56.00 103.17,56.00 108.20,56.00 113.23,56.00 118.27,56.00 123.30,56.00 128.34,56.00 133.37,56.00 138.40,56.00 143.44,56.00 148.47,56.00 153.50,56.00 158.54,56.00 163.57,56.00 168.60,56.00 173.64,56.00 178.67,56.00 183.70,56.00 188.74,56.00 193.77,56.00 198.81,56.00 203.84,56.00 208.87,56.00 213.91,56.00 218.94,56.00 223.97,56.00 229.01,56.00 234.04,56.00 239.07,56.00 244.11,56.00 249.14,56.00 254.17,56.00 259.21,56.00 264.24,56.00 269.28,56.00 274.31,56.00 279.34,56.00 284.38,56.00 289.41,56.00 294.44,56.00 299.48,56.00 304.51,56.00 309.54,56.00 314.58,56.00 319.61,56.00 324.64,56.00 329.68,56.00 334.71,56.00 339.74,56.00 344.78,56.00 349.81,56.00 354.85,56.00 359.88,56.00 364.91,56.00 369.95,56.00 374.98,56.00 380.01,56.00 385.05,56.00 390.08,56.00 395.11,56.00 400.15,56.00 405.18,56.00 410.21,56.00 415.25,56.00 420.28,56.00 425.32,56.00 430.35,56.00 435.38,56.00 440.42,56.00 445.45,56.00 450.48,56.00 455.52,56.00 460.55,56.00 465.58,56.00 470.62,56.00 475.65,56.00 480.68,56.00 485.72,56.00 490.75,56.00 495.79,56.00 500.82,56.00 505.85,56.00 510.89,56.00 515.92,56.00 520.95,56.00 525.99,56.00 531.02,56.00 536.05,56.00 541.09,56.00 546.12,56.00 551.15,56.00 556.19,56.00 561.22,56.00 566.26,56.00 571.29,56.00 576.32,56.00 581.36,56.00 586.39,56.00 591.42,56.00 596.46,56.00 601.49,56.00 606.52,56.00 611.56,56.00 616.59,56.00 621.62,56.00 626.66,56.00 631.69,56.00 636.72,56.00 641.76,56.00 646.79,56.00 651.83,56.00 656.86,56.00 661.89,56.00 666.93,56.00 671.96,56.00 676.99,56.00 682.03,56.00 687.06,56.00 692.09,56.00 697.13,56.00 702.16,56.00 707.19,56.00 712.23,56.00 717.26,56.00 722.30,56.00 727.33,56.00 732.36,56.00 737.40,56.00 742.43,56.00 747.46,56.00 752.50,56.00 757.53,56.00 762.56,56.00 767.60,56.00 772.63,56.00 777.66,56.00 782.70,56.00 787.73,56.00 792.77,56.00 797.80,56.00 802.83,56.00 807.87,56.00 812.90,56.00 817.93,56.00 822.97,56.00 828.00,56.00" fill="none" stroke="#e15759" stroke-width="2" stroke-linejoin="round" stroke-linecap="round"><title>fixed_rho_10.0</title></polyline>
<polyline points="78.00,232.00 83.03,232.00 88.07,232.00 93.10,231.86 98.13,231.86 103.17,231.86 108.20,226.43 113.23,226.43 118.27,226.43 123.30,223.04 128.34,223.04 133.37,223.04 138.40,221.27 143.44,221.27 148.47,221.27 153.50,219.76 158.54,219.76 163.57,219.76 168.60,218.29 173.64,218.29 178.67,218.29 183.70,216.74 188.74,216.74 193.77,216.74 198.81,216.27 203.84,216.27 208.87,216.27 213.91,214.82 218.94,214.82 223.97,214.82 229.01,212.35 234.04,212.35 239.07,212.35 244.11,210.01 249.14,210.01 254.17,210.01 259.21,207.77 264.24,207.77 269.28,207.77 274.31,205.60 279.34,205.60 284.38,205.60 289.41,203.57 294.44,203.57 299.48,203.57 304.51,201.68 309.54,201.68 314.58,201.68 319.61,199.93 324.64,199.93 329.68,199.93 334.71,198.30 339.74,198.30 344.78,198.30 349.81,196.78 354.85,196.78 359.88,196.78 364.91,195.36 369.95,195.36 374.98,195.36 380.01,194.02 385.05,194.02 390.08,194.02 395.11,192.78 400.15,192.78 405.18,192.78 410.21,191.62 415.25,191.62" fill="none" stroke="#76b7b2" stroke-width="2" stroke-linejoin="round" stroke-linecap="round"><title>online_ogd_epoch3</title></polyline>
<polyline points="78.00,232.00 83.03,246.54 88.07,250.17 93.10,248.88 98.13,243.51 103.17,237.48 108.20,231.82 113.23,226.63 118.27,221.81 123.30,217.77 128.34,214.65 133.37,212.33 138.40,210.69 143.44,209.45 148.47,208.50 153.50,207.90 158.54,207.61 163.57,207.47 168.60,207.30 173.64,206.93 178.67,206.65 183.70,206.70 188.74,207.03 193.77,207.47 198.81,207.84 203.84,207.98 208.87,207.77 213.91,207.16 218.94,206.20 223.97,204.95 229.01,203.48 234.04,201.90 239.07,200.25 244.11,198.61 249.14,196.99 254.17,195.42 259.21,193.94 264.24,192.54 269.28,191.23 274.31,190.02 279.34,188.91 284.38,187.88 289.41,186.94 294.44,186.08 299.48,185.29 304.51,184.58 309.54,183.93 314.58,183.34 319.61,182.80 324.64,182.32 329.68,181.88 334.71,181.48 339.74,181.12 344.78,180.79 349.81,180.49 354.85,180.22 359.88,179.96 364.91,179.73 369.95,179.51 374.98,179.31" fill="none" stroke="#b07aa1" stroke-width="2" stroke-linejoin="round" stroke-linecap="round"><title>online_ogd</title></polyline>
<polyline points="78.00,232.00 83.03,232.00 88.07,232.00 93.10,232.00 98.13,232.00 103.17,232.00 108.20,232.00 113.23,232.00 118.27,232.00 123.30,232.00 128.34,232.00 133.37,232.00 138.40,232.00 143.44,232.00 148.47,232.00 153.50,232.00 158.54,232.00 163.57,232.00 168.60,232.00 173.64,232.00 178.67,232.00 183.70,232.00 188.74,232.00 193.77,232.00 198.81,232.00 203.84,232.00 208.87,232.00 213.91,232.00 218.94,232.00 223.97,232.00 229.01,232.00 234.04,232.00 239.07,232.00 244.11,232.00 249.14,232.00 254.17,232.00 259.21,232.00 264.24,232.00 269.28,232.00 274.31,232.00 279.34,232.00 284.38,232.00 289.41,232.00 294.44,232.00 299.48,232.00 304.51,232.00 309.54,232.00 314.58,232.00 319.61,232.00 324.64,232.00 329.68,232.00 334.71,232.00 339.74,232.00 344.78,232.00 349.81,232.00 354.85,232.00 359.88,232.00 364.91,232.00 369.95,232.00 374.98,232.00 380.01,232.00 385.05,232.00 390.08,232.00 395.11,232.00 400.15,232.00 405.18,232.00 410.21,232.00 415.25,232.00 420.28,232.00 425.32,232.00 430.35,232.00 435.38,232.00 440.42,232.00 445.45,232.00 450.48,232.00 455.52,232.00 460.55,232.00 465.58,232.00 470.62,232.00 475.65,232.00 480.68,232.00 485.72,232.00 490.75,232.00 495.79,232.00 500.82,232.00 505.85,232.00 510.89,232.00 515.92,232.00 520.95,232.00 525.99,232.00 531.02,232.00" fill="none" stroke="#f28e2b" stroke-width="2" stroke-linejoin="round" stroke-linecap="round"><title>residual_balance</title></polyline>
<line x1="846" x2="862" y1="60" y2="60" stroke="#4e79a7" stroke-width="3"/>
<text x="868" y="64" font-size="11" font-family="Arial">fixed_rho_0.1</text>
<line x1="846" x2="862" y1="80" y2="80" stroke="#59a14f" stroke-width="3"/>
<text x="868" y="84" font-size="11" font-family="Arial">fixed_rho_1.0</text>
<line x1="846" x2="862" y1="100" y2="100" stroke="#e15759" stroke-width="3"/>
<text x="868" y="104" font-size="11" font-family="Arial">fixed_rho_10.0</text>
<line x1="846" x2="862" y1="120" y2="120" stroke="#76b7b2" stroke-width="3"/>
<text x="868" y="124" font-size="11" font-family="Arial">online_ogd_epoch3</text>
<line x1="846" x2="862" y1="140" y2="140" stroke="#b07aa1" stroke-width="3"/>
<text x="868" y="144" font-size="11" font-family="Arial">online_ogd</text>
<line x1="846" x2="862" y1="160" y2="160" stroke="#f28e2b" stroke-width="3"/>
<text x="868" y="164" font-size="11" font-family="Arial">residual_balance</text>
</svg>
