<svg xmlns="http://www.w3.org/2000/svg" width="980" height="470" viewBox="0 0 980 470" role="img" aria-label="Tv Denoising Primal Norm Trajectories, Seed 0">
<title>Tv Denoising Primal Norm Trajectories, Seed 0</title>
<rect width="980" height="470" fill="#ffffff"/>
<text x="78" y="28" font-size="20" font-family="Arial" font-weight="700">Tv Denoising Primal Norm Trajectories, Seed 0</text>
<text x="453.0" y="458" text-anchor="middle" font-size="12" font-family="Arial">ADMM iteration</text>
<text x="18" y="232.0" transform="rotate(-90 18 232.0)" font-size="12" font-family="Arial">primal residual</text>
<line x1="78" x2="828" y1="408.00" y2="408.00" stroke="#e5e7eb"/>
<text x="70" y="412.00" text-anchor="end" font-size="11" font-family="Arial" fill="#4b5563">1e-7</text>
<line x1="78" x2="828" y1="320.00" y2="320.00" stroke="#e5e7eb"/>
<text x="70" y="324.00" text-anchor="end" font-size="11" font-family="Arial" fill="#4b5563">1e-5</text>
<line x1="78" x2="828" y1="232.00" y2="232.00" stroke="#e5e7eb"/>
<text x="70" y="236.00" text-anchor="end" font-size="11" font-family="Arial" fill="#4b5563">1e-3</text>
<line x1="78" x2="828" y1="144.00" y2="144.00" stroke="#e5e7eb"/>
<text x="70" y="148.00" text-anchor="end" font-size="11" font-family="Arial" fill="#4b5563">1e-1</text>
<line x1="78" x2="828" y1="56.00" y2="56.00" stroke="#e5e7eb"/>
<text x="70" y="60.00" text-anchor="end" font-size="11" font-family="Arial" fill="#4b5563">1e1</text>
<line x1="78.00" x2="78.00" y1="56" y2="408" stroke="#f3f4f6"/>
<text x="78.00" y="426" text-anchor="middle" font-size="11" font-family="Arial" fill="#4b5563">1</text>
<line x1="265.50" x2="265.50" y1="56" y2="408" stroke="#f3f4f6"/>
<text x="265.50" y="426" text-anchor="middle" font-size="11" font-family="Arial" fill="#4b5563">38</text>
<line x1="453.00" x2="453.00" y1="56" y2="408" stroke="#f3f4f6"/>
<text x="453.00" y="426" text-anchor="middle" font-size="11" font-family="Arial" fill="#4b5563">75</text>
<line x1="640.50" x2="640.50" y1="56" y2="408" stroke="#f3f4f6"/>
<text x="640.50" y="426" text-anchor="middle" font-size="11" font-family="Arial" fill="#4b5563">112</text>
<line x1="828.00" x2="828.00" y1="56" y2="408" stroke="#f3f4f6"/>
<text x="828.00" y="426" text-anchor="middle" font-size="11" font-family="Arial" fill="#4b5563">150</text>
<polyline points="78.00,76.33 83.03,86.61 88.07,90.23 93.10,93.42 98.13,96.21 103.17,98.61 108.20,100.67 113.23,103.20 118.27,105.36 123.30,107.11 128.34,110.07 133.37,112.57 138.40,114.13 143.44,115.38 148.47,116.46 153.50,117.42 158.54,118.29 163.57,119.08 168.60,119.80 173.64,120.46 178.67,121.08 183.70,121.66 188.74,122.20 193.77,122.71 198.81,123.19 203.84,123.65 208.87,124.09 213.91,124.51 218.94,124.91 223.97,125.29 229.01,125.66 234.04,126.02 239.07,126.37 244.11,126.78 249.14,127.13 254.17,127.45 259.21,127.76 264.24,128.06 269.28,128.35 274.31,128.64 279.34,128.91 284.38,129.18 289.41,129.44 294.44,129.70 299.48,129.95 304.51,130.19 309.54,130.43 314.58,130.66 319.61,130.89 324.64,131.11 329.68,131.33 334.71,131.54 339.74,131.75 344.78,131.96 349.81,132.16 354.85,132.36 359.88,132.56 364.91,132.75 369.95,132.94 374.98,133.12 380.01,133.31 385.05,133.49 390.08,133.66 395.11,133.84 400.15,134.01 405.18,134.18 410.21,134.35 415.25,134.51 420.28,135.23 425.32,135.70 430.35,136.08 435.38,136.40 440.42,136.70 445.45,136.98 450.48,137.26 455.52,137.52 460.55,138.13 465.58,138.58 470.62,138.93 475.65,139.26 480.68,139.58 485.72,139.88 490.75,140.18 495.79,140.46 500.82,140.83 505.85,141.15 510.89,141.52 515.92,141.87 520.95,142.20 525.99,142.50 531.02,142.79 536.05,143.08 541.09,143.35 546.12,143.62 551.15,143.89 556.19,144.17 561.22,144.43 566.26,144.69 571.29,144.94 576.32,145.18 581.36,145.66 586.39,146.02 591.42,146.32 596.46,146.60 601.49,146.87 606.52,147.13 611.56,147.39 616.59,147.64 621.62,147.88 626.66,148.12 631.69,148.35 636.72,148.58 641.76,148.80 646.79,149.02 651.83,149.24 656.86,149.45 661.89,149.66 666.93,149.86 671.96,150.07 676.99,150.26 682.03,150.46 687.06,150.65 692.09,150.84 697.13,151.03 702.16,151.25 707.19,151.45 712.23,151.64 717.26,151.83 722.30,152.01 727.33,152.19 732.36,152.37 737.40,152.56 742.43,152.98 747.46,153.51 752.50,153.93 757.53,154.25 762.56,154.69 767.60,155.08 772.63,155.45 777.66,155.78 782.70,156.10 787.73,156.57 792.77,156.96 797.80,157.29 802.83,157.61 807.87,157.91 812.90,158.21 817.93,158.50 822.97,158.78 828.00,159.05" fill="none" stroke="#4e79a7" stroke-width="2" stroke-linejoin="round" stroke-linecap="round"><title>fixed_rho_0.1</title></polyline>
<polyline points="78.00,80.86 83.03,97.31 88.07,111.15 93.10,121.75 98.13,126.78 103.17,130.08 108.20,132.60 113.23,135.18 118.27,138.14 123.30,141.35 128.34,144.45 133.37,147.48 138.40,150.15 143.44,152.61 148.47,155.30 153.50,158.44 158.54,161.52 163.57,164.15 168.60,166.38 173.64,168.43 178.67,170.34 183.70,172.61 188.74,175.85 193.77,180.10 198.81,183.88 203.84,186.87 208.87,189.42 213.91,191.69 218.94,193.80 223.97,195.73 229.01,197.54 234.04,199.23 239.07,200.85 244.11,202.47 249.14,204.13 254.17,205.82 259.21,207.45 264.24,209.04 269.28,210.59 274.31,212.11 279.34,213.60 284.38,215.08 289.41,216.54 294.44,217.98 299.48,219.41 304.51,220.83 309.54,222.23 314.58,223.63 319.61,225.01 324.64,226.38 329.68,227.75 334.71,229.10 339.74,230.44 344.78,231.77 349.81,233.10 354.85,234.41 359.88,235.72 364.91,237.02 369.95,238.31 374.98,239.59 380.01,240.87 385.05,242.13 390.08,243.40 395.11,244.65 400.15,245.90 405.18,247.14 410.21,248.38 415.25,249.61 420.28,250.83 425.32,252.06 430.35,253.27 435.38,254.48 440.42,255.69 445.45,256.89 450.48,258.09 455.52,259.29 460.55,260.48 465.58,261.67 470.62,262.85 475.65,264.03 480.68,265.21 485.72,266.39 490.75,267.56 495.79,268.73 500.82,269.90 505.85,271.06 510.89,272.23 515.92,273.39 520.95,274.55 525.99,275.71 531.02,276.86" fill="none" stroke="#59a14f" stroke-width="2" stroke-linejoin="round" stroke-linecap="round"><title>fixed_rho_1.0</title></polyline>
<polyline points="78.00,116.31 83.03,146.70 88.07,145.78 93.10,149.36 98.13,148.16 103.17,147.23 108.20,147.71 113.23,156.54 118.27,161.01 123.30,161.37 128.34,155.51 133.37,159.77 138.40,159.79 143.44,164.71 148.47,167.17 153.50,164.97 158.54,170.41 163.57,172.18 168.60,169.48 173.64,173.40 178.67,176.62 183.70,173.90 188.74,182.47 193.77,187.44 198.81,191.28 203.84,194.12 208.87,197.58 213.91,201.10 218.94,204.27 223.97,189.49 229.01,200.40 234.04,202.44 239.07,206.03 244.11,211.16 249.14,216.96 254.17,221.99 259.21,225.72 264.24,228.99 269.28,233.08 274.31,238.32 279.34,243.06 284.38,245.25 289.41,245.52 294.44,246.09 299.48,248.06 304.51,251.67 309.54,254.34 314.58,251.47 319.61,258.55 324.64,259.83 329.68,261.17 334.71,263.24 339.74,266.35 344.78,270.60 349.81,275.60 354.85,279.72 359.88,281.68 364.91,282.20 369.95,282.76 374.98,284.01 380.01,285.94 385.05,288.22 390.08,290.20 395.11,291.61 400.15,293.77 405.18,295.11 410.21,296.16 415.25,297.06 420.28,297.98 425.32,298.99 430.35,300.11 435.38,301.27 440.42,302.40 445.45,303.44 450.48,304.37 455.52,305.25 460.55,306.10 465.58,306.97 470.62,307.87 475.65,308.79 480.68,309.72 485.72,310.63 490.75,311.53 495.79,312.40 500.82,313.27 505.85,314.13 510.89,315.00 515.92,315.87 520.95,316.74 525.99,317.62 531.02,318.49 536.05,319.36 541.09,320.22 546.12,321.08 551.15,321.95 556.19,322.81 561.22,323.68 566.26,324.54 571.29,325.40 576.32,326.27 581.36,327.13 586.39,327.99 591.42,328.85 596.46,329.71 601.49,330.57 606.52,331.43 611.56,332.29 616.59,333.16 621.62,334.02 626.66,334.88 631.69,335.74 636.72,336.60 641.76,337.47 646.79,338.33 651.83,339.19 656.86,340.05 661.89,340.91 666.93,341.78 671.96,342.64 676.99,343.50 682.03,344.36 687.06,345.22 692.09,346.08 697.13,346.95 702.16,347.81 707.19,348.67 712.23,349.53 717.26,350.40 722.30,351.26 727.33,352.12 732.36,352.98 737.40,353.84 742.43,354.71 747.46,355.57 752.50,356.43 757.53,357.29 762.56,358.16 767.60,359.02 772.63,359.88 777.66,360.74 782.70,361.61 787.73,362.47 792.77,363.33 797.80,364.19 802.83,365.06 807.87,365.92 812.90,366.78 817.93,367.64 822.97,368.51 828.00,369.37" fill="none" stroke="#e15759" stroke-width="2" stroke-linejoin="round" stroke-linecap="round"><title>fixed_rho_10.0</title></polyline>
<polyline points="78.00,80.86 83.03,97.31 88.07,111.15 93.10,121.76 98.13,126.79 103.17,130.09 108.20,132.69 113.23,135.45 118.27,138.60 123.30,141.98 128.34,145.33 133.37,148.71 138.40,151.59 143.44,154.59 148.47,158.11 153.50,161.67 158.54,164.75 163.57,167.39 168.60,169.77 173.64,172.49 178.67,176.22 183.70,181.08 188.74,185.32 193.77,188.75 198.81,191.78 203.84,194.47 208.87,196.88 213.91,199.09 218.94,201.15 223.97,203.17 229.01,205.25 234.04,207.38 239.07,209.45 244.11,211.50 249.14,213.51 254.17,215.49 259.21,217.48 264.24,219.44 269.28,221.40 274.31,223.37 279.34,225.32 284.38,227.27 289.41,229.23 294.44,231.18 299.48,233.11 304.51,235.07 309.54,237.01 314.58,238.94 319.61,240.88 324.64,242.82 329.68,244.74 334.71,246.68 339.74,248.62 344.78,250.54 349.81,252.48 354.85,254.42 359.88,256.35 364.91,258.29 369.95,260.24 374.98,262.17 380.01,264.13 385.05,266.08 390.08,268.03 395.11,270.00 400.15,271.96 405.18,273.92 410.21,275.91 415.25,277.89" fill="none" stroke="#76b7b2" stroke-width="2" stroke-linejoin="round" stroke-linecap="round"><title>online_ogd_epoch3</title></polyline>
<polyline points="78.00,80.86 83.03,94.46 88.07,108.06 93.10,119.10 98.13,124.98 103.17,128.45 108.20,131.16 113.23,133.55 118.27,136.34 123.30,139.73 128.34,143.38 133.37,147.06 138.40,150.54 143.44,154.07 148.47,157.95 153.50,162.01 158.54,165.61 163.57,168.67 168.60,171.78 173.64,175.73 178.67,180.67 183.70,185.43 188.74,189.58 193.77,193.19 198.81,196.36 203.84,199.15 208.87,201.67 213.91,204.05 218.94,206.32 223.97,208.54 229.01,210.75 234.04,212.94 239.07,215.14 244.11,217.35 249.14,219.58 254.17,221.83 259.21,224.10 264.24,226.40 269.28,228.72 274.31,231.05 279.34,233.39 284.38,235.75 289.41,238.10 294.44,240.46 299.48,242.83 304.51,245.19 309.54,247.56 314.58,249.92 319.61,252.29 324.64,254.66 329.68,257.03 334.71,259.39 339.74,261.76 344.78,264.13 349.81,266.50 354.85,268.87 359.88,271.23 364.91,273.60 369.95,275.97 374.98,278.34" fill="none" stroke="#b07aa1" stroke-width="2" stroke-linejoin="round" stroke-linecap="round"><title>online_ogd</title></polyline>
<polyline points="78.00,80.86 83.03,97.31 88.07,111.15 93.10,121.75 98.13,126.78 103.17,130.08 108.20,132.60 113.23,135.18 118.27,138.14 123.30,141.35 128.34,144.45 133.37,147.48 138.40,150.15 143.44,152.61 148.47,155.30 153.50,158.44 158.54,161.52 163.57,164.15 168.60,166.38 173.64,168.43 178.67,170.34 183.70,172.61 188.74,175.85 193.77,180.10 198.81,183.88 203.84,186.87 208.87,189.42 213.91,191.69 218.94,193.80 223.97,195.73 229.01,197.54 234.04,199.23 239.07,200.85 244.11,202.47 249.14,204.13 254.17,205.82 259.21,207.45 264.24,209.04 269.28,210.59 274.31,212.11 279.34,213.60 284.38,215.08 289.41,216.54 294.44,217.98 299.48,219.41 304.51,220.83 309.54,222.23 314.58,223.63 319.61,225.01 324.64,226.38 329.68,227.75 334.71,229.10 339.74,230.44 344.78,231.77 349.81,233.10 354.85,234.41 359.88,235.72 364.91,237.02 369.95,238.31 374.98,239.59 380.01,240.87 385.05,242.13 390.08,243.40 395.11,244.65 400.15,245.90 405.18,247.14 410.21,248.38 415.25,249.61 420.28,250.83 425.32,252.06 430.35,253.27 435.38,254.48 440.42,255.69 445.45,256.89 450.48,258.09 455.52,259.29 460.55,260.48 465.58,261.67 470.62,262.85 475.65,264.03 480.68,265.21 485.72,266.39 490.75,267.56 495.79,268.73 500.82,269.90 505.85,271.06 510.89,272.23 515.92,273.39 520.95,274.55 525.99,275.71 531.02,276.86" fill="none" stroke="#f28e2b" stroke-width="2" stroke-linejoin="round" stroke-linecap="round"><title>residual_balance</title></polyline>
<line x1="846" x2="862" y1="60" y2="60" stroke="#4e79a7" stroke-width="3"/>
<text x="868" y="64" font-size="11" font-family="Arial">fixed_rho_0.1</text>
<line x1="846" x2="862" y1="80" y2="80" stroke="#59a14f" stroke-width="3"/>
<text x="868" y="84" font-size="11" font-family="Arial">fixed_rho_1.0</text>
<line x1="846" x2="862" y1="100" y2="100" stroke="#e15759" stroke-width="3"/>
<text x="868" y="104" font-size="11" font-family="Arial">fixed_rho_10.0</text>
<line x1="846" x2="862" y1="120" y2="120" stroke="#76b7b2" stroke-width="3"/>
<text x="868" y="124" font-size="11" font-family="Arial">online_ogd_epoch3</text>
<line x1="846" x2="862" y1="140" y2="140" stroke="#b07aa1" stroke-width="3"/>
<text x="868" y="144" font-size="11" font-family="Arial">online_ogd</text>
<line x1="846" x2="862" y1="160" y2="160" stroke="#f28e2b" stroke-width="3"/>
<text x="868" y="164" font-size="11" font-family="Arial">residual_balance</text>
</svg>
