<svg xmlns="http://www.w3.org/2000/svg" width="980" height="470" viewBox="0 0 980 470" role="img" aria-label="Tv Denoising Dual Norm Trajectories, Seed 0">
<title>Tv Denoising Dual Norm Trajectories, Seed 0</title>
<rect width="980" height="470" fill="#ffffff"/>
<text x="78" y="28" font-size="20" font-family="Arial" font-weight="700">Tv Denoising Dual Norm Trajectories, Seed 0</text>
<text x="453.0" y="458" text-anchor="middle" font-size="12" font-family="Arial">ADMM iteration</text>
<text x="18" y="232.0" transform="rotate(-90 18 232.0)" font-size="12" font-family="Arial">dual residual</text>
<line x1="78" x2="828" y1="408.00" y2="408.00" stroke="#e5e7eb"/>
<text x="70" y="412.00" text-anchor="end" font-size="11" font-family="Arial" fill="#4b5563">1e-12</text>
<line x1="78" x2="828" y1="320.00" y2="320.00" stroke="#e5e7eb"/>
<text x="70" y="324.00" text-anchor="end" font-size="11" font-family="Arial" fill="#4b5563">1e-8</text>
<line x1="78" x2="828" y1="232.00" y2="232.00" stroke="#e5e7eb"/>
<text x="70" y="236.00" text-anchor="end" font-size="11" font-family="Arial" fill="#4b5563">1e-5</text>
<line x1="78" x2="828" y1="144.00" y2="144.00" stroke="#e5e7eb"/>
<text x="70" y="148.00" text-anchor="end" font-size="11" font-family="Arial" fill="#4b5563">1e-2</text>
<line x1="78" x2="828" y1="56.00" y2="56.00" stroke="#e5e7eb"/>
<text x="70" y="60.00" text-anchor="end" font-size="11" font-family="Arial" fill="#4b5563">1e1</text>
<line x1="78.00" x2="78.00" y1="56" y2="408" stroke="#f3f4f6"/>
<text x="78.00" y="426" text-anchor="middle" font-size="11" font-family="Arial" fill="#4b5563">1</text>
<line x1="265.50" x2="265.50" y1="56" y2="408" stroke="#f3f4f6"/>
<text x="265.50" y="426" text-anchor="middle" font-size="11" font-family="Arial" fill="#4b5563">38</text>
<line x1="453.00" x2="453.00" y1="56" y2="408" stroke="#f3f4f6"/>
<text x="453.00" y="426" text-anchor="middle" font-size="11" font-family="Arial" fill="#4b5563">75</text>
<line x1="640.50" x2="640.50" y1="56" y2="408" stroke="#f3f4f6"/>
<text x="640.50" y="426" text-anchor="middle" font-size="11" font-family="Arial" fill="#4b5563">112</text>
<line x1="828.00" x2="828.00" y1="56" y2="408" stroke="#f3f4f6"/>
<text x="828.00" y="426" text-anchor="middle" font-size="11" font-family="Arial" fill="#4b5563">150</text>
<polyline points="78.00,89.37 83.03,408.00 88.07,408.00 93.10,408.00 98.13,408.00 103.17,408.00 108.20,408.00 113.23,123.15 118.27,131.37 123.30,130.50 128.34,122.03 133.37,128.33 138.40,139.08 143.44,147.30 148.47,150.38 153.50,152.13 158.54,153.56 163.57,154.85 168.60,156.06 173.64,157.19 178.67,158.24 183.70,159.23 188.74,160.16 193.77,161.03 198.81,161.84 203.84,162.61 208.87,163.33 213.91,164.01 218.94,164.66 223.97,165.27 229.01,165.84 234.04,166.40 239.07,167.16 244.11,151.58 249.14,163.34 254.17,167.20 259.21,168.43 264.24,169.10 269.28,169.63 274.31,170.12 279.34,170.57 284.38,171.01 289.41,171.43 294.44,171.84 299.48,172.23 304.51,172.60 309.54,172.97 314.58,173.33 319.61,173.67 324.64,174.01 329.68,174.33 334.71,174.65 339.74,174.96 344.78,175.26 349.81,175.56 354.85,175.84 359.88,176.13 364.91,176.40 369.95,176.67 374.98,176.93 380.01,177.19 385.05,177.44 390.08,177.69 395.11,177.93 400.15,178.16 405.18,178.39 410.21,178.62 415.25,178.84 420.28,147.07 425.32,152.87 430.35,162.34 435.38,165.74 440.42,167.08 445.45,167.96 450.48,168.70 455.52,169.38 460.55,148.94 465.58,161.18 470.62,166.17 475.65,167.76 480.68,168.61 485.72,169.30 490.75,169.93 495.79,170.52 500.82,160.28 505.85,165.39 510.89,164.38 515.92,161.34 520.95,169.08 525.99,170.98 531.02,171.76 536.05,172.34 541.09,172.85 546.12,173.34 551.15,173.78 556.19,167.78 561.22,173.72 566.26,174.78 571.29,175.28 576.32,175.70 581.36,156.22 586.39,167.45 591.42,172.58 596.46,174.06 601.49,174.81 606.52,175.39 611.56,175.91 616.59,176.40 621.62,176.86 626.66,177.29 631.69,177.71 636.72,178.10 641.76,178.48 646.79,178.85 651.83,179.20 656.86,179.54 661.89,179.87 666.93,180.19 671.96,180.50 676.99,180.80 682.03,181.09 687.06,181.38 692.09,181.66 697.13,181.93 702.16,177.75 707.19,174.23 712.23,181.17 717.26,182.63 722.30,183.11 727.33,183.42 732.36,183.69 737.40,183.01 742.43,164.77 747.46,158.90 752.50,171.22 757.53,175.89 762.56,169.08 767.60,166.38 772.63,174.85 777.66,177.16 782.70,178.07 787.73,164.29 792.77,174.70 797.80,178.02 802.83,179.07 807.87,179.74 812.90,180.32 817.93,180.86 822.97,181.37 828.00,181.85" fill="none" stroke="#4e79a7" stroke-width="2" stroke-linejoin="round" stroke-linecap="round"><title>fixed_rho_0.1</title></polyline>
<polyline points="78.00,64.91 83.03,83.59 88.07,96.67 93.10,110.09 98.13,111.67 103.17,111.32 108.20,112.48 113.23,112.76 118.27,112.13 123.30,113.73 128.34,115.52 133.37,117.79 138.40,121.08 143.44,124.65 148.47,124.63 153.50,124.85 158.54,126.82 163.57,129.67 168.60,133.04 173.64,136.13 178.67,138.50 183.70,139.53 188.74,135.56 193.77,135.50 198.81,138.15 203.84,141.96 208.87,146.07 213.91,149.87 218.94,152.71 223.97,154.76 229.01,156.89 234.04,158.83 239.07,160.50 244.11,161.73 249.14,161.43 254.17,162.31 259.21,163.66 264.24,165.17 269.28,166.65 274.31,168.02 279.34,169.25 284.38,170.37 289.41,171.42 294.44,172.41 299.48,173.38 304.51,174.32 309.54,175.25 314.58,176.18 319.61,177.09 324.64,178.00 329.68,178.90 334.71,179.80 339.74,180.69 344.78,181.57 349.81,182.45 354.85,183.32 359.88,184.19 364.91,185.05 369.95,185.90 374.98,186.75 380.01,187.59 385.05,188.42 390.08,189.25 395.11,190.07 400.15,190.89 405.18,191.70 410.21,192.51 415.25,193.31 420.28,194.11 425.32,194.90 430.35,195.69 435.38,196.47 440.42,197.25 445.45,198.03 450.48,198.80 455.52,199.57 460.55,200.33 465.58,201.09 470.62,201.85 475.65,202.60 480.68,203.35 485.72,204.10 490.75,204.85 495.79,205.59 500.82,206.33 505.85,207.07 510.89,207.80 515.92,208.54 520.95,209.27 525.99,210.00 531.02,210.73" fill="none" stroke="#59a14f" stroke-width="2" stroke-linejoin="round" stroke-linecap="round"><title>fixed_rho_1.0</title></polyline>
<polyline points="78.00,60.42 83.03,61.91 88.07,62.90 93.10,63.79 98.13,65.20 103.17,66.73 108.20,68.37 113.23,69.30 118.27,70.15 123.30,71.13 128.34,73.00 133.37,74.68 138.40,76.44 143.44,78.03 148.47,79.81 153.50,81.98 158.54,83.35 163.57,85.43 168.60,87.80 173.64,89.10 178.67,89.96 183.70,92.68 188.74,93.78 193.77,94.74 198.81,95.68 203.84,96.54 208.87,97.24 213.91,97.85 218.94,99.38 223.97,104.86 229.01,107.84 234.04,110.63 239.07,113.03 244.11,114.90 249.14,116.39 254.17,117.69 259.21,118.85 264.24,119.88 269.28,120.74 274.31,121.52 279.34,122.31 284.38,123.12 289.41,123.92 294.44,124.67 299.48,125.34 304.51,125.95 309.54,126.79 314.58,127.76 319.61,128.49 324.64,129.18 329.68,129.83 334.71,130.45 339.74,131.03 344.78,131.60 349.81,132.17 354.85,132.75 359.88,133.32 364.91,133.89 369.95,134.46 374.98,135.02 380.01,135.57 385.05,136.12 390.08,136.67 395.11,137.22 400.15,137.76 405.18,138.31 410.21,138.85 415.25,139.40 420.28,139.94 425.32,140.48 430.35,141.02 435.38,141.56 440.42,142.10 445.45,142.64 450.48,143.17 455.52,143.71 460.55,144.25 465.58,144.78 470.62,145.32 475.65,145.86 480.68,146.39 485.72,146.93 490.75,147.46 495.79,148.00 500.82,148.53 505.85,149.07 510.89,149.60 515.92,150.13 520.95,150.67 525.99,151.20 531.02,151.74 536.05,152.27 541.09,152.80 546.12,153.34 551.15,153.87 556.19,154.41 561.22,154.94 566.26,155.47 571.29,156.01 576.32,156.54 581.36,157.07 586.39,157.60 591.42,158.14 596.46,158.67 601.49,159.20 606.52,159.73 611.56,160.27 616.59,160.80 621.62,161.33 626.66,161.86 631.69,162.40 636.72,162.93 641.76,163.46 646.79,163.99 651.83,164.52 656.86,165.05 661.89,165.59 666.93,166.12 671.96,166.65 676.99,167.18 682.03,167.71 687.06,168.24 692.09,168.77 697.13,169.30 702.16,169.83 707.19,170.36 712.23,170.89 717.26,171.42 722.30,171.95 727.33,172.48 732.36,173.01 737.40,173.54 742.43,174.07 747.46,174.60 752.50,175.13 757.53,175.66 762.56,176.19 767.60,176.72 772.63,177.25 777.66,177.77 782.70,178.30 787.73,178.83 792.77,179.36 797.80,179.89 802.83,180.41 807.87,180.94 812.90,181.47 817.93,182.00 822.97,182.52 828.00,183.05" fill="none" stroke="#e15759" stroke-width="2" stroke-linejoin="round" stroke-linecap="round"><title>fixed_rho_10.0</title></polyline>
<polyline points="78.00,64.91 83.03,83.59 88.07,96.67 93.10,110.08 98.13,111.65 103.17,111.29 108.20,111.82 113.23,111.49 118.27,111.01 123.30,112.19 128.34,113.57 133.37,116.22 138.40,119.49 143.44,120.88 148.47,121.69 153.50,123.55 158.54,126.27 163.57,129.61 168.60,132.51 173.64,134.92 178.67,132.25 183.70,132.57 188.74,135.17 193.77,138.90 198.81,142.89 203.84,146.58 208.87,150.04 213.91,152.87 218.94,155.14 223.97,156.69 229.01,156.75 234.04,157.49 239.07,158.67 244.11,159.91 249.14,161.29 254.17,162.70 259.21,163.88 264.24,165.06 269.28,166.26 274.31,167.28 279.34,168.35 284.38,169.49 289.41,170.50 294.44,171.58 299.48,172.73 304.51,173.75 309.54,174.84 314.58,175.99 319.61,177.03 324.64,178.12 329.68,179.27 334.71,180.31 339.74,181.41 344.78,182.55 349.81,183.61 354.85,184.70 359.88,185.85 364.91,186.91 369.95,188.01 374.98,189.16 380.01,190.23 385.05,191.34 390.08,192.49 395.11,193.56 400.15,194.68 405.18,195.84 410.21,196.93 415.25,198.05" fill="none" stroke="#76b7b2" stroke-width="2" stroke-linejoin="round" stroke-linecap="round"><title>online_ogd_epoch3</title></polyline>
<polyline points="78.00,64.91 83.03,85.02 88.07,99.74 93.10,115.26 98.13,112.56 103.17,111.03 108.20,111.51 113.23,112.78 118.27,111.07 123.30,110.40 128.34,111.20 133.37,112.50 138.40,114.97 143.44,117.07 148.47,118.17 153.50,120.10 158.54,122.81 163.57,126.03 168.60,129.63 173.64,129.79 178.67,130.21 183.70,132.65 188.74,136.05 193.77,139.81 198.81,143.83 203.84,147.68 208.87,150.72 213.91,153.17 218.94,155.01 223.97,156.36 229.01,157.45 234.04,158.45 239.07,159.42 244.11,160.40 249.14,161.37 254.17,162.37 259.21,163.39 264.24,164.45 269.28,165.55 274.31,166.70 279.34,167.88 284.38,169.09 289.41,170.32 294.44,171.57 299.48,172.84 304.51,174.13 309.54,175.42 314.58,176.74 319.61,178.06 324.64,179.41 329.68,180.76 334.71,182.13 339.74,183.52 344.78,184.92 349.81,186.32 354.85,187.74 359.88,189.17 364.91,190.60 369.95,192.03 374.98,193.47" fill="none" stroke="#b07aa1" stroke-width="2" stroke-linejoin="round" stroke-linecap="round"><title>online_ogd</title></polyline>
<polyline points="78.00,64.91 83.03,83.59 88.07,96.67 93.10,110.09 98.13,111.67 103.17,111.32 108.20,112.48 113.23,112.76 118.27,112.13 123.30,113.73 128.34,115.52 133.37,117.79 138.40,121.08 143.44,124.65 148.47,124.63 153.50,124.85 158.54,126.82 163.57,129.67 168.60,133.04 173.64,136.13 178.67,138.50 183.70,139.53 188.74,135.56 193.77,135.50 198.81,138.15 203.84,141.96 208.87,146.07 213.91,149.87 218.94,152.71 223.97,154.76 229.01,156.89 234.04,158.83 239.07,160.50 244.11,161.73 249.14,161.43 254.17,162.31 259.21,163.66 264.24,165.17 269.28,166.65 274.31,168.02 279.34,169.25 284.38,170.37 289.41,171.42 294.44,172.41 299.48,173.38 304.51,174.32 309.54,175.25 314.58,176.18 319.61,177.09 324.64,178.00 329.68,178.90 334.71,179.80 339.74,180.69 344.78,181.57 349.81,182.45 354.85,183.32 359.88,184.19 364.91,185.05 369.95,185.90 374.98,186.75 380.01,187.59 385.05,188.42 390.08,189.25 395.11,190.07 400.15,190.89 405.18,191.70 410.21,192.51 415.25,193.31 420.28,194.11 425.32,194.90 430.35,195.69 435.38,196.47 440.42,197.25 445.45,198.03 450.48,198.80 455.52,199.57 460.55,200.33 465.58,201.09 470.62,201.85 475.65,202.60 480.68,203.35 485.72,204.10 490.75,204.85 495.79,205.59 500.82,206.33 505.85,207.07 510.89,207.80 515.92,208.54 520.95,209.27 525.99,210.00 531.02,210.73" fill="none" stroke="#f28e2b" stroke-width="2" stroke-linejoin="round" stroke-linecap="round"><title>residual_balance</title></polyline>
<line x1="846" x2="862" y1="60" y2="60" stroke="#4e79a7" stroke-width="3"/>
<text x="868" y="64" font-size="11" font-family="Arial">fixed_rho_0.1</text>
<line x1="846" x2="862" y1="80" y2="80" stroke="#59a14f" stroke-width="3"/>
<text x="868" y="84" font-size="11" font-family="Arial">fixed_rho_1.0</text>
<line x1="846" x2="862" y1="100" y2="100" stroke="#e15759" stroke-width="3"/>
<text x="868" y="104" font-size="11" font-family="Arial">fixed_rho_10.0</text>
<line x1="846" x2="862" y1="120" y2="120" stroke="#76b7b2" stroke-width="3"/>
<text x="868" y="124" font-size="11" font-family="Arial">online_ogd_epoch3</text>
<line x1="846" x2="862" y1="140" y2="140" stroke="#b07aa1" stroke-width="3"/>
<text x="868" y="144" font-size="11" font-family="Arial">online_ogd</text>
<line x1="846" x2="862" y1="160" y2="160" stroke="#f28e2b" stroke-width="3"/>
<text x="868" y="164" font-size="11" font-family="Arial">residual_balance</text>
</svg>
