<svg xmlns="http://www.w3.org/2000/svg" width="980" height="470" viewBox="0 0 980 470" role="img" aria-label="Tv Denoising Objective Trajectories, Seed 0">
<title>Tv Denoising Objective Trajectories, Seed 0</title>
<rect width="980" height="470" fill="#ffffff"/>
<text x="78" y="28" font-size="20" font-family="Arial" font-weight="700">Tv Denoising Objective Trajectories, Seed 0</text>
<text x="453.0" y="458" text-anchor="middle" font-size="12" font-family="Arial">ADMM iteration</text>
<text x="18" y="232.0" transform="rotate(-90 18 232.0)" font-size="12" font-family="Arial">objective</text>
<line x1="78" x2="828" y1="408.00" y2="408.00" stroke="#e5e7eb"/>
<text x="70" y="412.00" text-anchor="end" font-size="11" font-family="Arial" fill="#4b5563">9.5e-13</text>
<line x1="78" x2="828" y1="320.00" y2="320.00" stroke="#e5e7eb"/>
<text x="70" y="324.00" text-anchor="end" font-size="11" font-family="Arial" fill="#4b5563">2.6</text>
<line x1="78" x2="828" y1="232.00" y2="232.00" stroke="#e5e7eb"/>
<text x="70" y="236.00" text-anchor="end" font-size="11" font-family="Arial" fill="#4b5563">5.1</text>
<line x1="78" x2="828" y1="144.00" y2="144.00" stroke="#e5e7eb"/>
<text x="70" y="148.00" text-anchor="end" font-size="11" font-family="Arial" fill="#4b5563">7.7</text>
<line x1="78" x2="828" y1="56.00" y2="56.00" stroke="#e5e7eb"/>
<text x="70" y="60.00" text-anchor="end" font-size="11" font-family="Arial" fill="#4b5563">10</text>
<line x1="78.00" x2="78.00" y1="56" y2="408" stroke="#f3f4f6"/>
<text x="78.00" y="426" text-anchor="middle" font-size="11" font-family="Arial" fill="#4b5563">1</text>
<line x1="265.50" x2="265.50" y1="56" y2="408" stroke="#f3f4f6"/>
<text x="265.50" y="426" text-anchor="middle" font-size="11" font-family="Arial" fill="#4b5563">38</text>
<line x1="453.00" x2="453.00" y1="56" y2="408" stroke="#f3f4f6"/>
<text x="453.00" y="426" text-anchor="middle" font-size="11" font-family="Arial" fill="#4b5563">75</text>
<line x1="640.50" x2="640.50" y1="56" y2="408" stroke="#f3f4f6"/>
<text x="640.50" y="426" text-anchor="middle" font-size="11" font-family="Arial" fill="#4b5563">112</text>
<line x1="828.00" x2="828.00" y1="56" y2="408" stroke="#f3f4f6"/>
<text x="828.00" y="426" text-anchor="middle" font-size="11" font-family="Arial" fill="#4b5563">150</text>
<polyline points="78.00,408.00 83.03,394.49 88.07,386.45 93.10,378.86 98.13,372.06 103.17,366.12 108.20,360.99 113.23,353.76 118.27,348.97 123.30,344.62 128.34,337.92 133.37,334.04 138.40,332.07 143.44,330.63 148.47,329.38 153.50,328.28 158.54,327.32 163.57,326.45 168.60,325.68 173.64,324.98 178.67,324.35 183.70,323.77 188.74,323.24 193.77,322.76 198.81,322.30 203.84,321.88 208.87,321.49 213.91,321.12 218.94,320.77 223.97,320.44 229.01,320.12 234.04,319.83 239.07,319.52 244.11,319.00 249.14,318.72 254.17,318.48 259.21,318.24 264.24,318.01 269.28,317.80 274.31,317.59 279.34,317.38 284.38,317.19 289.41,317.00 294.44,316.82 299.48,316.64 304.51,316.46 309.54,316.30 314.58,316.13 319.61,315.97 324.64,315.82 329.68,315.66 334.71,315.51 339.74,315.37 344.78,315.23 349.81,315.09 354.85,314.95 359.88,314.82 364.91,314.69 369.95,314.56 374.98,314.43 380.01,314.31 385.05,314.19 390.08,314.07 395.11,313.95 400.15,313.84 405.18,313.73 410.21,313.61 415.25,313.51 420.28,312.88 425.32,312.53 430.35,312.35 435.38,312.19 440.42,312.04 445.45,311.89 450.48,311.75 455.52,311.62 460.55,311.17 465.58,310.97 470.62,310.80 475.65,310.65 480.68,310.50 485.72,310.36 490.75,310.22 495.79,310.09 500.82,309.86 505.85,309.70 510.89,309.50 515.92,309.30 520.95,309.17 525.99,309.05 531.02,308.94 536.05,308.83 541.09,308.72 546.12,308.62 551.15,308.51 556.19,308.36 561.22,308.26 566.26,308.16 571.29,308.07 576.32,307.97 581.36,307.72 586.39,307.59 591.42,307.48 596.46,307.38 601.49,307.29 606.52,307.20 611.56,307.11 616.59,307.02 621.62,306.94 626.66,306.86 631.69,306.79 636.72,306.71 641.76,306.64 646.79,306.57 651.83,306.50 656.86,306.44 661.89,306.37 666.93,306.31 671.96,306.25 676.99,306.19 682.03,306.13 687.06,306.08 692.09,306.02 697.13,305.97 702.16,305.89 707.19,305.81 712.23,305.76 717.26,305.70 722.30,305.65 727.33,305.61 732.36,305.56 737.40,305.51 742.43,305.34 747.46,305.12 752.50,305.05 757.53,305.00 762.56,304.89 767.60,304.78 772.63,304.72 777.66,304.66 782.70,304.61 787.73,304.47 792.77,304.40 797.80,304.34 802.83,304.29 807.87,304.24 812.90,304.19 817.93,304.15 822.97,304.10 828.00,304.06" fill="none" stroke="#4e79a7" stroke-width="2" stroke-linejoin="round" stroke-linecap="round"><title>fixed_rho_0.1</title></polyline>
<polyline points="78.00,354.79 83.03,290.20 88.07,307.85 93.10,315.10 98.13,315.88 103.17,315.25 108.20,314.15 113.23,312.55 118.27,310.89 123.30,309.49 128.34,308.03 133.37,306.86 138.40,305.97 143.44,305.27 148.47,304.52 153.50,303.94 158.54,303.55 163.57,303.27 168.60,303.07 173.64,302.90 178.67,302.77 183.70,302.59 188.74,302.38 193.77,302.22 198.81,302.10 203.84,302.02 208.87,301.97 213.91,301.94 218.94,301.91 223.97,301.89 229.01,301.88 234.04,301.87 239.07,301.87 244.11,301.86 249.14,301.85 254.17,301.84 259.21,301.84 264.24,301.83 269.28,301.83 274.31,301.82 279.34,301.82 284.38,301.82 289.41,301.82 294.44,301.81 299.48,301.81 304.51,301.81 309.54,301.81 314.58,301.80 319.61,301.80 324.64,301.80 329.68,301.80 334.71,301.80 339.74,301.80 344.78,301.80 349.81,301.80 354.85,301.79 359.88,301.79 364.91,301.79 369.95,301.79 374.98,301.79 380.01,301.79 385.05,301.79 390.08,301.79 395.11,301.79 400.15,301.79 405.18,301.79 410.21,301.79 415.25,301.79 420.28,301.79 425.32,301.79 430.35,301.79 435.38,301.79 440.42,301.79 445.45,301.79 450.48,301.79 455.52,301.79 460.55,301.79 465.58,301.79 470.62,301.79 475.65,301.79 480.68,301.79 485.72,301.79 490.75,301.79 495.79,301.79 500.82,301.78 505.85,301.78 510.89,301.78 515.92,301.78 520.95,301.78 525.99,301.78 531.02,301.78" fill="none" stroke="#59a14f" stroke-width="2" stroke-linejoin="round" stroke-linecap="round"><title>fixed_rho_1.0</title></polyline>
<polyline points="78.00,72.76 83.03,113.90 88.07,151.32 93.10,182.63 98.13,207.68 103.17,226.80 108.20,241.98 113.23,255.04 118.27,265.89 123.30,274.92 128.34,281.73 133.37,286.92 138.40,290.55 143.44,293.76 148.47,295.91 153.50,297.30 158.54,298.72 163.57,299.70 168.60,300.19 173.64,300.71 178.67,301.05 183.70,301.08 188.74,301.12 193.77,301.14 198.81,301.18 203.84,301.26 208.87,301.37 213.91,301.48 218.94,301.58 223.97,301.61 229.01,301.76 234.04,301.82 239.07,301.83 244.11,301.82 249.14,301.80 254.17,301.78 259.21,301.77 264.24,301.76 269.28,301.75 274.31,301.75 279.34,301.76 284.38,301.76 289.41,301.77 294.44,301.77 299.48,301.77 304.51,301.78 309.54,301.78 314.58,301.77 319.61,301.78 324.64,301.78 329.68,301.78 334.71,301.78 339.74,301.78 344.78,301.78 349.81,301.78 354.85,301.78 359.88,301.78 364.91,301.78 369.95,301.78 374.98,301.78 380.01,301.78 385.05,301.78 390.08,301.78 395.11,301.78 400.15,301.78 405.18,301.78 410.21,301.78 415.25,301.78 420.28,301.78 425.32,301.78 430.35,301.78 435.38,301.78 440.42,301.78 445.45,301.78 450.48,301.78 455.52,301.78 460.55,301.78 465.58,301.78 470.62,301.78 475.65,301.78 480.68,301.78 485.72,301.78 490.75,301.78 495.79,301.78 500.82,301.78 505.85,301.78 510.89,301.78 515.92,301.78 520.95,301.78 525.99,301.78 531.02,301.78 536.05,301.78 541.09,301.78 546.12,301.78 551.15,301.78 556.19,301.78 561.22,301.78 566.26,301.78 571.29,301.78 576.32,301.78 581.36,301.78 586.39,301.78 591.42,301.78 596.46,301.78 601.49,301.78 606.52,301.78 611.56,301.78 616.59,301.78 621.62,301.78 626.66,301.78 631.69,301.78 636.72,301.78 641.76,301.78 646.79,301.78 651.83,301.78 656.86,301.78 661.89,301.78 666.93,301.78 671.96,301.78 676.99,301.78 682.03,301.78 687.06,301.78 692.09,301.78 697.13,301.78 702.16,301.78 707.19,301.78 712.23,301.78 717.26,301.78 722.30,301.78 727.33,301.78 732.36,301.78 737.40,301.78 742.43,301.78 747.46,301.78 752.50,301.78 757.53,301.78 762.56,301.78 767.60,301.78 772.63,301.78 777.66,301.78 782.70,301.78 787.73,301.78 792.77,301.78 797.80,301.78 802.83,301.78 807.87,301.78 812.90,301.78 817.93,301.78 822.97,301.78 828.00,301.78" fill="none" stroke="#e15759" stroke-width="2" stroke-linejoin="round" stroke-linecap="round"><title>fixed_rho_10.0</title></polyline>
<polyline points="78.00,354.79 83.03,290.20 88.07,307.85 93.10,315.10 98.13,315.88 103.17,315.25 108.20,314.08 113.23,312.37 118.27,310.69 123.30,309.19 128.34,307.59 133.37,306.41 138.40,305.52 143.44,304.60 148.47,303.92 153.50,303.48 158.54,303.17 163.57,302.94 168.60,302.76 173.64,302.56 178.67,302.31 183.70,302.16 188.74,302.04 193.77,301.96 198.81,301.91 203.84,301.88 208.87,301.87 213.91,301.86 218.94,301.86 223.97,301.85 229.01,301.84 234.04,301.83 239.07,301.83 244.11,301.82 249.14,301.82 254.17,301.82 259.21,301.81 264.24,301.81 269.28,301.81 274.31,301.80 279.34,301.80 284.38,301.80 289.41,301.80 294.44,301.80 299.48,301.80 304.51,301.79 309.54,301.79 314.58,301.79 319.61,301.79 324.64,301.79 329.68,301.79 334.71,301.79 339.74,301.79 344.78,301.79 349.81,301.79 354.85,301.79 359.88,301.79 364.91,301.79 369.95,301.79 374.98,301.79 380.01,301.79 385.05,301.79 390.08,301.79 395.11,301.78 400.15,301.78 405.18,301.78 410.21,301.78 415.25,301.78" fill="none" stroke="#76b7b2" stroke-width="2" stroke-linejoin="round" stroke-linecap="round"><title>online_ogd_epoch3</title></polyline>
<polyline points="78.00,354.79 83.03,284.08 88.07,305.34 93.10,314.69 98.13,316.62 103.17,316.09 108.20,315.01 113.23,313.73 118.27,311.87 123.30,310.24 128.34,308.54 133.37,307.02 138.40,305.82 143.44,304.71 148.47,303.89 153.50,303.40 158.54,303.06 163.57,302.78 168.60,302.55 173.64,302.28 178.67,302.09 183.70,301.98 188.74,301.90 193.77,301.86 198.81,301.85 203.84,301.84 208.87,301.84 213.91,301.83 218.94,301.83 223.97,301.83 229.01,301.83 234.04,301.82 239.07,301.82 244.11,301.81 249.14,301.81 254.17,301.81 259.21,301.80 264.24,301.80 269.28,301.80 274.31,301.80 279.34,301.79 284.38,301.79 289.41,301.79 294.44,301.79 299.48,301.79 304.51,301.79 309.54,301.79 314.58,301.79 319.61,301.79 324.64,301.79 329.68,301.79 334.71,301.79 339.74,301.79 344.78,301.79 349.81,301.79 354.85,301.78 359.88,301.78 364.91,301.78 369.95,301.78 374.98,301.78" fill="none" stroke="#b07aa1" stroke-width="2" stroke-linejoin="round" stroke-linecap="round"><title>online_ogd</title></polyline>
<polyline points="78.00,354.79 83.03,290.20 88.07,307.85 93.10,315.10 98.13,315.88 103.17,315.25 108.20,314.15 113.23,312.55 118.27,310.89 123.30,309.49 128.34,308.03 133.37,306.86 138.40,305.97 143.44,305.27 148.47,304.52 153.50,303.94 158.54,303.55 163.57,303.27 168.60,303.07 173.64,302.90 178.67,302.77 183.70,302.59 188.74,302.38 193.77,302.22 198.81,302.10 203.84,302.02 208.87,301.97 213.91,301.94 218.94,301.91 223.97,301.89 229.01,301.88 234.04,301.87 239.07,301.87 244.11,301.86 249.14,301.85 254.17,301.84 259.21,301.84 264.24,301.83 269.28,301.83 274.31,301.82 279.34,301.82 284.38,301.82 289.41,301.82 294.44,301.81 299.48,301.81 304.51,301.81 309.54,301.81 314.58,301.80 319.61,301.80 324.64,301.80 329.68,301.80 334.71,301.80 339.74,301.80 344.78,301.80 349.81,301.80 354.85,301.79 359.88,301.79 364.91,301.79 369.95,301.79 374.98,301.79 380.01,301.79 385.05,301.79 390.08,301.79 395.11,301.79 400.15,301.79 405.18,301.79 410.21,301.79 415.25,301.79 420.28,301.79 425.32,301.79 430.35,301.79 435.38,301.79 440.42,301.79 445.45,301.79 450.48,301.79 455.52,301.79 460.55,301.79 465.58,301.79 470.62,301.79 475.65,301.79 480.68,301.79 485.72,301.79 490.75,301.79 495.79,301.79 500.82,301.78 505.85,301.78 510.89,301.78 515.92,301.78 520.95,301.78 525.99,301.78 531.02,301.78" fill="none" stroke="#f28e2b" stroke-width="2" stroke-linejoin="round" stroke-linecap="round"><title>residual_balance</title></polyline>
<line x1="846" x2="862" y1="60" y2="60" stroke="#4e79a7" stroke-width="3"/>
<text x="868" y="64" font-size="11" font-family="Arial">fixed_rho_0.1</text>
<line x1="846" x2="862" y1="80" y2="80" stroke="#59a14f" stroke-width="3"/>
<text x="868" y="84" font-size="11" font-family="Arial">fixed_rho_1.0</text>
<line x1="846" x2="862" y1="100" y2="100" stroke="#e15759" stroke-width="3"/>
<text x="868" y="104" font-size="11" font-family="Arial">fixed_rho_10.0</text>
<line x1="846" x2="862" y1="120" y2="120" stroke="#76b7b2" stroke-width="3"/>
<text x="868" y="124" font-size="11" font-family="Arial">online_ogd_epoch3</text>
<line x1="846" x2="862" y1="140" y2="140" stroke="#b07aa1" stroke-width="3"/>
<text x="868" y="144" font-size="11" font-family="Arial">online_ogd</text>
<line x1="846" x2="862" y1="160" y2="160" stroke="#f28e2b" stroke-width="3"/>
<text x="868" y="164" font-size="11" font-family="Arial">residual_balance</text>
</svg>
